<svg xmlns="http://www.w3.org/2000/svg" xmlns:xlink="http://www.w3.org/1999/xlink" width="500" zoomAndPan="magnify" viewBox="0 0 375 374.999991" height="500" preserveAspectRatio="xMidYMid meet" version="1.0"><defs><clipPath id="e8694a2db5"><path d="M 53.269531 62.449219 L 311.9375 62.449219 L 311.9375 325.121094 L 53.269531 325.121094 Z M 53.269531 62.449219 " clip-rule="nonzero"/></clipPath><clipPath id="f61198bae2"><path d="M 91.152344 68.375 L 330.003906 68.375 L 330.003906 313.09375 L 91.152344 313.09375 Z M 91.152344 68.375 " clip-rule="nonzero"/></clipPath><clipPath id="e9e397d8f9"><path d="M 56 58.121094 L 328 58.121094 L 328 304 L 56 304 Z M 56 58.121094 " clip-rule="nonzero"/></clipPath></defs><rect x="-37.5" width="450" fill="#ffffff" y="-37.499999" height="449.999989" fill-opacity="1"/><rect x="-37.5" width="450" fill="#fcfcfc" y="-37.499999" height="449.999989" fill-opacity="1"/><g clip-path="url(#e8694a2db5)"><path fill="#128f8b" d="M 264.695312 270.390625 L 284.804688 273.921875 L 189.335938 325.164062 L 53.269531 275.324219 L 104.558594 252.824219 C 85.328125 229.726562 73.296875 200.441406 73.296875 170.839844 C 73.296875 105.992188 132.046875 52.734375 195.808594 64.21875 C 269.847656 77.554688 311.890625 99.832031 311.890625 164.683594 C 311.890625 203.574219 293.4375 244.140625 264.695312 270.390625 " fill-opacity="1" fill-rule="nonzero"/></g><g clip-path="url(#f61198bae2)"><path fill="#d93f0b" d="M 325.78125 123.355469 C 323.667969 120.984375 320.039062 120.777344 317.671875 122.890625 L 313.378906 126.726562 C 311.011719 128.839844 310.804688 132.472656 312.917969 134.84375 L 315.792969 138.066406 C 317.027344 139.457031 316.90625 141.585938 315.519531 142.824219 L 302.78125 154.203125 C 301.394531 155.441406 299.265625 155.320312 298.027344 153.929688 L 295.15625 150.707031 C 293.042969 148.339844 289.410156 148.128906 287.046875 150.246094 L 282.753906 154.078125 C 280.386719 156.191406 280.179688 159.828125 282.292969 162.195312 C 288.40625 169.058594 298.917969 169.65625 305.773438 163.535156 L 324.445312 146.863281 C 331.296875 140.738281 331.894531 130.214844 325.78125 123.355469 Z M 286.808594 120.101562 C 300.941406 120.101562 312.394531 108.636719 312.394531 94.488281 C 312.394531 80.34375 300.941406 68.878906 286.808594 68.878906 C 272.679688 68.878906 261.222656 80.34375 261.222656 94.488281 C 261.222656 108.636719 272.679688 120.101562 286.808594 120.101562 Z M 143.824219 140.609375 L 143.824219 126.917969 C 143.824219 125.085938 142.339844 123.601562 140.511719 123.601562 L 94.8125 123.601562 C 92.984375 123.601562 91.5 125.085938 91.5 126.917969 L 91.5 145.171875 C 91.5 147 92.984375 148.488281 94.8125 148.488281 L 151.992188 148.488281 Z M 124.953125 108.246094 C 127.371094 108.246094 129.34375 106.273438 129.34375 103.855469 C 129.34375 101.429688 127.371094 99.457031 124.953125 99.457031 C 122.53125 99.457031 120.5625 101.429688 120.5625 103.855469 C 120.5625 106.273438 122.53125 108.246094 124.953125 108.246094 Z M 111.367188 108.246094 C 113.785156 108.246094 115.757812 106.273438 115.757812 103.855469 C 115.757812 101.429688 113.785156 99.457031 111.367188 99.457031 C 108.945312 99.457031 106.976562 101.429688 106.976562 103.855469 C 106.976562 106.273438 108.945312 108.246094 111.367188 108.246094 Z M 97.78125 108.246094 C 100.203125 108.246094 102.167969 106.273438 102.167969 103.855469 C 102.167969 101.429688 100.203125 99.457031 97.78125 99.457031 C 95.359375 99.457031 93.390625 101.429688 93.390625 103.855469 C 93.390625 106.273438 95.359375 108.246094 97.78125 108.246094 Z M 285.058594 228.691406 C 284.101562 215.140625 282.335938 193.984375 280.164062 185.328125 C 276.847656 172.113281 266.394531 159.261719 266.394531 159.261719 C 266.304688 159.265625 266.21875 159.277344 266.128906 159.28125 C 265.9375 158.164062 265.605469 157.265625 265.09375 156.65625 C 260.90625 151.722656 248.777344 144.878906 240.40625 140.503906 C 235.589844 137.988281 230.4375 136.28125 225.164062 135.410156 L 222.582031 120.429688 L 205.671875 129.941406 C 205.671875 129.941406 204.863281 132.925781 204.039062 136.511719 C 203.765625 136.59375 203.492188 136.671875 203.222656 136.753906 C 196.363281 132.65625 187.402344 134.863281 182.667969 142.574219 C 178.226562 149.8125 172.9375 158.980469 167.792969 169.273438 C 160.195312 184.460938 155 197.75 152.082031 205.875 C 150.382812 210.609375 152.535156 215.863281 157.0625 218.046875 L 159.003906 218.984375 C 163.355469 221.085938 168.585938 219.710938 171.34375 215.742188 L 175.917969 209.152344 C 175.972656 209.457031 176.019531 209.765625 176.078125 210.070312 L 184.628906 256.328125 L 257.363281 269.101562 L 251.652344 234.101562 C 250.105469 224.644531 251.039062 214.949219 254.367188 205.964844 C 255.046875 204.132812 255.757812 202.171875 256.484375 200.128906 L 266.078125 236.5625 C 267.542969 242.125 273.441406 245.246094 278.859375 243.328125 C 283.359375 243.632812 287.082031 240.621094 286.792969 236.226562 C 286.699219 234.800781 285.179688 230.402344 285.058594 228.691406 Z M 117.03125 231.429688 C 114.722656 231.429688 112.667969 232.386719 111.246094 234.121094 C 109.527344 236.214844 108.902344 239.230469 109.53125 242.390625 C 110.679688 248.179688 115.742188 252.886719 120.816406 252.886719 C 123.125 252.886719 125.179688 251.933594 126.601562 250.195312 C 128.316406 248.105469 128.941406 245.085938 128.316406 241.929688 C 127.167969 236.140625 122.101562 231.429688 117.03125 231.429688 Z M 192.660156 304.675781 L 192.558594 304.671875 C 191.105469 304.671875 189.773438 306.382812 189.449219 308.652344 C 189.246094 310.109375 189.515625 311.464844 190.183594 312.273438 C 190.5625 312.734375 191.046875 312.996094 191.578125 313.027344 L 191.683594 313.027344 C 193.132812 313.027344 194.46875 311.316406 194.792969 309.050781 C 194.996094 307.589844 194.722656 306.238281 194.054688 305.425781 C 193.679688 304.964844 193.195312 304.707031 192.660156 304.675781 Z M 191.878906 274.695312 L 237.003906 283.996094 L 195.308594 300.042969 Z M 191.878906 274.695312 " fill-opacity="1" fill-rule="nonzero"/></g><path fill="#8e5b6d" d="M 223.222656 123.90625 C 224.296875 123.753906 225.347656 123.457031 226.292969 122.929688 C 227.875 122.042969 229.140625 120.445312 229.269531 118.636719 C 229.402344 116.824219 228.183594 114.90625 226.398438 114.570312 C 226.25 114.539062 226.101562 114.527344 225.949219 114.523438 C 227.832031 108.542969 229.710938 102.757812 228.183594 99.917969 C 226.421875 96.640625 213.511719 78.691406 198.421875 87.894531 C 191.949219 91.839844 188.226562 99.078125 188.371094 106.65625 C 188.328125 106.621094 188.289062 106.582031 188.242188 106.554688 C 187.414062 106.007812 186.15625 105.867188 185.546875 106.648438 C 185.195312 107.089844 185.160156 107.699219 185.183594 108.261719 C 185.292969 111.03125 186.429688 113.636719 187.550781 116.171875 C 187.984375 117.152344 188.652344 118.296875 189.722656 118.285156 C 189.777344 118.285156 189.828125 118.269531 189.878906 118.261719 C 191.980469 127.460938 196.289062 136.570312 203.171875 137.921875 C 211.871094 139.625 220.394531 131.433594 223.222656 123.90625 Z M 279.910156 242.871094 L 245.492188 265.285156 L 237.917969 274.960938 C 237.917969 274.960938 232.273438 278.355469 229.960938 279.410156 C 227.644531 280.460938 225.226562 281.828125 224.070312 281.828125 C 222.914062 281.828125 222.175781 280.039062 223.441406 278.988281 C 224.703125 277.933594 229.644531 274.960938 229.644531 274.960938 L 231.644531 273.089844 C 231.644531 273.089844 226.523438 274.335938 225.4375 274.960938 C 224.351562 275.585938 221.019531 281.089844 219.441406 281.828125 C 217.863281 282.566406 215.761719 283.09375 215.863281 281.828125 C 215.972656 280.566406 220.492188 272.355469 220.492188 272.355469 L 228.066406 265.402344 L 218.222656 272.457031 C 218.222656 272.457031 212.675781 280.601562 210.851562 281.300781 C 209.027344 282.007812 204.375 282.085938 209.246094 274.960938 C 209.246094 274.960938 212.78125 269.558594 216.113281 265.089844 L 212.210938 265.261719 L 206.828125 274.347656 C 206.429688 275.023438 205.675781 275.398438 204.898438 275.3125 C 203.53125 275.167969 202.71875 273.714844 203.308594 272.472656 L 204.664062 269.625 C 200.859375 270.433594 199.003906 267.660156 199.660156 266.488281 C 200.40625 265.152344 207.238281 264.210938 207.238281 264.210938 L 208.753906 261.019531 L 223.410156 258.972656 C 227.421875 258.109375 235.675781 255.609375 235.675781 255.609375 L 263.75 229.984375 C 274.585938 227.417969 279.332031 234.953125 281.070312 239.070312 C 281.652344 240.453125 281.164062 242.054688 279.910156 242.871094 " fill-opacity="1" fill-rule="nonzero"/><path fill="#f8a80c" d="M 192.628906 305.269531 C 191.476562 305.203125 190.316406 306.757812 190.035156 308.734375 C 189.753906 310.714844 190.464844 312.371094 191.613281 312.433594 C 192.765625 312.5 193.925781 310.945312 194.203125 308.964844 C 194.484375 306.988281 193.777344 305.332031 192.628906 305.269531 Z M 127.15625 242.160156 C 126.109375 236.890625 121.574219 232.617188 117.03125 232.617188 C 112.484375 232.617188 109.648438 236.890625 110.691406 242.160156 C 111.738281 247.429688 116.273438 251.703125 120.816406 251.703125 C 125.363281 251.703125 128.199219 247.429688 127.15625 242.160156 Z M 229.5 279.625 L 242.683594 282.375 L 242.683594 289.398438 L 192.820312 312.824219 C 191.507812 313.441406 190.003906 313.53125 188.621094 313.078125 L 78.1875 276.824219 C 76.53125 276.28125 75.28125 274.902344 74.898438 273.195312 L 55.613281 186.746094 C 55.304688 185.355469 56.054688 183.945312 57.378906 183.429688 L 63.085938 181.1875 C 63.636719 180.972656 64.238281 180.929688 64.8125 181.070312 L 179.988281 208.640625 C 182.3125 209.195312 184.054688 211.117188 184.390625 213.484375 L 192.59375 271.917969 L 203.308594 274.15625 C 203.585938 274.761719 204.15625 275.234375 204.898438 275.3125 C 205.472656 275.375 206.03125 275.1875 206.449219 274.808594 L 208.992188 275.34375 C 207.945312 276.933594 207.386719 278.148438 207.183594 279.058594 L 193.273438 276.195312 L 196.277344 298.398438 L 232.808594 284.339844 L 219.742188 281.648438 C 220.550781 281.070312 221.671875 279.621094 222.730469 278.210938 L 224.089844 278.496094 C 223.824219 278.683594 223.601562 278.851562 223.441406 278.988281 C 222.175781 280.039062 222.914062 281.828125 224.070312 281.828125 C 225.152344 281.828125 227.332031 280.636719 229.5 279.625 Z M 217.914062 277.207031 L 215.207031 276.636719 C 214.238281 277.910156 213.191406 279.207031 212.3125 280.117188 L 216.15625 280.910156 C 216.527344 279.988281 217.203125 278.601562 217.914062 277.207031 Z M 320.121094 122.464844 C 319.773438 122.074219 317.824219 123.242188 315.769531 125.078125 C 313.710938 126.917969 312.328125 128.722656 312.675781 129.113281 C 313.023438 129.503906 314.972656 128.332031 317.027344 126.496094 C 319.082031 124.65625 320.46875 122.855469 320.121094 122.464844 Z M 327.375 125.144531 C 324.527344 130.332031 319.988281 134.386719 314.511719 136.632812 L 312.917969 134.84375 C 310.804688 132.472656 311.015625 128.839844 313.378906 126.726562 L 317.671875 122.890625 C 320.039062 120.777344 323.667969 120.984375 325.78125 123.355469 Z M 286.808594 114.175781 C 297.652344 114.175781 306.476562 105.347656 306.476562 94.488281 C 306.476562 83.636719 297.652344 74.804688 286.808594 74.804688 C 275.964844 74.804688 267.144531 83.636719 267.144531 94.488281 C 267.144531 105.347656 275.964844 114.175781 286.808594 114.175781 Z M 100.496094 136.042969 C 100.496094 137.816406 101.929688 139.253906 103.703125 139.253906 C 105.472656 139.253906 106.90625 137.816406 106.90625 136.042969 C 106.90625 134.273438 105.472656 132.835938 103.703125 132.835938 C 101.929688 132.835938 100.496094 134.273438 100.496094 136.042969 Z M 114.082031 136.042969 C 114.082031 137.816406 115.515625 139.253906 117.285156 139.253906 C 119.058594 139.253906 120.492188 137.816406 120.492188 136.042969 C 120.492188 134.273438 119.058594 132.835938 117.285156 132.835938 C 115.515625 132.835938 114.082031 134.273438 114.082031 136.042969 Z M 134.078125 136.042969 C 134.078125 134.273438 132.644531 132.835938 130.875 132.835938 C 129.101562 132.835938 127.667969 134.273438 127.667969 136.042969 C 127.667969 137.816406 129.101562 139.253906 130.875 139.253906 C 132.644531 139.253906 134.078125 137.816406 134.078125 136.042969 Z M 94.578125 103.855469 C 94.578125 105.625 96.011719 107.0625 97.78125 107.0625 C 99.550781 107.0625 100.984375 105.625 100.984375 103.855469 C 100.984375 102.082031 99.550781 100.644531 97.78125 100.644531 C 96.011719 100.644531 94.578125 102.082031 94.578125 103.855469 Z M 108.160156 103.855469 C 108.160156 105.625 109.597656 107.0625 111.367188 107.0625 C 113.136719 107.0625 114.570312 105.625 114.570312 103.855469 C 114.570312 102.082031 113.136719 100.644531 111.367188 100.644531 C 109.597656 100.644531 108.160156 102.082031 108.160156 103.855469 Z M 121.746094 103.855469 C 121.746094 105.625 123.179688 107.0625 124.953125 107.0625 C 126.722656 107.0625 128.160156 105.625 128.160156 103.855469 C 128.160156 102.082031 126.722656 100.644531 124.953125 100.644531 C 123.179688 100.644531 121.746094 102.082031 121.746094 103.855469 Z M 84.828125 116.296875 L 76.660156 116.296875 L 84.828125 108.421875 L 84.828125 94.726562 C 84.828125 92.894531 86.3125 91.410156 88.144531 91.410156 L 126.390625 91.410156 C 121.609375 90.058594 116.917969 88.730469 112.347656 87.4375 C 112.53125 87.285156 112.707031 87.128906 112.890625 86.976562 C 117.984375 88.414062 123.222656 89.898438 128.574219 91.410156 L 133.839844 91.410156 C 135.347656 91.410156 136.617188 92.417969 137.019531 93.796875 C 152.613281 98.203125 168.964844 102.820312 185.238281 107.417969 C 185.199219 107.617188 185.183594 107.816406 185.183594 108.019531 C 168.972656 103.441406 152.6875 98.84375 137.140625 94.449219 C 137.148438 94.539062 137.15625 94.632812 137.15625 94.726562 L 137.15625 112.976562 C 137.15625 113.09375 137.148438 113.210938 137.136719 113.324219 C 137.136719 113.324219 137.136719 113.324219 137.136719 113.320312 C 152.484375 117.660156 168.558594 122.199219 184.570312 126.722656 C 184.390625 121.613281 188.917969 115.789062 189.121094 115.535156 C 189.128906 115.523438 189.144531 115.515625 189.152344 115.507812 C 189.148438 115.5 189.144531 115.5 189.136719 115.496094 C 188.457031 114.917969 187.800781 113.367188 187.667969 112.03125 C 187.539062 110.710938 187.96875 110.101562 188.632812 110.636719 C 188.796875 112.101562 189.019531 113.792969 189.292969 115.429688 C 189.296875 115.429688 189.300781 115.425781 189.300781 115.425781 C 189.34375 115.652344 189.386719 115.882812 189.425781 116.109375 C 188.613281 117.203125 184.910156 122.46875 185.179688 126.894531 C 188.046875 127.703125 190.914062 128.511719 193.773438 129.320312 C 193.902344 129.566406 194.03125 129.808594 194.164062 130.046875 C 191.195312 129.210938 188.21875 128.371094 185.238281 127.527344 C 185.96875 132.355469 190.722656 133.214844 190.929688 133.25 C 191.085938 133.273438 191.195312 133.429688 191.171875 133.589844 C 191.144531 133.734375 191.019531 133.835938 190.878906 133.835938 C 190.863281 133.835938 190.847656 133.835938 190.832031 133.832031 C 190.773438 133.828125 185.363281 132.867188 184.632812 127.496094 C 184.625 127.449219 184.621094 127.402344 184.617188 127.351562 C 168.554688 122.816406 152.425781 118.261719 137.019531 113.90625 C 136.617188 115.285156 135.347656 116.296875 133.839844 116.296875 Z M 220.273438 122.78125 C 220.574219 122.960938 220.925781 123.050781 221.332031 123.050781 C 221.988281 123.050781 222.789062 122.804688 223.710938 122.324219 C 224.640625 122.066406 225.574219 121.300781 226.03125 120.332031 C 226.636719 119.054688 226.1875 117.921875 225.03125 117.796875 C 223.875 117.671875 222.449219 118.601562 221.84375 119.875 C 221.339844 120.945312 221.582031 121.90625 222.351562 122.265625 C 221.597656 122.515625 220.996094 122.523438 220.582031 122.273438 C 219.792969 121.796875 219.84375 120.515625 219.84375 120.457031 C 219.855469 120.371094 220.203125 117.902344 222.777344 116.191406 C 222.945312 115.9375 223.140625 115.703125 223.363281 115.496094 C 223.433594 115.429688 223.511719 115.371094 223.585938 115.308594 C 223.5 115.203125 223.351562 115.164062 223.226562 115.234375 C 219.660156 117.089844 219.269531 120.265625 219.257812 120.398438 C 219.257812 120.402344 219.257812 120.402344 219.257812 120.40625 C 219.257812 120.410156 219.253906 120.410156 219.253906 120.414062 C 219.25 120.480469 219.164062 122.105469 220.273438 122.78125 Z M 96.707031 149.640625 C 96.378906 149.625 96.011719 149.199219 95.613281 148.488281 L 94.945312 148.488281 C 95.546875 149.613281 96.09375 150.203125 96.679688 150.230469 C 97.238281 150.257812 97.710938 149.792969 98.144531 148.816406 C 98.195312 148.699219 98.257812 148.597656 98.3125 148.488281 L 97.648438 148.488281 C 97.636719 148.519531 97.617188 148.542969 97.601562 148.574219 C 97.296875 149.273438 96.980469 149.664062 96.707031 149.640625 Z M 79.160156 151.976562 C 79.75 151.902344 80.121094 151.113281 80.394531 149.332031 C 81.398438 142.777344 85.238281 134.234375 88.128906 133.972656 C 89.117188 133.882812 89.964844 134.84375 90.644531 136.820312 C 90.941406 137.675781 91.222656 138.511719 91.5 139.328125 L 91.5 137.488281 C 91.402344 137.199219 91.304688 136.917969 91.207031 136.625 C 90.421875 134.355469 89.371094 133.269531 88.074219 133.382812 C 84.640625 133.691406 80.753906 143.070312 79.808594 149.242188 C 79.496094 151.277344 79.128906 151.382812 79.085938 151.386719 C 78.527344 151.441406 77.242188 148.429688 76.308594 146.222656 C 76.28125 146.152344 76.253906 146.085938 76.222656 146.015625 C 76.148438 146.339844 76.066406 146.660156 75.992188 146.984375 C 77.414062 150.34375 78.242188 152.082031 79.160156 151.976562 Z M 168.105469 157.832031 C 166.785156 157.867188 166.464844 159.300781 166.207031 160.453125 C 166.035156 161.214844 165.855469 162.003906 165.464844 162.136719 C 165.25 162.210938 164.800781 162.136719 163.886719 161.371094 C 162.671875 160.359375 161.785156 159.097656 161.003906 157.984375 C 159.363281 155.652344 157.949219 153.636719 154.496094 155.195312 C 153.601562 155.601562 152.660156 156.066406 151.753906 156.519531 C 147.8125 158.480469 143.738281 160.503906 142.019531 158.113281 C 141.179688 156.949219 140.984375 154.960938 140.777344 152.855469 C 140.632812 151.394531 140.476562 149.847656 140.078125 148.488281 L 139.464844 148.488281 C 139.875 149.8125 140.035156 151.371094 140.1875 152.914062 C 140.402344 155.101562 140.609375 157.167969 141.535156 158.457031 C 143.550781 161.261719 147.855469 159.121094 152.015625 157.050781 C 152.921875 156.601562 153.855469 156.136719 154.738281 155.738281 C 157.746094 154.378906 158.910156 156.035156 160.519531 158.328125 C 161.324219 159.46875 162.234375 160.765625 163.503906 161.828125 C 164.433594 162.605469 165.117188 162.878906 165.65625 162.699219 C 166.359375 162.460938 166.5625 161.546875 166.785156 160.582031 C 167.074219 159.292969 167.324219 158.445312 168.121094 158.421875 C 169.378906 158.378906 169.6875 159.003906 170.253906 160.117188 C 170.554688 160.707031 170.90625 161.394531 171.476562 162.132812 C 171.578125 161.941406 171.679688 161.746094 171.78125 161.554688 C 171.335938 160.9375 171.039062 160.355469 170.78125 159.847656 C 170.195312 158.695312 169.726562 157.800781 168.105469 157.832031 Z M 129.589844 152.59375 C 128.9375 152.761719 128.144531 152.457031 127.160156 151.667969 C 125.765625 150.546875 124.914062 149.460938 124.34375 148.488281 L 123.664062 148.488281 C 124.253906 149.582031 125.175781 150.835938 126.789062 152.128906 C 127.929688 153.046875 128.894531 153.386719 129.738281 153.167969 C 131.125 152.804688 131.835938 151.050781 132.585938 149.195312 C 132.679688 148.957031 132.777344 148.722656 132.875 148.488281 L 132.234375 148.488281 C 132.167969 148.652344 132.101562 148.8125 132.035156 148.972656 C 131.34375 150.6875 130.691406 152.304688 129.589844 152.59375 Z M 301.300781 191.457031 C 300.273438 191.597656 299.40625 192.59375 298.566406 193.550781 C 297.742188 194.496094 296.867188 195.472656 296.035156 195.4375 C 295.507812 195.414062 294.980469 195.035156 294.40625 194.269531 C 293.175781 192.617188 292.613281 190.917969 292.160156 189.554688 C 291.550781 187.722656 291.066406 186.28125 289.308594 186.621094 C 287.960938 186.882812 287.664062 189.042969 287.375 191.132812 C 287.191406 192.480469 286.960938 194.152344 286.433594 194.304688 C 286.265625 194.355469 285.847656 194.28125 284.96875 193.234375 C 283.691406 191.714844 282.761719 189.730469 281.941406 187.980469 C 281.253906 186.511719 280.621094 185.167969 279.875 184.253906 C 279.976562 184.609375 280.074219 184.96875 280.164062 185.328125 C 280.21875 185.558594 280.277344 185.804688 280.335938 186.054688 C 280.691406 186.707031 281.039062 187.453125 281.40625 188.230469 C 282.242188 190.011719 283.1875 192.035156 284.515625 193.613281 C 285.371094 194.636719 286.035156 195.035156 286.597656 194.875 C 287.496094 194.613281 287.710938 193.039062 287.960938 191.210938 C 288.210938 189.417969 288.488281 187.382812 289.417969 187.203125 C 290.621094 186.972656 290.957031 187.8125 291.597656 189.742188 C 292.0625 191.144531 292.644531 192.894531 293.933594 194.625 C 294.617188 195.539062 295.296875 196 296.011719 196.03125 C 297.144531 196.066406 298.097656 194.988281 299.007812 193.941406 C 299.777344 193.0625 300.574219 192.15625 301.378906 192.046875 C 303.546875 191.746094 304.238281 195.265625 304.25 195.308594 C 304.300781 195.550781 305.070312 199.152344 306.390625 202.324219 C 306.480469 202.015625 306.574219 201.707031 306.660156 201.398438 C 305.519531 198.414062 304.839844 195.242188 304.828125 195.195312 C 304.796875 195.023438 304.023438 191.089844 301.300781 191.457031 Z M 156.894531 193.34375 C 125.382812 184.441406 95.433594 175.972656 73.3125 169.714844 C 73.3125 169.921875 73.304688 170.125 73.304688 170.328125 C 95.4375 176.589844 125.28125 185.027344 156.667969 193.898438 C 156.746094 193.710938 156.816406 193.53125 156.894531 193.34375 Z M 251.175781 219.949219 C 251.152344 220.148438 251.140625 220.351562 251.125 220.554688 C 255.089844 221.671875 258.960938 222.761719 262.722656 223.820312 L 262.546875 223.152344 C 258.859375 222.113281 255.058594 221.042969 251.175781 219.949219 Z M 285.320312 230.171875 C 288.335938 231.023438 291.230469 231.832031 293.964844 232.601562 C 294.0625 232.421875 294.15625 232.242188 294.25 232.066406 C 291.386719 231.261719 288.351562 230.410156 285.179688 229.515625 C 285.21875 229.722656 285.265625 229.941406 285.320312 230.171875 Z M 309.980469 142.535156 C 293.003906 137.800781 263.046875 129.371094 229.027344 119.773438 C 228.960938 119.964844 228.882812 120.148438 228.792969 120.328125 C 263.019531 129.980469 293.132812 138.453125 310.09375 143.183594 C 310.058594 142.964844 310.023438 142.75 309.980469 142.535156 Z M 282.050781 156.464844 C 282.398438 156.855469 284.347656 155.683594 286.402344 153.847656 C 288.457031 152.011719 289.84375 150.207031 289.496094 149.816406 C 289.144531 149.425781 287.195312 150.597656 285.140625 152.433594 C 283.085938 154.269531 281.699219 156.074219 282.050781 156.464844 Z M 282.0625 154.820312 C 272.476562 152.125 261.675781 149.085938 250.082031 145.816406 C 249.375 145.410156 248.671875 145.003906 247.96875 144.609375 C 260.539062 148.152344 272.226562 151.441406 282.503906 154.328125 C 282.5 154.328125 282.5 154.328125 282.5 154.328125 C 282.582031 154.246094 282.664062 154.15625 282.753906 154.078125 L 287.046875 150.246094 C 289.410156 148.128906 293.042969 148.339844 295.15625 150.707031 L 296.746094 152.496094 C 294.179688 157.902344 289.542969 162.042969 283.886719 163.984375 L 282.292969 162.195312 C 280.40625 160.082031 280.375 156.96875 282.066406 154.816406 C 282.066406 154.816406 282.0625 154.820312 282.0625 154.820312 Z M 308.0625 161.492188 L 307.535156 161.960938 C 309.070312 162.386719 310.527344 162.796875 311.875 163.171875 C 311.871094 162.964844 311.871094 162.757812 311.871094 162.554688 C 310.675781 162.222656 309.398438 161.867188 308.0625 161.492188 Z M 284.476562 220.898438 C 289.328125 222.261719 293.847656 223.53125 297.96875 224.683594 C 298.054688 224.5 298.136719 224.320312 298.222656 224.136719 C 294.015625 222.960938 289.394531 221.664062 284.425781 220.269531 C 284.445312 220.480469 284.460938 220.6875 284.476562 220.898438 Z M 252.542969 211.914062 C 255.121094 212.640625 257.660156 213.355469 260.152344 214.054688 L 259.976562 213.390625 C 257.585938 212.71875 255.152344 212.03125 252.683594 211.335938 C 252.636719 211.527344 252.59375 211.71875 252.542969 211.914062 Z M 160.066406 185.816406 C 127.636719 176.65625 96.609375 167.882812 73.71875 161.40625 C 73.738281 161.207031 73.757812 161.007812 73.777344 160.804688 C 96.648438 167.277344 127.769531 176.074219 160.304688 185.265625 C 160.222656 185.453125 160.144531 185.632812 160.066406 185.816406 " fill-opacity="1" fill-rule="nonzero"/><g clip-path="url(#e9e397d8f9)"><path fill="#393a3f" d="M 299.523438 156.8125 C 299.164062 156.683594 298.8125 156.558594 298.46875 156.417969 C 298.125 156.269531 297.785156 156.125 297.457031 155.953125 C 296.828125 155.628906 296.226562 155.257812 295.761719 154.726562 L 295.871094 154.550781 L 296.390625 153.558594 L 296.625 153.054688 L 296.738281 152.800781 L 296.792969 152.671875 L 296.820312 152.605469 L 296.835938 152.578125 L 296.84375 152.5625 L 296.847656 152.550781 L 296.851562 152.550781 C 296.804688 152.527344 296.953125 152.59375 296.746094 152.496094 C 296.542969 152.402344 296.691406 152.46875 296.644531 152.453125 L 296.640625 152.453125 L 296.613281 152.507812 L 296.578125 152.566406 L 296.511719 152.6875 L 296.375 152.925781 L 296.109375 153.40625 L 295.53125 154.34375 L 294.917969 155.253906 L 294.261719 156.132812 C 293.363281 157.28125 292.375 158.359375 291.277344 159.320312 C 290.199219 160.296875 289.015625 161.15625 287.769531 161.914062 L 286.820312 162.460938 L 285.847656 162.964844 L 284.855469 163.433594 L 284.09375 163.75 L 283.90625 163.832031 L 283.859375 163.851562 L 283.851562 163.855469 L 283.847656 163.855469 C 283.863281 163.914062 283.800781 163.730469 283.886719 163.984375 C 283.972656 164.238281 283.914062 164.054688 283.933594 164.109375 L 283.9375 164.109375 L 283.945312 164.105469 L 283.960938 164.101562 L 283.992188 164.089844 L 284.195312 164.027344 L 284.457031 163.941406 L 284.988281 163.765625 L 286.027344 163.359375 L 287.042969 162.886719 L 288.035156 162.367188 C 289.335938 161.632812 290.550781 160.746094 291.671875 159.757812 C 292.777344 158.753906 293.792969 157.644531 294.664062 156.429688 L 295.292969 155.503906 L 295.601562 154.992188 C 295.746094 155.292969 295.960938 155.558594 296.199219 155.785156 C 296.492188 156.070312 296.835938 156.289062 297.1875 156.480469 C 297.542969 156.664062 297.914062 156.816406 298.300781 156.914062 C 298.6875 157.015625 299.082031 157.085938 299.480469 157.078125 C 299.535156 157.074219 299.589844 157.039062 299.609375 156.984375 C 299.632812 156.914062 299.59375 156.835938 299.523438 156.8125 Z M 318.226562 137.003906 C 317.929688 136.75 317.617188 136.535156 317.285156 136.355469 C 317.246094 136.332031 317.195312 136.335938 317.15625 136.367188 C 317.109375 136.40625 317.101562 136.480469 317.140625 136.527344 C 317.378906 136.820312 317.640625 137.085938 317.875 137.359375 C 318.105469 137.636719 318.328125 137.90625 318.496094 138.203125 C 318.667969 138.488281 318.785156 138.808594 318.851562 139.132812 C 318.914062 139.457031 318.910156 139.792969 318.8125 140.128906 L 318.8125 140.132812 C 318.800781 140.183594 318.816406 140.242188 318.863281 140.277344 C 318.921875 140.324219 319.003906 140.3125 319.050781 140.25 C 319.304688 139.921875 319.398438 139.484375 319.371094 139.070312 C 319.351562 138.65625 319.214844 138.253906 319.003906 137.898438 C 318.789062 137.550781 318.523438 137.25 318.226562 137.003906 Z M 327.375 125.144531 C 327.175781 125.035156 327.316406 125.117188 327.273438 125.09375 L 327.269531 125.09375 L 327.257812 125.117188 L 327.238281 125.144531 L 327.128906 125.320312 L 326.980469 125.550781 L 326.6875 126.011719 L 326.070312 126.914062 L 325.425781 127.792969 L 324.75 128.644531 C 323.820312 129.761719 322.824219 130.820312 321.730469 131.769531 C 320.660156 132.746094 319.496094 133.617188 318.277344 134.40625 L 317.355469 134.984375 L 316.410156 135.519531 L 315.445312 136.03125 L 314.953125 136.265625 L 314.585938 136.445312 L 314.46875 136.503906 L 314.464844 136.507812 C 314.488281 136.5625 314.410156 136.382812 314.511719 136.632812 C 314.613281 136.878906 314.542969 136.699219 314.566406 136.753906 L 314.570312 136.75 L 314.578125 136.75 L 314.59375 136.746094 L 314.625 136.730469 L 314.691406 136.707031 L 315.078125 136.558594 L 315.59375 136.355469 L 316.605469 135.90625 L 317.59375 135.398438 L 318.558594 134.851562 C 319.824219 134.085938 321.011719 133.191406 322.125 132.210938 C 323.21875 131.214844 324.242188 130.132812 325.140625 128.957031 L 325.792969 128.058594 L 326.402344 127.132812 L 326.960938 126.179688 L 327.347656 125.441406 L 327.410156 125.320312 L 327.46875 125.203125 L 327.472656 125.203125 C 327.429688 125.175781 327.570312 125.253906 327.375 125.144531 Z M 286.808594 80.445312 C 286.644531 80.445312 286.511719 80.582031 286.511719 80.742188 L 286.511719 95.085938 C 286.511719 95.167969 286.550781 95.253906 286.617188 95.308594 L 292.992188 100.757812 C 293.046875 100.804688 293.117188 100.832031 293.183594 100.832031 C 293.269531 100.832031 293.351562 100.792969 293.410156 100.726562 C 293.519531 100.601562 293.5 100.414062 293.375 100.308594 L 287.105469 94.949219 L 287.105469 80.742188 C 287.105469 80.582031 286.972656 80.445312 286.808594 80.445312 Z M 297.566406 77.597656 C 295.476562 76.453125 293.183594 75.6875 290.824219 75.347656 C 286.117188 74.664062 281.140625 75.675781 277.152344 78.328125 C 273.15625 80.9375 270.144531 85.007812 268.847656 89.601562 C 267.5 94.183594 267.972656 99.238281 270 103.535156 C 272.027344 107.835938 275.621094 111.398438 279.996094 113.273438 C 282.175781 114.214844 284.523438 114.757812 286.886719 114.871094 C 289.25 115.039062 291.636719 114.695312 293.886719 113.984375 C 293.949219 113.964844 293.980469 113.902344 293.960938 113.84375 C 293.941406 113.785156 293.882812 113.75 293.820312 113.769531 C 291.585938 114.445312 289.230469 114.75 286.90625 114.558594 C 284.578125 114.414062 282.28125 113.859375 280.15625 112.910156 C 275.882812 111.046875 272.378906 107.546875 270.417969 103.335938 C 268.460938 99.132812 268.019531 94.203125 269.351562 89.746094 C 270.636719 85.28125 273.585938 81.335938 277.472656 78.820312 C 281.335938 76.242188 286.164062 75.234375 290.746094 75.886719 C 293.042969 76.203125 295.28125 76.941406 297.316406 78.050781 C 299.359375 79.160156 301.179688 80.660156 302.699219 82.417969 C 305.746094 85.925781 307.445312 90.554688 307.441406 95.214844 C 307.464844 99.875 305.710938 104.515625 302.621094 108.027344 C 302.574219 108.082031 302.578125 108.167969 302.632812 108.214844 C 302.6875 108.265625 302.773438 108.261719 302.820312 108.207031 C 305.992188 104.683594 307.84375 99.980469 307.875 95.214844 C 307.902344 90.453125 306.179688 85.707031 303.066406 82.097656 C 301.519531 80.292969 299.65625 78.746094 297.566406 77.597656 Z M 124.351562 124.527344 L 105.941406 124.5 L 96.734375 124.5 C 95.925781 124.472656 95.0625 124.726562 94.414062 125.242188 C 93.753906 125.75 93.261719 126.484375 93.085938 127.300781 C 92.992188 127.707031 92.992188 128.140625 92.996094 128.507812 L 93 129.664062 L 93 131.964844 L 93.019531 141.179688 L 93.027344 145.789062 L 93.027344 146.363281 C 93.035156 146.570312 93.046875 146.777344 93.085938 146.976562 C 93.160156 147.386719 93.300781 147.777344 93.507812 148.136719 C 93.917969 148.851562 94.585938 149.410156 95.363281 149.691406 C 95.75 149.835938 96.15625 149.910156 96.570312 149.914062 L 97.722656 149.914062 L 100.023438 149.90625 L 104.625 149.902344 L 113.828125 149.890625 L 150.652344 149.789062 C 150.710938 149.789062 150.761719 149.738281 150.761719 149.675781 C 150.765625 149.613281 150.714844 149.5625 150.652344 149.5625 L 113.828125 149.457031 L 104.625 149.445312 L 100.023438 149.4375 L 97.722656 149.4375 L 96.570312 149.433594 C 96.214844 149.429688 95.863281 149.363281 95.527344 149.238281 C 94.863281 148.992188 94.28125 148.511719 93.933594 147.890625 C 93.757812 147.578125 93.636719 147.242188 93.574219 146.890625 C 93.539062 146.71875 93.53125 146.539062 93.523438 146.363281 L 93.527344 145.789062 L 93.535156 141.179688 L 93.550781 131.964844 L 93.554688 129.664062 L 93.554688 128.507812 C 93.554688 128.113281 93.554688 127.769531 93.636719 127.425781 C 93.9375 126.039062 95.292969 124.988281 96.734375 125.078125 L 105.941406 125.074219 L 124.351562 125.050781 L 138.15625 125.027344 L 140.460938 125.023438 L 141.609375 125.023438 C 141.996094 125.027344 142.382812 125.003906 142.726562 125.054688 C 144.15625 125.226562 145.34375 126.539062 145.367188 127.984375 L 145.382812 132.582031 L 145.417969 141.796875 C 145.417969 141.84375 145.433594 141.894531 145.472656 141.933594 L 151.628906 147.792969 C 151.683594 147.847656 151.765625 147.84375 151.816406 147.792969 C 151.871094 147.738281 151.867188 147.652344 151.816406 147.601562 L 145.785156 141.71875 L 145.824219 132.582031 L 145.824219 127.964844 C 145.796875 126.304688 144.445312 124.792969 142.789062 124.59375 C 142.375 124.53125 141.988281 124.554688 141.609375 124.550781 L 140.460938 124.550781 L 138.15625 124.546875 L 133.554688 124.539062 Z M 75.476562 117.761719 L 96.929688 117.761719 L 118.386719 117.734375 L 129.113281 117.71875 L 131.796875 117.714844 C 132.246094 117.707031 132.679688 117.738281 133.167969 117.671875 C 133.640625 117.601562 134.097656 117.4375 134.503906 117.183594 C 135.320312 116.6875 135.921875 115.84375 136.113281 114.90625 C 136.160156 114.671875 136.1875 114.433594 136.191406 114.195312 L 136.195312 113.523438 L 136.191406 112.179688 L 136.148438 101.441406 L 136.125 96.074219 C 136.15625 95.148438 135.8125 94.191406 135.15625 93.523438 C 134.515625 92.847656 133.585938 92.449219 132.65625 92.460938 C 132.582031 92.460938 132.519531 92.523438 132.523438 92.597656 C 132.523438 92.667969 132.578125 92.730469 132.65625 92.730469 C 133.515625 92.726562 134.363281 93.101562 134.949219 93.726562 C 135.542969 94.351562 135.847656 95.203125 135.8125 96.074219 L 135.789062 101.441406 L 135.75 112.179688 L 135.746094 113.523438 L 135.746094 114.191406 C 135.742188 114.402344 135.71875 114.609375 135.675781 114.8125 C 135.503906 115.632812 134.980469 116.363281 134.265625 116.796875 C 133.910156 117.011719 133.515625 117.15625 133.101562 117.214844 C 132.703125 117.273438 132.242188 117.246094 131.796875 117.25 L 129.113281 117.246094 L 118.386719 117.230469 L 96.929688 117.199219 L 76.164062 117.203125 L 83.824219 109.792969 C 83.875 109.746094 83.902344 109.679688 83.902344 109.605469 L 83.878906 96.035156 C 83.835938 94.964844 84.375 93.929688 85.253906 93.339844 C 85.695312 93.054688 86.203125 92.867188 86.730469 92.835938 C 87.261719 92.8125 87.851562 92.828125 88.40625 92.820312 L 95.183594 92.808594 L 122.292969 92.707031 C 122.355469 92.707031 122.410156 92.660156 122.410156 92.597656 C 122.410156 92.535156 122.355469 92.480469 122.292969 92.480469 L 95.183594 92.378906 L 88.40625 92.367188 C 87.835938 92.375 87.296875 92.355469 86.695312 92.378906 C 86.09375 92.414062 85.507812 92.628906 85 92.953125 C 83.988281 93.617188 83.359375 94.835938 83.40625 96.035156 L 83.386719 109.496094 L 75.285156 117.28125 C 75.230469 117.332031 75.199219 117.402344 75.199219 117.484375 C 75.199219 117.636719 75.324219 117.761719 75.476562 117.761719 Z M 180.964844 94.101562 C 181.738281 95.730469 183.179688 96.6875 184.949219 96.910156 C 183.851562 98.289062 183.554688 100.285156 184.214844 101.875 C 184.570312 102.734375 185.371094 103.542969 186.300781 104.121094 C 185.738281 104.757812 185.386719 105.640625 185.386719 106.617188 C 185.386719 108.546875 186.746094 110.109375 188.425781 110.109375 C 188.476562 110.109375 188.523438 110.097656 188.570312 110.09375 C 188.472656 109.015625 188.40625 107.96875 188.371094 106.976562 C 188.363281 106.761719 188.367188 106.546875 188.367188 106.332031 C 188.433594 106.335938 188.496094 106.351562 188.566406 106.351562 C 189.652344 106.351562 190.679688 105.496094 191.195312 104.292969 C 191.332031 104.007812 191.433594 103.6875 191.5 103.355469 C 191.578125 103.359375 191.652344 103.378906 191.730469 103.378906 C 193.308594 103.378906 194.585938 102.097656 194.585938 100.519531 C 194.585938 100.328125 194.566406 100.140625 194.527344 99.957031 C 196.285156 100.011719 198.355469 99.125 198.925781 97.457031 C 199.671875 98.261719 200.828125 98.632812 201.914062 98.421875 C 203.003906 98.207031 204.273438 97.660156 204.738281 96.625 C 206.160156 98.25 209.558594 99.683594 211.460938 98.550781 C 210.449219 101.539062 211.433594 104.46875 214.398438 105.101562 C 215.308594 107.273438 217.253906 108.679688 219.511719 109.210938 C 218.253906 111.023438 220.289062 114.746094 222.148438 115.746094 C 222.375 115.875 222.621094 115.972656 222.871094 116.054688 C 223.019531 115.851562 223.179688 115.664062 223.363281 115.496094 C 224.167969 114.746094 225.320312 114.363281 226.398438 114.570312 C 226.949219 114.675781 227.445312 114.929688 227.867188 115.285156 C 228.816406 114.703125 229.617188 113.898438 230.050781 112.933594 C 232.875 112.507812 235.628906 108.9375 235.96875 106.03125 C 237.753906 106.609375 239.910156 105.886719 241.078125 104.3125 C 242.246094 102.738281 242.441406 100.324219 241.398438 98.738281 C 242.460938 97.65625 242.921875 95.996094 242.5625 94.546875 C 242.203125 93.097656 240.886719 92.527344 239.46875 92.171875 C 240.746094 89.53125 239.765625 85.398438 237.671875 83.519531 C 238.707031 81.980469 238.964844 79.933594 238.347656 78.230469 C 237.722656 76.527344 236.289062 75.296875 234.550781 74.90625 C 234.894531 73.410156 234.519531 71.78125 233.566406 70.640625 C 232.613281 69.503906 231.054688 69.183594 229.570312 69.316406 C 230.175781 67.390625 227.855469 65.035156 225.90625 64.992188 C 224.957031 61.695312 220.597656 60.28125 217.453125 61.671875 C 216.816406 60.589844 216.132812 59.453125 215.035156 58.867188 C 213.941406 58.277344 211.5625 58.980469 210.964844 60.132812 C 210.097656 58.859375 208.515625 58.144531 206.980469 58.332031 C 205.445312 58.515625 203.851562 58.863281 203.199219 60.320312 C 201.230469 59.402344 198.445312 59.761719 196.765625 61.277344 C 194.179688 61.710938 192.207031 64.675781 192.792969 67.257812 C 190.203125 67.109375 188.433594 69.277344 187.199219 71.667969 C 185.734375 71.589844 184.421875 72.882812 183.941406 74.328125 C 183.453125 75.765625 183.949219 77.445312 184.105469 78.9375 C 182.125 78.949219 180.507812 80.90625 180.117188 82.910156 C 179.726562 84.914062 180.621094 86.847656 181.144531 88.789062 C 180.257812 90.417969 180.1875 92.46875 180.964844 94.101562 Z M 190.546875 303.175781 L 176.234375 298.65625 L 161.910156 294.191406 L 133.257812 285.261719 L 104.570312 276.445312 L 90.226562 272.035156 L 75.863281 267.679688 C 75.804688 267.660156 75.742188 267.695312 75.726562 267.753906 C 75.707031 267.8125 75.738281 267.875 75.800781 267.894531 L 90.105469 272.417969 L 104.429688 276.886719 L 133.082031 285.828125 L 161.765625 294.65625 L 176.109375 299.070312 L 190.46875 303.429688 C 190.539062 303.449219 190.609375 303.410156 190.632812 303.34375 C 190.65625 303.273438 190.617188 303.195312 190.546875 303.175781 Z M 242.628906 282.25 L 192.78125 302.972656 L 180.304688 216.285156 C 180.289062 216.175781 180.207031 216.078125 180.09375 216.046875 L 56.910156 183.515625 C 56.851562 183.496094 56.789062 183.53125 56.773438 183.59375 C 56.753906 183.652344 56.792969 183.714844 56.851562 183.730469 L 179.761719 216.558594 L 192.363281 303.335938 C 192.367188 303.355469 192.371094 303.375 192.378906 303.394531 C 192.429688 303.511719 192.566406 303.570312 192.683594 303.519531 L 242.734375 282.5 C 242.800781 282.472656 242.835938 282.390625 242.804688 282.324219 C 242.777344 282.253906 242.699219 282.222656 242.628906 282.25 Z M 213.6875 210.390625 C 213.753906 210.351562 213.773438 210.269531 213.734375 210.207031 C 212.660156 208.402344 211.675781 206.554688 210.78125 204.664062 C 209.886719 202.773438 209.078125 200.839844 208.386719 198.863281 C 207.671875 196.898438 207.085938 194.886719 206.585938 192.855469 C 206.089844 190.820312 205.6875 188.765625 205.386719 186.683594 C 205.378906 186.628906 205.328125 186.582031 205.269531 186.589844 C 205.207031 186.59375 205.160156 186.648438 205.164062 186.710938 C 205.335938 188.8125 205.648438 190.90625 206.101562 192.96875 C 206.546875 195.035156 207.140625 197.0625 207.832031 199.0625 C 208.542969 201.050781 209.359375 203.003906 210.308594 204.890625 C 211.253906 206.78125 212.324219 208.605469 213.511719 210.351562 C 213.550781 210.40625 213.628906 210.425781 213.6875 210.390625 Z M 233.09375 271.128906 C 232.90625 271.234375 232.75 271.367188 232.597656 271.507812 C 232.445312 271.648438 232.3125 271.808594 232.183594 271.972656 C 232.0625 272.140625 231.945312 272.308594 231.855469 272.496094 C 231.757812 272.679688 231.671875 272.871094 231.621094 273.082031 C 231.609375 273.113281 231.617188 273.148438 231.640625 273.179688 C 231.679688 273.234375 231.753906 273.246094 231.808594 273.203125 C 231.980469 273.074219 232.121094 272.933594 232.261719 272.785156 C 232.402344 272.644531 232.527344 272.484375 232.652344 272.332031 C 232.773438 272.171875 232.894531 272.015625 233 271.84375 C 233.105469 271.671875 233.214844 271.503906 233.292969 271.304688 C 233.308594 271.265625 233.308594 271.222656 233.289062 271.183594 C 233.25 271.113281 233.164062 271.085938 233.09375 271.128906 Z M 204.753906 269.894531 C 205.035156 269.4375 205.285156 268.964844 205.53125 268.488281 C 205.777344 268.015625 206 267.527344 206.222656 267.042969 C 206.4375 266.554688 206.648438 266.066406 206.839844 265.566406 C 207.03125 265.066406 207.222656 264.566406 207.375 264.050781 C 207.386719 264 207.371094 263.949219 207.324219 263.917969 C 207.273438 263.886719 207.203125 263.902344 207.167969 263.957031 C 206.882812 264.414062 206.632812 264.882812 206.386719 265.359375 C 206.132812 265.832031 205.910156 266.316406 205.683594 266.800781 C 205.460938 267.285156 205.246094 267.773438 205.054688 268.269531 C 204.855469 268.769531 204.664062 269.269531 204.507812 269.78125 C 204.492188 269.839844 204.515625 269.90625 204.566406 269.9375 C 204.628906 269.976562 204.714844 269.957031 204.753906 269.894531 Z M 212.359375 263.355469 C 212.292969 263.339844 212.226562 263.378906 212.210938 263.449219 L 212.210938 263.453125 C 212.171875 263.613281 212.152344 263.761719 212.128906 263.90625 L 212.058594 264.328125 L 211.988281 264.746094 C 211.964844 264.890625 211.9375 265.03125 211.921875 265.195312 L 211.921875 265.203125 C 211.917969 265.238281 211.925781 265.273438 211.949219 265.304688 C 212 265.367188 212.089844 265.378906 212.152344 265.332031 C 212.300781 265.222656 212.402344 265.074219 212.480469 264.917969 C 212.566406 264.761719 212.613281 264.589844 212.640625 264.417969 C 212.664062 264.242188 212.667969 264.0625 212.628906 263.890625 C 212.59375 263.71875 212.539062 263.550781 212.429688 263.402344 C 212.414062 263.378906 212.390625 263.363281 212.359375 263.355469 Z M 216.441406 265.164062 C 216.9375 264.574219 217.40625 263.972656 217.914062 263.425781 C 218.425781 262.875 218.964844 262.363281 219.59375 262 C 220.203125 261.613281 220.90625 261.386719 221.636719 261.230469 C 222.363281 261.074219 223.117188 260.996094 223.878906 260.882812 C 223.941406 260.875 223.988281 260.820312 223.992188 260.753906 C 223.996094 260.679688 223.9375 260.617188 223.863281 260.613281 C 223.09375 260.589844 222.320312 260.601562 221.542969 260.71875 C 220.765625 260.828125 219.984375 261.078125 219.285156 261.496094 C 218.605469 261.925781 218.023438 262.484375 217.535156 263.097656 C 217.046875 263.710938 216.632812 264.363281 216.257812 265.035156 C 216.230469 265.082031 216.238281 265.140625 216.285156 265.175781 C 216.332031 265.21875 216.402344 265.210938 216.441406 265.164062 Z M 230.285156 264.652344 C 230.023438 264.777344 229.785156 264.941406 229.558594 265.117188 C 229.339844 265.304688 229.128906 265.507812 228.957031 265.738281 C 228.78125 265.96875 228.625 266.210938 228.519531 266.480469 C 228.503906 266.519531 228.511719 266.566406 228.539062 266.601562 C 228.582031 266.652344 228.65625 266.65625 228.703125 266.613281 L 229.320312 266.082031 C 229.527344 265.914062 229.722656 265.742188 229.929688 265.578125 C 230.132812 265.414062 230.347656 265.261719 230.558594 265.101562 C 230.765625 264.941406 230.988281 264.792969 231.207031 264.621094 C 231.246094 264.589844 231.269531 264.539062 231.257812 264.488281 C 231.246094 264.414062 231.179688 264.363281 231.101562 264.375 C 230.816406 264.421875 230.546875 264.527344 230.285156 264.652344 Z M 184.5 167.835938 C 184.683594 168.0625 184.886719 168.277344 185.128906 168.441406 C 185.171875 168.46875 185.226562 168.472656 185.273438 168.449219 C 185.339844 168.410156 185.363281 168.328125 185.328125 168.261719 L 184.9375 167.546875 C 184.816406 167.308594 184.691406 167.078125 184.582031 166.835938 C 184.464844 166.601562 184.367188 166.355469 184.257812 166.109375 L 183.957031 165.347656 C 183.945312 165.308594 183.90625 165.28125 183.863281 165.273438 C 183.800781 165.269531 183.742188 165.3125 183.734375 165.375 C 183.703125 165.667969 183.726562 165.960938 183.78125 166.25 C 183.828125 166.539062 183.925781 166.816406 184.042969 167.085938 C 184.167969 167.351562 184.316406 167.609375 184.5 167.835938 Z M 218.105469 151.890625 C 218.140625 151.832031 218.132812 151.761719 218.082031 151.714844 C 218.027344 151.664062 217.941406 151.671875 217.894531 151.726562 C 217.179688 152.550781 216.378906 153.28125 215.496094 153.898438 C 214.613281 154.515625 213.664062 155.03125 212.65625 155.410156 C 211.660156 155.808594 210.609375 156.0625 209.542969 156.203125 C 208.472656 156.339844 207.386719 156.335938 206.304688 156.203125 C 206.25 156.199219 206.195312 156.234375 206.179688 156.289062 C 206.164062 156.351562 206.203125 156.414062 206.261719 156.425781 C 207.339844 156.703125 208.472656 156.78125 209.59375 156.699219 C 210.710938 156.617188 211.816406 156.351562 212.871094 155.960938 C 213.914062 155.546875 214.914062 155.007812 215.804688 154.320312 C 216.695312 153.632812 217.488281 152.820312 218.105469 151.890625 Z M 267.894531 224.355469 C 268.199219 224.210938 268.492188 224.074219 268.792969 223.960938 C 269.089844 223.855469 269.390625 223.757812 269.699219 223.691406 C 270.007812 223.617188 270.320312 223.574219 270.636719 223.539062 C 270.953125 223.511719 271.273438 223.507812 271.605469 223.507812 C 271.660156 223.507812 271.710938 223.472656 271.730469 223.421875 C 271.761719 223.351562 271.730469 223.273438 271.660156 223.242188 C 271.335938 223.101562 270.984375 223.035156 270.628906 223.019531 C 270.269531 222.996094 269.914062 223.035156 269.566406 223.113281 C 269.21875 223.203125 268.882812 223.328125 268.574219 223.511719 C 268.269531 223.6875 267.984375 223.90625 267.757812 224.175781 C 267.730469 224.210938 267.71875 224.261719 267.742188 224.300781 C 267.773438 224.359375 267.839844 224.382812 267.894531 224.355469 Z M 270.558594 224.574219 C 269.613281 224.699219 268.707031 225.023438 267.886719 225.488281 C 267.0625 225.949219 266.304688 226.515625 265.625 227.164062 C 265.296875 227.472656 264.996094 227.808594 264.714844 228.160156 C 264.808594 227.703125 264.945312 227.257812 265.132812 226.835938 C 265.515625 225.976562 266.125 225.207031 266.972656 224.769531 C 267.035156 224.734375 267.0625 224.660156 267.039062 224.597656 C 267.011719 224.527344 266.933594 224.496094 266.863281 224.523438 C 265.90625 224.902344 265.148438 225.714844 264.703125 226.628906 C 264.277344 227.476562 264.0625 228.410156 264.015625 229.351562 C 264.003906 229.40625 263.996094 229.476562 264.003906 229.5625 C 264.003906 229.574219 264 229.578125 264 229.589844 L 264.003906 229.589844 C 264.003906 229.617188 264.003906 229.636719 264.007812 229.667969 C 264.03125 229.796875 264.144531 229.898438 264.28125 229.902344 C 264.433594 229.902344 264.5625 229.78125 264.566406 229.625 L 264.566406 229.597656 C 264.566406 229.558594 264.570312 229.523438 264.570312 229.484375 C 264.578125 229.449219 264.59375 229.40625 264.609375 229.375 C 264.648438 229.285156 264.699219 229.191406 264.75 229.101562 C 264.863281 228.921875 264.992188 228.746094 265.128906 228.570312 C 265.402344 228.226562 265.710938 227.898438 266.027344 227.585938 C 266.667969 226.960938 267.378906 226.402344 268.152344 225.953125 C 268.921875 225.511719 269.746094 225.148438 270.621094 224.996094 C 271.488281 224.839844 272.398438 224.886719 273.25 225.183594 C 273.304688 225.203125 273.363281 225.175781 273.390625 225.125 C 273.414062 225.066406 273.390625 225 273.332031 224.972656 C 272.480469 224.582031 271.5 224.449219 270.558594 224.574219 Z M 256.519531 200.515625 C 256.382812 200.015625 256.230469 199.515625 256.058594 199.023438 C 255.882812 198.53125 255.703125 198.042969 255.476562 197.566406 C 255.457031 197.523438 255.40625 197.496094 255.359375 197.5 C 255.296875 197.507812 255.25 197.566406 255.261719 197.628906 C 255.324219 198.152344 255.433594 198.664062 255.546875 199.171875 C 255.636719 199.550781 255.746094 199.925781 255.855469 200.300781 C 255.640625 200.300781 255.4375 200.304688 255.238281 200.296875 C 254.925781 200.273438 254.636719 200.199219 254.363281 200.023438 C 254.316406 199.996094 254.25 199.996094 254.203125 200.035156 C 254.144531 200.078125 254.136719 200.164062 254.183594 200.226562 C 254.421875 200.519531 254.800781 200.714844 255.171875 200.777344 C 255.539062 200.859375 255.890625 200.863281 256.21875 200.890625 C 256.253906 200.890625 256.285156 200.890625 256.320312 200.878906 C 256.472656 200.839844 256.5625 200.679688 256.523438 200.527344 Z M 264.984375 156.832031 C 265 156.769531 264.960938 156.707031 264.898438 156.695312 C 264.023438 156.503906 263.089844 156.605469 262.238281 156.902344 C 261.382812 157.195312 260.609375 157.6875 259.929688 158.277344 C 259.265625 158.886719 258.699219 159.582031 258.226562 160.332031 C 257.753906 161.082031 257.363281 161.867188 257.03125 162.679688 C 257.007812 162.738281 257.027344 162.808594 257.085938 162.84375 C 257.148438 162.882812 257.230469 162.863281 257.269531 162.796875 C 257.722656 162.058594 258.164062 161.320312 258.660156 160.625 C 259.15625 159.929688 259.691406 159.269531 260.320312 158.71875 C 260.933594 158.144531 261.648438 157.691406 262.417969 157.367188 C 263.183594 157.046875 264.019531 156.878906 264.871094 156.917969 C 264.921875 156.921875 264.972656 156.886719 264.984375 156.832031 Z M 254.691406 195.101562 C 254.746094 195.070312 254.765625 195 254.734375 194.949219 C 253.402344 192.546875 252.386719 189.984375 251.695312 187.339844 C 251.015625 184.695312 250.652344 181.964844 250.679688 179.238281 C 250.679688 176.507812 251.066406 173.785156 251.773438 171.148438 C 252.484375 168.511719 253.527344 165.957031 254.882812 163.570312 C 254.914062 163.507812 254.894531 163.429688 254.835938 163.394531 C 254.773438 163.351562 254.6875 163.371094 254.648438 163.433594 C 253.175781 165.777344 252.035156 168.335938 251.269531 171.007812 C 250.5 173.675781 250.109375 176.453125 250.085938 179.234375 C 250.09375 182.015625 250.460938 184.796875 251.214844 187.46875 C 251.964844 190.144531 253.085938 192.710938 254.542969 195.0625 C 254.574219 195.113281 254.640625 195.132812 254.691406 195.101562 Z M 186.046875 199.382812 C 185.730469 198.148438 185.40625 196.910156 185.046875 195.683594 C 185.035156 195.625 184.980469 195.59375 184.921875 195.601562 C 184.859375 195.613281 184.816406 195.671875 184.828125 195.734375 C 185.046875 196.992188 185.300781 198.246094 185.558594 199.496094 C 185.816406 200.75 186.105469 201.992188 186.378906 203.242188 L 187.277344 206.96875 C 187.589844 208.207031 187.910156 209.441406 188.265625 210.671875 C 188.285156 210.738281 188.351562 210.777344 188.417969 210.765625 C 188.492188 210.753906 188.539062 210.683594 188.527344 210.613281 C 188.308594 209.351562 188.050781 208.101562 187.789062 206.847656 L 186.957031 203.109375 C 186.652344 201.867188 186.363281 200.621094 186.046875 199.382812 Z M 189.375 156.878906 C 189.3125 156.859375 189.25 156.890625 189.226562 156.953125 C 188.292969 159.660156 187.375 162.378906 186.5625 165.128906 C 186.351562 165.84375 186.144531 166.5625 185.949219 167.285156 C 185.824219 166.628906 185.699219 165.980469 185.589844 165.324219 C 185.480469 164.605469 185.375 163.890625 185.300781 163.167969 C 185.222656 162.449219 185.171875 161.726562 185.125 161 C 185.085938 160.273438 185.074219 159.546875 185.058594 158.8125 C 185.058594 158.757812 185.019531 158.714844 184.964844 158.703125 C 184.90625 158.691406 184.84375 158.734375 184.832031 158.796875 C 184.707031 159.527344 184.644531 160.265625 184.628906 161.007812 C 184.605469 161.75 184.644531 162.492188 184.710938 163.230469 C 184.792969 163.96875 184.90625 164.703125 185.078125 165.425781 C 185.246094 166.148438 185.453125 166.863281 185.730469 167.550781 C 185.75 167.601562 185.804688 167.632812 185.859375 167.628906 C 185.339844 169.570312 184.882812 171.523438 184.503906 173.5 C 183.988281 176.328125 183.640625 179.199219 183.589844 182.082031 C 183.539062 184.964844 183.78125 187.855469 184.402344 190.667969 C 184.417969 190.738281 184.484375 190.785156 184.554688 190.773438 C 184.628906 190.757812 184.679688 190.691406 184.664062 190.617188 C 184.171875 187.804688 184.019531 184.941406 184.117188 182.097656 C 184.214844 179.25 184.554688 176.410156 185.082031 173.609375 C 185.585938 170.796875 186.289062 168.023438 187.042969 165.269531 C 187.804688 162.511719 188.632812 159.769531 189.445312 157.019531 C 189.460938 156.964844 189.429688 156.902344 189.375 156.878906 Z M 222.199219 127.488281 C 222.566406 127.597656 222.832031 127.871094 223.015625 128.1875 C 223.195312 128.503906 223.285156 128.875 223.347656 129.269531 C 223.421875 129.667969 223.460938 130.09375 223.59375 130.519531 C 223.722656 130.941406 223.9375 131.382812 224.316406 131.660156 C 224.359375 131.691406 224.421875 131.695312 224.472656 131.660156 C 224.535156 131.621094 224.550781 131.535156 224.507812 131.472656 L 224.503906 131.46875 C 224.285156 131.148438 224.171875 130.78125 224.101562 130.394531 L 223.933594 129.167969 C 223.851562 128.746094 223.730469 128.28125 223.429688 127.90625 C 223.152344 127.539062 222.703125 127.234375 222.222656 127.265625 C 222.175781 127.265625 222.132812 127.296875 222.121094 127.34375 C 222.101562 127.40625 222.136719 127.46875 222.195312 127.488281 Z M 220.8125 129.3125 C 220.765625 129.328125 220.730469 129.375 220.734375 129.425781 C 220.738281 129.492188 220.789062 129.539062 220.851562 129.535156 L 220.855469 129.535156 C 221.367188 129.507812 221.832031 129.785156 222.144531 130.160156 C 222.449219 130.535156 222.632812 131.027344 222.757812 131.542969 C 222.886719 132.058594 222.988281 132.617188 223.132812 133.148438 C 223.265625 133.6875 223.410156 134.222656 223.585938 134.753906 C 223.609375 134.808594 223.664062 134.847656 223.726562 134.84375 C 223.800781 134.839844 223.855469 134.773438 223.851562 134.699219 C 223.808594 134.140625 223.730469 133.59375 223.644531 133.042969 C 223.558594 132.492188 223.464844 131.957031 223.328125 131.394531 C 223.183594 130.84375 222.964844 130.257812 222.503906 129.816406 C 222.074219 129.390625 221.410156 129.117188 220.8125 129.3125 Z M 219.761719 131.933594 C 219.726562 131.953125 219.699219 131.988281 219.695312 132.03125 C 219.691406 132.09375 219.742188 132.152344 219.804688 132.15625 L 219.8125 132.15625 C 220.363281 132.183594 220.777344 132.566406 221.019531 133.003906 C 221.148438 133.234375 221.230469 133.496094 221.304688 133.769531 C 221.382812 134.046875 221.433594 134.34375 221.527344 134.640625 C 221.542969 134.691406 221.582031 134.726562 221.636719 134.734375 C 221.710938 134.746094 221.78125 134.695312 221.792969 134.621094 C 221.84375 134.316406 221.851562 134.003906 221.820312 133.679688 C 221.796875 133.359375 221.707031 133.027344 221.539062 132.722656 C 221.363281 132.410156 221.109375 132.152344 220.789062 131.996094 C 220.476562 131.839844 220.082031 131.785156 219.761719 131.933594 Z M 218.210938 133.457031 C 218.164062 133.460938 218.121094 133.492188 218.105469 133.535156 C 218.085938 133.597656 218.121094 133.660156 218.183594 133.679688 C 218.925781 133.929688 219.40625 134.578125 219.648438 135.277344 C 219.773438 135.636719 219.835938 136.019531 219.890625 136.417969 L 220.019531 137.640625 C 220.023438 137.699219 220.066406 137.746094 220.125 137.757812 C 220.199219 137.773438 220.269531 137.726562 220.285156 137.65625 L 220.285156 137.648438 C 220.367188 137.238281 220.414062 136.816406 220.414062 136.386719 C 220.417969 135.957031 220.355469 135.511719 220.207031 135.085938 C 220.050781 134.65625 219.800781 134.257812 219.457031 133.957031 C 219.113281 133.65625 218.664062 133.441406 218.210938 133.457031 Z M 216.542969 134.941406 C 216.496094 134.949219 216.457031 134.992188 216.453125 135.042969 C 216.449219 135.105469 216.492188 135.160156 216.554688 135.164062 L 216.5625 135.164062 C 217.058594 135.203125 217.449219 135.566406 217.675781 135.992188 C 217.90625 136.425781 218.050781 136.953125 218.222656 137.46875 L 218.703125 139.015625 C 218.867188 139.535156 219.011719 140.054688 219.183594 140.574219 C 219.203125 140.632812 219.257812 140.671875 219.320312 140.667969 C 219.394531 140.664062 219.453125 140.601562 219.445312 140.527344 C 219.410156 139.972656 219.324219 139.425781 219.214844 138.882812 C 219.105469 138.34375 218.953125 137.808594 218.78125 137.285156 C 218.597656 136.769531 218.441406 136.230469 218.101562 135.726562 C 217.773438 135.234375 217.171875 134.820312 216.542969 134.941406 Z M 225.457031 138.355469 C 225.484375 137.335938 225.40625 136.3125 225.1875 135.320312 C 225.175781 135.265625 225.125 135.226562 225.070312 135.230469 C 225.007812 135.234375 224.957031 135.289062 224.964844 135.351562 C 225.039062 136.347656 225.042969 137.34375 224.957031 138.328125 C 224.875 139.3125 224.71875 140.289062 224.460938 141.242188 C 224.226562 142.199219 223.886719 143.128906 223.484375 144.03125 C 223.082031 144.933594 222.59375 145.796875 222.050781 146.632812 C 222.011719 146.6875 222.023438 146.761719 222.074219 146.804688 C 222.128906 146.859375 222.214844 146.851562 222.261719 146.796875 C 222.929688 146.027344 223.492188 145.167969 223.957031 144.257812 C 224.417969 143.347656 224.765625 142.378906 225.03125 141.390625 C 225.269531 140.394531 225.429688 139.378906 225.457031 138.355469 Z M 202.378906 139.386719 C 202.695312 139.242188 203.046875 139.144531 203.398438 139.050781 C 203.457031 139.035156 203.488281 138.980469 203.480469 138.921875 C 203.472656 138.859375 203.414062 138.820312 203.351562 138.828125 C 202.988281 138.886719 202.617188 138.957031 202.257812 139.09375 C 201.902344 139.226562 201.519531 139.453125 201.324219 139.859375 C 201.132812 140.261719 201.183594 140.699219 201.253906 141.070312 C 201.324219 141.445312 201.4375 141.796875 201.511719 142.144531 C 201.835938 143.53125 201.714844 144.976562 201.402344 146.386719 C 201.121094 147.804688 200.691406 149.25 200.648438 150.761719 C 200.632812 151.515625 200.6875 152.277344 200.867188 153.007812 C 201.058594 153.742188 201.351562 154.445312 201.757812 155.074219 C 201.792969 155.132812 201.871094 155.15625 201.929688 155.121094 C 201.996094 155.089844 202.023438 155.007812 201.988281 154.941406 C 201.324219 153.65625 201.070312 152.214844 201.171875 150.789062 C 201.257812 149.355469 201.667969 147.960938 201.980469 146.507812 C 202.269531 145.058594 202.410156 143.496094 202 142.023438 C 201.902344 141.65625 201.773438 141.3125 201.695312 140.972656 C 201.609375 140.636719 201.570312 140.296875 201.6875 140.019531 C 201.792969 139.742188 202.066406 139.53125 202.378906 139.386719 Z M 203.433594 129.148438 C 203.632812 129.214844 203.839844 129.230469 204.0625 129.253906 C 204.277344 129.289062 204.492188 129.277344 204.707031 129.285156 C 205.570312 129.285156 206.398438 128.992188 207.089844 128.472656 C 207.675781 128.042969 208.148438 127.472656 208.644531 126.894531 C 208.164062 126.992188 207.675781 127.074219 207.183594 127.132812 C 206.296875 127.238281 205.402344 127.273438 204.507812 127.269531 C 203.617188 127.242188 202.726562 127.183594 201.84375 127.046875 C 201.476562 126.992188 201.109375 126.917969 200.746094 126.839844 C 200.984375 127.613281 201.570312 128.214844 202.25 128.628906 C 202.625 128.84375 203.023438 129.03125 203.433594 129.148438 Z M 203.996094 129.820312 C 203.761719 129.789062 203.515625 129.757812 203.277344 129.679688 C 202.808594 129.53125 202.375 129.316406 201.980469 129.042969 C 201.585938 128.765625 201.230469 128.429688 200.953125 128.03125 C 200.703125 127.65625 200.527344 127.230469 200.480469 126.789062 C 200.0625 126.691406 199.648438 126.582031 199.238281 126.453125 C 199.179688 126.4375 199.144531 126.371094 199.164062 126.3125 C 199.183594 126.257812 199.234375 126.226562 199.289062 126.230469 C 200.160156 126.359375 201.03125 126.476562 201.902344 126.550781 C 202.773438 126.625 203.644531 126.683594 204.519531 126.679688 C 205.390625 126.703125 206.265625 126.667969 207.136719 126.613281 C 208.007812 126.558594 208.878906 126.464844 209.753906 126.359375 C 209.828125 126.351562 209.894531 126.402344 209.902344 126.476562 C 209.910156 126.542969 209.871094 126.605469 209.808594 126.625 C 209.578125 126.6875 209.347656 126.730469 209.117188 126.785156 C 208.882812 127.136719 208.648438 127.496094 208.390625 127.847656 C 208.101562 128.21875 207.785156 128.574219 207.417969 128.890625 C 206.675781 129.507812 205.691406 129.867188 204.71875 129.871094 C 204.476562 129.859375 204.230469 129.863281 203.996094 129.820312 Z M 199.882812 118.804688 L 200.128906 116.214844 C 200.136719 116.160156 200.101562 116.105469 200.042969 116.089844 C 199.984375 116.078125 199.921875 116.113281 199.910156 116.175781 C 199.691406 117.023438 199.527344 117.878906 199.386719 118.738281 C 199.246094 119.601562 199.152344 120.46875 199.058594 121.335938 C 199.03125 121.769531 198.964844 122.199219 199.015625 122.691406 C 199.054688 123.1875 199.375 123.71875 199.824219 123.949219 C 200.253906 124.199219 200.761719 124.269531 201.222656 124.226562 C 201.683594 124.175781 202.109375 124.042969 202.519531 123.898438 C 202.582031 123.878906 202.621094 123.8125 202.609375 123.746094 C 202.59375 123.675781 202.527344 123.625 202.453125 123.640625 C 201.613281 123.800781 200.730469 123.9375 200.097656 123.503906 C 199.789062 123.289062 199.609375 123.007812 199.582031 122.628906 C 199.542969 122.257812 199.613281 121.816406 199.644531 121.386719 C 199.707031 120.527344 199.800781 119.664062 199.882812 118.804688 Z M 190.742188 110.003906 C 190.972656 109.574219 191.234375 109.171875 191.539062 108.8125 C 191.847656 108.457031 192.183594 108.121094 192.554688 107.835938 C 192.925781 107.546875 193.328125 107.308594 193.75 107.097656 C 194.175781 106.894531 194.628906 106.742188 195.097656 106.621094 C 195.15625 106.605469 195.199219 106.554688 195.199219 106.496094 C 195.199219 106.417969 195.144531 106.355469 195.070312 106.355469 C 194.554688 106.335938 194.039062 106.441406 193.550781 106.617188 C 193.058594 106.785156 192.605469 107.054688 192.191406 107.371094 C 191.785156 107.695312 191.421875 108.078125 191.140625 108.511719 C 190.855469 108.945312 190.632812 109.421875 190.527344 109.925781 C 190.519531 109.972656 190.539062 110.023438 190.585938 110.050781 C 190.640625 110.082031 190.710938 110.058594 190.742188 110.003906 Z M 209.226562 106.730469 C 209.96875 106.929688 210.6875 107.210938 211.335938 107.613281 C 212 107.992188 212.589844 108.488281 213.117188 109.046875 C 213.648438 109.605469 214.097656 110.238281 214.472656 110.925781 C 214.503906 110.980469 214.574219 111.007812 214.636719 110.988281 C 214.703125 110.964844 214.742188 110.886719 214.71875 110.820312 C 214.457031 110.046875 214.035156 109.332031 213.511719 108.699219 C 212.984375 108.066406 212.339844 107.535156 211.636719 107.105469 C 210.917969 106.699219 210.140625 106.394531 209.335938 106.242188 C 208.53125 106.089844 207.699219 106.066406 206.90625 106.210938 C 206.851562 106.222656 206.808594 106.269531 206.808594 106.324219 C 206.808594 106.386719 206.859375 106.4375 206.921875 106.4375 C 207.707031 106.441406 208.480469 106.53125 209.226562 106.730469 Z M 196.292969 116.164062 C 196.601562 116.132812 196.898438 116.066406 197.203125 116.015625 C 197.503906 115.945312 197.800781 115.875 198.097656 115.789062 C 198.148438 115.773438 198.179688 115.726562 198.179688 115.675781 C 198.175781 115.613281 198.125 115.5625 198.058594 115.566406 L 198.054688 115.566406 C 197.449219 115.597656 196.851562 115.648438 196.253906 115.664062 C 195.652344 115.6875 195.058594 115.6875 194.460938 115.671875 C 193.867188 115.648438 193.273438 115.601562 192.683594 115.539062 C 192.09375 115.464844 191.5 115.367188 190.929688 115.226562 L 190.917969 115.222656 C 190.859375 115.207031 190.796875 115.234375 190.769531 115.292969 C 190.734375 115.359375 190.757812 115.4375 190.828125 115.472656 C 191.394531 115.765625 191.992188 115.925781 192.601562 116.054688 C 193.207031 116.183594 193.824219 116.238281 194.445312 116.261719 C 195.0625 116.269531 195.683594 116.253906 196.292969 116.164062 Z M 205.382812 114.609375 C 205.328125 114.582031 205.257812 114.59375 205.21875 114.644531 C 205.167969 114.703125 205.179688 114.785156 205.234375 114.832031 C 205.820312 115.308594 206.492188 115.613281 207.191406 115.847656 C 207.886719 116.078125 208.617188 116.203125 209.355469 116.25 C 210.085938 116.273438 210.824219 116.25 211.542969 116.105469 C 211.902344 116.054688 212.25 115.941406 212.605469 115.859375 C 212.949219 115.746094 213.292969 115.621094 213.625 115.488281 C 213.675781 115.46875 213.707031 115.417969 213.695312 115.363281 C 213.683594 115.300781 213.625 115.261719 213.5625 115.273438 L 213.558594 115.273438 C 212.855469 115.40625 212.167969 115.546875 211.472656 115.609375 C 210.777344 115.6875 210.078125 115.691406 209.386719 115.660156 C 208.695312 115.617188 208.011719 115.507812 207.335938 115.34375 C 206.667969 115.175781 206 114.933594 205.394531 114.617188 Z M 190.878906 136.605469 C 189.1875 136.605469 187.816406 135.234375 187.816406 133.542969 C 187.816406 131.847656 189.1875 130.480469 190.878906 130.480469 C 192.570312 130.480469 193.9375 131.847656 193.9375 133.542969 C 193.9375 135.234375 192.570312 136.605469 190.878906 136.605469 " fill-opacity="1" fill-rule="nonzero"/></g></svg>