<svg xmlns="http://www.w3.org/2000/svg" xmlns:xlink="http://www.w3.org/1999/xlink" width="500" zoomAndPan="magnify" viewBox="0 0 375 374.999991" height="500" preserveAspectRatio="xMidYMid meet" version="1.0"><defs><clipPath id="4ec5526d79"><path d="M 238 111 L 271.929688 111 L 271.929688 148 L 238 148 Z M 238 111 " clip-rule="nonzero"/></clipPath></defs><rect x="-37.5" width="450" fill="#ffffff" y="-37.499999" height="449.999989" fill-opacity="1"/><rect x="-37.5" width="450" fill="#ffffff" y="-37.499999" height="449.999989" fill-opacity="1"/><rect x="-37.5" width="450" fill="#fcfcfc" y="-37.499999" height="449.999989" fill-opacity="1"/><path fill="#f06000" d="M 236.445312 230.527344 L 180.972656 239.59375 C 180.972656 239.59375 129.605469 258.121094 111.550781 230.058594 C 88.929688 194.867188 113.566406 169.054688 125.808594 157.65625 C 136.191406 147.96875 136.191406 130.527344 136.265625 128.511719 C 136.265625 101.613281 140.839844 85.488281 155.871094 76.652344 C 172.292969 66.960938 185.773438 68.976562 185.773438 68.976562 C 185.773438 68.976562 204.445312 68.203125 215.292969 85.179688 C 222.652344 96.726562 224.589844 112.308594 226.0625 128.511719 C 228.542969 156.261719 254.496094 160.757812 255.039062 188.820312 C 255.660156 217.425781 236.445312 230.527344 236.445312 230.527344 Z M 236.445312 230.527344 L 180.972656 239.59375 C 180.972656 239.59375 129.605469 258.121094 111.550781 230.058594 C 88.929688 194.867188 113.566406 169.054688 125.808594 157.65625 C 136.191406 147.96875 136.191406 130.527344 136.265625 128.511719 C 136.265625 101.613281 140.839844 85.488281 155.871094 76.652344 C 172.292969 66.960938 185.773438 68.976562 185.773438 68.976562 C 185.773438 68.976562 204.445312 68.203125 215.292969 85.179688 C 222.652344 96.726562 224.589844 112.308594 226.0625 128.511719 C 228.542969 156.261719 254.496094 160.757812 255.039062 188.820312 C 255.660156 217.425781 236.445312 230.527344 236.445312 230.527344 Z M 236.445312 230.527344 " fill-opacity="1" fill-rule="nonzero"/><path fill="#f8260c" d="M 178.570312 186.417969 C 198.25 191.84375 215.292969 179.285156 215.292969 179.285156 C 215.292969 179.285156 237.453125 187.582031 242.332031 195.023438 C 250.390625 207.425781 262.476562 281.144531 240.085938 293.003906 C 219.710938 303.78125 183.683594 289.128906 167.027344 281.921875 C 154.550781 297.269531 138.746094 308.355469 116.976562 295.796875 C 92.414062 281.53125 109.691406 203.550781 114.882812 195.410156 C 123.40625 182.078125 146.261719 179.363281 146.261719 179.363281 C 146.261719 179.363281 158.8125 180.992188 178.570312 186.417969 Z M 178.570312 186.417969 C 198.25 191.84375 215.292969 179.285156 215.292969 179.285156 C 215.292969 179.285156 237.453125 187.582031 242.332031 195.023438 C 250.390625 207.425781 262.476562 281.144531 240.085938 293.003906 C 219.710938 303.78125 183.683594 289.128906 167.027344 281.921875 C 154.550781 297.269531 138.746094 308.355469 116.976562 295.796875 C 92.414062 281.53125 109.691406 203.550781 114.882812 195.410156 C 123.40625 182.078125 146.261719 179.363281 146.261719 179.363281 C 146.261719 179.363281 158.8125 180.992188 178.570312 186.417969 Z M 178.570312 186.417969 " fill-opacity="1" fill-rule="nonzero"/><path fill="#feac7c" d="M 208.863281 177.269531 C 212.351562 178.433594 215.292969 179.285156 215.292969 179.285156 C 215.292969 179.285156 211.03125 195.410156 192.4375 200.449219 C 178.800781 193.085938 166.714844 190.371094 166.714844 190.371094 L 162.300781 197.734375 C 149.128906 191.300781 146.339844 179.285156 146.339844 179.285156 C 146.339844 179.285156 161.058594 175.023438 164.546875 172.078125 C 167.644531 169.441406 166.949219 155.101562 166.792969 152.078125 C 157.960938 148.277344 153.777344 140.914062 151.839844 134.246094 C 146.960938 134.636719 142.929688 125.953125 145.175781 122 C 147.578125 117.734375 150.214844 120.605469 150.214844 120.605469 C 163.230469 123.859375 183.605469 104.636719 189.957031 88.511719 C 190.113281 88.199219 190.5 88.277344 190.578125 88.589844 C 192.75 99.285156 202.820312 114.789062 211.03125 120.605469 C 211.03125 120.605469 213.667969 117.734375 216.070312 122 C 218.46875 126.261719 213.667969 136.183594 208.164062 133.9375 C 208.164062 133.703125 208.164062 133.472656 208.242188 133.238281 C 205.609375 141.457031 201.425781 147.890625 194.761719 151.535156 L 194.917969 151.535156 C 194.917969 151.535156 194.839844 153.160156 194.761719 155.410156 C 196.003906 155.488281 199.179688 155.953125 199.875 158.898438 C 203.671875 159.054688 205.300781 161.613281 205.066406 163.160156 C 207.625 163.007812 209.019531 168.898438 207.46875 170.214844 C 209.792969 169.984375 209.636719 174.789062 208.863281 177.269531 Z M 208.863281 177.269531 C 212.351562 178.433594 215.292969 179.285156 215.292969 179.285156 C 215.292969 179.285156 211.03125 195.410156 192.4375 200.449219 C 178.800781 193.085938 166.714844 190.371094 166.714844 190.371094 L 162.300781 197.734375 C 149.128906 191.300781 146.339844 179.285156 146.339844 179.285156 C 146.339844 179.285156 161.058594 175.023438 164.546875 172.078125 C 167.644531 169.441406 166.949219 155.101562 166.792969 152.078125 C 157.960938 148.277344 153.777344 140.914062 151.839844 134.246094 C 146.960938 134.636719 142.929688 125.953125 145.175781 122 C 147.578125 117.734375 150.214844 120.605469 150.214844 120.605469 C 163.230469 123.859375 183.605469 104.636719 189.957031 88.511719 C 190.113281 88.199219 190.5 88.277344 190.578125 88.589844 C 192.75 99.285156 202.820312 114.789062 211.03125 120.605469 C 211.03125 120.605469 213.667969 117.734375 216.070312 122 C 218.46875 126.261719 213.667969 136.183594 208.164062 133.9375 C 208.164062 133.703125 208.164062 133.472656 208.242188 133.238281 C 205.609375 141.457031 201.425781 147.890625 194.761719 151.535156 L 194.917969 151.535156 C 194.917969 151.535156 194.839844 153.160156 194.761719 155.410156 C 196.003906 155.488281 199.179688 155.953125 199.875 158.898438 C 203.671875 159.054688 205.300781 161.613281 205.066406 163.160156 C 207.625 163.007812 209.019531 168.898438 207.46875 170.214844 C 209.792969 169.984375 209.636719 174.789062 208.863281 177.269531 Z M 208.863281 177.269531 " fill-opacity="1" fill-rule="nonzero"/><path fill="#16171b" d="M 168.808594 120.835938 C 168.808594 119.132812 169.738281 117.660156 170.820312 117.660156 C 171.90625 117.660156 172.835938 119.054688 172.835938 120.835938 C 172.835938 122.542969 171.90625 124.015625 170.820312 124.015625 C 169.738281 124.015625 168.808594 122.621094 168.808594 120.835938 Z M 191.351562 124.015625 C 192.515625 124.015625 193.367188 122.621094 193.367188 120.835938 C 193.367188 119.132812 192.4375 117.660156 191.351562 117.660156 C 190.269531 117.660156 189.339844 119.054688 189.339844 120.835938 C 189.261719 122.621094 190.191406 124.015625 191.351562 124.015625 Z M 180.894531 130.992188 C 181.125 124.945312 181.203125 118.820312 181.050781 112.773438 C 181.050781 112 179.886719 112 179.886719 112.773438 C 180.042969 118.820312 180.042969 124.945312 179.730469 130.992188 C 179.65625 131.6875 180.816406 131.6875 180.894531 130.992188 Z M 174.542969 137.347656 C 175.859375 137.503906 177.097656 137.8125 178.183594 138.589844 C 179.265625 139.363281 180.042969 140.449219 180.894531 141.457031 C 181.125 141.6875 181.515625 141.6875 181.746094 141.457031 C 181.980469 141.222656 181.980469 140.914062 181.746094 140.605469 C 180.816406 139.441406 179.964844 138.277344 178.726562 137.503906 C 177.484375 136.648438 176.089844 136.261719 174.617188 136.109375 C 174.308594 136.109375 174 136.417969 174 136.726562 C 173.921875 137.117188 174.230469 137.347656 174.542969 137.347656 Z M 177.796875 156.882812 C 181.902344 157.425781 186.007812 156.648438 189.882812 155.253906 C 191.742188 154.558594 193.601562 153.78125 195.226562 152.542969 C 195.847656 152.078125 195.226562 151.070312 194.609375 151.535156 C 193.289062 152.542969 191.742188 153.238281 190.191406 153.859375 C 188.332031 154.558594 186.394531 155.175781 184.457031 155.488281 C 180.507812 156.183594 176.554688 155.71875 172.757812 154.558594 C 170.898438 154.015625 168.960938 153.316406 167.335938 152.152344 C 166.714844 151.765625 166.097656 152.773438 166.714844 153.160156 C 168.1875 154.167969 169.890625 154.867188 171.519531 155.410156 C 173.609375 156.183594 175.703125 156.648438 177.796875 156.882812 Z M 167.957031 189.519531 C 169.96875 183.238281 171.90625 176.960938 173.921875 170.679688 C 174.386719 169.128906 174.851562 167.582031 175.394531 166.03125 C 175.78125 164.710938 176.246094 163.472656 177.019531 162.308594 C 178.570312 160.0625 181.28125 159.363281 183.761719 158.898438 C 187.402344 158.121094 191.042969 157.347656 194.683594 156.648438 C 195.382812 156.496094 195.074219 155.410156 194.375 155.566406 C 191.042969 156.261719 187.710938 156.960938 184.378906 157.65625 C 181.746094 158.199219 178.878906 158.664062 176.941406 160.679688 C 174.929688 162.773438 174.308594 165.875 173.457031 168.589844 C 172.449219 171.84375 171.441406 175.101562 170.355469 178.355469 C 169.195312 182 168.03125 185.640625 166.949219 189.285156 C 166.5625 189.984375 167.722656 190.292969 167.957031 189.519531 Z M 188.640625 162.617188 C 192.207031 160.914062 196.078125 159.90625 200.03125 159.597656 C 200.804688 159.519531 200.804688 158.355469 200.03125 158.433594 C 195.847656 158.742188 191.816406 159.828125 188.023438 161.613281 C 187.402344 161.921875 188.023438 162.929688 188.640625 162.617188 Z M 204.757812 162.773438 C 200.417969 162.929688 196.078125 163.550781 191.816406 164.558594 C 191.121094 164.710938 191.429688 165.875 192.128906 165.640625 C 196.234375 164.632812 200.496094 164.015625 204.757812 163.9375 C 205.453125 163.9375 205.453125 162.773438 204.757812 162.773438 Z M 195.226562 169.054688 C 194.453125 169.128906 194.453125 170.292969 195.226562 170.214844 C 199.488281 169.90625 203.75 169.441406 207.933594 169.984375 C 208.707031 170.0625 208.628906 168.898438 207.933594 168.820312 C 203.75 168.277344 199.410156 168.742188 195.226562 169.054688 Z M 203.285156 184.632812 C 204.835938 184.558594 205.996094 183.007812 206.769531 181.84375 C 207.699219 180.527344 208.320312 179.054688 208.628906 177.425781 C 208.785156 176.726562 207.625 176.417969 207.546875 177.113281 C 207.3125 178.355469 206.847656 179.597656 206.152344 180.679688 C 205.53125 181.609375 204.679688 182.929688 203.59375 183.394531 C 203.050781 183.625 202.511719 183.316406 202.277344 182.851562 C 201.96875 182.230469 202.046875 181.457031 202.121094 180.835938 C 202.355469 179.363281 202.585938 177.890625 202.976562 176.417969 C 203.050781 176.105469 202.820312 175.640625 202.433594 175.71875 C 199.875 175.953125 197.398438 176.183594 194.839844 176.417969 C 194.683594 176.417969 194.609375 176.496094 194.53125 176.574219 C 194.53125 176.574219 194.453125 176.648438 194.453125 176.648438 C 194.375 176.726562 194.296875 176.882812 194.296875 177.039062 C 194.144531 179.828125 194.066406 182.617188 193.601562 185.410156 C 193.367188 187.191406 192.902344 189.054688 191.664062 190.371094 C 190.964844 191.070312 190.113281 191.535156 189.183594 191.765625 C 189.027344 191.84375 188.875 191.921875 188.796875 192.078125 C 188.71875 192.152344 188.5625 192.230469 188.5625 192.386719 C 187.867188 194.089844 187.167969 195.796875 186.394531 197.503906 C 186.238281 197.8125 186.550781 198.121094 186.78125 198.199219 C 187.09375 198.277344 187.402344 198.121094 187.480469 197.8125 C 188.175781 196.183594 188.875 194.480469 189.570312 192.851562 C 191.351562 192.230469 192.824219 191.070312 193.679688 189.363281 C 194.683594 187.269531 194.839844 184.789062 194.996094 182.464844 C 195.148438 180.835938 195.226562 179.207031 195.304688 177.582031 C 197.398438 177.425781 199.488281 177.191406 201.582031 177.039062 C 201.191406 178.589844 200.882812 180.136719 200.804688 181.6875 C 200.804688 182.929688 201.582031 184.710938 203.285156 184.632812 Z M 120.773438 190.292969 C 124.492188 192.152344 127.28125 195.566406 128.519531 199.519531 C 128.753906 200.214844 129.835938 199.90625 129.605469 199.207031 C 128.289062 194.945312 125.265625 191.300781 121.316406 189.285156 C 120.695312 188.898438 120.074219 189.90625 120.773438 190.292969 Z M 161.523438 197.65625 C 156.179688 205.488281 150.988281 213.472656 145.953125 221.535156 C 143.550781 225.410156 141.148438 229.207031 138.824219 233.082031 C 137.738281 226.570312 136.578125 219.984375 135.183594 213.550781 C 134.796875 211.609375 134.332031 209.59375 133.867188 207.65625 C 133.710938 206.960938 132.546875 207.269531 132.78125 207.96875 C 134.332031 214.867188 135.726562 221.765625 136.886719 228.664062 C 137.199219 230.601562 137.585938 232.617188 137.894531 234.632812 C 135.414062 238.664062 132.9375 242.773438 130.457031 246.804688 C 127.746094 251.222656 125.109375 255.640625 122.398438 260.058594 C 122.011719 260.679688 123.019531 261.300781 123.40625 260.679688 C 128.363281 252.539062 133.246094 244.402344 138.203125 236.339844 C 143.394531 227.890625 148.585938 219.519531 153.933594 211.222656 C 156.722656 206.882812 159.589844 202.542969 162.53125 198.277344 C 162.996094 197.582031 161.988281 197.039062 161.523438 197.65625 Z M 127.898438 245.640625 C 123.40625 245.875 119.066406 247.425781 115.425781 249.984375 C 114.804688 250.371094 115.425781 251.457031 116.046875 250.992188 C 119.53125 248.511719 123.714844 247.113281 127.976562 246.804688 C 128.675781 246.726562 128.675781 245.5625 127.898438 245.640625 Z M 233.8125 262.695312 C 228.15625 260.914062 222.34375 259.363281 216.609375 258.042969 C 219.011719 256.960938 221.570312 256.339844 224.28125 256.417969 C 227.148438 256.570312 229.9375 257.425781 232.648438 258.121094 C 233.347656 258.277344 233.65625 257.191406 232.957031 257.035156 C 230.09375 256.261719 227.148438 255.410156 224.125 255.253906 C 223.117188 255.175781 222.035156 255.253906 221.105469 255.410156 C 221.183594 255.332031 221.257812 255.175781 221.257812 255.097656 C 221.800781 246.726562 223.972656 238.585938 225.675781 230.371094 C 226.0625 228.511719 226.449219 226.648438 226.761719 224.710938 C 226.914062 224.015625 225.753906 223.625 225.675781 224.402344 C 225.054688 228.046875 224.203125 231.6875 223.429688 235.253906 C 222.5 239.519531 221.570312 243.78125 220.949219 248.042969 C 220.5625 250.371094 220.253906 252.695312 220.097656 255.019531 C 220.097656 255.253906 220.175781 255.410156 220.328125 255.488281 C 218.394531 255.875 216.609375 256.570312 214.828125 257.503906 C 214.363281 257.425781 213.976562 257.269531 213.511719 257.191406 C 206.695312 255.640625 199.875 254.324219 192.980469 253.316406 C 189.339844 252.773438 185.621094 252.308594 181.980469 251.921875 C 182.132812 251.53125 182.289062 251.144531 182.519531 250.679688 C 184.84375 245.097656 187.09375 239.519531 189.261719 233.859375 C 191.277344 228.742188 193.136719 223.625 194.996094 218.433594 C 196.46875 214.324219 197.863281 210.214844 199.179688 206.105469 C 199.332031 205.71875 199.410156 205.253906 199.566406 204.867188 C 199.644531 204.710938 199.566406 204.402344 199.410156 204.324219 C 198.636719 203.625 197.785156 203.007812 197.007812 202.386719 C 195.769531 201.457031 194.453125 200.371094 193.058594 199.75 C 192.359375 199.441406 191.820312 200.449219 192.4375 200.757812 C 193.832031 201.378906 195.074219 202.386719 196.234375 203.316406 C 196.933594 203.859375 197.628906 204.402344 198.328125 205.023438 C 197.085938 208.820312 195.847656 212.617188 194.453125 216.417969 C 192.671875 221.457031 190.8125 226.496094 188.875 231.535156 C 186.703125 237.113281 184.535156 242.695312 182.210938 248.199219 C 179.886719 253.78125 177.484375 259.285156 175.007812 264.789062 C 172.679688 269.828125 170.28125 274.789062 167.644531 279.671875 C 167.335938 280.214844 167.101562 280.757812 166.792969 281.300781 C 166.40625 281.921875 167.414062 282.539062 167.800781 281.921875 C 170.433594 277.191406 172.835938 272.308594 175.082031 267.347656 C 177.253906 262.617188 179.34375 257.890625 181.359375 253.160156 C 188.175781 253.9375 194.996094 254.867188 201.734375 256.183594 C 208.554688 257.425781 215.292969 258.976562 222.035156 260.679688 C 225.832031 261.6875 229.628906 262.773438 233.347656 263.859375 C 234.199219 264.011719 234.507812 262.851562 233.8125 262.695312 Z M 240.320312 199.519531 C 237.066406 202.617188 234.042969 205.953125 231.410156 209.59375 C 230.945312 210.214844 231.953125 210.757812 232.417969 210.214844 C 234.972656 206.648438 237.917969 203.316406 241.171875 200.371094 C 241.636719 199.828125 240.859375 198.976562 240.320312 199.519531 Z M 191.585938 106.960938 C 193.988281 106.652344 196.390625 107.660156 197.863281 109.597656 C 198.09375 109.828125 198.480469 109.828125 198.714844 109.597656 C 198.945312 109.363281 198.945312 109.054688 198.714844 108.742188 C 197.085938 106.652344 194.296875 105.488281 191.585938 105.796875 C 191.277344 105.796875 190.964844 106.03125 190.964844 106.417969 C 191.042969 106.652344 191.277344 107.039062 191.585938 106.960938 Z M 147.8125 124.246094 C 148.894531 125.332031 149.75 126.726562 150.136719 128.199219 C 149.824219 127.96875 149.4375 127.8125 149.050781 127.734375 C 148.355469 127.582031 148.042969 128.664062 148.742188 128.820312 C 149.4375 128.976562 150.058594 129.441406 150.445312 130.0625 C 150.753906 130.527344 151.53125 130.371094 151.53125 129.75 C 151.375 127.347656 150.367188 125.101562 148.664062 123.394531 C 148.042969 122.851562 147.269531 123.703125 147.8125 124.246094 Z M 212.582031 124.867188 C 212.816406 124.710938 212.96875 124.324219 212.816406 124.09375 C 212.660156 123.859375 212.273438 123.703125 212.039062 123.859375 C 210.335938 125.101562 209.09375 126.960938 208.785156 128.976562 C 208.707031 129.285156 208.863281 129.519531 209.09375 129.671875 C 209.328125 129.75 209.714844 129.671875 209.792969 129.441406 C 209.949219 129.207031 210.023438 129.132812 210.257812 128.976562 C 210.414062 128.898438 210.644531 128.820312 210.800781 128.898438 C 211.109375 128.976562 211.421875 128.820312 211.496094 128.511719 C 211.574219 128.199219 211.421875 127.8125 211.109375 127.8125 C 210.800781 127.734375 210.566406 127.8125 210.257812 127.8125 C 210.800781 126.652344 211.574219 125.566406 212.582031 124.867188 Z M 161.835938 85.179688 C 154.628906 89.75 149.59375 97.347656 147.890625 105.644531 C 147.425781 107.96875 147.191406 110.371094 147.269531 112.773438 C 147.269531 113.550781 148.429688 113.550781 148.429688 112.773438 C 148.121094 104.636719 151.375 96.496094 157.03125 90.605469 C 158.660156 88.976562 160.441406 87.503906 162.378906 86.261719 C 162.996094 85.796875 162.453125 84.789062 161.835938 85.179688 Z M 152.382812 116.804688 C 154.785156 113.550781 157.417969 110.449219 160.207031 107.503906 C 160.75 106.960938 159.898438 106.109375 159.355469 106.652344 C 156.488281 109.675781 153.855469 112.851562 151.375 116.183594 C 150.910156 116.804688 151.917969 117.425781 152.382812 116.804688 Z M 214.90625 108.046875 C 215.0625 110.371094 214.90625 112.773438 214.519531 115.101562 C 214.363281 115.796875 215.527344 116.109375 215.605469 115.410156 C 217.152344 106.804688 214.90625 97.734375 209.714844 90.757812 C 208.242188 88.820312 206.617188 86.960938 204.679688 85.410156 C 204.136719 84.945312 203.285156 85.71875 203.828125 86.261719 C 210.414062 91.613281 214.441406 99.675781 214.90625 108.046875 Z M 185.386719 73.007812 C 185.464844 73.007812 185.542969 73.085938 185.621094 73.085938 C 185.621094 73.085938 185.699219 73.085938 185.699219 73.085938 C 185.699219 73.085938 185.773438 73.085938 185.773438 73.085938 C 185.773438 73.085938 185.851562 73.085938 185.851562 73.085938 C 185.851562 73.085938 185.929688 73.085938 185.929688 73.164062 C 186.007812 73.164062 186.085938 73.238281 186.164062 73.238281 C 186.394531 73.394531 186.703125 73.550781 186.9375 73.707031 C 186.9375 73.707031 187.015625 73.707031 187.015625 73.78125 C 187.09375 73.859375 187.09375 73.859375 187.167969 73.9375 C 187.246094 74.015625 187.402344 74.171875 187.480469 74.246094 C 187.558594 74.324219 187.710938 74.480469 187.789062 74.558594 C 187.867188 74.636719 187.867188 74.710938 187.945312 74.710938 C 187.945312 74.710938 188.023438 74.789062 188.023438 74.789062 C 187.945312 74.710938 188.023438 74.789062 188.023438 74.789062 C 188.175781 75.023438 188.5625 75.179688 188.796875 75.023438 C 189.027344 74.867188 189.183594 74.480469 189.027344 74.246094 C 188.175781 73.085938 187.015625 72.230469 185.699219 71.765625 C 185.386719 71.691406 185.078125 71.84375 185 72.15625 C 184.921875 72.621094 185.078125 72.929688 185.386719 73.007812 Z M 193.214844 76.882812 C 193.289062 76.804688 193.289062 76.804688 193.367188 76.726562 C 193.367188 76.726562 193.445312 76.652344 193.523438 76.652344 C 193.679688 76.574219 193.753906 76.496094 193.910156 76.417969 C 193.988281 76.339844 194.144531 76.261719 194.21875 76.261719 C 194.21875 76.261719 194.453125 76.1875 194.296875 76.1875 C 194.375 76.1875 194.453125 76.109375 194.53125 76.109375 C 195.148438 75.875 195.539062 75.796875 196.15625 75.796875 C 196.46875 75.796875 196.777344 75.566406 196.777344 75.179688 C 196.777344 74.867188 196.542969 74.636719 196.15625 74.558594 C 194.761719 74.558594 193.445312 75.023438 192.4375 75.953125 C 192.207031 76.1875 192.207031 76.574219 192.4375 76.804688 C 192.671875 77.117188 192.980469 77.117188 193.214844 76.882812 Z M 187.324219 78.277344 C 186.9375 78.277344 186.550781 78.277344 186.085938 78.277344 C 185.929688 78.277344 185.773438 78.355469 185.699219 78.433594 C 185.621094 78.511719 185.542969 78.667969 185.542969 78.820312 C 185.542969 79.132812 185.773438 79.441406 186.164062 79.441406 C 186.550781 79.441406 186.9375 79.441406 187.402344 79.441406 C 187.558594 79.441406 187.710938 79.363281 187.789062 79.285156 C 187.867188 79.207031 187.945312 79.054688 187.945312 78.898438 C 187.945312 78.589844 187.710938 78.277344 187.324219 78.277344 Z M 187.324219 78.277344 " fill-opacity="1" fill-rule="nonzero"/><g clip-path="url(#4ec5526d79)"><path fill="#f8a80c" d="M 250.933594 145.796875 C 251.011719 146.417969 250.699219 147.117188 250.160156 147.503906 C 249.925781 147.65625 249.617188 147.8125 249.382812 147.8125 C 249.074219 147.8125 248.765625 147.8125 248.453125 147.65625 C 247.835938 147.425781 247.523438 146.882812 247.445312 146.261719 C 247.371094 145.640625 247.679688 144.945312 248.222656 144.558594 C 248.765625 144.167969 249.382812 144.167969 249.925781 144.402344 C 250.46875 144.636719 250.855469 145.175781 250.933594 145.796875 Z M 240.785156 139.671875 C 240.164062 139.441406 239.542969 139.441406 239.078125 139.828125 C 238.535156 140.214844 238.226562 140.835938 238.304688 141.535156 C 238.382812 142.152344 238.769531 142.695312 239.3125 142.929688 C 239.621094 143.085938 239.929688 143.085938 240.242188 143.085938 C 240.550781 143.085938 240.785156 142.929688 241.015625 142.773438 C 241.558594 142.386719 241.867188 141.765625 241.789062 141.070312 C 241.789062 140.449219 241.402344 139.90625 240.785156 139.671875 Z M 271.15625 123.007812 C 270.535156 120.992188 269.140625 119.519531 267.125 118.820312 C 264.414062 117.890625 261.316406 118.976562 258.679688 121.6875 C 258.601562 121.84375 258.449219 121.921875 258.371094 122.078125 L 260.695312 124.480469 C 260.925781 124.402344 261.082031 124.246094 261.238281 124.09375 C 262.476562 122.851562 264.027344 122.078125 265.265625 122.078125 C 265.964844 122.078125 266.582031 122.386719 267.046875 122.929688 C 268.441406 124.558594 267.824219 127.269531 266.660156 129.054688 C 266.195312 129.828125 265.34375 130.757812 264.179688 131.222656 C 263.484375 131.457031 262.785156 131.535156 261.933594 131.613281 C 261.390625 131.6875 260.851562 131.765625 260.230469 131.84375 C 257.207031 132.464844 254.652344 134.789062 253.488281 138.046875 C 253.414062 138.199219 253.414062 138.355469 253.414062 138.511719 L 256.742188 139.519531 C 256.742188 139.441406 256.820312 139.441406 256.820312 139.363281 C 257.285156 138.125 257.984375 137.039062 258.914062 136.261719 C 259.6875 135.644531 260.617188 135.253906 262.089844 135.101562 L 262.320312 135.101562 C 263.5625 134.945312 264.800781 134.789062 266.042969 134.246094 C 267.125 133.703125 268.132812 132.929688 268.984375 131.84375 C 271.078125 129.519531 271.929688 125.796875 271.15625 123.007812 Z M 252.09375 114.710938 C 250.855469 112.464844 248.222656 111.378906 245.507812 111.921875 C 242.566406 112.542969 239.929688 114.867188 238.304688 118.433594 C 238.226562 118.664062 238.148438 118.820312 238.148438 119.054688 L 241.25 120.371094 C 241.324219 120.214844 241.480469 120.0625 241.558594 119.90625 C 242.644531 117.582031 244.8125 114.945312 247.371094 115.410156 C 248.066406 115.488281 248.53125 115.796875 248.839844 116.339844 C 249.382812 117.269531 249.539062 118.742188 249.152344 120.214844 C 248.839844 121.457031 248.144531 122.542969 247.214844 123.394531 C 246.671875 123.859375 245.972656 124.324219 245.277344 124.789062 C 244.734375 125.175781 244.113281 125.566406 243.574219 125.953125 C 240.9375 128.046875 239.464844 131.070312 239.464844 134.402344 C 239.464844 134.558594 239.464844 134.710938 239.542969 134.867188 L 242.953125 134.789062 C 243.03125 134.636719 243.03125 134.402344 243.03125 134.246094 C 243.03125 131.222656 245.042969 129.207031 246.828125 128.046875 C 249.230469 126.417969 251.242188 124.867188 252.328125 122.15625 C 253.335938 119.441406 253.257812 116.726562 252.09375 114.710938 Z M 252.09375 114.710938 " fill-opacity="1" fill-rule="nonzero"/></g></svg>