<svg width="71" height="71" viewBox="0 0 71 71" fill="none" xmlns="http://www.w3.org/2000/svg">
<g clip-path="url(#clip0_155_427)">
<path d="M4.4375 12.5493C8.36469 10.9074 13.9959 9.13682 19.4718 8.58657C25.3736 7.99194 30.3791 8.86613 33.2812 11.9236V55.1714C29.1322 52.8196 23.8738 52.4956 19.0236 52.9838C13.7873 53.5163 8.50669 55.0294 4.4375 56.5826V12.5493ZM37.7188 11.9236C40.6209 8.86613 45.6264 7.99194 51.5283 8.58657C57.0041 9.13682 62.6353 10.9074 66.5625 12.5493V56.5826C62.4889 55.0294 57.2127 53.5118 51.9764 52.9882C47.1218 52.4956 41.8678 52.8151 37.7188 55.1714V11.9236ZM35.5 7.91207C31.1291 4.15351 24.7923 3.59438 19.0236 4.17126C12.3052 4.85019 5.52469 7.15326 1.30019 9.07469C0.912567 9.25099 0.583865 9.5351 0.353318 9.89311C0.122771 10.2511 0.000117911 10.6679 0 11.0938L0 59.9063C0.000102781 60.2775 0.0933523 60.6428 0.271207 60.9686C0.449062 61.2945 0.705836 61.5705 1.01801 61.7714C1.33018 61.9723 1.68778 62.0917 2.05804 62.1186C2.4283 62.1455 2.79939 62.079 3.13731 61.9253C7.05119 60.1503 13.3569 58.0159 19.4673 57.3991C25.7198 56.7689 30.9604 57.7851 33.7694 61.2908C33.9773 61.5499 34.2407 61.759 34.5403 61.9027C34.8398 62.0464 35.1678 62.1211 35.5 62.1211C35.8322 62.1211 36.1602 62.0464 36.4597 61.9027C36.7593 61.759 37.0227 61.5499 37.2306 61.2908C40.0396 57.7851 45.2803 56.7689 51.5283 57.3991C57.6431 58.0159 63.9533 60.1503 67.8627 61.9253C68.2006 62.079 68.5717 62.1455 68.942 62.1186C69.3122 62.0917 69.6698 61.9723 69.982 61.7714C70.2942 61.5705 70.5509 61.2945 70.7288 60.9686C70.9066 60.6428 70.9999 60.2775 71 59.9063V11.0938C70.9999 10.6679 70.8772 10.2511 70.6467 9.89311C70.4161 9.5351 70.0874 9.25099 69.6998 9.07469C65.4753 7.15326 58.6948 4.85019 51.9764 4.17126C46.2077 3.58994 39.8709 4.15351 35.5 7.91207Z" fill="#F06000"/>
</g>
<defs>
<clipPath id="clip0_155_427">
<rect width="71" height="71" fill="white"/>
</clipPath>
</defs>
</svg>
