<svg width="26" height="26" viewBox="0 0 26 26" fill="none" xmlns="http://www.w3.org/2000/svg">
<g clip-path="url(#clip0_22_3691)">
<path d="M19.9584 10.8929H20.9681C21.2359 10.8929 21.4927 10.9993 21.6821 11.1886C21.8714 11.378 21.9778 11.6348 21.9778 11.9026V21.9999C21.9778 22.2677 21.8714 22.5245 21.6821 22.7139C21.4927 22.9032 21.2359 23.0096 20.9681 23.0096H4.81246C4.54466 23.0096 4.28784 22.9032 4.09848 22.7139C3.90912 22.5245 3.80273 22.2677 3.80273 21.9999L3.80273 11.9026C3.80273 11.6348 3.90912 11.378 4.09848 11.1886C4.28784 10.9993 4.54466 10.8929 4.81246 10.8929H5.82219V9.88316C5.82219 8.95497 6.00501 8.03586 6.36021 7.17832C6.71542 6.32078 7.23605 5.5416 7.89238 4.88527C8.54871 4.22894 9.32789 3.70831 10.1854 3.3531C11.043 2.9979 11.9621 2.81508 12.8903 2.81508C13.8185 2.81508 14.7376 2.9979 15.5951 3.3531C16.4526 3.70831 17.2318 4.22894 17.8882 4.88527C18.5445 5.5416 19.0651 6.32078 19.4203 7.17832C19.7755 8.03586 19.9584 8.95497 19.9584 9.88316V10.8929ZM5.82219 12.9123L5.82219 20.9902H19.9584V12.9123L5.82219 12.9123ZM11.8805 14.9318H13.9L13.9 18.9707H11.8805L11.8805 14.9318ZM17.9389 10.8929V9.88316C17.9389 8.54418 17.407 7.26004 16.4602 6.31324C15.5134 5.36644 14.2293 4.83453 12.8903 4.83453C11.5513 4.83453 10.2672 5.36644 9.32035 6.31324C8.37355 7.26004 7.84164 8.54418 7.84164 9.88316L7.84164 10.8929H17.9389Z" fill="white"/>
</g>
<defs>
<clipPath id="clip0_22_3691">
<rect width="24.2334" height="24.2334" fill="white" transform="translate(0.773926 0.795654)"/>
</clipPath>
</defs>
</svg>
