<svg width="26" height="25" viewBox="0 0 26 25" fill="none" xmlns="http://www.w3.org/2000/svg">
<g clip-path="url(#clip0_22_3683)">
<path d="M3.8027 3.15561L21.9778 3.15561C22.2456 3.15561 22.5024 3.26199 22.6918 3.45135C22.8811 3.64071 22.9875 3.89754 22.9875 4.16534V20.321C22.9875 20.5888 22.8811 20.8456 22.6918 21.0349C22.5024 21.2243 22.2456 21.3307 21.9778 21.3307H3.8027C3.5349 21.3307 3.27807 21.2243 3.08871 21.0349C2.89935 20.8456 2.79297 20.5888 2.79297 20.321L2.79297 4.16534C2.79297 3.89754 2.89935 3.64071 3.08871 3.45135C3.27807 3.26199 3.5349 3.15561 3.8027 3.15561ZM20.968 7.43483L12.9629 14.6039L4.81242 7.41262L4.81242 19.3112H20.968V7.43483ZM5.32839 5.17506L12.9518 11.9019L20.4652 5.17506L5.32839 5.17506Z" fill="white"/>
</g>
<defs>
<clipPath id="clip0_22_3683">
<rect width="24.2334" height="24.2334" fill="white" transform="translate(0.773926 0.126434)"/>
</clipPath>
</defs>
</svg>
