<svg width="200" height="200" viewBox="0 0 398 365" fill="none" xmlns="http://www.w3.org/2000/svg">
<g clip-path="url(#clip0_16_194)">
<rect width="398" height="365" fill="white"/>
<path d="M437.8 -36.5H-39.8V401.5H437.8V-36.5Z" fill="white"/>
<path d="M437.8 -36.5H-39.8V401.5H437.8V-36.5Z" fill="white"/>
<path d="M437.8 -36.5H-39.8V401.5H437.8V-36.5Z" fill="#FCFCFC"/>
<mask id="mask0_16_194" style="mask-type:luminance" maskUnits="userSpaceOnUse" x="10" y="32" width="295" height="327">
<path d="M10.518 32.4432H304.337V358.08H10.518V32.4432Z" fill="white"/>
</mask>
<g mask="url(#mask0_16_194)">
<path d="M283.965 280.404C283.965 280.404 283.007 278.476 281.349 275.853L283.119 274.351L286.767 274.552C285.689 278.343 283.965 280.404 283.965 280.404ZM264.251 280.552C264.007 280.411 263.758 280.274 263.501 280.138L265.495 277.613L271.22 278.286C272.999 280.704 274.355 282.495 274.355 282.495C274.355 282.495 271.419 284.73 264.251 280.552ZM303.902 265.408L295.246 248.025L277.559 246.227L244.123 260.515L230.177 273.758L235.624 282.578C226.939 282.491 219.708 282.407 217.876 281.845C212.661 280.255 229.169 189.112 225.26 179.96C223.067 174.827 214.588 170.695 207.565 168.056C198.917 156.501 182.86 140.776 166.617 128.986C168.159 125.191 170.087 121.568 171.389 119.382C197.827 112.013 197.586 68.7417 197.545 66.0612C199.037 48.7351 186.463 37.4467 173.329 33.9336C170.605 33.2074 167.699 32.8386 164.693 32.8386C158.462 32.8386 138.699 34.8043 130.503 58.3924C129.698 58.1605 128.848 58.0312 127.969 58.0312C127.688 58.0312 127.401 58.0426 127.115 58.0692C123.073 58.4456 119.897 61.2173 117.671 66.3121C116.058 70.0078 116.738 74.1634 119.582 78.0149C121.369 80.4293 123.865 82.4976 126.394 83.8169C126.382 96.9227 130.117 103.877 131.079 105.447C131.303 109.485 130.275 112.732 128.359 115.713C120.598 119.465 103.501 123.64 87.2947 130.362C74.4923 134.525 54.5882 144.179 43.2245 165.634C33.3532 184.272 4.8672 242.543 11.513 273.887C16.1936 295.966 33.602 302.916 60.4753 305.193C59.3808 326.88 59.7456 354.404 64.0821 356.67C70.1599 359.856 231.346 356.67 231.346 356.67L229.605 351.1C229.605 351.1 245.666 354.81 243.074 349.107C240.632 343.743 235.388 334.747 229.712 325.029C239.596 330.861 251.818 335.519 264.363 333.983C272.568 332.983 280.785 322.774 279.027 305.277C279.334 305.117 279.624 304.935 279.894 304.733C282.592 302.699 288.376 297.372 292.712 292.901C296.216 289.289 298.119 284.616 298.052 279.788L297.953 272.495L303.902 265.408Z" fill="#FFFFF0"/>
</g>
<path d="M130.627 354.982C130.333 355.654 130.685 356.423 131.419 356.696C131.597 356.765 131.779 356.795 131.962 356.795C132.53 356.795 133.073 356.483 133.297 355.97C134.317 353.662 151.128 315.375 160.008 278.639C158.893 278.89 157.819 279.13 156.804 279.362C147.691 316.124 130.876 354.423 130.627 354.982ZM126.112 120.036C125.801 119.366 124.951 119.058 124.222 119.347C123.492 119.636 123.16 120.412 123.471 121.081C123.815 121.804 157.654 193.887 162.135 233.524C162.434 236.128 162.554 238.912 162.521 241.839C157.902 229.422 146.352 213.43 137.351 200.963C132.381 194.074 127.236 186.948 127.198 185.496C127.816 180.975 134.827 166.919 134.901 166.778C135.096 166.391 135.071 165.938 134.839 165.569C134.607 165.201 134.192 164.957 133.728 164.915C129.105 164.516 116.415 162.6 113.252 158.593C110.408 154.984 111.705 136.932 113.185 126.4C113.289 125.674 112.733 125.016 111.946 124.921C111.158 124.83 110.437 125.339 110.337 126.058C109.923 128.955 106.482 154.501 110.922 160.132C114.661 164.881 126.556 166.752 131.473 167.333C129.553 171.291 124.885 181.188 124.346 185.169C124.076 187.142 126.875 191.23 134.951 202.415C145.834 217.491 162.284 240.276 161.671 251.903C161.658 252.143 161.717 252.371 161.828 252.572C161.372 256.675 160.713 260.956 159.884 265.336L162.848 265.382C165.029 253.557 166.036 242.394 165 233.254C160.469 193.218 126.46 120.762 126.112 120.036ZM200.994 269.115C200.032 269.016 199.066 268.994 198.104 269.039C199.622 295.635 205.285 322.744 227.586 349.902C227.867 350.244 228.299 350.427 228.738 350.427C229.041 350.427 229.343 350.339 229.6 350.16C230.235 349.727 230.363 348.898 229.886 348.316C208.133 321.824 202.52 295.236 200.994 269.115ZM79.4922 146.464C78.9159 146.966 78.891 147.802 79.4342 148.331C79.6124 148.502 97.083 165.759 91.4571 189.53C91.2871 190.245 91.7804 190.944 92.5557 191.097C92.6594 191.119 92.763 191.131 92.8667 191.131C93.5258 191.131 94.1228 190.709 94.2721 190.089C100.23 164.923 82.2906 147.255 81.5237 146.517C80.9805 145.989 80.0685 145.966 79.4922 146.464ZM200.385 242.71C200.339 233.779 200.293 225.346 199.763 216.897C197.159 175.565 168.889 142.844 168.599 142.521C168.105 141.951 167.197 141.86 166.58 142.316C165.958 142.772 165.862 143.601 166.356 144.171C166.638 144.487 194.34 176.546 196.89 217.05C197.416 225.429 197.458 233.828 197.507 242.721C197.528 246.478 197.549 250.242 197.603 254.021L200.484 254.086C200.426 250.28 200.405 246.489 200.385 242.71ZM210.969 287.742C210.202 287.939 209.758 288.666 209.974 289.369C210.277 290.361 217.519 313.813 223.962 320.527C224.248 320.824 224.646 320.972 225.044 320.972C225.38 320.972 225.72 320.869 225.994 320.649C226.591 320.166 226.649 319.333 226.122 318.786C220.111 312.52 212.818 288.89 212.743 288.654C212.528 287.955 211.732 287.548 210.969 287.742ZM93.0947 198.18C92.3194 198.009 91.5441 198.442 91.3576 199.149C91.2871 199.408 84.3221 225.308 73.8663 245.052C73.518 245.71 73.8165 246.497 74.5296 246.816C74.7328 246.904 74.9484 246.949 75.1598 246.949C75.6905 246.949 76.2004 246.675 76.4533 246.204C87.0418 226.213 94.0855 200.035 94.1519 199.773C94.3426 199.066 93.8699 198.355 93.0947 198.18ZM200.671 262.024L200.551 262.013L200.671 262.07C200.671 262.051 200.671 262.04 200.671 262.024ZM207.317 251.242C207.337 251.956 207.98 252.519 208.751 252.519C208.763 252.519 208.78 252.519 208.797 252.519C209.588 252.496 210.214 251.888 210.19 251.158C209.692 236.482 211.172 221.334 212.905 209.263C214.99 202.016 223.303 195.146 223.394 195.074C223.987 194.587 224.041 193.754 223.51 193.21C222.984 192.671 222.072 192.621 221.479 193.104C221.222 193.313 217.47 196.408 214.244 200.758C215.836 191.424 217.291 185.363 217.325 185.218C217.499 184.508 217.01 183.804 216.23 183.648C215.463 183.489 214.688 183.937 214.514 184.648C214.472 184.831 212.105 194.705 210.078 208.746C209.928 209.301 209.804 209.856 209.717 210.419C209.684 210.616 209.705 210.81 209.767 210.989C208.146 222.817 206.844 237.239 207.317 251.242ZM347.052 242.402L346.82 242.47C346.745 242.493 346.65 242.607 346.488 243.063C346.471 243.542 346.521 243.676 346.583 243.721L346.778 243.858C346.911 243.938 347.044 244.003 347.18 244.044C347.458 244.124 347.74 244.166 348.014 244.272C348.557 244.482 349.087 244.767 349.647 244.904C350.199 245.071 350.796 245.021 351.376 245.018C351.674 245.01 351.961 245.025 352.263 244.976C352.412 244.957 352.566 244.915 352.719 244.873L352.951 244.793C353.03 244.782 353.125 244.664 353.295 244.147C353.324 243.607 353.279 243.466 353.213 243.432L353.022 243.288C352.889 243.196 352.761 243.109 352.628 243.044C352.363 242.908 352.085 242.831 351.811 242.733C351.26 242.55 350.721 242.318 350.136 242.307C349.564 242.261 348.959 242.364 348.37 242.394C348.076 242.413 347.79 242.364 347.5 242.356C347.359 242.349 347.205 242.371 347.052 242.402ZM350.887 255.181C350.804 255.063 350.713 254.949 350.609 254.861C350.402 254.683 350.165 254.534 349.971 254.333C349.581 253.934 349.241 253.474 348.801 253.139C348.387 252.77 347.831 252.591 347.305 252.367C347.039 252.261 346.791 252.139 346.496 252.067C346.351 252.029 346.194 252.006 346.036 251.987L345.787 251.968C345.717 251.949 345.576 252.017 345.182 252.42C344.904 252.899 344.879 253.044 344.925 253.097L345.029 253.302C345.103 253.435 345.178 253.561 345.265 253.675C345.439 253.903 345.655 254.074 345.85 254.268C346.26 254.648 346.633 255.063 347.151 255.291C347.645 255.557 348.233 255.694 348.777 255.895C349.05 255.99 349.282 256.146 349.535 256.264C349.664 256.325 349.809 256.363 349.958 256.394L350.199 256.42C350.277 256.432 350.418 256.363 350.775 256.013C351.011 255.584 351.032 255.443 350.995 255.378L350.887 255.181ZM362.984 253.325L362.412 253.006C362.027 252.808 361.637 252.618 361.239 252.458C360.439 252.128 359.622 251.835 358.838 251.481C357.259 250.77 355.704 250.014 354.096 249.379C352.499 248.709 350.812 248.253 349.146 247.751C348.312 247.508 347.483 247.242 346.633 247.037C346.206 246.93 345.775 246.843 345.34 246.759L344.685 246.645C344.469 246.592 344.216 246.634 343.793 247.063C343.781 247.645 343.938 247.827 344.129 247.926L344.693 248.253C345.074 248.466 345.456 248.671 345.845 248.862C346.625 249.242 347.421 249.565 348.217 249.911C349.805 250.588 351.376 251.31 353.038 251.823C354.688 252.367 356.392 252.789 358.071 253.257C358.909 253.489 359.726 253.789 360.551 254.048C360.965 254.181 361.392 254.287 361.823 254.382L362.474 254.508C362.69 254.549 362.943 254.508 363.341 254.139C363.328 253.618 363.175 253.432 362.984 253.325ZM348.345 182.188C348.578 182.234 348.801 182.279 349.029 182.291C349.473 182.348 349.917 182.394 350.34 182.542C351.177 182.846 351.869 183.352 352.516 183.827C353.134 184.333 353.818 184.781 354.361 185.401C354.635 185.709 354.854 186.047 355.116 186.386C355.223 186.564 355.368 186.736 355.505 186.914L355.7 187.196C355.75 187.294 355.911 187.367 356.517 187.389C357.068 187.188 357.176 187.028 357.172 186.903L357.201 186.496C357.193 186.23 357.164 185.96 357.114 185.69C357.002 185.161 356.77 184.66 356.509 184.169C355.974 183.2 355.223 182.264 354.183 181.683C353.163 181.074 351.956 180.8 350.804 180.683C350.223 180.633 349.655 180.565 349.079 180.58C348.793 180.603 348.511 180.645 348.233 180.709L347.827 180.858C347.694 180.907 347.57 181.048 347.529 181.53C347.74 181.987 347.869 182.101 347.989 182.124L348.345 182.188ZM366.877 184.089C366.769 183.538 366.633 182.983 366.488 182.428C366.309 181.884 366.077 181.356 365.849 180.823C365.592 180.306 365.289 179.804 365.003 179.291C363.772 177.303 362.11 175.478 359.995 174.2C357.901 172.896 355.484 172.105 353.047 171.729C352.437 171.653 351.828 171.554 351.218 171.489C350.601 171.463 349.991 171.402 349.378 171.398C348.76 171.425 348.151 171.47 347.541 171.546L346.65 171.748C346.355 171.812 346.065 171.968 345.862 172.474C346.239 172.915 346.529 173.006 346.811 173.01L347.657 173.025C348.217 173.056 348.772 173.105 349.324 173.109L350.97 173.265C351.513 173.356 352.043 173.485 352.582 173.592C354.697 174.17 356.616 175.166 358.333 176.341C360.016 177.546 361.616 178.888 362.86 180.527C363.142 180.945 363.453 181.359 363.726 181.789C363.963 182.238 364.236 182.671 364.485 183.124C364.701 183.584 364.949 184.04 365.182 184.508L365.48 185.23C365.571 185.473 365.758 185.694 366.405 185.865C366.927 185.511 366.989 185.211 366.952 184.933L366.877 184.089ZM376.292 184.34C375.608 184.021 375.389 183.656 375.264 183.264L374.854 182.105C374.53 181.348 374.17 180.607 373.863 179.858C373.498 179.124 373.067 178.424 372.706 177.698C372.283 176.998 371.802 176.329 371.359 175.649C369.423 172.991 366.902 170.759 364.145 168.858C361.359 166.984 358.221 165.486 354.825 164.638C353.967 164.482 353.113 164.284 352.247 164.155L349.618 163.927C348.739 163.915 347.856 163.889 346.969 163.858L345.634 163.9C345.19 163.915 344.734 163.839 344.195 163.417C344.56 162.893 345.012 162.722 345.472 162.638L346.853 162.387C347.786 162.288 348.731 162.265 349.668 162.223C350.609 162.227 351.55 162.33 352.495 162.379C353.428 162.482 354.357 162.646 355.294 162.779C359.008 163.425 362.648 164.718 365.808 166.718C368.987 168.691 371.57 171.413 373.502 174.417C373.942 175.189 374.418 175.949 374.825 176.732C375.194 177.538 375.542 178.348 375.853 179.166C376.11 180.002 376.35 180.838 376.549 181.683L376.732 182.968C376.806 183.39 376.782 183.838 376.292 184.34Z" fill="#F8260C"/>
<mask id="mask1_16_194" style="mask-type:luminance" maskUnits="userSpaceOnUse" x="30" y="20" width="362" height="269">
<path d="M30.2065 20.6491H391.263V288.107H30.2065V20.6491Z" fill="white"/>
</mask>
<g mask="url(#mask1_16_194)">
<path d="M36.048 191.127C35.8407 191.454 35.6417 191.781 35.48 192.119C35.1484 192.796 34.883 193.496 34.6136 194.188L32.9925 198.374C32.4494 199.765 31.9644 201.18 31.4752 202.59L30.7828 204.719C30.5382 205.423 30.2936 206.13 30.6253 207.023C31.5042 206.525 31.8027 205.837 32.1012 205.149L33.0382 203.1C33.6393 201.727 34.2404 200.351 34.7794 198.959L36.4212 194.781C36.6865 194.085 36.9684 193.389 37.184 192.678C37.2876 192.321 37.3623 191.948 37.4286 191.576C37.4659 191.199 37.6608 190.868 37.1425 190.309C36.359 190.443 36.2802 190.811 36.048 191.127ZM71.98 141.187C70.8357 141.879 69.708 142.593 68.6426 143.384C68.1078 143.776 67.5522 144.145 67.034 144.551L65.4834 145.787C61.3791 149.106 57.71 152.84 54.3768 156.802C52.8055 158.847 51.1554 160.843 49.8039 163.018C49.1115 164.094 48.3446 165.132 47.7144 166.238L45.8239 169.558C43.5354 174.067 41.0023 178.546 40.1856 183.542C41.7693 181.428 42.6855 179.128 43.7468 176.869L45.4757 173.535L46.3338 171.869C46.6282 171.322 46.9806 170.793 47.2998 170.253L49.2359 167.029C49.8744 165.953 50.6455 164.946 51.3462 163.9C52.7184 161.798 54.356 159.855 55.8858 157.851C59.1528 153.973 62.7472 150.331 66.7521 147.106L68.257 145.901C68.7628 145.502 69.3018 145.145 69.82 144.761C70.3465 144.388 70.8523 143.992 71.3913 143.631C71.9261 143.27 72.4733 142.924 72.9998 142.548C73.5264 142.171 74.0778 141.837 74.6292 141.491C75.1764 141.145 75.7071 140.772 76.275 140.453C77.382 139.757 78.5553 139.244 79.5047 138.172C77.979 138.088 76.7643 138.749 75.5412 139.305C74.3141 139.863 73.1284 140.502 71.98 141.187ZM179.249 25.1964C179.398 25.2458 179.556 25.299 179.722 25.3675L182.039 26.28C183.714 26.9644 185.111 27.5651 186.471 28.2647C189.452 29.7931 192.06 31.5839 194.207 33.5724C196.989 36.1882 198.842 38.3478 200.227 40.5796L200.26 40.629L200.298 40.6785C200.924 41.5111 201.413 42.4388 201.935 43.4198C202.155 43.8304 202.375 44.2448 202.59 44.6288L202.843 45.0927L203.063 45.6212L203.187 45.9139C203.324 46.2105 203.457 46.5109 203.602 46.7732C203.946 47.4272 204.443 48.2902 205.202 49.1229L207.441 51.5828L207.362 51.6399C206.906 51.9783 206.624 52.309 206.471 52.674L206.433 52.7805C206.346 53.0581 206.351 53.29 206.359 53.3584L206.351 53.4345V53.5067C206.359 53.7538 206.38 54.0428 206.45 54.328C206.545 54.7158 206.691 55.0389 206.815 55.3279L207.072 55.902C207.321 56.4799 207.578 57.054 207.831 57.5939C208.108 58.2137 208.444 58.879 208.892 59.6775C209.083 60.0159 209.282 60.3543 209.472 60.6622C209.7 61.069 210.177 61.9169 211.661 62.1412L212.573 62.2819L213.125 61.5937C214.016 60.4873 213.709 59.5748 213.573 59.1642C213.465 58.7954 213.349 58.4266 213.224 58.0616C212.93 57.1833 212.673 56.5142 212.408 55.921C212.171 55.3431 211.914 54.7728 211.657 54.2025L211.396 53.6208C211.268 53.3318 211.118 53.0048 210.907 52.6969C210.733 52.4231 210.521 52.2026 210.335 52.0201L210.314 51.9935L210.256 51.944C210.173 51.8642 210.003 51.6969 209.725 51.5524L209.622 51.503C209.323 51.3737 208.983 51.3129 208.581 51.3129C208.465 51.3129 208.336 51.3167 208.187 51.3281L207.764 51.3661L207.88 48.2826C207.922 47.2219 207.71 46.2371 207.516 45.4539L207.445 45.2068C207.229 44.4501 207.01 43.6745 206.616 42.9407C206.417 42.5453 206.23 42.1385 206.04 41.7393C205.53 40.6328 204.999 39.4922 204.294 38.4466C204.174 38.2565 204.058 38.0626 203.942 37.8687C203.623 37.344 203.295 36.8003 202.881 36.23L201.384 34.2872C200.965 33.7016 200.493 33.2074 200.036 32.7245C199.887 32.5686 199.742 32.4127 199.568 32.2302L199.211 31.8576C198.739 31.3558 198.245 30.8425 197.665 30.3672C195.202 28.0822 192.246 26.0443 188.926 24.3295C188.366 24.0215 187.802 23.7706 187.259 23.5273C186.994 23.4056 186.732 23.2915 186.422 23.1433C185.485 22.744 184.552 22.4133 183.772 22.1509L183.59 22.0977C182.773 21.8582 181.932 21.6148 181.053 21.4627L180.783 21.4095C180.323 21.3183 179.805 21.2156 179.216 21.2156C178.544 21.2156 177.923 21.3487 177.33 21.6262L175.642 22.4171L176.853 23.7516C177.657 24.6337 178.578 24.9569 179.249 25.1964ZM218.465 95.6908C218.485 96.1661 218.506 96.6451 218.543 97.0786C218.572 97.6071 218.639 98.1774 218.763 98.877C218.817 99.1735 218.875 99.4663 218.933 99.7096C219.041 100.314 219.327 101.071 220.596 101.542L221.247 101.786L221.868 101.493C223.058 100.926 223.286 100.166 223.34 99.5461C223.378 99.261 223.407 98.9682 223.427 98.6831C223.485 97.9797 223.498 97.4056 223.473 96.9189C223.465 96.455 223.44 95.995 223.415 95.5311L223.386 95.0255C223.373 94.7707 223.357 94.4589 223.257 94.1358C223.174 93.8354 223.033 93.5845 222.921 93.3982L222.876 93.3259L222.855 93.2993C222.793 93.2005 222.664 93.0104 222.436 92.8241L222.345 92.7594C222.043 92.5541 221.661 92.421 221.118 92.3298L220.774 92.2689L220.434 92.3564C219.899 92.4971 219.534 92.6606 219.257 92.8887L219.174 92.9609C218.966 93.1586 218.854 93.3563 218.801 93.4704L218.751 93.5693C218.655 93.767 218.535 94.0331 218.49 94.2955C218.419 94.6643 218.432 94.9798 218.444 95.2346L218.465 95.6908ZM212.934 154.825C212.951 153.905 213.017 153.152 213.137 152.467C213.32 151.498 213.473 150.532 213.328 149.369L213 146.76L210.832 148.483C209.601 149.46 209.124 150.737 208.875 151.597C208.548 152.665 208.341 153.638 208.237 154.57C207.992 156.836 208.32 159.022 209.186 160.889C209.663 161.935 210.314 162.896 211.143 163.782L212.076 164.729L212.2 164.87C212.433 165.128 212.665 165.387 212.893 165.68C213.863 166.885 214.738 168.273 215.563 169.915C216.976 172.759 218.129 175.945 219.082 179.664C219.53 181.359 219.895 183.067 220.177 184.751C220.247 185.15 220.301 185.549 220.359 185.948C220.554 187.344 220.761 188.789 221.383 190.302L222.818 193.788L224.219 190.287C225.023 188.287 224.816 186.298 224.634 184.542L224.601 184.234C224.389 182.367 224.091 180.519 223.713 178.728C222.801 174.622 221.599 171.124 220.04 168.037C219.078 166.105 218.038 164.459 216.885 163.011C216.599 162.646 216.288 162.296 215.973 161.946L215.832 161.786L214.879 160.813C214.393 160.288 214.008 159.722 213.73 159.121C213.175 157.931 212.905 156.482 212.934 154.825ZM222.026 131.822C222.577 131.229 222.88 130.567 223.125 130.031L223.174 129.925C223.61 128.921 223.954 127.807 224.252 126.427C224.509 125.282 224.625 124.184 224.746 122.971C224.849 121.94 224.903 120.819 224.903 119.545C224.92 117.469 224.841 115.283 224.663 112.861C224.588 111.857 224.489 110.667 224.298 109.485C224.211 108.968 224.086 108.409 223.892 107.702C223.871 107.633 223.854 107.561 223.838 107.492C223.701 106.953 223.473 106.051 222.32 105.363L221.234 104.717L220.368 105.603C219.476 106.512 219.48 107.405 219.48 107.937C219.48 108.013 219.48 108.089 219.476 108.192C219.464 108.74 219.451 109.321 219.485 109.918C219.526 110.713 219.592 111.504 219.659 112.298L219.729 113.177C219.907 115.488 219.99 117.564 219.986 119.511C219.957 121.746 219.916 123.754 219.63 125.739C219.476 126.879 219.281 127.773 219.008 128.567C218.904 128.864 218.776 129.153 218.651 129.438C218.585 129.586 218.514 129.742 218.436 129.936C218.344 130.164 218.249 130.381 218.15 130.609C218.034 130.856 217.917 131.119 217.793 131.423L216.869 133.719L219.497 133.267C220.463 133.096 221.383 132.571 222.026 131.822ZM339.656 195.773L253.165 192.028C251.387 191.948 249.724 192.838 248.924 194.29L209.219 266.507C208.942 267.009 208.797 267.526 208.751 268.039L137.812 284.069C136.912 284.274 136.356 285.092 136.56 285.917C136.73 286.62 137.41 287.126 138.197 287.133L230.463 288.012C230.612 288.015 230.765 288 230.91 287.962L246.192 284.297C243.161 283.229 240.637 282.59 239.977 282.046C238.348 280.7 240.467 279.955 240.467 279.955C240.467 279.955 239.977 278.465 242.423 276.97C244.782 275.529 256.262 276.316 263.501 280.138L271.22 278.286C268.629 274.773 265.143 269.921 263.6 267.271C260.997 262.792 266.83 261.91 268.65 262.792C274.019 265.389 278.625 271.556 281.349 275.853L286.767 274.552C287.53 271.868 287.965 268.317 287.223 263.986C285.432 253.542 289.342 250.257 290.32 250.706C290.851 250.949 293.032 254.473 294.901 257.629C296.817 260.861 297.837 264.473 297.891 268.15L297.953 272.495H300.614C302.298 272.495 303.84 271.636 304.615 270.267L343.445 201.803C344.962 199.13 342.939 195.914 339.656 195.773ZM389.095 210.928C388.245 210.605 387.329 210.373 386.305 210.35C385.314 210.324 384.062 210.651 383.299 211.521C382.897 211.936 382.702 212.419 382.511 212.875C382.387 213.236 382.267 213.605 382.126 213.955C381.578 215.373 380.795 216.589 379.551 216.799C378.917 216.924 378.158 216.848 377.399 216.677C376.628 216.521 375.878 216.243 375.09 215.958C374.253 215.654 373.411 215.346 372.478 215.164C371.558 214.981 370.538 214.894 369.514 215.103C368.486 215.308 367.582 215.818 366.869 216.365C366.143 216.913 365.534 217.498 364.937 218.076L364.05 218.928C363.747 219.175 363.494 219.441 363.163 219.639C362.549 220.076 361.844 220.407 361.085 220.639C359.552 221.084 357.96 221.171 356.164 221.422C359.39 223.197 363.842 221.574 366.106 219.148C367.366 218.068 368.544 216.943 369.887 216.734C371.239 216.502 372.843 216.989 374.365 217.555C375.181 217.856 376.04 218.175 376.96 218.369C377.868 218.57 378.875 218.707 379.945 218.502C381.027 218.308 382.018 217.65 382.615 216.894C383.237 216.141 383.61 215.339 383.925 214.555C384.082 214.16 384.215 213.768 384.348 213.377C384.476 213.095 384.576 212.825 384.762 212.643C385.094 212.255 385.637 212.05 386.354 212.004C387.067 211.951 387.863 212.054 388.659 212.198C389.472 212.346 390.193 212.673 391.267 212.479C390.815 211.537 389.928 211.259 389.095 210.928ZM283.525 157.608C282.833 156.691 282.841 155.498 283.148 154.635C283.459 153.741 283.965 153 284.541 152.346C285.126 151.711 285.665 151.007 286.78 150.874C286.68 151.874 286.133 152.414 285.747 153.087C285.374 153.749 285.038 154.418 284.893 155.057C284.736 155.703 284.802 156.239 285.113 156.638C285.254 156.855 285.507 157.015 285.764 157.209C286.141 157.437 286.51 157.661 286.875 157.912C287.605 158.414 288.343 158.965 288.96 159.726C289.578 160.463 289.993 161.524 289.889 162.528C289.798 163.524 289.371 164.368 288.907 165.113C288.442 165.87 287.866 166.531 287.319 167.162C286.295 168.341 285.333 169.611 285.2 170.862C285.034 172.105 285.88 173.462 286.655 174.869C288.554 177.546 289.002 181.918 286.228 184.253C286.469 182.603 286.829 181.173 286.796 179.702C286.771 178.975 286.626 178.257 286.336 177.595C286.224 177.246 286.017 176.953 285.839 176.618L285.2 175.595C284.765 174.907 284.325 174.208 283.952 173.417C283.583 172.634 283.306 171.694 283.384 170.736C283.455 169.774 283.832 168.908 284.28 168.143C284.736 167.375 285.296 166.725 285.851 166.071C286.378 165.463 286.875 164.877 287.257 164.25C287.654 163.634 287.945 162.984 287.99 162.395C288.123 161.239 287.07 160.208 285.739 159.326C285.416 159.106 285.068 158.897 284.719 158.68C284.296 158.387 283.844 158.075 283.525 157.608Z" fill="#F8A80C"/>
</g>
<path d="M178.018 22.8619C178.727 23.6414 179.531 23.7744 180.319 24.0938L182.657 25.0101C184.199 25.6413 185.733 26.2952 187.209 27.0518C190.153 28.5613 192.914 30.4015 195.289 32.6029C197.644 34.8119 199.867 37.1844 201.546 39.8953C202.512 41.1766 203.167 42.6252 203.946 44.0129L204.232 44.5376L204.46 45.0889C204.626 45.4463 204.767 45.8151 204.966 46.1687C205.339 46.8759 205.762 47.5717 206.367 48.2332C206.4 47.4006 206.251 46.5983 206.052 45.8075C205.828 45.0319 205.625 44.2373 205.235 43.5149C204.51 42.0434 203.909 40.5188 202.98 39.1311C202.541 38.4315 202.134 37.7053 201.649 37.0323L200.111 35.0438C199.626 34.3594 199.008 33.7739 198.436 33.1504C197.847 32.5458 197.288 31.9109 196.62 31.371C194.125 29.0517 191.231 27.1127 188.142 25.5196C187.383 25.0976 186.567 24.7744 185.779 24.398C184.975 24.0558 184.145 23.7554 183.312 23.4703C182.466 23.2269 181.625 22.976 180.746 22.8239C179.884 22.6604 179.009 22.3981 178.018 22.8619ZM207.868 53.4687C207.872 53.6626 207.889 53.8565 207.93 54.0314C208.017 54.3926 208.187 54.7196 208.332 55.058C208.627 55.7309 208.921 56.4039 209.232 57.0731C209.53 57.7423 209.879 58.3962 210.239 59.0426C210.422 59.3657 210.612 59.6889 210.807 60.0083C210.99 60.3315 211.16 60.6585 211.906 60.7725C212.354 60.2136 212.225 59.8676 212.109 59.5216C212.005 59.168 211.898 58.8182 211.777 58.4684C211.545 57.7727 211.292 57.0845 210.994 56.4115C210.712 55.7348 210.405 55.0656 210.107 54.3926C209.953 54.0618 209.821 53.7196 209.609 53.4079C209.506 53.252 209.369 53.1037 209.224 52.963C209.141 52.8946 209.091 52.8186 208.983 52.7615C208.859 52.7083 208.656 52.6855 208.32 52.7159C208.063 52.906 207.934 53.0543 207.889 53.1683C207.851 53.2824 207.876 53.3661 207.868 53.4687ZM212.341 159.669C211.645 158.178 211.392 156.498 211.417 154.798C211.438 153.95 211.496 153.087 211.645 152.232C211.811 151.372 211.947 150.528 211.823 149.528C210.986 150.198 210.592 151.08 210.335 151.969C210.065 152.859 209.85 153.775 209.746 154.711C209.543 156.574 209.746 158.543 210.583 160.353C210.994 161.258 211.57 162.106 212.271 162.855L213.249 163.851C213.544 164.182 213.838 164.505 214.112 164.855C215.219 166.231 216.147 167.756 216.943 169.341C218.523 172.52 219.671 175.903 220.554 179.34C221.01 181.055 221.383 182.793 221.678 184.542C221.972 186.298 222.067 188.036 222.797 189.811C223.523 188.005 223.278 186.169 223.096 184.378C222.888 182.576 222.602 180.785 222.229 179.006C221.441 175.459 220.347 171.945 218.664 168.615C217.83 166.946 216.856 165.326 215.65 163.82C215.351 163.436 215.028 163.075 214.7 162.71L213.726 161.714C213.158 161.102 212.681 160.418 212.341 159.669ZM219.215 131.898C219.87 131.788 220.463 131.408 220.857 130.94C221.288 130.484 221.524 129.936 221.769 129.408C222.229 128.343 222.532 127.248 222.772 126.149C223.013 125.051 223.129 123.944 223.237 122.842C223.348 121.739 223.386 120.636 223.39 119.538C223.407 117.332 223.311 115.142 223.149 112.956C223.071 111.861 222.971 110.77 222.797 109.686C222.714 109.146 222.577 108.607 222.436 108.07C222.275 107.542 222.258 106.987 221.495 106.531C220.886 107.15 221.019 107.675 220.99 108.223C220.977 108.766 220.969 109.31 220.998 109.85C221.056 110.93 221.155 112.002 221.238 113.078C221.404 115.23 221.504 117.382 221.499 119.526C221.475 121.67 221.433 123.815 221.135 125.91C220.99 126.955 220.795 127.993 220.451 128.974C220.289 129.465 220.061 129.925 219.866 130.389C219.679 130.879 219.456 131.305 219.215 131.898ZM219.965 95.3753C219.99 95.9228 220.011 96.4703 220.057 97.0178C220.082 97.5615 220.164 98.109 220.256 98.6527C220.31 98.9264 220.363 99.1964 220.426 99.4663C220.475 99.7401 220.513 100.014 221.172 100.261C221.802 99.9568 221.81 99.683 221.831 99.4093C221.868 99.1355 221.897 98.858 221.918 98.5842C221.96 98.0329 221.985 97.4854 221.96 96.9379C221.947 96.3904 221.914 95.8429 221.885 95.2954C221.864 95.0217 221.873 94.7479 221.79 94.478C221.752 94.3411 221.678 94.208 221.599 94.0712C221.545 94.0065 221.524 93.9381 221.446 93.8735C221.35 93.8088 221.168 93.748 220.844 93.6947C220.525 93.7746 220.351 93.8506 220.268 93.9229C220.189 93.9951 220.177 94.0636 220.131 94.1358C220.065 94.2765 220.007 94.4133 219.982 94.5502C219.924 94.8278 219.961 95.0977 219.965 95.3753ZM110.594 122.054C106.772 111.823 103.376 98.569 104.218 85.0374C106.071 55.3774 123.952 24.0292 152.318 23.1775C152.318 23.1775 185.294 6.23543 203.104 29.3179C220.915 52.4003 233.626 114.291 225.26 133.792C222.826 139.476 216.354 144.932 217.275 158.364C230.836 178.371 227.341 200.537 227.109 209.213C226.885 217.563 218.962 242.645 218.962 242.645C218.962 242.645 211.268 237.923 204.754 231.999C204.651 232.95 204.539 233.897 204.406 234.847C204.17 236.573 203.896 238.299 203.573 240.022C203.241 241.736 202.972 243.485 201.803 245.033C201.421 243.193 201.794 241.524 202.014 239.816C202.234 238.109 202.404 236.395 202.536 234.676C202.648 233.178 202.744 231.672 202.827 230.167C200.65 228.015 198.731 225.753 197.458 223.54C191.264 212.795 192.57 201.849 191.264 188.317C190.63 181.709 186.699 176.93 181.84 172.238C181.832 172.269 181.828 172.295 181.816 172.322C181.695 172.774 181.579 173.231 181.434 173.675C181.165 174.576 180.804 175.443 180.46 176.322C179.722 178.055 178.893 179.759 178.01 181.458C177.11 183.15 176.094 184.812 174.826 186.371C173.528 187.903 171.977 189.397 169.822 190.329L169.805 190.34C169.56 190.443 169.303 190.473 169.055 190.443C167.135 190.188 165.547 189.659 163.91 189.032C162.297 188.397 160.759 187.621 159.316 186.728C157.861 185.846 156.534 184.8 155.332 183.663C154.739 183.086 154.167 182.489 153.657 181.85C153.209 181.177 152.409 180.728 152.708 179.561C153.383 179.576 153.744 179.782 154.051 180.036C154.341 180.299 154.619 180.569 154.922 180.82C155.51 181.329 156.12 181.812 156.737 182.287C157.973 183.226 159.275 184.082 160.639 184.831C161.998 185.584 163.445 186.207 164.925 186.709C166.248 187.161 167.695 187.511 168.992 187.716C170.344 187.063 171.6 185.998 172.732 184.819C173.967 183.511 175.074 182.048 176.074 180.504C177.085 178.968 177.935 177.329 178.702 175.664L179.875 173.162L180.472 171.915C180.563 171.698 180.675 171.489 180.854 171.295C175.97 166.699 170.34 162.075 166.173 155.783C157.488 142.647 164.872 129.214 164.872 129.214C165.05 128.834 165.22 128.461 165.39 128.104C165.386 128.096 165.377 128.092 165.369 128.088C167.595 122.739 170.365 118.211 170.365 118.211C193.449 112.359 195.791 77.1291 196.011 68.1181C179.556 66.2361 169.15 61.1755 162.624 55.9401C158.408 62.2173 150.461 68.1181 135.672 70.4032C135.519 68.5668 135.312 66.8178 135.117 65.3844C134.814 63.202 133.4 61.339 131.464 60.2973C131.336 60.2326 131.203 60.168 131.071 60.1071C131.025 60.0843 130.975 60.0615 130.934 60.0425C130.809 59.9893 130.681 59.9361 130.552 59.8866C130.49 59.8638 130.428 59.8448 130.37 59.8258C130.204 59.7688 130.038 59.7155 129.868 59.6737C129.736 59.6357 129.603 59.6015 129.466 59.5711C129.375 59.552 129.284 59.5444 129.192 59.5254C129.072 59.5064 128.952 59.4874 128.828 59.4722C128.741 59.4608 128.654 59.4532 128.571 59.4494C128.425 59.4342 128.285 59.4304 128.144 59.4266C128.069 59.4228 127.998 59.4228 127.924 59.4228C127.708 59.4228 127.489 59.4304 127.269 59.4494C127.041 59.4722 126.809 59.5064 126.576 59.552C126.518 59.5634 126.465 59.5711 126.402 59.5825C126.174 59.6319 125.938 59.6889 125.702 59.7612C125.702 59.765 125.702 59.765 125.702 59.765C125.457 59.841 125.212 59.9323 124.968 60.0387C124.926 60.0577 124.881 60.0767 124.835 60.0957C124.342 60.3201 123.848 60.6052 123.363 60.9626C123.334 60.9854 123.305 61.0082 123.272 61.0311C122.775 61.4037 122.281 61.8561 121.805 62.3922C121.784 62.4226 121.759 62.4454 121.738 62.4682C121.498 62.742 121.261 63.0348 121.033 63.3541C120.341 64.297 119.686 65.4415 119.081 66.8254C116.129 73.5817 122.426 80.5015 127.928 82.9919C127.746 98.0329 132.571 105.033 132.571 105.033C132.824 108.591 132.186 111.572 130.884 114.264C127.588 116.618 119.939 119.028 110.594 122.054ZM162.973 79.0301C163.263 77.3534 162.019 75.7831 160.191 75.517C158.367 75.2508 156.65 76.3915 156.36 78.0644C156.066 79.7373 157.314 81.3076 159.138 81.5737C160.966 81.8437 162.683 80.703 162.973 79.0301ZM183.851 86.3073C185.675 86.5734 187.392 85.4366 187.682 83.7599C187.972 82.0908 186.728 80.5167 184.904 80.2506C183.076 79.9844 181.364 81.1251 181.069 82.798C180.779 84.4671 182.023 86.0412 183.851 86.3073ZM157.604 103.66C156.837 103.23 156.033 102.827 155.336 102.299C154.98 102.044 154.569 101.831 154.254 101.527L153.728 101.105C153.562 100.953 153.317 100.865 152.67 100.995C152.33 101.474 152.388 101.736 152.529 101.938L152.919 102.573C153.164 103.014 153.529 103.363 153.881 103.732C154.553 104.508 155.448 105.048 156.285 105.645C158.052 106.717 159.992 107.542 162.023 107.956C164.042 108.401 166.107 108.458 168.126 108.466C169.138 108.47 170.145 108.496 171.152 108.447C171.654 108.435 172.152 108.363 172.653 108.295L173.399 108.15C173.648 108.097 173.893 107.956 174.084 107.458C173.785 107.006 173.536 106.899 173.3 106.88L172.574 106.82C172.089 106.778 171.613 106.759 171.132 106.74C170.174 106.709 169.212 106.694 168.267 106.561C166.372 106.302 164.519 105.899 162.745 105.409C160.983 104.888 159.221 104.428 157.604 103.66ZM172.533 95.4361C172.429 95.8163 172.226 96.2459 171.998 96.6071C171.758 96.9721 171.455 97.2915 171.128 97.5881C170.767 97.8542 170.39 98.1052 169.963 98.2877C169.548 98.4816 169.1 98.6565 168.628 98.7819C168.395 98.8542 168.151 98.9188 167.906 98.9644C167.658 99.0101 167.434 99.1355 167.119 99.5918C167.351 100.094 167.682 100.215 167.981 100.234C168.288 100.253 168.599 100.261 168.905 100.242C169.523 100.204 170.141 100.075 170.725 99.8541C171.903 99.4093 172.956 98.6375 173.71 97.6945C174.108 97.2231 174.432 96.7516 174.701 96.1813C174.817 95.8848 174.946 95.5768 175.037 95.2764L175.199 94.4095C175.286 93.8316 175.29 93.2803 175.298 92.7252C175.257 92.1891 175.249 91.6302 175.166 91.1093C174.909 88.984 174.175 87.0031 173.429 85.0602C173.047 84.0907 172.657 83.125 172.193 82.1896C171.957 81.722 171.708 81.2619 171.439 80.8057L171.024 80.1289C170.9 79.9008 170.672 79.7031 170.021 79.6689C169.569 80.1099 169.552 80.3837 169.623 80.627L169.793 81.3684C169.917 81.8627 170.033 82.3531 170.17 82.8398L171.003 85.737C171.534 87.6646 171.924 89.6113 172.326 91.4895C172.516 92.4287 172.649 93.364 172.666 94.2384L172.649 94.881L172.533 95.4361ZM182.052 73.5057L182.309 73.5855C182.475 73.6274 182.632 73.6768 182.79 73.7186C183.101 73.7985 183.399 73.8251 183.694 73.9087C184.291 74.0456 184.83 74.2889 185.422 74.3916C186.007 74.5285 186.666 74.5893 187.292 74.787C187.607 74.882 187.877 75.0493 188.167 75.1938C188.312 75.2699 188.465 75.3231 188.631 75.3725L188.892 75.4371C188.98 75.46 189.125 75.4105 189.543 75.1178C189.838 74.7186 189.85 74.5589 189.796 74.4752C189.751 74.3916 189.705 74.3041 189.651 74.2243C189.535 74.0722 189.411 73.9277 189.266 73.8099C188.975 73.5703 188.652 73.384 188.354 73.1445C187.752 72.6768 187.11 72.1864 186.343 71.9012C185.592 71.5704 184.718 71.559 183.893 71.5932C183.478 71.6123 183.068 71.6389 182.661 71.7605C182.462 71.8062 182.272 71.8936 182.085 71.9925L181.807 72.1445C181.716 72.1788 181.641 72.3194 181.666 72.8593C181.869 73.3726 181.973 73.4943 182.052 73.5057ZM164.2 69.2017C163.951 69.0306 163.694 68.8671 163.429 68.7341C162.898 68.4489 162.326 68.2588 161.75 68.0611C160.597 67.6885 159.378 67.3691 158.122 67.4033C156.862 67.3767 155.606 67.7037 154.432 68.0649C154.138 68.1676 153.848 68.2588 153.549 68.3387C153.259 68.4489 152.973 68.5554 152.695 68.677C152.409 68.7873 152.148 68.9432 151.907 69.1333L151.555 69.4184C151.439 69.5135 151.373 69.6884 151.514 70.1561C151.903 70.502 152.09 70.5591 152.227 70.5325L152.629 70.4564C152.886 70.3842 153.143 70.3233 153.396 70.2625C153.649 70.2017 153.889 70.1142 154.138 70.0458C154.395 69.9964 154.652 69.9583 154.909 69.9241C155.954 69.8367 156.982 69.9279 158.002 70.0268C159.013 70.1523 160.058 70.1561 161.107 70.3081L162.691 70.5743C162.96 70.6161 163.23 70.6465 163.512 70.6769L163.93 70.7226C164.063 70.7568 164.233 70.6845 164.627 70.2701C164.768 69.734 164.689 69.5477 164.561 69.4717L164.2 69.2017ZM249.422 284.358C250.715 285.012 252.005 285.685 253.257 286.384C253.887 286.727 254.5 287.088 255.101 287.441C255.694 287.795 256.304 288.168 256.747 288.521L257.622 289.209C257.983 289.479 258.314 289.666 258.667 289.882L259.699 290.426L260.74 290.894C262.124 291.494 263.517 292.03 264.919 292.544C266.316 293.049 267.717 293.555 269.143 293.981C269.852 294.209 270.574 294.399 271.295 294.589L272.385 294.859C272.746 294.958 273.14 294.969 273.704 294.582C273.563 293.954 273.268 293.719 272.933 293.57L271.942 293.095C271.278 292.783 270.619 292.464 269.948 292.175L265.943 290.422C264.616 289.825 263.302 289.221 262.037 288.578C261.407 288.251 260.794 287.932 260.201 287.609C259.944 287.438 259.625 287.278 259.409 287.118L259.098 286.894L258.572 286.491C257.162 285.521 255.848 284.959 254.463 284.335C253.091 283.738 251.718 283.183 250.338 282.643L246.234 280.966C245.549 280.693 244.849 280.445 244.144 280.217L243.074 279.89C242.718 279.78 242.32 279.754 241.773 280.058C241.901 280.632 242.187 280.883 242.506 281.05L243.477 281.563C244.127 281.898 244.787 282.217 245.45 282.521C246.781 283.118 248.116 283.711 249.422 284.358ZM277.228 305.402L276.436 305.562L275.669 305.748C275.404 305.786 275.138 305.824 274.881 305.874C274.359 305.957 273.849 306.098 273.327 306.163L271.743 306.288C269.62 306.311 267.518 306.079 265.449 305.688C263.393 305.266 261.308 304.878 259.264 304.258C258.244 303.954 257.245 303.589 256.233 303.239L254.708 302.714L253.941 302.444C253.692 302.342 253.402 302.323 252.85 302.642C252.759 303.239 252.946 303.482 253.174 303.634L253.858 304.121C254.322 304.429 254.795 304.733 255.288 304.999C256.266 305.551 257.303 305.992 258.352 306.425C260.45 307.265 262.655 307.988 264.969 308.277C267.274 308.611 269.649 308.49 271.942 308.189L273.658 307.927C274.23 307.824 274.79 307.672 275.35 307.532L276.179 307.3C276.452 307.205 276.71 307.071 276.971 306.961L277.742 306.589C277.995 306.463 278.219 306.254 278.26 305.729C277.792 305.38 277.493 305.349 277.228 305.402ZM262.195 331.39C261.751 331.226 261.304 331.116 260.889 330.93C260.068 330.538 259.322 330.059 258.667 329.462C257.361 328.26 256.362 326.736 255.599 325.093C254.824 323.451 254.285 321.69 253.854 319.9C253.443 318.105 253.049 316.299 252.771 314.463C252.17 310.794 251.747 307.064 251.548 303.315C251.466 301.441 251.47 299.562 251.49 297.684L251.499 294.863L251.486 294.247C252.079 294.73 252.697 295.198 253.327 295.654C254.007 296.118 254.654 296.62 255.404 297.011C255.773 297.213 256.134 297.418 256.536 297.578L257.129 297.813C257.319 297.905 257.572 297.92 258.062 297.57C258.215 297.004 258.128 296.802 257.979 296.677L257.56 296.27C257.27 296.019 257.013 295.722 256.722 295.471L255.019 293.924C253.895 292.871 252.875 291.73 251.706 290.715C250.57 289.666 249.355 288.666 248.211 287.597C247.639 287.065 247.133 286.479 246.598 285.917C246.333 285.632 246.047 285.362 245.757 285.099L245.301 284.711C245.151 284.582 244.923 284.506 244.376 284.632C244.074 285.065 244.086 285.297 244.181 285.468L244.467 285.989C244.666 286.324 244.882 286.654 245.127 286.966L246.602 288.814C247.556 290.069 248.501 291.35 249.608 292.509C249.782 292.696 249.973 292.875 250.155 293.057C250.126 293.16 250.106 293.262 250.085 293.369L249.882 294.787C249.766 295.734 249.691 296.684 249.633 297.635C249.529 299.532 249.496 301.437 249.467 303.342C249.384 307.151 249.413 310.988 249.927 314.813C250.176 316.725 250.529 318.641 251.097 320.519C251.648 322.401 252.324 324.272 253.298 326.059C254.256 327.838 255.475 329.599 257.261 330.922C258.128 331.599 259.177 332.093 260.255 332.431C261.349 332.606 262.518 333.18 263.6 332.196C263.095 331.606 262.659 331.462 262.195 331.39ZM211.367 331.751L209.257 332.435C207.868 332.933 206.396 333.218 204.982 333.633C202.147 334.465 199.224 335.04 196.338 335.709C190.493 336.811 184.585 337.595 178.656 338.275C175.688 338.579 172.72 338.914 169.73 339.108C168.238 339.245 166.745 339.351 165.249 339.427C163.756 339.518 162.26 339.614 160.759 339.663C157.761 339.773 154.764 339.788 151.762 339.766L147.26 339.75L145.009 339.754C144.258 339.75 143.508 339.83 142.716 340.252C143.429 340.785 144.18 340.952 144.93 341.024L147.194 341.229C148.703 341.347 150.212 341.423 151.725 341.469C153.238 341.537 154.747 341.534 156.261 341.553C157.774 341.587 159.287 341.568 160.8 341.568C162.314 341.594 163.831 341.564 165.344 341.545C166.857 341.537 168.375 341.499 169.888 341.435C172.919 341.34 175.941 341.096 178.971 340.887C185.016 340.313 191.011 339.302 196.923 337.963C199.846 337.18 202.81 336.53 205.65 335.484C207.08 335.002 208.519 334.549 209.883 333.914L211.956 333.021C212.648 332.732 213.299 332.352 213.747 331.595C212.806 331.367 212.068 331.511 211.367 331.751ZM142.331 112.622C141.021 111.705 139.798 110.686 138.599 109.648L136.796 108.093L135.892 107.306C135.585 107.051 135.216 106.85 134.57 106.827C134.441 107.409 134.611 107.8 134.847 108.127L135.614 109.07C136.145 109.69 136.705 110.283 137.289 110.854C138.471 111.983 139.735 113.04 141.029 114.074C143.603 116.138 146.377 118.07 149.486 119.53C151.037 120.268 152.658 120.895 154.345 121.359C156.045 121.804 157.766 122.115 159.557 122.241C161.343 122.351 163.168 122.294 164.934 121.861C165.813 121.659 166.671 121.37 167.475 120.967C167.877 120.769 168.259 120.537 168.632 120.294C169.001 120.07 169.399 119.766 169.274 119.024C168.52 118.788 168.209 118.91 167.857 119.074C167.496 119.211 167.131 119.325 166.758 119.427C166.016 119.629 165.261 119.785 164.49 119.872C162.96 120.062 161.389 120.058 159.834 119.838C158.288 119.633 156.717 119.268 155.208 118.811C153.682 118.363 152.185 117.834 150.718 117.222C147.782 115.986 144.947 114.454 142.331 112.622ZM76.0595 248.995C84.1646 249.466 92.2075 250.713 100.197 252.116C108.177 253.588 116.096 255.325 124.006 257.143C131.713 258.922 139.37 260.895 146.999 262.975C147.123 263.465 147.239 264.005 147.326 264.519C147.455 265.241 147.546 265.975 147.621 266.712C147.766 268.184 147.84 269.678 147.857 271.176C147.882 272.67 147.816 274.172 147.728 275.674C147.625 277.176 147.413 278.655 147.932 280.255C148.417 279.552 148.69 278.814 148.91 278.069C149.097 277.32 149.175 276.556 149.283 275.796C149.47 274.275 149.631 272.746 149.706 271.206C149.781 269.67 149.818 268.123 149.71 266.572C149.685 266.203 149.656 265.834 149.623 265.465C151.825 265.937 154.072 265.777 156.294 265.709C158.926 265.579 161.559 265.336 164.158 264.891C169.366 264.047 174.457 262.618 179.311 260.686C184.009 258.728 188.975 257.439 194.013 256.553C198.988 255.713 204.046 255.375 209.091 255.508L214.277 257.31L215.525 255.032L209.812 253.139L209.787 253.131C209.663 253.09 209.526 253.067 209.381 253.063C204.066 252.983 198.751 253.451 193.561 254.454C190.965 254.96 188.403 255.595 185.887 256.355C184.631 256.759 183.408 257.12 182.143 257.572C180.903 258.013 179.689 258.507 178.499 258.994C173.806 260.922 168.868 262.34 163.823 263.268C161.298 263.716 158.748 264.089 156.182 264.313C153.98 264.557 151.791 264.454 149.561 264.884C149.536 264.667 149.515 264.454 149.486 264.241C149.374 263.443 149.262 262.713 149.014 261.838C148.922 261.538 148.674 261.279 148.334 261.177L148.272 261.158C140.486 258.812 132.638 256.622 124.719 254.645C116.805 252.66 108.778 251.014 100.682 249.717C93.4471 248.561 86.1463 247.732 78.804 247.307C78.7957 247.303 78.7916 247.299 78.7916 247.291L78.3272 246.808C78.008 246.493 77.6888 246.177 77.3571 245.877C76.6772 245.288 75.9309 244.778 75.2054 244.231C74.455 243.717 73.7005 243.204 72.9294 242.71C72.1209 242.25 71.3166 241.797 70.4419 241.448C68.7338 240.683 66.8599 240.204 64.9776 239.866C64.0365 239.695 63.0789 239.539 62.1046 239.482C61.6154 239.467 61.122 239.486 60.6287 239.554C60.3799 239.592 60.1353 239.657 59.8907 239.71C59.6503 239.771 59.3891 239.934 59.2979 240.455C59.6544 240.862 59.8451 240.968 60.0565 240.972C60.268 240.991 60.4753 241.006 60.6826 241.033L61.9388 241.185C62.7804 241.307 63.6261 241.436 64.4428 241.714C66.0763 242.257 67.6227 243.006 69.1484 243.793C70.6657 244.58 72.237 245.314 73.7751 246.147C74.3597 246.481 74.9525 246.816 75.5454 247.147C71.6359 247.002 67.7098 246.972 63.7878 247.272C61.7232 247.424 59.6668 247.706 57.6271 248.101C56.6072 248.299 55.5915 248.527 54.5965 248.824C53.6222 249.158 52.6231 249.595 51.9183 250.405C53.0169 250.337 53.9788 250.192 54.9613 250.006C55.9356 249.797 56.914 249.607 57.9049 249.474C59.8907 249.185 61.9014 249.048 63.9163 248.922C67.9502 248.732 72.009 248.751 76.0595 248.995ZM144.76 302.41C145.096 302.296 145.361 302.03 145.44 301.684C145.946 299.464 146.464 297.251 146.92 295.023L147.629 291.684C147.874 290.574 148.147 289.472 147.712 288.213C146.717 289.164 146.427 290.266 146.112 291.361L145.133 294.642C144.528 296.631 143.972 298.635 143.409 300.635C137.235 302.444 130.822 303.608 124.354 304.361C117.688 305.136 110.976 305.646 104.235 305.946C97.4976 306.212 90.7357 306.345 83.978 306.163C80.595 306.083 77.2203 305.9 73.8414 305.741L68.7752 305.497C67.0796 305.456 65.4254 305.106 63.6468 305.729C65.2347 306.706 66.9594 306.649 68.6426 306.889C70.3258 307.079 72.0214 307.265 73.7129 307.391C77.1001 307.672 80.4997 307.832 83.8951 307.995C90.6943 308.288 97.5017 308.539 104.326 308.387C111.142 308.277 117.978 307.87 124.748 306.916C131.514 305.969 138.247 304.596 144.723 302.422L144.76 302.41ZM297.94 271.754C299.089 271.701 300.237 271.613 301.39 271.457C300.241 271.214 299.085 271.047 297.928 270.914L297.94 271.754ZM333.379 196.815L325.033 196.347L308.342 195.435L274.952 193.781L258.256 192.979L254.082 192.777L253.559 192.754C253.393 192.743 253.223 192.735 252.954 192.735C252.465 192.739 251.975 192.811 251.515 192.952C250.587 193.226 249.757 193.773 249.169 194.488C248.874 194.83 248.634 195.294 248.51 195.534L248.054 196.393L247.141 198.115L245.309 201.556C240.413 210.73 235.628 219.951 230.79 229.148L216.429 256.812L212.851 263.732L212.408 264.598C212.234 264.933 212.03 265.45 212.005 265.91C211.939 266.861 212.316 267.815 213.03 268.488C213.39 268.826 213.826 269.1 214.298 269.279C214.539 269.366 214.787 269.427 215.04 269.473C215.281 269.503 215.583 269.526 215.724 269.526L217.81 269.587L234.526 270.066L266.063 271.073C265.644 270.461 265.242 269.872 264.881 269.317L234.6 268.157L217.901 267.469L215.811 267.382C215.6 267.378 215.558 267.363 215.455 267.355C215.364 267.332 215.277 267.317 215.194 267.279C215.028 267.21 214.879 267.119 214.75 266.994C214.493 266.747 214.373 266.397 214.402 266.074C214.423 265.891 214.46 265.8 214.58 265.56L215.04 264.701L218.718 257.823L233.377 230.285C238.211 221.084 243.095 211.905 247.871 202.678L250.57 197.488C250.864 196.948 251.192 196.218 251.383 196.009C251.627 195.701 251.98 195.461 252.378 195.34C252.572 195.283 252.784 195.245 252.991 195.245C253.07 195.241 253.248 195.245 253.431 195.252L253.953 195.275L258.128 195.442L274.831 196.1L308.243 197.378L324.95 197.929L333.308 198.191C336.09 198.282 338.88 198.294 341.691 197.868C338.938 197.199 336.161 196.971 333.379 196.815ZM276.95 269.796C277.406 270.34 277.85 270.887 278.268 271.438C280.399 271.495 282.526 271.552 284.653 271.598L287.368 271.663C287.435 271.214 287.485 270.75 287.522 270.271L284.715 270.146C282.128 270.016 279.541 269.906 276.95 269.796ZM279.429 273.005C279.79 273.51 280.138 274.012 280.462 274.499L281.68 274.514C283.194 274.533 284.711 274.48 286.245 273.986C284.757 273.385 283.247 273.225 281.738 273.138L279.429 273.005ZM151.514 283.244L147.123 284.32C145.664 284.685 144.221 285.126 142.878 285.928C144.474 286.065 145.975 285.848 147.455 285.552L151.887 284.654C154.847 284.073 157.795 283.438 160.742 282.807L178.42 279.005L196.135 275.37L204.991 273.59C206.467 273.298 207.938 273.024 209.398 272.773C209.796 272.693 210.028 272.689 210.343 272.636C210.604 272.564 211.015 272.609 211.388 272.621L213.656 272.72C225.745 273.206 237.834 273.533 249.927 273.856C255.972 274.02 262.017 274.202 268.065 274.317C268.157 274.317 268.248 274.317 268.339 274.32C267.858 273.647 267.381 272.974 266.917 272.309C261.275 272.024 255.628 271.788 249.981 271.537C237.876 271.005 225.77 270.465 213.66 270.092L211.388 270.032C210.729 269.952 209.638 270.134 208.88 270.267C207.37 270.552 205.882 270.853 204.406 271.172L195.559 273.1L177.931 277.145L160.303 281.156C157.368 281.833 154.432 282.514 151.514 283.244ZM287.572 220.798C282.253 220.734 277.016 224.209 275.876 228.562C274.74 232.912 278.127 236.493 283.447 236.558C288.77 236.623 294.006 233.148 295.142 228.798C296.282 224.445 292.891 220.863 287.572 220.798ZM188.312 272.56C190.024 271.853 191.72 271.096 193.366 270.267C194.817 269.541 196.231 268.785 197.644 267.975C198.842 268.594 200.049 269.184 201.322 269.716L205.886 268.686L205.65 268.644C205.285 268.579 204.634 268.515 204.506 268.492C203.892 268.362 203.146 268.089 202.437 267.811C201.011 267.241 199.564 266.572 198.171 265.891L198.138 265.876C197.785 265.709 197.346 265.716 196.993 265.937C195.505 266.864 193.926 267.762 192.346 268.61C190.754 269.45 189.158 270.294 187.52 271.051C185.883 271.803 184.22 272.522 182.52 273.126C180.833 273.704 179.175 274.187 177.512 275.1L187.74 272.788C187.931 272.712 188.121 272.636 188.312 272.56ZM200.679 260.762L211.873 261.678L210.488 264.203L207.694 263.944L207.98 264.078L207.992 264.081C208.079 264.127 208.166 264.176 208.237 264.23L209.8 265.45L209.219 266.507C208.991 266.921 208.855 267.347 208.784 267.773L206.678 266.157L199.937 263.138C199.257 262.834 198.979 262.081 199.311 261.458C199.564 260.979 200.111 260.716 200.658 260.758L200.679 260.762Z" fill="#F06000"/>
</g>
<defs>
<clipPath id="clip0_16_194">
<rect width="398" height="365" fill="white"/>
</clipPath>
</defs>
</svg>
