<svg width="200" height="200" viewBox="0 0 317 382" fill="none" xmlns="http://www.w3.org/2000/svg">
<g clip-path="url(#clip0_16_216)">
<path d="M339.351 -37.2113H-30.8501V409.324H339.351V-37.2113Z" fill="white"/>
<path d="M339.351 -37.2113H-30.8501V409.324H339.351V-37.2113Z" fill="white"/>
<path d="M339.351 -37.2113H-30.8501V409.324H339.351V-37.2113Z" fill="#FCFCFC"/>
<mask id="mask0_16_216" style="mask-type:luminance" maskUnits="userSpaceOnUse" x="3" y="11" width="302" height="350">
<path d="M3.29068 11.2099H304.966V360.996H3.29068V11.2099Z" fill="white"/>
</mask>
<g mask="url(#mask0_16_216)">
<path d="M304.838 91.0553V340.778C304.838 342.231 303.861 343.41 302.656 343.41H229.576C228.294 344.972 226.668 346.119 224.856 346.697V358.345C224.856 359.798 223.879 360.977 222.674 360.977H188.796C187.591 360.977 186.614 359.798 186.614 358.345V346.697C184.802 346.119 183.179 344.972 181.894 343.41H125.904C124.622 344.972 122.996 346.119 121.183 346.697V358.345C121.183 359.798 120.206 360.977 119.001 360.977H85.1239C83.9188 360.977 82.9419 359.798 82.9419 358.345V346.697C81.1294 346.119 79.5034 344.972 78.2212 343.41H5.53695C4.33187 343.41 3.35495 342.231 3.35495 340.778V91.0553C3.35495 90.4118 3.55419 89.7878 3.91089 89.3032L52.0564 24.1059C52.0725 24.0827 52.0917 24.0633 52.111 24.0439C52.1367 24.0052 52.1689 23.9703 52.1978 23.9393C52.2653 23.8617 52.336 23.7958 52.4067 23.7299C52.4388 23.7028 52.4742 23.6718 52.5063 23.6447C52.5931 23.5788 52.6862 23.5206 52.7794 23.4664C52.8019 23.4547 52.8244 23.4354 52.8469 23.4237C52.9626 23.3695 53.0847 23.323 53.2068 23.2919C53.2454 23.2803 53.284 23.2764 53.3225 23.2687C53.4189 23.2493 53.5153 23.2377 53.6117 23.2338C53.6375 23.2299 53.66 23.2222 53.6824 23.2222H172.025V22.7493C172.025 22.7454 172.025 22.7415 172.025 22.7415C172.025 16.3807 176.309 11.2099 181.572 11.2099C186.839 11.2099 191.123 16.3807 191.123 22.7415V23.226H196.188V22.7493C196.188 22.7454 196.188 22.7454 196.188 22.7415C196.188 16.3807 200.471 11.2099 205.735 11.2099C211.002 11.2099 215.286 16.3807 215.286 22.7415V23.226H254.51C254.536 23.226 254.562 23.2338 254.588 23.2338C254.681 23.2377 254.771 23.2493 254.864 23.2687C254.906 23.2764 254.947 23.2803 254.989 23.2919C255.111 23.3268 255.227 23.3695 255.343 23.4237C255.375 23.4392 255.401 23.4625 255.433 23.478C255.516 23.5284 255.603 23.5827 255.683 23.6447C255.722 23.6718 255.757 23.7028 255.793 23.7377C255.863 23.7958 255.928 23.8617 255.992 23.9354C256.024 23.9703 256.056 24.0052 256.085 24.0439C256.104 24.0672 256.124 24.0827 256.14 24.1059L304.285 89.3032C304.642 89.7878 304.838 90.4118 304.838 91.0553Z" fill="#F06000"/>
</g>
<path d="M83.4271 288.004H112.94V298.252C109.611 296.462 105.935 295.462 102.063 295.462C94.8288 295.462 88.2603 298.935 83.4271 304.571V288.004ZM195.619 297.857C198.742 296.318 202.158 295.462 205.735 295.462C213.354 295.462 220.241 299.318 225.135 305.493V288.093H195.619V297.857ZM30.3745 312.501H59.8878V288.004H30.3745V312.501ZM248.671 288.093V312.59H278.188V288.093H248.671ZM275.373 208.015V197.635C242.26 187.657 188.514 182.277 154.096 182.277C119.682 182.277 65.9325 187.653 32.82 197.635V208.015C66.3567 198.135 119.782 192.813 154.096 192.813C188.411 192.813 241.836 198.135 275.373 208.015ZM62.5711 231.865C62.2016 231.586 61.7195 231.509 61.125 231.636C60.7362 231.722 60.5434 231.76 60.1513 231.846C60.3859 233.431 60.5048 234.222 60.7394 235.807C61.125 235.726 61.3178 235.683 61.7067 235.602C62.2948 235.474 62.7254 235.21 62.9953 234.807C63.2653 234.4 63.3552 233.885 63.2653 233.257C63.1721 232.609 62.9407 232.144 62.5711 231.865ZM203.119 227.268C203.071 226.621 203.058 226.016 203.077 225.454C203.032 225.446 203.013 225.446 202.968 225.438C202.904 226 202.798 226.59 202.653 227.214C202.509 227.838 202.264 228.725 201.914 229.873C201.631 230.78 201.49 231.237 201.207 232.144C202.242 232.253 202.759 232.311 203.794 232.431C203.656 231.478 203.585 230.997 203.444 230.043C203.273 228.838 203.164 227.911 203.119 227.268ZM137.187 224.857C137.074 224.225 137 223.624 136.962 223.062C136.917 223.066 136.894 223.066 136.852 223.066C136.843 223.632 136.801 224.233 136.721 224.876C136.644 225.516 136.489 226.435 136.261 227.625C136.072 228.567 135.978 229.039 135.792 229.981C136.83 229.939 137.351 229.919 138.389 229.881C138.151 228.954 138.032 228.493 137.794 227.566C137.502 226.392 137.299 225.489 137.187 224.857ZM181.428 222.632C181.032 222.609 180.836 222.597 180.444 222.574C180.377 224.183 180.345 224.985 180.28 226.594C180.669 226.617 180.865 226.628 181.257 226.652C181.852 226.69 182.318 226.547 182.655 226.225C182.993 225.904 183.176 225.427 183.205 224.791C183.234 224.132 183.096 223.621 182.787 223.248C182.479 222.876 182.025 222.671 181.428 222.632ZM262.082 266.371C231.386 260.475 180.824 257.816 154.096 257.816C127.369 257.816 76.8104 260.475 46.1145 266.371L33.3631 213.275C66.5174 203.402 119.869 198.08 154.096 198.08C188.324 198.08 241.675 203.402 274.833 213.275L262.082 266.371ZM72.1893 244.905C69.9366 241.939 68.799 240.466 66.5013 237.528C67.4975 237.164 68.2302 236.458 68.7058 235.404C69.1782 234.35 69.3228 233.102 69.13 231.656C68.8343 229.443 68.0052 227.865 66.6331 226.931C65.2641 225.997 63.4227 225.764 61.125 226.249C57.9565 226.919 56.3754 227.268 53.2133 227.997C54.4922 236.094 55.1285 240.141 56.4107 248.234C58.7984 247.688 59.9906 247.42 62.3815 246.905C61.983 244.226 61.787 242.889 61.3918 240.214C62.9857 242.633 63.7762 243.843 65.3476 246.277C68.0824 245.703 69.4513 245.432 72.1893 244.905ZM88.7295 242.052C88.4981 239.835 88.3824 238.726 88.151 236.509C85.9176 236.85 84.8025 237.028 82.5723 237.396C82.4727 236.54 82.4245 236.11 82.3281 235.249C84.3044 234.923 85.2942 234.765 87.2769 234.458C87.0552 232.365 86.9427 231.319 86.7242 229.225C84.7254 229.532 83.7292 229.691 81.7336 230.024C81.6436 229.237 81.5986 228.842 81.5086 228.055C83.7163 227.69 84.8186 227.516 87.0263 227.175C86.7949 224.962 86.6792 223.853 86.4446 221.636C81.7368 222.353 79.3844 222.748 74.683 223.593C75.6921 231.745 76.1934 235.819 77.2024 243.97C81.8075 243.141 84.1148 242.757 88.7295 242.052ZM107.044 232.419C106.941 231.028 106.51 229.877 105.748 228.974C104.984 228.066 103.987 227.524 102.763 227.346C102.609 227.326 102.39 227.295 102.107 227.256C100.33 227.024 99.4178 226.625 99.3663 226.047C99.3406 225.737 99.4402 225.485 99.6652 225.28C99.8869 225.078 100.221 224.95 100.658 224.896C101.233 224.826 101.838 224.896 102.467 225.097C103.1 225.303 103.74 225.632 104.383 226.086C104.98 223.853 105.282 222.737 105.893 220.504C104.852 219.989 103.827 219.632 102.824 219.438C101.818 219.244 100.806 219.206 99.7937 219.33C97.5892 219.601 95.87 220.527 94.6424 222.086C93.418 223.648 92.9167 225.535 93.1256 227.733C93.2606 229.152 93.7201 230.288 94.4946 231.144C95.2723 232.001 96.3199 232.528 97.6471 232.733C97.872 232.761 98.1837 232.799 98.5887 232.854C99.8355 232.997 100.481 233.354 100.53 233.923C100.559 234.253 100.456 234.524 100.231 234.745C100.003 234.97 99.678 235.106 99.2539 235.16C98.6497 235.234 97.9845 235.148 97.2615 234.9C96.5352 234.652 95.6965 234.218 94.7388 233.602C94.1604 236.005 93.8744 237.207 93.312 239.61C94.5074 240.214 95.6804 240.633 96.8341 240.866C97.9909 241.098 99.1253 241.145 100.244 241.005C102.429 240.73 104.142 239.807 105.401 238.21C106.661 236.617 107.214 234.691 107.044 232.419ZM121.112 224.458C122.514 224.353 123.214 224.303 124.618 224.21C124.493 221.516 124.432 220.171 124.31 217.477C118.934 217.837 116.247 218.058 110.877 218.581C111.057 221.268 111.147 222.613 111.327 225.299C112.725 225.163 113.426 225.097 114.827 224.973C115.164 230.505 115.334 233.268 115.672 238.8C118.13 238.579 119.364 238.478 121.823 238.292C121.54 232.757 121.398 229.993 121.112 224.458ZM146.805 237.144C144.314 228.946 143.026 224.857 140.375 216.694C137.54 216.783 136.123 216.837 133.289 216.969C131.026 225.322 129.937 229.505 127.835 237.885C130.48 237.722 131.804 237.652 134.449 237.532C134.629 236.489 134.719 235.966 134.899 234.92C136.766 234.838 137.698 234.803 139.568 234.737C139.812 235.768 139.934 236.28 140.175 237.307C142.826 237.222 144.154 237.191 146.805 237.144ZM167.156 216.674C164.611 216.601 163.339 216.57 160.793 216.531C160.745 221.023 160.723 223.272 160.678 227.76C160.662 229.036 160.52 229.927 160.247 230.431C159.974 230.931 159.524 231.179 158.901 231.171C158.271 231.164 157.827 230.915 157.57 230.419C157.313 229.927 157.185 229.028 157.191 227.722C157.214 223.233 157.223 220.985 157.246 216.492C154.701 216.477 153.428 216.477 150.883 216.496C150.905 220.965 150.915 223.198 150.937 227.667C150.944 229.16 151.031 230.373 151.191 231.311C151.355 232.245 151.609 233.028 151.956 233.656C152.654 234.939 153.592 235.92 154.781 236.606C155.967 237.292 157.323 237.641 158.852 237.66C160.376 237.676 161.732 237.358 162.927 236.695C164.126 236.036 165.084 235.075 165.797 233.807C166.163 233.179 166.436 232.396 166.616 231.45C166.796 230.508 166.902 229.307 166.931 227.842C167.021 223.376 167.066 221.144 167.156 216.674ZM189.715 238.555C188.077 235.059 187.244 233.315 185.557 229.83C186.592 229.745 187.437 229.253 188.093 228.357C188.748 227.458 189.118 226.28 189.198 224.818C189.32 222.582 188.806 220.818 187.649 219.535C186.489 218.256 184.744 217.531 182.424 217.384C179.223 217.178 177.623 217.093 174.422 216.946C174.162 225.183 174.033 229.299 173.776 237.532C176.193 237.645 177.401 237.707 179.818 237.85C179.927 235.137 179.985 233.78 180.094 231.063C181.196 233.85 181.739 235.245 182.813 238.04C185.576 238.226 186.955 238.327 189.715 238.555ZM211.417 240.901C209.778 232.392 208.92 228.14 207.12 219.644C204.295 219.306 202.881 219.147 200.053 218.857C196.952 226.807 195.442 230.795 192.495 238.796C195.14 239.032 196.461 239.16 199.099 239.435C199.385 238.424 199.526 237.92 199.812 236.912C201.676 237.11 202.605 237.21 204.469 237.431C204.607 238.486 204.675 239.013 204.813 240.071C207.454 240.381 208.775 240.548 211.417 240.901ZM235.775 224.008C233.343 223.558 232.128 223.341 229.692 222.923C229.371 225.659 229.21 227.028 228.889 229.764C228.779 230.695 228.706 231.447 228.664 232.028C228.625 232.609 228.612 233.14 228.628 233.629C226.98 228.989 226.138 226.675 224.415 222.051C221.935 221.655 220.694 221.469 218.21 221.109C217.397 229.291 216.992 233.381 216.179 241.563C218.547 241.908 219.73 242.087 222.095 242.463C222.417 239.517 222.577 238.044 222.899 235.098C222.969 234.443 223.018 233.854 223.043 233.323C223.069 232.792 223.075 232.295 223.059 231.83C224.73 236.408 225.547 238.703 227.144 243.296C229.564 243.711 230.772 243.924 233.188 244.374C234.223 236.226 234.741 232.152 235.775 224.008ZM254.98 227.997C249.668 226.776 247.01 226.202 241.682 225.144C241.319 227.803 241.136 229.132 240.772 231.791C242.164 232.071 242.858 232.21 244.246 232.497C243.469 237.962 243.08 240.695 242.302 246.16C244.741 246.668 245.959 246.928 248.395 247.471C249.224 242.017 249.639 239.288 250.471 233.834C251.856 234.144 252.55 234.299 253.935 234.617C254.353 231.97 254.562 230.648 254.98 227.997Z" fill="#FFFFF0"/>
<path d="M300.477 225.694V312.594H282.549V285.457C282.549 284.004 281.572 282.825 280.367 282.825H246.489C245.284 282.825 244.311 284.004 244.311 285.457V312.594H229.496V285.457C229.496 284.004 228.519 282.825 227.317 282.825H193.437C192.235 282.825 191.258 284.004 191.258 285.457V300.598C187.411 303.582 184.23 307.71 182.058 312.594H181.216V299.877C181.216 281.817 169.049 267.131 154.096 267.131C139.147 267.131 126.98 281.817 126.98 299.877V312.594H125.74C123.712 308.036 120.807 304.136 117.304 301.206V285.368C117.304 283.914 116.328 282.736 115.122 282.736H81.2451C80.04 282.736 79.0631 283.914 79.0631 285.368V311.152C78.8285 311.625 78.6004 312.106 78.3851 312.594H64.2518V285.368C64.2518 283.914 63.2749 282.736 62.0698 282.736H28.1925C26.9874 282.736 26.0105 283.914 26.0105 285.368V312.594H7.71896V225.694H31.8046L42.4639 270.08C42.7724 271.363 43.8265 272.162 44.9191 271.945C75.1394 265.836 126.955 263.088 154.096 263.088C181.241 263.088 233.057 265.836 263.277 271.945C263.399 271.968 263.518 271.98 263.637 271.98C264.595 271.98 265.459 271.22 265.732 270.08L276.392 225.698H300.477V225.694ZM110.309 342.255C108.403 345.216 105.427 347.127 102.088 347.127C98.7333 347.127 95.7447 345.201 93.8423 342.212C92.2708 344.681 89.9506 346.406 87.3027 346.937V355.709H116.819V346.937C114.187 346.41 111.88 344.701 110.309 342.255ZM213.981 342.255C212.079 345.216 209.1 347.127 205.761 347.127C202.406 347.127 199.417 345.201 197.515 342.212C195.943 344.681 193.626 346.406 190.978 346.937V355.709H220.492V346.937C217.86 346.41 215.552 344.701 213.981 342.255Z" fill="#FFFFF0"/>
<path d="M196.188 37.1338H191.123V28.4899H196.188V37.1338ZM252.332 28.4899H215.286V37.1338H229.596C230.107 37.1338 230.573 37.3547 230.945 37.7113H242.514C243.719 37.7113 244.693 38.8897 244.693 40.3471V143.372C244.693 144.829 243.719 146.008 242.514 146.008H65.6787C64.4768 146.008 63.4999 144.829 63.4999 143.372V40.3471C63.4999 38.8936 64.4768 37.7113 65.6787 37.7113H156.352C156.722 37.3547 157.188 37.1338 157.702 37.1338H172.025V28.4899H55.8645V155.229H252.332V28.4899ZM35.5869 54.3207L23.4172 70.7984V194.89L35.5869 178.409V54.3207ZM19.0564 76.7057L7.71896 92.0592V216.151L19.0564 200.798V76.7057ZM51.5004 32.7692L39.9509 48.4134V172.501L51.5037 156.857V32.7692H51.5004ZM268.245 48.4134L256.692 32.7692V156.857L268.245 172.501V48.4134ZM284.776 70.8022L272.606 54.3207V178.409L284.776 194.89V70.8022ZM289.14 76.7095V200.798L300.477 216.151V92.0592L289.14 76.7095ZM265.694 176.963L253.533 160.497H54.6594L42.5025 176.963H265.694ZM28.4753 211.659C28.4689 211.616 28.4689 211.573 28.4657 211.531C28.4657 211.484 28.4593 211.438 28.4593 211.391V203.964H22.5624L10.4055 220.427H30.5384L28.546 212.124C28.5075 211.973 28.4882 211.818 28.4753 211.659ZM38.6109 182.231L30.7859 192.828C45.1987 188.39 63.622 184.835 82.7362 182.231H38.6109ZM28.4593 195.979L26.454 198.693H28.4593V195.979ZM281.742 198.693L279.737 195.979V198.693H281.742ZM279.737 203.964V211.391C279.737 211.438 279.73 211.484 279.727 211.531C279.727 211.573 279.724 211.616 279.721 211.663C279.708 211.818 279.685 211.973 279.65 212.124L277.654 220.43H297.791L285.63 203.964H279.737ZM225.46 182.231C244.571 184.835 262.994 188.39 277.41 192.828L269.582 182.231H225.46ZM227.414 101.319V77.5119H160.305V101.319H227.414ZM172.025 42.4015H159.884V72.2442H227.414V42.4015H215.286V52.9951C215.286 59.352 211.002 64.5267 205.735 64.5267C200.471 64.5267 196.188 59.352 196.188 52.9951V42.4015H191.123V52.9951C191.123 59.352 186.839 64.5267 181.572 64.5267C176.309 64.5267 172.025 59.352 172.025 52.9951V42.4015ZM124.567 327.905V334.568C124.567 338.588 121.858 341.859 118.529 341.859C115.196 341.859 112.487 338.588 112.487 334.568C112.487 333.111 111.514 331.933 110.309 331.933C109.103 331.933 108.127 333.111 108.127 334.568C108.127 338.588 105.417 341.859 102.088 341.859C98.759 341.859 96.05 338.588 96.05 334.568C96.05 333.111 95.0216 331.933 93.8166 331.933C92.6115 331.933 91.6345 333.111 91.6345 334.568C91.6345 338.588 88.9255 341.859 85.5963 341.859C82.267 341.859 79.558 338.588 79.558 334.568V327.905C79.558 312.92 89.655 300.729 102.063 300.729C114.473 300.729 124.567 312.92 124.567 327.905ZM101.593 306.788C100.086 303.64 95.4233 303.489 91.175 306.451C86.9267 309.416 84.7029 314.366 86.2068 317.513C87.7108 320.661 92.3737 320.812 96.622 317.846C100.874 314.885 103.097 309.931 101.593 306.788ZM228.24 327.905V334.568C228.24 338.588 225.531 341.859 222.201 341.859C218.872 341.859 216.163 338.588 216.163 334.568C216.163 333.111 215.186 331.933 213.981 331.933C212.776 331.933 211.799 333.111 211.799 334.568C211.799 338.588 209.09 341.859 205.761 341.859C202.432 341.859 199.722 338.588 199.722 334.568C199.722 333.111 198.694 331.933 197.489 331.933C196.284 331.933 195.31 333.111 195.31 334.568C195.31 338.588 192.601 341.859 189.269 341.859C185.94 341.859 183.231 338.588 183.231 334.568V327.905C183.231 312.92 193.328 300.729 205.735 300.729C218.143 300.729 228.24 312.92 228.24 327.905ZM205.266 306.788C203.759 303.64 199.096 303.489 194.848 306.451C190.599 309.416 188.375 314.366 189.879 317.513C191.383 320.661 196.046 320.812 200.295 317.846C204.546 314.885 206.77 309.931 205.266 306.788Z" fill="#FF6E29"/>
<path d="M300.477 317.858V338.142H232.167C232.446 337.006 232.6 335.809 232.6 334.568V327.905C232.6 324.401 232.131 321.025 231.276 317.858H300.477ZM76.5212 317.858H7.71896V338.142H75.631C75.3515 337.006 75.1972 335.809 75.1972 334.568V327.905C75.1972 324.401 75.6632 321.025 76.5212 317.858ZM240.332 42.9791H231.775V103.955C231.775 105.409 230.798 106.587 229.596 106.587H158.123C156.918 106.587 155.941 105.409 155.941 103.955V76.4227C155.681 75.9847 155.52 75.4575 155.52 74.8761V42.9791H67.8607V140.74H240.332V42.9791ZM181.576 59.259C184.436 59.259 186.762 56.4488 186.762 52.9951V32.4087C185.265 33.5832 183.488 34.2732 181.572 34.2732C179.66 34.2732 177.883 33.5832 176.386 32.4087V52.9951C176.386 56.4488 178.712 59.259 181.576 59.259ZM205.735 59.259C208.595 59.259 210.922 56.4488 210.922 52.9951V32.4087C209.427 33.5832 207.647 34.2732 205.735 34.2732C203.823 34.2732 202.043 33.5832 200.548 32.4087V52.9951C200.548 56.4488 202.875 59.259 205.735 59.259ZM131.344 299.877V338.142H151.918V272.526C140.391 273.856 131.344 285.612 131.344 299.877ZM156.278 272.526V338.142H176.852V299.877C176.852 285.612 167.805 273.856 156.278 272.526ZM91.175 306.451C86.9267 309.416 84.7029 314.366 86.2068 317.513C87.7108 320.661 92.3737 320.812 96.622 317.846C100.874 314.885 103.097 309.931 101.593 306.788C100.086 303.64 95.4233 303.489 91.175 306.451ZM194.848 306.451C190.599 309.416 188.375 314.366 189.879 317.513C191.383 320.661 196.046 320.812 200.298 317.846C204.546 314.885 206.77 309.931 205.266 306.788C203.762 303.64 199.096 303.489 194.848 306.451Z" fill="#F8A80C"/>
</g>
<defs>
<clipPath id="clip0_16_216">
<rect width="317" height="382" fill="white"/>
</clipPath>
</defs>
</svg>
