<svg xmlns="http://www.w3.org/2000/svg" xmlns:xlink="http://www.w3.org/1999/xlink" width="500" zoomAndPan="magnify" viewBox="0 0 375 374.999991" height="500" preserveAspectRatio="xMidYMid meet" version="1.0"><defs><clipPath id="7638e60589"><path d="M 9.910156 33.332031 L 286.75 33.332031 L 286.75 367.890625 L 9.910156 367.890625 Z M 9.910156 33.332031 " clip-rule="nonzero"/></clipPath><clipPath id="5efe9078a2"><path d="M 28.460938 21.214844 L 368.652344 21.214844 L 368.652344 296 L 28.460938 296 Z M 28.460938 21.214844 " clip-rule="nonzero"/></clipPath></defs><rect x="-37.5" width="450" fill="#ffffff" y="-37.499999" height="449.999989" fill-opacity="1"/><rect x="-37.5" width="450" fill="#ffffff" y="-37.499999" height="449.999989" fill-opacity="1"/><rect x="-37.5" width="450" fill="#fcfcfc" y="-37.499999" height="449.999989" fill-opacity="1"/><g clip-path="url(#7638e60589)"><path fill="#fffff0" d="M 267.554688 288.085938 C 267.554688 288.085938 266.652344 286.105469 265.089844 283.410156 L 266.757812 281.867188 L 270.195312 282.074219 C 269.179688 285.96875 267.554688 288.085938 267.554688 288.085938 Z M 248.980469 288.238281 C 248.75 288.09375 248.515625 287.953125 248.273438 287.8125 L 250.152344 285.21875 L 255.546875 285.910156 C 257.222656 288.394531 258.5 290.234375 258.5 290.234375 C 258.5 290.234375 255.734375 292.53125 248.980469 288.238281 Z M 286.339844 272.679688 L 278.183594 254.820312 L 261.519531 252.972656 L 230.015625 267.652344 L 216.875 281.257812 L 222.007812 290.320312 C 213.824219 290.230469 207.011719 290.144531 205.285156 289.566406 C 200.371094 287.933594 215.925781 194.292969 212.242188 184.890625 C 210.175781 179.617188 202.1875 175.371094 195.570312 172.660156 C 187.421875 160.789062 172.292969 144.632812 156.988281 132.519531 C 158.441406 128.621094 160.257812 124.898438 161.484375 122.652344 C 186.394531 115.082031 186.167969 70.625 186.128906 67.871094 C 187.535156 50.070312 175.6875 38.472656 163.3125 34.863281 C 160.746094 34.117188 158.007812 33.738281 155.175781 33.738281 C 149.304688 33.738281 130.683594 35.757812 122.960938 59.992188 C 122.203125 59.753906 121.402344 59.621094 120.574219 59.621094 C 120.308594 59.621094 120.039062 59.632812 119.769531 59.660156 C 115.960938 60.046875 112.96875 62.894531 110.871094 68.128906 C 109.351562 71.925781 109.992188 76.195312 112.671875 80.152344 C 114.355469 82.632812 116.707031 84.757812 119.089844 86.113281 C 119.078125 99.578125 122.597656 106.722656 123.503906 108.335938 C 123.714844 112.484375 122.746094 115.820312 120.941406 118.882812 C 113.628906 122.738281 97.519531 127.027344 82.25 133.933594 C 70.1875 138.210938 51.433594 148.128906 40.726562 170.171875 C 31.425781 189.320312 4.585938 249.1875 10.847656 281.390625 C 15.257812 304.074219 31.660156 311.214844 56.980469 313.554688 C 55.949219 335.835938 56.292969 364.113281 60.378906 366.441406 C 66.105469 369.714844 217.976562 366.441406 217.976562 366.441406 L 216.335938 360.71875 C 216.335938 360.71875 231.46875 364.53125 229.027344 358.671875 C 226.726562 353.160156 221.785156 343.917969 216.4375 333.933594 C 225.75 339.925781 237.265625 344.710938 249.085938 343.132812 C 256.816406 342.105469 264.558594 331.617188 262.902344 313.640625 C 263.191406 313.476562 263.464844 313.289062 263.71875 313.082031 C 266.261719 310.992188 271.710938 305.519531 275.796875 300.925781 C 279.097656 297.214844 280.890625 292.414062 280.828125 287.453125 L 280.734375 279.960938 L 286.339844 272.679688 " fill-opacity="1" fill-rule="nonzero"/></g><path fill="#f8260c" d="M 123.078125 364.707031 C 122.800781 365.398438 123.132812 366.1875 123.824219 366.46875 C 123.992188 366.539062 124.164062 366.570312 124.335938 366.570312 C 124.871094 366.570312 125.382812 366.25 125.59375 365.722656 C 126.554688 363.351562 142.394531 324.015625 150.761719 286.273438 C 149.710938 286.53125 148.699219 286.777344 147.742188 287.015625 C 139.15625 324.785156 123.3125 364.132812 123.078125 364.707031 Z M 118.824219 123.324219 C 118.53125 122.636719 117.730469 122.320312 117.042969 122.617188 C 116.355469 122.914062 116.042969 123.710938 116.335938 124.398438 C 116.660156 125.140625 148.542969 199.199219 152.765625 239.921875 C 153.046875 242.597656 153.160156 245.457031 153.128906 248.464844 C 148.777344 235.707031 137.894531 219.277344 129.414062 206.46875 C 124.730469 199.390625 119.882812 192.070312 119.847656 190.578125 C 120.429688 185.933594 127.035156 171.492188 127.105469 171.347656 C 127.289062 170.949219 127.265625 170.484375 127.046875 170.105469 C 126.828125 169.726562 126.4375 169.476562 126 169.433594 C 121.644531 169.023438 109.6875 167.054688 106.707031 162.9375 C 104.027344 159.230469 105.25 140.683594 106.644531 129.863281 C 106.742188 129.117188 106.21875 128.441406 105.476562 128.34375 C 104.734375 128.25 104.054688 128.773438 103.960938 129.511719 C 103.570312 132.488281 100.328125 158.734375 104.511719 164.519531 C 108.035156 169.398438 119.242188 171.320312 123.875 171.917969 C 122.066406 175.984375 117.667969 186.152344 117.160156 190.242188 C 116.90625 192.269531 119.542969 196.46875 127.152344 207.960938 C 137.40625 223.449219 152.90625 246.859375 152.328125 258.804688 C 152.316406 259.050781 152.371094 259.285156 152.476562 259.492188 C 152.046875 263.707031 151.425781 268.105469 150.644531 272.605469 L 153.4375 272.652344 C 155.492188 260.503906 156.441406 249.035156 155.464844 239.644531 C 151.195312 198.511719 119.152344 124.070312 118.824219 123.324219 Z M 189.378906 276.488281 C 188.472656 276.386719 187.5625 276.363281 186.65625 276.410156 C 188.085938 303.734375 193.421875 331.585938 214.433594 359.488281 C 214.699219 359.839844 215.105469 360.027344 215.519531 360.027344 C 215.804688 360.027344 216.089844 359.9375 216.332031 359.753906 C 216.929688 359.308594 217.050781 358.457031 216.601562 357.859375 C 196.105469 330.640625 190.816406 303.324219 189.378906 276.488281 Z M 74.898438 150.476562 C 74.355469 150.992188 74.332031 151.851562 74.84375 152.394531 C 75.011719 152.570312 91.472656 170.300781 86.171875 194.722656 C 86.011719 195.457031 86.476562 196.175781 87.207031 196.332031 C 87.304688 196.355469 87.402344 196.367188 87.5 196.367188 C 88.121094 196.367188 88.683594 195.933594 88.824219 195.296875 C 94.4375 169.441406 77.535156 151.289062 76.8125 150.53125 C 76.300781 149.988281 75.441406 149.964844 74.898438 150.476562 Z M 188.804688 249.359375 C 188.761719 240.183594 188.71875 231.519531 188.21875 222.839844 C 185.765625 180.375 159.128906 146.757812 158.855469 146.425781 C 158.390625 145.839844 157.535156 145.746094 156.953125 146.214844 C 156.367188 146.683594 156.277344 147.535156 156.742188 148.121094 C 157.007812 148.445312 183.109375 181.382812 185.511719 222.996094 C 186.007812 231.605469 186.046875 240.234375 186.09375 249.371094 C 186.113281 253.230469 186.132812 257.097656 186.183594 260.980469 L 188.898438 261.046875 C 188.84375 257.136719 188.824219 253.242188 188.804688 249.359375 Z M 198.777344 295.625 C 198.054688 295.828125 197.636719 296.574219 197.839844 297.296875 C 198.125 298.316406 204.949219 322.410156 211.019531 329.308594 C 211.289062 329.613281 211.664062 329.765625 212.039062 329.765625 C 212.355469 329.765625 212.675781 329.660156 212.933594 329.433594 C 213.496094 328.9375 213.550781 328.082031 213.054688 327.519531 C 207.390625 321.082031 200.519531 296.804688 200.449219 296.5625 C 200.246094 295.84375 199.496094 295.425781 198.777344 295.625 Z M 87.714844 203.609375 C 86.984375 203.433594 86.253906 203.878906 86.078125 204.605469 C 86.011719 204.871094 79.449219 231.480469 69.597656 251.765625 C 69.269531 252.441406 69.550781 253.25 70.222656 253.578125 C 70.414062 253.667969 70.617188 253.714844 70.816406 253.714844 C 71.316406 253.714844 71.796875 253.433594 72.035156 252.949219 C 82.011719 232.410156 88.648438 205.515625 88.710938 205.246094 C 88.890625 204.519531 88.445312 203.789062 87.714844 203.609375 Z M 189.074219 269.203125 L 188.960938 269.191406 L 189.074219 269.25 C 189.074219 269.230469 189.074219 269.21875 189.074219 269.203125 Z M 195.335938 258.125 C 195.355469 258.859375 195.960938 259.4375 196.6875 259.4375 C 196.699219 259.4375 196.714844 259.4375 196.730469 259.4375 C 197.476562 259.414062 198.066406 258.789062 198.042969 258.039062 C 197.574219 242.960938 198.96875 227.398438 200.601562 214.996094 C 202.566406 207.550781 210.398438 200.492188 210.484375 200.417969 C 211.042969 199.917969 211.09375 199.0625 210.59375 198.503906 C 210.097656 197.949219 209.238281 197.898438 208.679688 198.394531 C 208.4375 198.609375 204.902344 201.789062 201.863281 206.257812 C 203.363281 196.667969 204.734375 190.441406 204.765625 190.292969 C 204.929688 189.5625 204.46875 188.839844 203.734375 188.679688 C 203.011719 188.515625 202.28125 188.976562 202.117188 189.707031 C 202.078125 189.894531 199.847656 200.039062 197.9375 214.464844 C 197.796875 215.035156 197.679688 215.605469 197.597656 216.183594 C 197.566406 216.386719 197.585938 216.585938 197.644531 216.769531 C 196.117188 228.921875 194.890625 243.738281 195.335938 258.125 Z M 326.996094 249.042969 L 326.777344 249.113281 C 326.707031 249.136719 326.617188 249.253906 326.464844 249.722656 C 326.449219 250.214844 326.496094 250.351562 326.554688 250.398438 L 326.738281 250.539062 C 326.863281 250.621094 326.988281 250.6875 327.117188 250.730469 C 327.378906 250.8125 327.644531 250.855469 327.902344 250.964844 C 328.414062 251.179688 328.914062 251.472656 329.441406 251.613281 C 329.960938 251.785156 330.523438 251.734375 331.070312 251.730469 C 331.351562 251.722656 331.621094 251.738281 331.90625 251.6875 C 332.046875 251.667969 332.191406 251.625 332.335938 251.582031 L 332.554688 251.5 C 332.628906 251.488281 332.71875 251.367188 332.878906 250.835938 C 332.90625 250.28125 332.863281 250.136719 332.800781 250.101562 L 332.621094 249.953125 C 332.496094 249.859375 332.375 249.769531 332.25 249.703125 C 332 249.5625 331.738281 249.484375 331.480469 249.382812 C 330.960938 249.195312 330.453125 248.957031 329.902344 248.945312 C 329.363281 248.898438 328.792969 249.003906 328.238281 249.035156 C 327.960938 249.054688 327.691406 249.003906 327.417969 248.996094 C 327.285156 248.988281 327.140625 249.011719 326.996094 249.042969 Z M 330.609375 262.171875 C 330.53125 262.050781 330.445312 261.933594 330.347656 261.84375 C 330.152344 261.660156 329.929688 261.507812 329.746094 261.300781 C 329.378906 260.890625 329.058594 260.417969 328.644531 260.074219 C 328.253906 259.695312 327.730469 259.511719 327.234375 259.28125 C 326.984375 259.171875 326.75 259.046875 326.472656 258.972656 C 326.335938 258.933594 326.1875 258.910156 326.039062 258.890625 L 325.804688 258.871094 C 325.738281 258.851562 325.605469 258.921875 325.234375 259.335938 C 324.972656 259.828125 324.949219 259.976562 324.992188 260.03125 L 325.089844 260.242188 C 325.160156 260.378906 325.230469 260.507812 325.3125 260.625 C 325.476562 260.859375 325.679688 261.035156 325.863281 261.234375 C 326.25 261.625 326.601562 262.050781 327.089844 262.285156 C 327.554688 262.558594 328.109375 262.699219 328.621094 262.90625 C 328.878906 263.003906 329.097656 263.164062 329.335938 263.285156 C 329.457031 263.347656 329.59375 263.386719 329.734375 263.417969 L 329.960938 263.445312 C 330.035156 263.457031 330.167969 263.386719 330.503906 263.027344 C 330.726562 262.585938 330.746094 262.441406 330.710938 262.375 Z M 342.007812 260.265625 L 341.46875 259.9375 C 341.105469 259.734375 340.738281 259.539062 340.363281 259.375 C 339.609375 259.035156 338.839844 258.734375 338.101562 258.371094 C 336.613281 257.640625 335.148438 256.863281 333.632812 256.210938 C 332.128906 255.523438 330.539062 255.054688 328.96875 254.539062 C 328.183594 254.289062 327.402344 254.015625 326.601562 253.804688 C 326.199219 253.695312 325.792969 253.605469 325.382812 253.519531 L 324.765625 253.402344 C 324.5625 253.347656 324.324219 253.390625 323.925781 253.832031 C 323.914062 254.429688 324.0625 254.617188 324.242188 254.71875 L 324.773438 255.054688 C 325.132812 255.273438 325.492188 255.484375 325.859375 255.679688 C 326.59375 256.070312 327.34375 256.402344 328.09375 256.757812 C 329.589844 257.453125 331.070312 258.195312 332.636719 258.722656 C 334.191406 259.28125 335.796875 259.714844 337.378906 260.195312 C 338.167969 260.433594 338.9375 260.742188 339.714844 261.007812 C 340.105469 261.144531 340.507812 261.253906 340.914062 261.351562 L 341.527344 261.480469 C 341.730469 261.523438 341.96875 261.480469 342.34375 261.101562 C 342.332031 260.566406 342.1875 260.375 342.007812 260.265625 Z M 328.214844 187.179688 C 328.433594 187.226562 328.644531 187.273438 328.859375 187.285156 C 329.277344 187.34375 329.695312 187.390625 330.09375 187.542969 C 330.882812 187.855469 331.535156 188.375 332.144531 188.863281 C 332.726562 189.382812 333.371094 189.84375 333.882812 190.480469 C 334.140625 190.796875 334.347656 191.144531 334.59375 191.492188 C 334.695312 191.675781 334.832031 191.851562 334.960938 192.035156 L 335.144531 192.324219 C 335.191406 192.425781 335.34375 192.5 335.914062 192.523438 C 336.433594 192.316406 336.535156 192.152344 336.53125 192.023438 L 336.558594 191.605469 C 336.550781 191.332031 336.523438 191.054688 336.476562 190.777344 C 336.371094 190.234375 336.152344 189.71875 335.90625 189.214844 C 335.402344 188.21875 334.695312 187.257812 333.714844 186.660156 C 332.753906 186.035156 331.617188 185.753906 330.53125 185.632812 C 329.984375 185.582031 329.449219 185.511719 328.90625 185.527344 C 328.636719 185.550781 328.371094 185.59375 328.109375 185.660156 L 327.726562 185.8125 C 327.601562 185.863281 327.484375 186.007812 327.445312 186.503906 C 327.644531 186.972656 327.765625 187.089844 327.878906 187.113281 Z M 345.675781 189.132812 C 345.574219 188.566406 345.445312 187.996094 345.308594 187.425781 C 345.140625 186.867188 344.921875 186.324219 344.707031 185.777344 C 344.464844 185.246094 344.179688 184.730469 343.910156 184.203125 C 342.75 182.160156 341.183594 180.285156 339.191406 178.972656 C 337.21875 177.632812 334.941406 176.820312 332.644531 176.433594 C 332.070312 176.355469 331.496094 176.253906 330.921875 176.1875 C 330.339844 176.160156 329.765625 176.097656 329.1875 176.09375 C 328.605469 176.121094 328.03125 176.167969 327.457031 176.246094 L 326.617188 176.453125 C 326.339844 176.519531 326.066406 176.679688 325.875 177.199219 C 326.230469 177.652344 326.503906 177.746094 326.769531 177.75 L 327.566406 177.765625 C 328.09375 177.796875 328.617188 177.847656 329.136719 177.851562 L 330.6875 178.011719 C 331.199219 178.105469 331.699219 178.238281 332.207031 178.347656 C 334.199219 178.941406 336.007812 179.964844 337.625 181.171875 C 339.210938 182.410156 340.71875 183.789062 341.890625 185.472656 C 342.15625 185.902344 342.449219 186.328125 342.707031 186.769531 C 342.929688 187.230469 343.1875 187.675781 343.421875 188.140625 C 343.625 188.613281 343.859375 189.082031 344.078125 189.5625 L 344.359375 190.304688 C 344.445312 190.554688 344.621094 190.78125 345.230469 190.957031 C 345.722656 190.59375 345.78125 190.285156 345.746094 190 Z M 354.546875 189.390625 C 353.902344 189.0625 353.695312 188.6875 353.578125 188.285156 L 353.191406 187.09375 C 352.886719 186.316406 352.546875 185.554688 352.257812 184.785156 C 351.914062 184.03125 351.507812 183.3125 351.167969 182.566406 C 350.769531 181.847656 350.316406 181.160156 349.898438 180.460938 C 348.074219 177.730469 345.699219 175.4375 343.101562 173.484375 C 340.476562 171.558594 337.519531 170.019531 334.320312 169.148438 C 333.511719 168.988281 332.707031 168.785156 331.890625 168.652344 L 329.414062 168.417969 C 328.585938 168.40625 327.753906 168.378906 326.917969 168.347656 L 325.660156 168.390625 C 325.242188 168.40625 324.8125 168.328125 324.304688 167.894531 C 324.648438 167.355469 325.074219 167.179688 325.507812 167.09375 L 326.808594 166.835938 C 327.6875 166.734375 328.578125 166.710938 329.460938 166.667969 C 330.347656 166.671875 331.234375 166.777344 332.125 166.828125 C 333.003906 166.933594 333.878906 167.101562 334.761719 167.238281 C 338.261719 167.902344 341.691406 169.230469 344.667969 171.285156 C 347.664062 173.3125 350.097656 176.109375 351.917969 179.195312 C 352.332031 179.988281 352.78125 180.769531 353.164062 181.574219 C 353.511719 182.402344 353.839844 183.234375 354.132812 184.074219 C 354.375 184.933594 354.601562 185.792969 354.789062 186.660156 L 354.960938 187.980469 C 355.03125 188.414062 355.007812 188.875 354.546875 189.390625 " fill-opacity="1" fill-rule="nonzero"/><g clip-path="url(#5efe9078a2)"><path fill="#f8a80c" d="M 33.964844 196.363281 C 33.769531 196.699219 33.582031 197.035156 33.429688 197.382812 C 33.117188 198.078125 32.867188 198.796875 32.613281 199.507812 L 31.085938 203.808594 C 30.574219 205.238281 30.117188 206.691406 29.65625 208.140625 L 29.003906 210.328125 C 28.773438 211.050781 28.542969 211.777344 28.855469 212.695312 C 29.683594 212.183594 29.964844 211.476562 30.246094 210.769531 L 31.128906 208.664062 C 31.695312 207.253906 32.261719 205.839844 32.769531 204.410156 L 34.316406 200.117188 C 34.566406 199.402344 34.832031 198.6875 35.035156 197.957031 C 35.132812 197.589844 35.203125 197.207031 35.265625 196.824219 C 35.300781 196.4375 35.484375 196.097656 34.996094 195.523438 C 34.257812 195.660156 34.183594 196.039062 33.964844 196.363281 Z M 67.820312 145.054688 C 66.742188 145.765625 65.679688 146.5 64.675781 147.3125 C 64.171875 147.714844 63.648438 148.09375 63.160156 148.511719 L 61.699219 149.78125 C 57.832031 153.191406 54.375 157.027344 51.234375 161.097656 C 49.753906 163.199219 48.199219 165.25 46.925781 167.484375 C 46.273438 168.589844 45.550781 169.65625 44.957031 170.792969 L 43.175781 174.203125 C 41.019531 178.835938 38.632812 183.4375 37.863281 188.570312 C 39.355469 186.398438 40.21875 184.035156 41.21875 181.714844 L 42.847656 178.289062 L 43.65625 176.578125 C 43.933594 176.015625 44.265625 175.472656 44.566406 174.917969 L 46.390625 171.605469 C 46.992188 170.5 47.71875 169.464844 48.378906 168.390625 C 49.671875 166.230469 51.214844 164.234375 52.65625 162.175781 C 55.734375 158.191406 59.121094 154.449219 62.894531 151.136719 L 64.3125 149.898438 C 64.789062 149.488281 65.296875 149.121094 65.785156 148.726562 C 66.28125 148.34375 66.757812 147.9375 67.265625 147.566406 C 67.769531 147.195312 68.285156 146.839844 68.78125 146.453125 C 69.277344 146.066406 69.796875 145.722656 70.316406 145.367188 C 70.832031 145.011719 71.332031 144.628906 71.867188 144.300781 C 72.910156 143.585938 74.015625 143.058594 74.910156 141.957031 C 73.472656 141.871094 72.328125 142.550781 71.175781 143.121094 C 70.019531 143.695312 68.902344 144.351562 67.820312 145.054688 Z M 168.890625 25.886719 C 169.03125 25.9375 169.179688 25.992188 169.335938 26.0625 L 171.519531 27 C 173.097656 27.703125 174.414062 28.320312 175.695312 29.039062 C 178.503906 30.609375 180.960938 32.449219 182.984375 34.492188 C 185.605469 37.179688 187.351562 39.398438 188.65625 41.691406 L 188.6875 41.742188 L 188.722656 41.792969 C 189.3125 42.648438 189.773438 43.601562 190.265625 44.609375 C 190.472656 45.03125 190.679688 45.457031 190.882812 45.851562 L 191.121094 46.328125 L 191.328125 46.871094 L 191.445312 47.171875 C 191.574219 47.476562 191.699219 47.785156 191.835938 48.054688 C 192.160156 48.726562 192.628906 49.613281 193.34375 50.46875 L 195.453125 52.996094 L 195.378906 53.054688 C 194.949219 53.402344 194.683594 53.742188 194.539062 54.117188 L 194.503906 54.226562 C 194.421875 54.511719 194.425781 54.75 194.433594 54.820312 L 194.425781 54.898438 L 194.425781 54.972656 C 194.433594 55.226562 194.453125 55.523438 194.519531 55.816406 C 194.609375 56.214844 194.746094 56.546875 194.863281 56.84375 L 195.105469 57.433594 C 195.339844 58.027344 195.582031 58.617188 195.820312 59.171875 C 196.082031 59.808594 196.398438 60.492188 196.820312 61.3125 C 197 61.660156 197.1875 62.007812 197.367188 62.324219 C 197.582031 62.742188 198.03125 63.613281 199.429688 63.84375 L 200.289062 63.988281 L 200.808594 63.28125 C 201.648438 62.144531 201.359375 61.207031 201.230469 60.785156 C 201.128906 60.40625 201.019531 60.027344 200.902344 59.652344 C 200.625 58.75 200.382812 58.0625 200.132812 57.453125 C 199.910156 56.859375 199.667969 56.273438 199.425781 55.6875 L 199.179688 55.089844 C 199.058594 54.792969 198.917969 54.457031 198.71875 54.140625 C 198.554688 53.859375 198.355469 53.632812 198.179688 53.445312 L 198.160156 53.417969 L 198.105469 53.367188 C 198.027344 53.285156 197.867188 53.113281 197.605469 52.964844 L 197.507812 52.914062 C 197.226562 52.78125 196.90625 52.71875 196.527344 52.71875 C 196.417969 52.71875 196.296875 52.722656 196.15625 52.734375 L 195.757812 52.773438 L 195.867188 49.605469 C 195.90625 48.515625 195.707031 47.503906 195.523438 46.699219 L 195.457031 46.445312 C 195.253906 45.667969 195.046875 44.871094 194.675781 44.117188 C 194.488281 43.710938 194.3125 43.292969 194.132812 42.882812 C 193.652344 41.746094 193.152344 40.574219 192.488281 39.5 C 192.375 39.304688 192.265625 39.105469 192.15625 38.90625 C 191.855469 38.367188 191.546875 37.808594 191.15625 37.222656 L 189.746094 35.226562 C 189.351562 34.625 188.90625 34.117188 188.476562 33.621094 C 188.335938 33.460938 188.199219 33.300781 188.035156 33.113281 L 187.699219 32.730469 C 187.253906 32.214844 186.789062 31.6875 186.242188 31.199219 C 183.921875 28.851562 181.136719 26.757812 178.007812 24.996094 C 177.480469 24.679688 176.949219 24.421875 176.4375 24.171875 C 176.1875 24.046875 175.941406 23.929688 175.648438 23.777344 C 174.765625 23.367188 173.886719 23.027344 173.152344 22.757812 L 172.980469 22.703125 C 172.210938 22.457031 171.417969 22.207031 170.589844 22.050781 L 170.335938 21.996094 C 169.902344 21.902344 169.414062 21.796875 168.859375 21.796875 C 168.226562 21.796875 167.640625 21.933594 167.082031 22.21875 L 165.492188 23.03125 L 166.632812 24.402344 C 167.390625 25.308594 168.257812 25.640625 168.890625 25.886719 Z M 205.839844 98.3125 C 205.859375 98.800781 205.878906 99.292969 205.914062 99.738281 C 205.941406 100.28125 206.003906 100.867188 206.121094 101.585938 C 206.171875 101.890625 206.226562 102.191406 206.28125 102.441406 C 206.382812 103.0625 206.652344 103.839844 207.847656 104.324219 L 208.460938 104.574219 L 209.046875 104.273438 C 210.167969 103.691406 210.382812 102.910156 210.433594 102.273438 C 210.46875 101.980469 210.496094 101.679688 210.515625 101.386719 C 210.570312 100.664062 210.582031 100.074219 210.558594 99.574219 C 210.550781 99.097656 210.527344 98.625 210.503906 98.148438 L 210.476562 97.628906 C 210.464844 97.367188 210.449219 97.046875 210.355469 96.714844 C 210.277344 96.40625 210.144531 96.148438 210.039062 95.957031 L 209.996094 95.882812 L 209.976562 95.855469 C 209.917969 95.753906 209.796875 95.558594 209.582031 95.367188 L 209.496094 95.300781 C 209.210938 95.089844 208.851562 94.953125 208.339844 94.859375 L 208.015625 94.796875 L 207.695312 94.886719 C 207.191406 95.03125 206.847656 95.199219 206.585938 95.433594 L 206.507812 95.507812 C 206.3125 95.710938 206.207031 95.914062 206.15625 96.03125 L 206.109375 96.132812 C 206.019531 96.335938 205.90625 96.609375 205.863281 96.878906 C 205.796875 97.257812 205.808594 97.582031 205.820312 97.84375 Z M 200.628906 159.066406 C 200.644531 158.121094 200.707031 157.347656 200.820312 156.644531 C 200.992188 155.648438 201.136719 154.65625 201 153.460938 L 200.691406 150.78125 L 198.648438 152.550781 C 197.488281 153.554688 197.039062 154.867188 196.804688 155.75 C 196.496094 156.847656 196.300781 157.847656 196.203125 158.804688 C 195.972656 161.132812 196.28125 163.378906 197.097656 165.296875 C 197.546875 166.371094 198.160156 167.359375 198.941406 168.269531 L 199.820312 169.242188 L 199.9375 169.386719 C 200.15625 169.652344 200.375 169.917969 200.589844 170.21875 C 201.503906 171.457031 202.328125 172.882812 203.105469 174.570312 C 204.4375 177.492188 205.523438 180.765625 206.421875 184.585938 C 206.84375 186.328125 207.1875 188.082031 207.453125 189.8125 C 207.519531 190.222656 207.570312 190.632812 207.625 191.042969 C 207.808594 192.476562 208.003906 193.960938 208.589844 195.515625 L 209.941406 199.097656 L 211.261719 195.5 C 212.019531 193.445312 211.824219 191.402344 211.652344 189.597656 L 211.621094 189.28125 C 211.421875 187.363281 211.140625 185.464844 210.785156 183.625 C 209.925781 179.40625 208.792969 175.8125 207.324219 172.640625 C 206.417969 170.65625 205.4375 168.964844 204.351562 167.476562 C 204.082031 167.101562 203.789062 166.742188 203.492188 166.382812 L 203.359375 166.21875 L 202.460938 165.21875 C 202.003906 164.679688 201.640625 164.097656 201.378906 163.480469 C 200.855469 162.257812 200.601562 160.769531 200.628906 159.066406 Z M 209.195312 135.433594 C 209.714844 134.824219 210 134.144531 210.230469 133.59375 L 210.277344 133.484375 C 210.6875 132.453125 211.011719 131.308594 211.292969 129.890625 C 211.535156 128.714844 211.644531 127.585938 211.757812 126.339844 C 211.855469 125.28125 211.90625 124.128906 211.90625 122.820312 C 211.921875 120.6875 211.847656 118.441406 211.679688 115.953125 C 211.609375 114.921875 211.515625 113.699219 211.335938 112.484375 C 211.253906 111.953125 211.136719 111.378906 210.953125 110.652344 C 210.933594 110.582031 210.917969 110.507812 210.902344 110.4375 C 210.773438 109.882812 210.558594 108.957031 209.472656 108.25 L 208.449219 107.585938 L 207.632812 108.496094 C 206.792969 109.429688 206.796875 110.347656 206.796875 110.894531 C 206.796875 110.972656 206.796875 111.050781 206.792969 111.15625 C 206.78125 111.71875 206.769531 112.316406 206.800781 112.929688 C 206.839844 113.746094 206.902344 114.558594 206.964844 115.375 L 207.03125 116.277344 C 207.199219 118.652344 207.277344 120.785156 207.273438 122.785156 C 207.246094 125.082031 207.207031 127.144531 206.9375 129.183594 C 206.792969 130.355469 206.609375 131.273438 206.351562 132.089844 C 206.253906 132.394531 206.132812 132.691406 206.015625 132.984375 C 205.953125 133.136719 205.886719 133.296875 205.8125 133.496094 C 205.726562 133.730469 205.636719 133.953125 205.542969 134.1875 C 205.433594 134.441406 205.324219 134.710938 205.207031 135.023438 L 204.335938 137.382812 L 206.8125 136.917969 C 207.722656 136.742188 208.589844 136.203125 209.195312 135.433594 Z M 320.027344 201.136719 L 238.535156 197.289062 C 236.859375 197.207031 235.292969 198.121094 234.539062 199.613281 L 197.128906 273.808594 C 196.867188 274.324219 196.730469 274.855469 196.6875 275.382812 L 129.847656 291.851562 C 129 292.0625 128.476562 292.902344 128.667969 293.75 C 128.828125 294.472656 129.46875 294.992188 130.210938 295 L 217.144531 295.902344 C 217.285156 295.90625 217.429688 295.890625 217.566406 295.851562 L 231.964844 292.085938 C 229.109375 290.988281 226.730469 290.332031 226.109375 289.773438 C 224.574219 288.390625 226.570312 287.625 226.570312 287.625 C 226.570312 287.625 226.109375 286.09375 228.414062 284.558594 C 230.636719 283.078125 241.453125 283.886719 248.273438 287.8125 L 255.546875 285.910156 C 253.105469 282.300781 249.820312 277.316406 248.367188 274.59375 C 245.914062 269.992188 251.410156 269.085938 253.125 269.992188 C 258.183594 272.660156 262.523438 278.996094 265.089844 283.410156 L 270.195312 282.074219 C 270.914062 279.316406 271.324219 275.667969 270.625 271.21875 C 268.9375 260.488281 272.621094 257.113281 273.542969 257.574219 C 274.042969 257.824219 276.097656 261.445312 277.859375 264.6875 C 279.664062 268.007812 280.625 271.71875 280.675781 275.496094 L 280.734375 279.960938 L 283.242188 279.960938 C 284.828125 279.960938 286.28125 279.078125 287.011719 277.671875 L 323.597656 207.332031 C 325.027344 204.585938 323.121094 201.28125 320.027344 201.136719 Z M 366.609375 216.707031 C 365.808594 216.375 364.945312 216.136719 363.980469 216.113281 C 363.046875 216.085938 361.867188 216.421875 361.148438 217.316406 C 360.769531 217.742188 360.585938 218.238281 360.40625 218.707031 C 360.289062 219.078125 360.175781 219.457031 360.042969 219.816406 C 359.527344 221.273438 358.789062 222.523438 357.617188 222.738281 C 357.019531 222.867188 356.304688 222.789062 355.589844 222.613281 C 354.863281 222.453125 354.15625 222.167969 353.414062 221.875 C 352.625 221.5625 351.832031 221.246094 350.953125 221.058594 C 350.085938 220.871094 349.125 220.78125 348.160156 220.996094 C 347.191406 221.207031 346.339844 221.730469 345.667969 222.292969 C 344.984375 222.855469 344.410156 223.457031 343.847656 224.050781 L 343.011719 224.925781 C 342.726562 225.179688 342.488281 225.453125 342.175781 225.65625 C 341.597656 226.105469 340.933594 226.445312 340.21875 226.683594 C 338.773438 227.140625 337.273438 227.230469 335.582031 227.488281 C 338.621094 229.3125 342.816406 227.644531 344.949219 225.152344 C 346.136719 224.042969 347.246094 222.886719 348.511719 222.671875 C 349.785156 222.433594 351.296875 222.933594 352.730469 223.515625 C 353.5 223.824219 354.308594 224.152344 355.175781 224.351562 C 356.03125 224.558594 356.980469 224.699219 357.988281 224.488281 C 359.007812 224.289062 359.941406 223.613281 360.503906 222.835938 C 361.089844 222.0625 361.441406 221.238281 361.738281 220.433594 C 361.886719 220.027344 362.011719 219.625 362.136719 219.222656 C 362.257812 218.933594 362.351562 218.65625 362.527344 218.46875 C 362.839844 218.070312 363.351562 217.859375 364.027344 217.8125 C 364.699219 217.757812 365.449219 217.863281 366.199219 218.011719 C 366.964844 218.164062 367.644531 218.5 368.65625 218.300781 C 368.230469 217.332031 367.394531 217.046875 366.609375 216.707031 Z M 267.140625 161.925781 C 266.488281 160.984375 266.496094 159.757812 266.785156 158.871094 C 267.078125 157.953125 267.554688 157.191406 268.097656 156.519531 C 268.648438 155.867188 269.15625 155.144531 270.207031 155.007812 C 270.113281 156.035156 269.597656 156.589844 269.234375 157.28125 C 268.882812 157.960938 268.566406 158.648438 268.429688 159.304688 C 268.28125 159.96875 268.34375 160.519531 268.636719 160.929688 C 268.769531 161.152344 269.007812 161.316406 269.25 161.515625 C 269.605469 161.75 269.953125 161.980469 270.296875 162.238281 C 270.984375 162.753906 271.679688 163.320312 272.261719 164.101562 C 272.84375 164.859375 273.234375 165.949219 273.136719 166.980469 C 273.050781 168.003906 272.648438 168.871094 272.210938 169.636719 C 271.773438 170.414062 271.230469 171.09375 270.714844 171.742188 C 269.75 172.953125 268.84375 174.257812 268.71875 175.542969 C 268.5625 176.820312 269.359375 178.214844 270.089844 179.660156 C 271.878906 182.410156 272.300781 186.902344 269.6875 189.300781 C 269.914062 187.605469 270.253906 186.136719 270.222656 184.625 C 270.199219 183.878906 270.0625 183.140625 269.789062 182.460938 C 269.683594 182.101562 269.488281 181.800781 269.320312 181.457031 L 268.71875 180.40625 C 268.308594 179.699219 267.894531 178.980469 267.542969 178.167969 C 267.195312 177.363281 266.933594 176.398438 267.007812 175.414062 C 267.074219 174.425781 267.429688 173.535156 267.851562 172.75 C 268.28125 171.960938 268.808594 171.292969 269.332031 170.621094 C 269.828125 169.996094 270.296875 169.394531 270.65625 168.75 C 271.03125 168.117188 271.304688 167.449219 271.347656 166.84375 C 271.472656 165.65625 270.480469 164.597656 269.226562 163.691406 C 268.921875 163.464844 268.59375 163.25 268.265625 163.027344 C 267.867188 162.726562 267.441406 162.40625 267.140625 161.925781 " fill-opacity="1" fill-rule="nonzero"/></g><path fill="#f06000" d="M 167.730469 23.488281 C 168.398438 24.289062 169.15625 24.425781 169.898438 24.753906 L 172.101562 25.695312 C 173.554688 26.34375 175 27.015625 176.390625 27.792969 C 179.164062 29.34375 181.765625 31.234375 184.003906 33.496094 C 186.222656 35.765625 188.316406 38.203125 189.898438 40.988281 C 190.808594 42.304688 191.425781 43.792969 192.160156 45.21875 L 192.429688 45.757812 L 192.644531 46.324219 C 192.800781 46.691406 192.933594 47.070312 193.121094 47.433594 C 193.472656 48.160156 193.871094 48.875 194.441406 49.554688 C 194.472656 48.699219 194.332031 47.875 194.144531 47.0625 C 193.933594 46.265625 193.742188 45.449219 193.375 44.707031 C 192.691406 43.195312 192.125 41.628906 191.25 40.203125 C 190.835938 39.484375 190.453125 38.738281 189.996094 38.046875 L 188.546875 36.003906 C 188.089844 35.300781 187.507812 34.699219 186.96875 34.058594 C 186.414062 33.4375 185.886719 32.785156 185.257812 32.230469 C 182.90625 29.847656 180.179688 27.855469 177.269531 26.21875 C 176.554688 25.785156 175.785156 25.453125 175.042969 25.066406 C 174.285156 24.714844 173.503906 24.40625 172.71875 24.113281 C 171.921875 23.863281 171.128906 23.605469 170.300781 23.449219 C 169.488281 23.28125 168.664062 23.011719 167.730469 23.488281 Z M 195.855469 54.933594 C 195.859375 55.132812 195.875 55.332031 195.914062 55.511719 C 195.996094 55.882812 196.15625 56.21875 196.292969 56.566406 C 196.570312 57.257812 196.847656 57.949219 197.140625 58.636719 C 197.421875 59.324219 197.75 59.996094 198.089844 60.660156 C 198.261719 60.992188 198.441406 61.324219 198.625 61.652344 C 198.796875 61.984375 198.957031 62.320312 199.660156 62.4375 C 200.082031 61.863281 199.960938 61.507812 199.851562 61.152344 C 199.753906 60.789062 199.652344 60.429688 199.539062 60.070312 C 199.320312 59.355469 199.082031 58.648438 198.800781 57.957031 C 198.535156 57.261719 198.246094 56.574219 197.964844 55.882812 C 197.820312 55.542969 197.695312 55.191406 197.496094 54.871094 C 197.398438 54.710938 197.269531 54.558594 197.132812 54.414062 C 197.054688 54.34375 197.007812 54.265625 196.90625 54.207031 C 196.789062 54.152344 196.597656 54.128906 196.28125 54.160156 C 196.039062 54.355469 195.917969 54.507812 195.875 54.625 C 195.839844 54.742188 195.863281 54.828125 195.855469 54.933594 Z M 200.070312 164.042969 C 199.414062 162.511719 199.175781 160.785156 199.199219 159.039062 C 199.21875 158.167969 199.273438 157.28125 199.414062 156.402344 C 199.570312 155.519531 199.699219 154.652344 199.582031 153.625 C 198.792969 154.3125 198.421875 155.21875 198.179688 156.132812 C 197.925781 157.046875 197.722656 157.988281 197.625 158.949219 C 197.433594 160.863281 197.625 162.886719 198.414062 164.746094 C 198.800781 165.675781 199.34375 166.546875 200.003906 167.316406 L 200.925781 168.339844 C 201.203125 168.679688 201.480469 169.011719 201.738281 169.371094 C 202.78125 170.785156 203.65625 172.351562 204.40625 173.980469 C 205.894531 177.246094 206.976562 180.722656 207.808594 184.253906 C 208.238281 186.015625 208.589844 187.800781 208.867188 189.597656 C 209.144531 191.402344 209.234375 193.1875 209.921875 195.011719 C 210.605469 193.15625 210.375 191.269531 210.203125 189.429688 C 210.007812 187.578125 209.738281 185.738281 209.386719 183.910156 C 208.644531 180.265625 207.613281 176.65625 206.027344 173.234375 C 205.242188 171.519531 204.324219 169.855469 203.1875 168.308594 C 202.90625 167.914062 202.601562 167.542969 202.292969 167.167969 L 201.375 166.144531 C 200.839844 165.515625 200.390625 164.8125 200.070312 164.042969 Z M 206.546875 135.511719 C 207.164062 135.398438 207.722656 135.007812 208.09375 134.527344 C 208.5 134.058594 208.722656 133.496094 208.953125 132.953125 C 209.386719 131.859375 209.671875 130.734375 209.898438 129.605469 C 210.125 128.476562 210.234375 127.339844 210.335938 126.207031 C 210.441406 125.074219 210.476562 123.941406 210.480469 122.8125 C 210.496094 120.546875 210.40625 118.296875 210.253906 116.050781 C 210.179688 114.925781 210.085938 113.804688 209.921875 112.691406 C 209.84375 112.136719 209.714844 111.582031 209.582031 111.03125 C 209.429688 110.488281 209.414062 109.917969 208.695312 109.449219 C 208.121094 110.085938 208.246094 110.625 208.21875 111.1875 C 208.207031 111.746094 208.199219 112.304688 208.226562 112.859375 C 208.28125 113.96875 208.375 115.070312 208.453125 116.175781 C 208.609375 118.386719 208.703125 120.597656 208.699219 122.800781 C 208.675781 125.003906 208.636719 127.207031 208.355469 129.359375 C 208.21875 130.433594 208.035156 131.5 207.710938 132.507812 C 207.558594 133.011719 207.34375 133.484375 207.160156 133.960938 C 206.984375 134.464844 206.773438 134.902344 206.546875 135.511719 Z M 207.253906 97.988281 C 207.277344 98.550781 207.296875 99.113281 207.339844 99.675781 C 207.363281 100.234375 207.441406 100.796875 207.527344 101.355469 C 207.578125 101.636719 207.628906 101.914062 207.6875 102.191406 C 207.734375 102.472656 207.769531 102.753906 208.390625 103.007812 C 208.984375 102.695312 208.992188 102.414062 209.011719 102.132812 C 209.046875 101.851562 209.074219 101.566406 209.09375 101.285156 C 209.132812 100.71875 209.15625 100.15625 209.132812 99.59375 C 209.121094 99.03125 209.089844 98.46875 209.0625 97.90625 C 209.042969 97.625 209.050781 97.34375 208.972656 97.066406 C 208.9375 96.925781 208.867188 96.789062 208.792969 96.648438 C 208.742188 96.582031 208.722656 96.511719 208.648438 96.445312 C 208.558594 96.378906 208.386719 96.316406 208.082031 96.261719 C 207.78125 96.34375 207.617188 96.421875 207.539062 96.496094 C 207.464844 96.570312 207.453125 96.640625 207.410156 96.714844 C 207.347656 96.859375 207.292969 97 207.269531 97.140625 C 207.214844 97.425781 207.25 97.703125 207.253906 97.988281 Z M 104.203125 125.398438 C 100.601562 114.886719 97.402344 101.269531 98.195312 87.367188 C 99.941406 56.894531 116.789062 24.6875 143.515625 23.8125 C 143.515625 23.8125 174.585938 6.40625 191.367188 30.121094 C 208.148438 53.835938 220.125 117.421875 212.242188 137.457031 C 209.949219 143.296875 203.851562 148.902344 204.71875 162.703125 C 217.496094 183.257812 214.203125 206.03125 213.984375 214.945312 C 213.773438 223.523438 206.308594 249.292969 206.308594 249.292969 C 206.308594 249.292969 199.058594 244.441406 192.921875 238.355469 C 192.824219 239.332031 192.71875 240.304688 192.59375 241.28125 C 192.371094 243.054688 192.113281 244.828125 191.808594 246.597656 C 191.496094 248.359375 191.242188 250.15625 190.140625 251.746094 C 189.78125 249.855469 190.132812 248.140625 190.339844 246.386719 C 190.546875 244.632812 190.707031 242.871094 190.832031 241.105469 C 190.9375 239.566406 191.027344 238.019531 191.105469 236.472656 C 189.054688 234.261719 187.246094 231.9375 186.046875 229.664062 C 180.210938 218.625 181.441406 207.378906 180.210938 193.476562 C 179.613281 186.6875 175.910156 181.777344 171.332031 176.957031 C 171.324219 176.988281 171.320312 177.015625 171.308594 177.042969 C 171.195312 177.507812 171.085938 177.976562 170.949219 178.433594 C 170.695312 179.359375 170.355469 180.25 170.03125 181.152344 C 169.335938 182.933594 168.554688 184.683594 167.722656 186.429688 C 166.875 188.167969 165.917969 189.875 164.722656 191.476562 C 163.5 193.050781 162.039062 194.585938 160.007812 195.542969 L 159.992188 195.554688 C 159.761719 195.660156 159.519531 195.691406 159.285156 195.660156 C 157.476562 195.398438 155.980469 194.855469 154.4375 194.210938 C 152.917969 193.558594 151.46875 192.761719 150.109375 191.84375 C 148.738281 190.9375 147.488281 189.863281 146.355469 188.695312 C 145.796875 188.101562 145.257812 187.488281 144.777344 186.832031 C 144.355469 186.140625 143.601562 185.679688 143.882812 184.480469 C 144.519531 184.496094 144.859375 184.707031 145.148438 184.96875 C 145.421875 185.238281 145.683594 185.515625 145.96875 185.773438 C 146.523438 186.296875 147.097656 186.792969 147.679688 187.28125 C 148.84375 188.246094 150.070312 189.125 151.355469 189.894531 C 152.636719 190.667969 154 191.308594 155.394531 191.824219 C 156.640625 192.289062 158.003906 192.648438 159.226562 192.859375 C 160.5 192.1875 161.683594 191.09375 162.75 189.882812 C 163.914062 188.539062 164.957031 187.035156 165.898438 185.449219 C 166.851562 183.871094 167.652344 182.1875 168.375 180.476562 L 169.480469 177.90625 L 170.042969 176.625 C 170.128906 176.402344 170.234375 176.1875 170.402344 175.988281 C 165.800781 171.265625 160.496094 166.515625 156.570312 160.050781 C 148.386719 146.554688 155.34375 132.753906 155.34375 132.753906 C 155.511719 132.363281 155.671875 131.980469 155.832031 131.613281 C 155.828125 131.605469 155.820312 131.601562 155.8125 131.597656 C 157.910156 126.101562 160.519531 121.449219 160.519531 121.449219 C 182.269531 115.4375 184.476562 79.242188 184.683594 69.984375 C 169.179688 68.050781 159.375 62.851562 153.226562 57.472656 C 149.253906 63.921875 141.765625 69.984375 127.832031 72.332031 C 127.6875 70.445312 127.492188 68.648438 127.308594 67.175781 C 127.023438 64.933594 125.691406 63.019531 123.867188 61.949219 C 123.746094 61.882812 123.621094 61.816406 123.496094 61.753906 C 123.453125 61.730469 123.40625 61.707031 123.367188 61.6875 C 123.25 61.632812 123.128906 61.578125 123.007812 61.527344 C 122.949219 61.503906 122.890625 61.484375 122.835938 61.464844 C 122.679688 61.40625 122.523438 61.351562 122.363281 61.308594 C 122.238281 61.269531 122.113281 61.234375 121.984375 61.203125 C 121.898438 61.183594 121.8125 61.175781 121.726562 61.15625 C 121.613281 61.136719 121.5 61.117188 121.382812 61.101562 C 121.300781 61.089844 121.21875 61.082031 121.140625 61.078125 C 121.003906 61.0625 120.871094 61.058594 120.738281 61.054688 C 120.667969 61.050781 120.601562 61.050781 120.53125 61.050781 C 120.328125 61.050781 120.121094 61.058594 119.914062 61.078125 C 119.699219 61.101562 119.480469 61.136719 119.261719 61.183594 C 119.207031 61.195312 119.15625 61.203125 119.097656 61.214844 C 118.882812 61.265625 118.660156 61.324219 118.4375 61.398438 C 118.4375 61.402344 118.4375 61.402344 118.4375 61.402344 C 118.207031 61.480469 117.976562 61.574219 117.746094 61.683594 C 117.707031 61.703125 117.664062 61.722656 117.621094 61.742188 C 117.15625 61.972656 116.691406 62.265625 116.234375 62.632812 C 116.207031 62.65625 116.179688 62.679688 116.148438 62.703125 C 115.679688 63.085938 115.214844 63.550781 114.765625 64.101562 C 114.746094 64.132812 114.722656 64.15625 114.703125 64.179688 C 114.476562 64.460938 114.253906 64.761719 114.039062 65.089844 C 113.386719 66.058594 112.769531 67.234375 112.199219 68.65625 C 109.417969 75.597656 115.351562 82.707031 120.535156 85.265625 C 120.363281 100.71875 124.910156 107.910156 124.910156 107.910156 C 125.148438 111.566406 124.546875 114.628906 123.320312 117.394531 C 120.214844 119.8125 113.007812 122.289062 104.203125 125.398438 Z M 153.554688 81.195312 C 153.828125 79.472656 152.65625 77.859375 150.933594 77.585938 C 149.214844 77.3125 147.597656 78.484375 147.324219 80.203125 C 147.046875 81.921875 148.222656 83.535156 149.941406 83.808594 C 151.664062 84.085938 153.28125 82.914062 153.554688 81.195312 Z M 173.226562 88.671875 C 174.945312 88.945312 176.5625 87.777344 176.835938 86.054688 C 177.109375 84.339844 175.9375 82.722656 174.21875 82.449219 C 172.496094 82.175781 170.882812 83.347656 170.605469 85.066406 C 170.332031 86.78125 171.503906 88.398438 173.226562 88.671875 Z M 148.496094 106.5 C 147.773438 106.058594 147.015625 105.644531 146.359375 105.101562 C 146.023438 104.839844 145.636719 104.621094 145.339844 104.308594 L 144.84375 103.875 C 144.6875 103.71875 144.457031 103.628906 143.847656 103.761719 C 143.527344 104.253906 143.582031 104.523438 143.714844 104.730469 L 144.082031 105.382812 C 144.3125 105.835938 144.65625 106.195312 144.988281 106.574219 C 145.621094 107.371094 146.464844 107.925781 147.253906 108.539062 C 148.917969 109.640625 150.746094 110.488281 152.660156 110.914062 C 154.5625 111.371094 156.507812 111.429688 158.410156 111.4375 C 159.363281 111.441406 160.3125 111.46875 161.261719 111.417969 C 161.734375 111.40625 162.203125 111.332031 162.675781 111.261719 L 163.378906 111.113281 C 163.613281 111.058594 163.84375 110.914062 164.023438 110.402344 C 163.742188 109.9375 163.507812 109.828125 163.285156 109.808594 L 162.601562 109.746094 C 162.144531 109.703125 161.695312 109.683594 161.242188 109.664062 C 160.339844 109.632812 159.433594 109.617188 158.542969 109.480469 C 156.757812 109.214844 155.011719 108.800781 153.339844 108.296875 C 151.679688 107.761719 150.019531 107.289062 148.496094 106.5 Z M 162.5625 98.050781 C 162.464844 98.441406 162.273438 98.882812 162.058594 99.253906 C 161.832031 99.628906 161.546875 99.957031 161.238281 100.261719 C 160.898438 100.535156 160.542969 100.792969 160.140625 100.980469 C 159.75 101.179688 159.328125 101.359375 158.882812 101.488281 C 158.664062 101.5625 158.433594 101.628906 158.203125 101.675781 C 157.96875 101.722656 157.757812 101.851562 157.460938 102.320312 C 157.679688 102.835938 157.992188 102.960938 158.273438 102.980469 C 158.5625 103 158.855469 103.007812 159.144531 102.988281 C 159.726562 102.949219 160.308594 102.816406 160.859375 102.589844 C 161.96875 102.132812 162.960938 101.339844 163.671875 100.371094 C 164.046875 99.886719 164.351562 99.402344 164.605469 98.816406 C 164.714844 98.511719 164.835938 98.195312 164.921875 97.886719 L 165.074219 96.996094 C 165.15625 96.402344 165.160156 95.835938 165.167969 95.265625 C 165.128906 94.714844 165.121094 94.140625 165.042969 93.605469 C 164.800781 91.421875 164.109375 89.386719 163.40625 87.390625 C 163.046875 86.394531 162.679688 85.402344 162.242188 84.441406 C 162.019531 83.960938 161.785156 83.488281 161.53125 83.019531 L 161.140625 82.324219 C 161.023438 82.089844 160.808594 81.886719 160.195312 81.851562 C 159.769531 82.304688 159.753906 82.585938 159.820312 82.835938 L 159.980469 83.597656 C 160.097656 84.105469 160.207031 84.609375 160.335938 85.109375 L 161.121094 88.085938 C 161.621094 90.066406 161.988281 92.066406 162.367188 93.996094 C 162.546875 94.960938 162.671875 95.921875 162.6875 96.820312 L 162.671875 97.480469 Z M 171.53125 75.519531 L 171.773438 75.601562 C 171.929688 75.644531 172.078125 75.695312 172.226562 75.738281 C 172.519531 75.820312 172.800781 75.847656 173.078125 75.933594 C 173.640625 76.074219 174.148438 76.324219 174.707031 76.429688 C 175.257812 76.570312 175.878906 76.632812 176.46875 76.835938 C 176.765625 76.933594 177.019531 77.105469 177.292969 77.253906 C 177.429688 77.332031 177.574219 77.386719 177.730469 77.4375 L 177.976562 77.503906 C 178.058594 77.527344 178.195312 77.476562 178.589844 77.175781 C 178.867188 76.765625 178.878906 76.601562 178.828125 76.515625 C 178.785156 76.429688 178.742188 76.339844 178.691406 76.257812 C 178.582031 76.101562 178.464844 75.953125 178.328125 75.832031 C 178.054688 75.585938 177.75 75.394531 177.46875 75.148438 C 176.902344 74.667969 176.296875 74.164062 175.574219 73.871094 C 174.867188 73.53125 174.042969 73.519531 173.265625 73.554688 C 172.875 73.574219 172.488281 73.601562 172.105469 73.726562 C 171.917969 73.773438 171.738281 73.863281 171.5625 73.964844 L 171.300781 74.121094 C 171.214844 74.15625 171.144531 74.300781 171.167969 74.855469 C 171.359375 75.382812 171.457031 75.507812 171.53125 75.519531 Z M 154.710938 71.097656 C 154.476562 70.921875 154.234375 70.753906 153.984375 70.617188 C 153.484375 70.324219 152.945312 70.128906 152.402344 69.925781 C 151.316406 69.542969 150.167969 69.214844 148.984375 69.25 C 147.796875 69.222656 146.613281 69.558594 145.507812 69.929688 C 145.230469 70.035156 144.957031 70.128906 144.675781 70.210938 C 144.402344 70.324219 144.132812 70.433594 143.871094 70.558594 C 143.601562 70.671875 143.355469 70.832031 143.128906 71.027344 L 142.796875 71.320312 C 142.6875 71.417969 142.625 71.597656 142.757812 72.078125 C 143.125 72.433594 143.300781 72.492188 143.429688 72.464844 L 143.808594 72.386719 C 144.050781 72.3125 144.292969 72.25 144.53125 72.1875 C 144.769531 72.125 144.996094 72.035156 145.230469 71.964844 C 145.472656 71.914062 145.714844 71.875 145.957031 71.839844 C 146.941406 71.75 147.910156 71.84375 148.871094 71.945312 C 149.824219 72.074219 150.808594 72.078125 151.796875 72.234375 L 153.289062 72.507812 C 153.542969 72.550781 153.796875 72.582031 154.0625 72.613281 L 154.457031 72.660156 C 154.582031 72.695312 154.742188 72.621094 155.113281 72.195312 C 155.246094 71.644531 155.171875 71.453125 155.050781 71.375 Z M 235.007812 292.148438 C 236.226562 292.820312 237.441406 293.511719 238.621094 294.230469 C 239.214844 294.582031 239.792969 294.953125 240.359375 295.316406 C 240.917969 295.679688 241.492188 296.0625 241.910156 296.425781 L 242.734375 297.132812 C 243.074219 297.410156 243.386719 297.601562 243.71875 297.824219 L 244.691406 298.382812 L 245.671875 298.863281 C 246.976562 299.480469 248.289062 300.03125 249.609375 300.558594 C 250.925781 301.078125 252.246094 301.597656 253.589844 302.035156 C 254.257812 302.269531 254.9375 302.464844 255.617188 302.660156 L 256.644531 302.9375 C 256.984375 303.039062 257.355469 303.050781 257.886719 302.652344 C 257.753906 302.007812 257.476562 301.765625 257.160156 301.613281 L 256.226562 301.125 C 255.601562 300.804688 254.980469 300.476562 254.347656 300.179688 L 250.574219 298.378906 C 249.324219 297.765625 248.085938 297.144531 246.894531 296.484375 C 246.300781 296.148438 245.722656 295.820312 245.164062 295.488281 C 244.921875 295.3125 244.621094 295.148438 244.417969 294.984375 L 244.125 294.753906 L 243.628906 294.339844 C 242.300781 293.34375 241.0625 292.765625 239.757812 292.125 C 238.464844 291.511719 237.171875 290.941406 235.871094 290.386719 L 232.003906 288.664062 C 231.359375 288.382812 230.699219 288.128906 230.035156 287.894531 L 229.027344 287.558594 C 228.691406 287.445312 228.316406 287.417969 227.800781 287.730469 C 227.921875 288.320312 228.191406 288.578125 228.492188 288.75 L 229.40625 289.277344 C 230.019531 289.621094 230.640625 289.949219 231.265625 290.261719 C 232.519531 290.875 233.777344 291.484375 235.007812 292.148438 Z M 261.207031 313.769531 L 260.460938 313.933594 L 259.738281 314.125 C 259.488281 314.164062 259.238281 314.203125 258.996094 314.253906 C 258.503906 314.339844 258.023438 314.484375 257.53125 314.550781 L 256.039062 314.679688 C 254.039062 314.703125 252.058594 314.464844 250.109375 314.0625 C 248.171875 313.628906 246.207031 313.230469 244.28125 312.59375 C 243.320312 312.28125 242.378906 311.90625 241.425781 311.546875 L 239.988281 311.007812 L 239.265625 310.730469 C 239.03125 310.625 238.757812 310.605469 238.238281 310.933594 C 238.152344 311.546875 238.328125 311.796875 238.542969 311.953125 L 239.1875 312.453125 C 239.625 312.769531 240.070312 313.082031 240.535156 313.355469 C 241.457031 313.921875 242.433594 314.375 243.421875 314.820312 C 245.398438 315.683594 247.476562 316.425781 249.65625 316.722656 C 251.828125 317.066406 254.066406 316.941406 256.226562 316.632812 L 257.84375 316.363281 C 258.382812 316.257812 258.910156 316.101562 259.4375 315.957031 L 260.21875 315.71875 C 260.476562 315.621094 260.71875 315.484375 260.964844 315.371094 L 261.691406 314.988281 C 261.929688 314.859375 262.140625 314.644531 262.179688 314.105469 C 261.738281 313.746094 261.457031 313.714844 261.207031 313.769531 Z M 247.042969 340.46875 C 246.625 340.300781 246.203125 340.1875 245.8125 339.996094 C 245.039062 339.59375 244.335938 339.101562 243.71875 338.488281 C 242.488281 337.253906 241.546875 335.6875 240.828125 334 C 240.097656 332.3125 239.589844 330.503906 239.183594 328.664062 C 238.796875 326.820312 238.425781 324.964844 238.164062 323.078125 C 237.597656 319.308594 237.199219 315.476562 237.011719 311.625 C 236.933594 309.699219 236.9375 307.769531 236.957031 305.839844 L 236.964844 302.941406 L 236.953125 302.308594 C 237.511719 302.804688 238.09375 303.285156 238.6875 303.753906 C 239.328125 304.230469 239.9375 304.746094 240.644531 305.148438 C 240.992188 305.355469 241.332031 305.566406 241.710938 305.730469 L 242.269531 305.972656 C 242.449219 306.066406 242.6875 306.082031 243.148438 305.722656 C 243.292969 305.140625 243.210938 304.933594 243.070312 304.804688 L 242.675781 304.386719 C 242.402344 304.128906 242.160156 303.824219 241.886719 303.566406 L 240.28125 301.976562 C 239.222656 300.894531 238.261719 299.722656 237.160156 298.679688 C 236.089844 297.601562 234.945312 296.574219 233.867188 295.476562 C 233.328125 294.929688 232.851562 294.328125 232.347656 293.75 C 232.097656 293.457031 231.828125 293.179688 231.554688 292.910156 L 231.125 292.511719 C 230.984375 292.378906 230.769531 292.300781 230.253906 292.429688 C 229.96875 292.875 229.980469 293.113281 230.070312 293.289062 L 230.339844 293.824219 C 230.527344 294.167969 230.730469 294.507812 230.960938 294.828125 L 232.351562 296.726562 C 233.25 298.015625 234.140625 299.332031 235.183594 300.523438 C 235.347656 300.714844 235.527344 300.898438 235.699219 301.085938 C 235.671875 301.191406 235.652344 301.296875 235.632812 301.40625 L 235.441406 302.863281 C 235.332031 303.835938 235.261719 304.8125 235.207031 305.789062 C 235.109375 307.738281 235.078125 309.695312 235.050781 311.652344 C 234.972656 315.566406 235 319.507812 235.484375 323.4375 C 235.71875 325.402344 236.050781 327.371094 236.585938 329.300781 C 237.105469 331.234375 237.742188 333.15625 238.660156 334.992188 C 239.5625 336.820312 240.710938 338.628906 242.394531 339.988281 C 243.210938 340.683594 244.199219 341.191406 245.214844 341.539062 C 246.246094 341.71875 247.347656 342.308594 248.367188 341.296875 C 247.890625 340.691406 247.480469 340.542969 247.042969 340.46875 Z M 199.152344 340.839844 L 197.164062 341.542969 C 195.855469 342.054688 194.46875 342.347656 193.136719 342.773438 C 190.464844 343.628906 187.710938 344.21875 184.992188 344.90625 C 179.484375 346.039062 173.917969 346.84375 168.332031 347.542969 C 165.535156 347.855469 162.738281 348.199219 159.921875 348.398438 C 158.515625 348.539062 157.109375 348.648438 155.699219 348.726562 C 154.292969 348.820312 152.882812 348.917969 151.46875 348.96875 C 148.644531 349.082031 145.820312 349.097656 142.992188 349.074219 L 138.75 349.058594 L 136.628906 349.0625 C 135.921875 349.058594 135.214844 349.140625 134.46875 349.574219 C 135.140625 350.121094 135.847656 350.292969 136.554688 350.367188 L 138.6875 350.578125 C 140.109375 350.699219 141.53125 350.777344 142.957031 350.824219 C 144.382812 350.894531 145.804688 350.890625 147.230469 350.910156 C 148.65625 350.945312 150.082031 350.925781 151.507812 350.925781 C 152.933594 350.953125 154.363281 350.921875 155.789062 350.902344 C 157.214844 350.894531 158.644531 350.855469 160.070312 350.789062 C 162.925781 350.691406 165.773438 350.441406 168.628906 350.226562 C 174.324219 349.636719 179.972656 348.597656 185.542969 347.222656 C 188.296875 346.417969 191.089844 345.75 193.765625 344.675781 C 195.113281 344.179688 196.46875 343.714844 197.753906 343.0625 L 199.707031 342.144531 C 200.359375 341.847656 200.972656 341.457031 201.394531 340.679688 C 200.507812 340.445312 199.8125 340.59375 199.152344 340.839844 Z M 134.105469 115.707031 C 132.871094 114.765625 131.71875 113.71875 130.589844 112.652344 L 128.890625 111.054688 L 128.039062 110.246094 C 127.75 109.984375 127.402344 109.777344 126.792969 109.753906 C 126.671875 110.351562 126.832031 110.753906 127.054688 111.089844 L 127.777344 112.058594 C 128.277344 112.695312 128.804688 113.304688 129.355469 113.890625 C 130.46875 115.050781 131.660156 116.136719 132.878906 117.199219 C 135.304688 119.320312 137.917969 121.304688 140.847656 122.804688 C 142.308594 123.5625 143.835938 124.207031 145.425781 124.683594 C 147.027344 125.140625 148.648438 125.460938 150.335938 125.589844 C 152.019531 125.703125 153.738281 125.644531 155.402344 125.199219 C 156.230469 124.992188 157.039062 124.695312 157.796875 124.28125 C 158.175781 124.078125 158.535156 123.839844 158.886719 123.589844 C 159.234375 123.359375 159.609375 123.046875 159.492188 122.285156 C 158.78125 122.042969 158.488281 122.167969 158.15625 122.335938 C 157.816406 122.476562 157.472656 122.59375 157.121094 122.699219 C 156.421875 122.90625 155.710938 123.066406 154.984375 123.15625 C 153.542969 123.351562 152.0625 123.347656 150.597656 123.121094 C 149.140625 122.910156 147.660156 122.535156 146.238281 122.066406 C 144.800781 121.605469 143.390625 121.0625 142.007812 120.433594 C 139.242188 119.164062 136.570312 117.589844 134.105469 115.707031 Z M 71.664062 255.816406 C 79.300781 256.300781 86.878906 257.582031 94.40625 259.023438 C 101.925781 260.535156 109.386719 262.320312 116.839844 264.1875 C 124.101562 266.015625 131.316406 268.042969 138.503906 270.179688 C 138.621094 270.683594 138.730469 271.238281 138.8125 271.765625 C 138.933594 272.507812 139.019531 273.261719 139.089844 274.019531 C 139.226562 275.53125 139.296875 277.066406 139.3125 278.605469 C 139.335938 280.140625 139.273438 281.683594 139.191406 283.226562 C 139.09375 284.769531 138.894531 286.289062 139.382812 287.933594 C 139.839844 287.210938 140.097656 286.453125 140.304688 285.6875 C 140.480469 284.917969 140.554688 284.132812 140.65625 283.351562 C 140.832031 281.789062 140.984375 280.21875 141.054688 278.636719 C 141.125 277.058594 141.160156 275.46875 141.058594 273.875 C 141.035156 273.496094 141.007812 273.117188 140.976562 272.738281 C 143.050781 273.222656 145.167969 273.058594 147.261719 272.988281 C 149.742188 272.855469 152.222656 272.605469 154.671875 272.148438 C 159.578125 271.28125 164.375 269.8125 168.949219 267.828125 C 173.375 265.816406 178.054688 264.492188 182.800781 263.582031 C 187.488281 262.71875 192.253906 262.371094 197.007812 262.507812 L 201.894531 264.359375 L 203.070312 262.019531 L 197.6875 260.074219 L 197.664062 260.066406 C 197.546875 260.023438 197.417969 260 197.28125 259.996094 C 192.273438 259.914062 187.265625 260.394531 182.375 261.425781 C 179.929688 261.945312 177.515625 262.597656 175.144531 263.378906 C 173.960938 263.792969 172.808594 264.164062 171.617188 264.628906 C 170.449219 265.082031 169.304688 265.589844 168.183594 266.089844 C 163.761719 268.070312 159.109375 269.527344 154.355469 270.480469 C 151.976562 270.941406 149.574219 271.324219 147.15625 271.554688 C 145.082031 271.804688 143.019531 271.699219 140.917969 272.140625 C 140.894531 271.917969 140.875 271.699219 140.847656 271.480469 C 140.742188 270.660156 140.636719 269.910156 140.402344 269.011719 C 140.316406 268.703125 140.082031 268.4375 139.761719 268.332031 L 139.703125 268.3125 C 132.367188 265.902344 124.972656 263.652344 117.511719 261.621094 C 110.054688 259.582031 102.492188 257.890625 94.863281 256.558594 C 88.046875 255.371094 81.167969 254.519531 74.25 254.082031 C 74.242188 254.078125 74.238281 254.074219 74.238281 254.066406 L 73.800781 253.570312 C 73.5 253.246094 73.199219 252.921875 72.886719 252.613281 C 72.246094 252.007812 71.542969 251.484375 70.859375 250.921875 C 70.152344 250.394531 69.441406 249.867188 68.714844 249.359375 C 67.953125 248.886719 67.195312 248.421875 66.371094 248.0625 C 64.761719 247.277344 62.996094 246.785156 61.222656 246.4375 C 60.335938 246.261719 59.433594 246.101562 58.515625 246.042969 C 58.054688 246.027344 57.589844 246.046875 57.125 246.117188 C 56.890625 246.15625 56.660156 246.222656 56.429688 246.277344 C 56.203125 246.339844 55.957031 246.507812 55.871094 247.042969 C 56.207031 247.460938 56.386719 247.570312 56.585938 247.574219 C 56.785156 247.59375 56.980469 247.609375 57.175781 247.636719 L 58.359375 247.792969 C 59.152344 247.917969 59.949219 248.050781 60.71875 248.335938 C 62.257812 248.894531 63.714844 249.664062 65.152344 250.472656 C 66.582031 251.28125 68.0625 252.035156 69.511719 252.890625 C 70.0625 253.234375 70.621094 253.578125 71.179688 253.917969 C 67.496094 253.769531 63.796875 253.738281 60.101562 254.046875 C 58.15625 254.203125 56.21875 254.492188 54.296875 254.898438 C 53.335938 255.101562 52.378906 255.335938 51.441406 255.640625 C 50.523438 255.984375 49.582031 256.433594 48.917969 257.265625 C 49.953125 257.195312 50.859375 257.046875 51.785156 256.855469 C 52.703125 256.640625 53.625 256.445312 54.558594 256.308594 C 56.429688 256.011719 58.324219 255.871094 60.222656 255.742188 C 64.023438 255.546875 67.847656 255.566406 71.664062 255.816406 Z M 136.394531 310.695312 C 136.710938 310.578125 136.960938 310.304688 137.035156 309.949219 C 137.511719 307.667969 138 305.394531 138.429688 303.105469 L 139.097656 299.675781 C 139.328125 298.535156 139.585938 297.402344 139.175781 296.109375 C 138.238281 297.085938 137.964844 298.21875 137.667969 299.34375 L 136.746094 302.714844 C 136.175781 304.757812 135.652344 306.816406 135.121094 308.871094 C 129.304688 310.730469 123.261719 311.925781 117.167969 312.699219 C 110.886719 313.496094 104.5625 314.019531 98.210938 314.328125 C 91.863281 314.601562 85.492188 314.738281 79.125 314.550781 C 75.9375 314.46875 72.757812 314.28125 69.574219 314.117188 L 64.800781 313.867188 C 63.203125 313.824219 61.644531 313.464844 59.96875 314.105469 C 61.464844 315.109375 63.089844 315.050781 64.675781 315.296875 C 66.261719 315.492188 67.859375 315.683594 69.453125 315.8125 C 72.644531 316.101562 75.847656 316.265625 79.046875 316.433594 C 85.453125 316.734375 91.867188 316.992188 98.296875 316.835938 C 104.71875 316.722656 111.160156 316.304688 117.539062 315.324219 C 123.914062 314.351562 130.257812 312.941406 136.359375 310.707031 Z M 280.722656 279.199219 C 281.804688 279.144531 282.886719 279.054688 283.972656 278.894531 C 282.890625 278.644531 281.800781 278.472656 280.710938 278.335938 Z M 314.113281 202.207031 L 306.25 201.726562 L 290.523438 200.789062 L 259.0625 199.089844 L 243.332031 198.265625 L 239.398438 198.058594 L 238.90625 198.035156 C 238.75 198.023438 238.589844 198.015625 238.335938 198.015625 C 237.875 198.019531 237.414062 198.09375 236.980469 198.238281 C 236.105469 198.519531 235.324219 199.082031 234.769531 199.816406 C 234.492188 200.167969 234.265625 200.644531 234.148438 200.890625 L 233.71875 201.773438 L 232.859375 203.542969 L 231.132812 207.078125 C 226.519531 216.503906 222.011719 225.976562 217.453125 235.425781 L 203.921875 263.847656 L 200.550781 270.957031 L 200.132812 271.847656 C 199.96875 272.191406 199.777344 272.722656 199.753906 273.195312 C 199.691406 274.171875 200.046875 275.152344 200.71875 275.84375 C 201.058594 276.191406 201.46875 276.472656 201.914062 276.65625 C 202.140625 276.746094 202.375 276.808594 202.613281 276.855469 C 202.839844 276.886719 203.125 276.910156 203.257812 276.910156 L 205.222656 276.972656 L 220.972656 277.464844 L 250.6875 278.5 C 250.292969 277.871094 249.914062 277.265625 249.574219 276.695312 L 221.042969 275.503906 L 205.308594 274.796875 L 203.339844 274.707031 C 203.140625 274.703125 203.101562 274.6875 203.003906 274.679688 C 202.917969 274.65625 202.835938 274.640625 202.757812 274.601562 C 202.601562 274.53125 202.460938 274.4375 202.339844 274.308594 C 202.097656 274.054688 201.984375 273.695312 202.011719 273.363281 C 202.03125 273.175781 202.066406 273.082031 202.179688 272.835938 L 202.613281 271.953125 L 206.078125 264.886719 L 219.890625 236.59375 C 224.445312 227.140625 229.046875 217.710938 233.546875 208.230469 L 236.089844 202.898438 C 236.367188 202.34375 236.675781 201.59375 236.855469 201.378906 C 237.085938 201.0625 237.417969 200.816406 237.792969 200.691406 C 237.976562 200.632812 238.175781 200.59375 238.371094 200.59375 C 238.445312 200.589844 238.613281 200.59375 238.785156 200.601562 L 239.277344 200.625 L 243.210938 200.796875 L 258.949219 201.472656 L 290.429688 202.785156 L 306.171875 203.351562 L 314.046875 203.621094 C 316.667969 203.714844 319.296875 203.726562 321.945312 203.289062 C 319.351562 202.601562 316.734375 202.367188 314.113281 202.207031 Z M 260.945312 277.1875 C 261.375 277.746094 261.792969 278.308594 262.1875 278.875 C 264.195312 278.933594 266.199219 278.992188 268.203125 279.039062 L 270.761719 279.105469 C 270.824219 278.644531 270.871094 278.167969 270.90625 277.675781 L 268.261719 277.546875 C 265.824219 277.414062 263.386719 277.300781 260.945312 277.1875 Z M 263.28125 280.484375 C 263.621094 281.003906 263.949219 281.519531 264.253906 282.019531 L 265.402344 282.035156 C 266.828125 282.054688 268.257812 282 269.703125 281.492188 C 268.300781 280.875 266.878906 280.710938 265.457031 280.621094 Z M 142.757812 291.003906 L 138.621094 292.109375 C 137.246094 292.484375 135.886719 292.9375 134.621094 293.761719 C 136.125 293.902344 137.539062 293.679688 138.933594 293.375 L 143.109375 292.453125 C 145.898438 291.855469 148.675781 291.203125 151.453125 290.554688 L 168.109375 286.648438 L 184.800781 282.914062 L 193.144531 281.085938 C 194.535156 280.785156 195.921875 280.503906 197.296875 280.246094 C 197.671875 280.164062 197.890625 280.160156 198.1875 280.105469 C 198.433594 280.03125 198.820312 280.078125 199.171875 280.089844 L 201.308594 280.191406 C 212.699219 280.691406 224.089844 281.027344 235.484375 281.359375 C 241.179688 281.527344 246.875 281.714844 252.574219 281.832031 C 252.660156 281.832031 252.746094 281.832031 252.832031 281.835938 C 252.378906 281.144531 251.929688 280.453125 251.492188 279.769531 C 246.175781 279.476562 240.855469 279.234375 235.535156 278.976562 C 224.128906 278.429688 212.722656 277.875 201.3125 277.492188 L 199.171875 277.429688 C 198.550781 277.347656 197.523438 277.535156 196.808594 277.671875 C 195.386719 277.964844 193.984375 278.273438 192.59375 278.601562 L 184.257812 280.582031 L 167.648438 284.738281 L 151.039062 288.859375 C 148.273438 289.554688 145.507812 290.253906 142.757812 291.003906 Z M 270.953125 226.847656 C 265.941406 226.78125 261.007812 230.351562 259.933594 234.824219 C 258.863281 239.292969 262.054688 242.972656 267.066406 243.039062 C 272.082031 243.105469 277.015625 239.535156 278.085938 235.066406 C 279.160156 230.59375 275.964844 226.914062 270.953125 226.847656 Z M 177.429688 280.027344 C 179.042969 279.300781 180.640625 278.523438 182.191406 277.671875 C 183.558594 276.925781 184.890625 276.148438 186.222656 275.316406 C 187.351562 275.953125 188.488281 276.558594 189.6875 277.105469 L 193.988281 276.046875 L 193.765625 276.003906 C 193.421875 275.9375 192.808594 275.871094 192.6875 275.847656 C 192.109375 275.714844 191.40625 275.433594 190.738281 275.148438 C 189.394531 274.5625 188.03125 273.875 186.71875 273.175781 L 186.6875 273.160156 C 186.355469 272.988281 185.941406 272.996094 185.609375 273.222656 C 184.207031 274.175781 182.71875 275.097656 181.230469 275.96875 C 179.730469 276.832031 178.226562 277.699219 176.683594 278.476562 C 175.140625 279.25 173.574219 279.988281 171.972656 280.609375 C 170.382812 281.203125 168.820312 281.699219 167.253906 282.636719 L 176.890625 280.261719 C 177.070312 280.183594 177.25 280.105469 177.429688 280.027344 Z M 189.082031 267.90625 L 199.628906 268.847656 L 198.324219 271.441406 L 195.691406 271.175781 L 195.960938 271.3125 L 195.972656 271.316406 C 196.054688 271.363281 196.136719 271.414062 196.203125 271.46875 L 197.675781 272.722656 L 197.128906 273.808594 C 196.914062 274.234375 196.785156 274.671875 196.71875 275.109375 L 194.734375 273.449219 L 188.382812 270.347656 C 187.742188 270.035156 187.480469 269.261719 187.792969 268.621094 C 188.03125 268.128906 188.546875 267.859375 189.0625 267.902344 L 189.082031 267.90625 " fill-opacity="1" fill-rule="nonzero"/></svg>