<svg width="48" height="48" viewBox="0 0 48 48" fill="none" xmlns="http://www.w3.org/2000/svg">
<g clip-path="url(#clip0_154_195)">
<path fill-rule="evenodd" clip-rule="evenodd" d="M9.3 33.6C9.43972 33.4137 9.6209 33.2625 9.82918 33.1584C10.0375 33.0542 10.2671 33 10.5 33H18C18.3978 33 18.7794 33.158 19.0607 33.4393C19.342 33.7206 19.5 34.1022 19.5 34.5C19.5 34.8978 19.342 35.2794 19.0607 35.5607C18.7794 35.842 18.3978 36 18 36H11.25L4.5 45H43.5L36.75 36H30C29.6022 36 29.2206 35.842 28.9393 35.5607C28.658 35.2794 28.5 34.8978 28.5 34.5C28.5 34.1022 28.658 33.7206 28.9393 33.4393C29.2206 33.158 29.6022 33 30 33H37.5C37.7329 33 37.9625 33.0542 38.1708 33.1584C38.3791 33.2625 38.5603 33.4137 38.7 33.6L47.7 45.6C47.8671 45.8229 47.9689 46.0878 47.9939 46.3653C48.019 46.6427 47.9662 46.9217 47.8416 47.1708C47.7171 47.42 47.5256 47.6295 47.2886 47.776C47.0516 47.9224 46.7786 48 46.5 48H1.5C1.22143 48 0.948368 47.9224 0.711404 47.776C0.47444 47.6295 0.282939 47.42 0.15836 47.1708C0.0337806 46.9217 -0.0189552 46.6427 0.00606174 46.3653C0.0310787 46.0878 0.13286 45.8229 0.300001 45.6L9.3 33.6Z" fill="#F06000"/>
<path fill-rule="evenodd" clip-rule="evenodd" d="M12 12C12.0002 9.69066 12.6668 7.43045 13.9197 5.49056C15.1726 3.55067 16.9586 2.0135 19.0635 1.06351C21.1684 0.113511 23.5027 -0.208957 25.7863 0.134797C28.0699 0.47855 30.2058 1.47392 31.9377 3.00148C33.6696 4.52903 34.924 6.52388 35.5503 8.74665C36.1766 10.9694 36.1482 13.3257 35.4685 15.5327C34.7889 17.7398 33.4869 19.7039 31.7187 21.1893C29.9505 22.6747 27.7912 23.6183 25.5 23.907V40.5C25.5 40.8978 25.342 41.2793 25.0607 41.5606C24.7794 41.842 24.3978 42 24 42C23.6022 42 23.2206 41.842 22.9393 41.5606C22.658 41.2793 22.5 40.8978 22.5 40.5V23.91C19.5989 23.5445 16.9311 22.1323 14.9976 19.9387C13.0642 17.7451 11.9983 14.924 12 12Z" fill="#F06000"/>
</g>
<defs>
<clipPath id="clip0_154_195">
<rect width="48" height="48" fill="white"/>
</clipPath>
</defs>
</svg>
