<svg xmlns="http://www.w3.org/2000/svg" xmlns:xlink="http://www.w3.org/1999/xlink" width="500" zoomAndPan="magnify" viewBox="0 0 375 374.999991" height="500" 
preserveAspectRatio="xMidYMid meet" version="1.0">
<defs><clipPath id="d7d5f846fa"><path d="M 256 66 L 273.699219 66 L 273.699219 242 L 256 242 Z M 256 66 " clip-rule="nonzero"/></clipPath><clipPath id="db11ce5226"><path d="M 61.449219 74 L 91 74 L 91 242 L 61.449219 242 Z M 61.449219 74 " clip-rule="nonzero"/></clipPath></defs><rect x="-37.5" width="450" fill="#ffffff" y="-37.499999" height="449.999989" fill-opacity="1"/>
<rect x="-37.5" width="450" fill="#fcfcfc" y="-37.499999" height="449.999989" fill-opacity="1"/><path fill="#f06000" d="M 171.765625 79.265625 C 126.921875 79.265625 90.570312 115.691406 90.570312 160.628906 C 90.570312 205.5625 126.921875 241.988281 171.765625 241.988281 C 216.609375 241.988281 252.964844 205.5625 252.964844 160.628906 C 252.964844 115.691406 216.601562 79.265625 171.765625 79.265625 Z M 171.765625 225.117188 C 136.21875 225.117188 107.398438 196.238281 107.398438 160.621094 C 107.398438 125 136.21875 96.121094 171.765625 96.121094 C 207.3125 96.121094 236.136719 125 236.136719 160.621094 C 236.136719 196.238281 207.3125 225.117188 171.765625 225.117188 Z M 171.765625 225.117188 " fill-opacity="1" fill-rule="nonzero"/><path fill="#f06000" d="M 228.613281 160.621094 C 228.613281 162.484375 228.523438 164.347656 228.339844 166.203125 C 228.15625 168.058594 227.882812 169.902344 227.519531 171.734375 C 227.15625 173.5625 226.707031 175.371094 226.164062 177.15625 C 225.625 178.941406 225 180.695312 224.285156 182.417969 C 223.574219 184.140625 222.777344 185.824219 221.902344 187.472656 C 221.023438 189.117188 220.066406 190.714844 219.03125 192.265625 C 218 193.816406 216.890625 195.3125 215.710938 196.753906 C 214.527344 198.199219 213.28125 199.578125 211.964844 200.898438 C 210.648438 202.21875 209.269531 203.46875 207.828125 204.652344 C 206.390625 205.835938 204.898438 206.945312 203.347656 207.980469 C 201.800781 209.019531 200.207031 209.976562 198.5625 210.855469 C 196.921875 211.734375 195.242188 212.53125 193.519531 213.246094 C 191.800781 213.960938 190.050781 214.585938 188.269531 215.128906 C 186.488281 215.671875 184.683594 216.121094 182.855469 216.488281 C 181.03125 216.851562 179.191406 217.125 177.339844 217.308594 C 175.484375 217.488281 173.628906 217.582031 171.765625 217.582031 C 169.90625 217.582031 168.046875 217.488281 166.195312 217.308594 C 164.339844 217.125 162.5 216.851562 160.675781 216.488281 C 158.851562 216.121094 157.046875 215.671875 155.265625 215.128906 C 153.484375 214.585938 151.730469 213.960938 150.011719 213.246094 C 148.292969 212.53125 146.609375 211.734375 144.96875 210.855469 C 143.328125 209.976562 141.730469 209.019531 140.183594 207.980469 C 138.636719 206.945312 137.140625 205.835938 135.703125 204.652344 C 134.261719 203.46875 132.886719 202.21875 131.570312 200.898438 C 130.253906 199.578125 129.003906 198.199219 127.824219 196.753906 C 126.640625 195.3125 125.535156 193.816406 124.5 192.265625 C 123.464844 190.714844 122.507812 189.117188 121.632812 187.472656 C 120.753906 185.824219 119.957031 184.140625 119.246094 182.417969 C 118.535156 180.695312 117.90625 178.941406 117.367188 177.15625 C 116.828125 175.371094 116.375 173.5625 116.011719 171.734375 C 115.648438 169.902344 115.375 168.058594 115.191406 166.203125 C 115.011719 164.347656 114.917969 162.484375 114.917969 160.621094 C 114.917969 158.753906 115.011719 156.894531 115.191406 155.035156 C 115.375 153.179688 115.648438 151.335938 116.011719 149.507812 C 116.375 147.675781 116.828125 145.871094 117.367188 144.085938 C 117.90625 142.300781 118.535156 140.546875 119.246094 138.820312 C 119.957031 137.097656 120.753906 135.414062 121.632812 133.769531 C 122.507812 132.125 123.464844 130.523438 124.5 128.972656 C 125.535156 127.421875 126.640625 125.925781 127.824219 124.484375 C 129.003906 123.042969 130.253906 121.660156 131.570312 120.34375 C 132.886719 119.023438 134.261719 117.773438 135.703125 116.589844 C 137.140625 115.40625 138.636719 114.292969 140.183594 113.257812 C 141.730469 112.222656 143.328125 111.265625 144.96875 110.382812 C 146.609375 109.503906 148.292969 108.707031 150.011719 107.996094 C 151.730469 107.28125 153.484375 106.652344 155.265625 106.109375 C 157.046875 105.570312 158.851562 105.117188 160.675781 104.753906 C 162.5 104.390625 164.339844 104.117188 166.195312 103.933594 C 168.046875 103.75 169.90625 103.660156 171.765625 103.660156 C 173.628906 103.660156 175.484375 103.75 177.339844 103.933594 C 179.191406 104.117188 181.03125 104.390625 182.855469 104.753906 C 184.683594 105.117188 186.488281 105.570312 188.269531 106.109375 C 190.050781 106.652344 191.800781 107.28125 193.519531 107.996094 C 195.242188 108.707031 196.921875 109.503906 198.5625 110.382812 C 200.207031 111.265625 201.800781 112.222656 203.347656 113.257812 C 204.898438 114.292969 206.390625 115.40625 207.828125 116.589844 C 209.269531 117.773438 210.648438 119.023438 211.964844 120.34375 C 213.28125 121.660156 214.527344 123.042969 215.710938 124.484375 C 216.890625 125.925781 218 127.421875 219.03125 128.972656 C 220.066406 130.523438 221.023438 132.125 221.902344 133.769531 C 222.777344 135.414062 223.574219 137.097656 224.285156 138.820312 C 225 140.546875 225.625 142.300781 226.164062 144.085938 C 226.707031 145.871094 227.15625 147.675781 227.519531 149.507812 C 227.882812 151.335938 228.15625 153.179688 228.339844 155.035156 C 228.523438 156.894531 228.613281 158.753906 228.613281 160.621094 Z M 228.613281 160.621094 " fill-opacity="1" fill-rule="nonzero"/><g clip-path="url(#d7d5f846fa)"><path fill="#f06000" d="M 264.035156 73.804688 C 253.875 92.09375 254.113281 110.074219 261.613281 133.296875 C 261.613281 133.296875 264.964844 144.261719 262.484375 153.453125 C 261.851562 155.792969 261.613281 158.222656 261.613281 160.644531 L 261.601562 235.910156 C 261.601562 239.453125 264.679688 242.316406 268.285156 241.949219 C 271.425781 241.625 273.722656 238.785156 273.722656 235.621094 L 273.722656 175.199219 L 273.730469 156.15625 L 273.722656 73.8125 C 273.738281 73.804688 273.738281 56.351562 264.035156 73.804688 Z M 264.035156 73.804688 " fill-opacity="1" fill-rule="nonzero"/></g><g clip-path="url(#db11ce5226)"><path fill="#f06000" d="M 87.734375 74.554688 L 87.394531 74.554688 C 85.824219 74.554688 84.558594 107.234375 84.558594 107.234375 C 84.558594 108.601562 83.554688 109.761719 82.207031 109.960938 C 80.554688 110.199219 79.066406 108.914062 79.066406 107.234375 C 79.066406 107.234375 77.792969 74.554688 76.230469 74.554688 L 75.855469 74.554688 C 74.285156 74.554688 73.015625 107.257812 73.015625 107.257812 C 73.015625 108.921875 71.546875 110.207031 69.902344 109.984375 L 69.566406 109.933594 C 68.207031 109.746094 67.1875 108.585938 67.1875 107.207031 C 67.1875 107.207031 65.914062 74.546875 64.351562 74.546875 C 62.78125 74.546875 61.515625 110.175781 61.515625 110.175781 C 61.515625 114.621094 62.496094 121.476562 67.3125 125.453125 C 70.179688 127.828125 70.847656 130.414062 70.90625 131.492188 L 70.90625 235.894531 C 70.90625 239.230469 73.632812 241.964844 76.964844 241.964844 C 80.292969 241.964844 83.023438 239.230469 83.023438 235.894531 L 83.023438 131.945312 L 83.03125 131.945312 C 83.015625 131.714844 83.03125 131.507812 83.023438 131.285156 L 83.023438 130.546875 C 83.160156 127.613281 84.363281 125.949219 85.667969 124.851562 C 90.601562 120.734375 90.601562 114.292969 90.601562 110.222656 C 90.570312 110.222656 89.304688 74.554688 87.734375 74.554688 Z M 87.734375 74.554688 " fill-opacity="1" fill-rule="nonzero"/></g></svg>