<?xml version="1.0" encoding="UTF-8" standalone="no"?>
<svg
   width="500"
   zoomAndPan="magnify"
   viewBox="0 0 375 374.999991"
   height="500"
   preserveAspectRatio="xMidYMid meet"
   version="1.0"
   id="svg138"
   xmlns="http://www.w3.org/2000/svg">
  <defs
     id="defs120">
    <clipPath
       id="d7d5f846fa">
      <path
         d="M 256 66 L 273.699219 66 L 273.699219 242 L 256 242 Z M 256 66 "
         clip-rule="nonzero"
         id="path114" />
    </clipPath>
    <clipPath
       id="db11ce5226">
      <path
         d="M 61.449219 74 L 91 74 L 91 242 L 61.449219 242 Z M 61.449219 74 "
         clip-rule="nonzero"
         id="path117" />
    </clipPath>
  </defs>
  <path
     fill="#f06000"
     d="m 188.8889,54.920813 c -76.09191,0 -137.774104,59.311637 -137.774104,132.482797 0,73.16483 61.682194,132.47646 137.774104,132.47646 76.09192,0 137.78074,-59.31163 137.78074,-132.47646 0,-73.17116 -61.70208,-132.482797 -137.78074,-132.482797 z m 0,237.488257 c -60.31677,0 -109.21974,-47.02315 -109.21974,-105.01817 0,-58.00136 48.90297,-105.02454 109.21974,-105.02454 60.31677,0 109.22637,47.02318 109.22637,105.02454 0,57.99502 -48.9096,105.01817 -109.22637,105.01817 z m 0,0"
     fill-opacity="1"
     fill-rule="nonzero"
     id="path126"
     style="stroke-width:1.6622" />
  <path
     fill="#f06000"
     d="m 285.34932,187.3909 c 0,3.03395 -0.15238,6.06791 -0.46396,9.08915 -0.31153,3.02124 -0.77551,6.02339 -1.39194,9.00646 -0.61642,2.97672 -1.37867,5.92164 -2.29999,8.82838 -0.91469,2.90673 -1.9752,5.76261 -3.18816,8.56759 -1.20634,2.80498 -2.55848,5.54636 -4.04321,8.23048 -1.49135,2.67777 -3.11526,5.27922 -4.87174,7.80433 -1.74985,2.52512 -3.63226,4.96119 -5.63399,7.30821 -2.00834,2.35339 -4.12274,4.59865 -6.35645,6.74849 -2.23371,2.14986 -4.57349,4.18522 -7.01929,6.11244 -2.43918,1.92722 -4.97115,3.73362 -7.60256,5.41915 -2.62478,1.6919 -5.3291,3.25021 -8.11956,4.68133 -2.78385,1.4311 -5.63399,2.72865 -8.55704,3.89261 -2.91642,1.16397 -5.88586,2.18164 -8.90833,3.06576 -3.02246,0.88412 -6.08467,1.61557 -9.18669,2.21346 -3.09538,0.59153 -6.21727,1.03678 -9.35904,1.3357 -3.14841,0.2926 -6.29681,0.44524 -9.45847,0.44524 -3.15503,0 -6.31006,-0.15256 -9.45185,-0.44524 -3.14838,-0.29892 -6.27028,-0.74417 -9.36566,-1.3357 -3.09538,-0.59789 -6.1576,-1.32934 -9.18007,-2.21346 -3.02246,-0.88412 -5.99855,-1.90179 -8.91495,-3.06576 -2.91642,-1.16396 -5.77318,-2.46151 -8.55704,-3.89261 -2.78383,-1.43112 -5.49479,-2.98943 -8.11955,-4.68133 -2.62478,-1.68553 -5.16338,-3.49193 -7.60256,-5.41915 -2.44582,-1.92722 -4.77896,-3.96258 -7.01268,-6.11244 -2.23369,-2.14984 -4.35471,-4.3951 -6.35645,-6.74849 -2.00834,-2.34702 -3.88413,-4.78309 -5.64061,-7.30821 -1.75646,-2.52511 -3.38039,-5.12656 -4.86511,-7.80433 -1.49134,-2.68412 -2.8435,-5.4255 -4.049826,-8.23048 -1.206336,-2.80498 -2.273488,-5.66086 -3.188183,-8.56759 -0.914684,-2.90674 -1.683569,-5.85166 -2.299986,-8.82838 -0.616422,-2.98307 -1.080402,-5.98522 -1.391921,-9.00646 -0.304903,-3.02124 -0.46398,-6.0552 -0.46398,-9.08915 0,-3.04032 0.158993,-6.06792 0.46398,-9.0955 0.311519,-3.02125 0.775499,-6.0234 1.391921,-9.0001 0.616417,-2.98307 1.385302,-5.92164 2.299986,-8.82838 0.914695,-2.90675 1.981847,-5.76262 3.188183,-8.57396 1.206326,-2.80498 2.558486,-5.54635 4.049826,-8.22411 1.48472,-2.67777 3.10865,-5.2856 4.86511,-7.8107 1.75648,-2.52512 3.63227,-4.96119 5.64061,-7.30822 2.00174,-2.347 4.12276,-4.59865 6.35645,-6.74212 2.23372,-2.14986 4.56686,-4.18521 7.01268,-6.11244 2.43918,-1.92723 4.97778,-3.73996 7.60256,-5.42551 2.62476,-1.68553 5.33572,-3.24384 8.11955,-4.68132 2.78386,-1.43112 5.64062,-2.72864 8.55704,-3.88627 2.9164,-1.16395 5.89249,-2.188005 8.91495,-3.072113 3.02247,-0.877757 6.08469,-1.615571 9.18007,-2.20711 3.09538,-0.591509 6.21728,-1.036754 9.36566,-1.335694 3.14179,-0.29894 6.29682,-0.445225 9.45185,-0.445225 3.16166,0 6.31006,0.146215 9.45847,0.445225 3.14177,0.29894 6.26366,0.744185 9.35904,1.335694 3.10202,0.591539 6.16423,1.329353 9.18669,2.20711 3.02247,0.884108 5.99191,1.908163 8.90833,3.072113 2.92305,1.15763 5.77319,2.45515 8.55704,3.88627 2.79046,1.43748 5.49478,2.99579 8.11956,4.68132 2.63141,1.68555 5.16338,3.49828 7.60256,5.42551 2.4458,1.92723 4.78558,3.96258 7.01929,6.11244 2.23371,2.14347 4.34811,4.39512 6.35645,6.74212 2.00173,2.34703 3.88414,4.7831 5.63399,7.30822 1.75648,2.5251 3.38039,5.13293 4.87174,7.8107 1.48473,2.67776 2.83687,5.41913 4.04321,8.22411 1.21296,2.81134 2.27347,5.66721 3.18816,8.57396 0.92132,2.90674 1.68357,5.84531 2.29999,8.82838 0.61643,2.9767 1.08041,5.97885 1.39194,9.0001 0.31152,3.02758 0.46396,6.05518 0.46396,9.0955 z m 0,0"
     fill-opacity="1"
     fill-rule="nonzero"
     id="path128"
     style="stroke-width:1.6622" />
  <g
     clip-path="url(#d7d5f846fa)"
     id="g132"
     transform="matrix(1.6968233,0,0,1.6282874,-102.56701,-74.146405)">
    <path
       fill="#f06000"
       d="m 264.03516,73.804688 c -10.16016,18.289062 -9.92188,36.269532 -2.42188,59.492182 0,0 3.35156,10.96485 0.87109,20.15625 -0.63281,2.33985 -0.87109,4.76954 -0.87109,7.19141 l -0.0117,75.26563 c 0,3.54296 3.07813,6.40625 6.6836,6.03906 3.14062,-0.32422 5.4375,-3.16406 5.4375,-6.32813 v -60.42187 l 0.008,-19.04297 -0.008,-82.34375 c 0.0156,-0.0078 0.0156,-17.460938 -9.6875,-0.0078 z m 0,0"
       fill-opacity="1"
       fill-rule="nonzero"
       id="path130" />
  </g>
  <g
     clip-path="url(#db11ce5226)"
     id="g136"
     transform="matrix(1.6968233,0,0,1.6282874,-102.56701,-74.146405)">
    <path
       fill="#f06000"
       d="m 87.734375,74.554688 h -0.339844 c -1.570312,0 -2.835937,32.679692 -2.835937,32.679692 0,1.36718 -1.003906,2.52734 -2.351563,2.72656 -1.652343,0.23828 -3.140625,-1.04688 -3.140625,-2.72656 0,0 -1.273437,-32.679692 -2.835937,-32.679692 h -0.375 c -1.570313,0 -2.839844,32.703122 -2.839844,32.703122 0,1.66407 -1.46875,2.94922 -3.113281,2.72657 l -0.335938,-0.0508 c -1.359375,-0.1875 -2.378906,-1.34765 -2.378906,-2.72656 0,0 -1.273438,-32.660155 -2.835938,-32.660155 -1.570312,0 -2.835937,35.628905 -2.835937,35.628905 0,4.44531 0.980469,11.30078 5.796875,15.27735 2.867188,2.375 3.535156,4.96093 3.59375,6.03906 v 104.40234 c 0,3.33594 2.726562,6.07031 6.058594,6.07031 3.328125,0 6.058594,-2.73437 6.058594,-6.07031 V 131.94531 h 0.0078 c -0.01563,-0.23047 0,-0.4375 -0.0078,-0.66015 v -0.73829 c 0.136718,-2.93359 1.339843,-4.59765 2.644531,-5.69531 4.933593,-4.11718 4.933593,-10.55859 4.933593,-14.6289 -0.03125,0 -1.296874,-35.667972 -2.867187,-35.667972 z m 0,0"
       fill-opacity="1"
       fill-rule="nonzero"
       id="path134" />
  </g>
</svg>
