<svg xmlns="http://www.w3.org/2000/svg" xmlns:xlink="http://www.w3.org/1999/xlink" width="500" zoomAndPan="magnify" viewBox="0 0 375 374.999991" height="500" preserveAspectRatio="xMidYMid meet" version="1.0"><defs><clipPath id="4b874937ec"><path d="M 59.699219 68.820312 L 284.699219 68.820312 L 284.699219 284.820312 L 59.699219 284.820312 Z M 59.699219 68.820312 " clip-rule="nonzero"/></clipPath></defs><rect x="-37.5" width="450" fill="#ffffff" y="-37.499999" height="449.999989" fill-opacity="1"/><rect x="-37.5" width="450" fill="#fcfcfc" y="-37.499999" height="449.999989" fill-opacity="1"/><g clip-path="url(#4b874937ec)"><path fill="#16171b" d="M 284.605469 118.128906 L 284.605469 272.335938 C 284.605469 273.234375 283.875 273.960938 282.976562 273.960938 L 228.480469 273.960938 C 227.519531 274.925781 226.308594 275.632812 224.957031 275.992188 L 224.957031 283.183594 C 224.957031 284.082031 224.230469 284.8125 223.332031 284.8125 L 198.066406 284.8125 C 197.167969 284.8125 196.441406 284.082031 196.441406 283.183594 L 196.441406 275.992188 C 195.089844 275.632812 193.878906 274.925781 192.917969 273.960938 L 151.167969 273.960938 C 150.207031 274.925781 148.996094 275.632812 147.644531 275.992188 L 147.644531 283.183594 C 147.644531 284.082031 146.917969 284.8125 146.019531 284.8125 L 120.753906 284.8125 C 119.855469 284.8125 119.128906 284.082031 119.128906 283.183594 L 119.128906 275.992188 C 117.777344 275.632812 116.566406 274.925781 115.605469 273.960938 L 61.402344 273.960938 C 60.507812 273.960938 59.777344 273.234375 59.777344 272.335938 L 59.777344 118.128906 C 59.777344 117.730469 59.925781 117.34375 60.191406 117.046875 L 96.09375 76.785156 C 96.105469 76.769531 96.121094 76.761719 96.136719 76.746094 C 96.15625 76.722656 96.179688 76.703125 96.203125 76.683594 C 96.25 76.636719 96.304688 76.59375 96.355469 76.554688 C 96.382812 76.535156 96.40625 76.519531 96.429688 76.5 C 96.496094 76.460938 96.5625 76.421875 96.632812 76.390625 C 96.652344 76.382812 96.667969 76.371094 96.683594 76.367188 C 96.773438 76.328125 96.863281 76.304688 96.953125 76.28125 C 96.980469 76.277344 97.011719 76.273438 97.039062 76.269531 C 97.109375 76.257812 97.183594 76.25 97.253906 76.246094 C 97.273438 76.246094 97.289062 76.242188 97.308594 76.242188 L 185.558594 76.242188 L 185.558594 75.949219 C 185.558594 75.945312 185.558594 75.945312 185.558594 75.941406 C 185.558594 72.015625 188.753906 68.820312 192.679688 68.820312 C 196.605469 68.820312 199.800781 72.015625 199.800781 75.941406 L 199.800781 76.242188 L 203.578125 76.242188 L 203.578125 75.949219 C 203.578125 75.945312 203.578125 75.945312 203.578125 75.941406 C 203.578125 72.015625 206.773438 68.820312 210.699219 68.820312 C 214.625 68.820312 217.820312 72.015625 217.820312 75.941406 L 217.820312 76.242188 L 247.074219 76.242188 C 247.09375 76.242188 247.109375 76.246094 247.128906 76.246094 C 247.199219 76.25 247.269531 76.257812 247.335938 76.269531 C 247.367188 76.273438 247.398438 76.277344 247.429688 76.285156 C 247.519531 76.304688 247.609375 76.332031 247.695312 76.367188 C 247.714844 76.375 247.738281 76.386719 247.757812 76.398438 C 247.824219 76.429688 247.886719 76.460938 247.945312 76.5 C 247.976562 76.519531 248 76.539062 248.027344 76.558594 C 248.082031 76.59375 248.128906 76.636719 248.179688 76.679688 C 248.203125 76.703125 248.226562 76.722656 248.246094 76.746094 C 248.261719 76.761719 248.273438 76.769531 248.289062 76.785156 L 284.191406 117.046875 C 284.457031 117.34375 284.605469 117.730469 284.605469 118.128906 Z M 284.605469 118.128906 " fill-opacity="1" fill-rule="nonzero"/></g><path fill="#d97b0b" d="M 119.488281 239.746094 L 141.5 239.746094 L 141.5 246.074219 C 139.015625 244.972656 136.273438 244.351562 133.386719 244.351562 C 127.992188 244.351562 123.09375 246.5 119.488281 249.976562 Z M 203.15625 245.832031 C 205.484375 244.882812 208.03125 244.351562 210.699219 244.351562 C 216.382812 244.351562 221.515625 246.734375 225.164062 250.550781 L 225.164062 239.800781 L 203.15625 239.800781 Z M 79.925781 254.875 L 101.9375 254.875 L 101.9375 239.746094 L 79.925781 239.746094 Z M 242.71875 239.800781 L 242.71875 254.933594 L 264.730469 254.933594 L 264.730469 239.800781 Z M 262.632812 190.355469 L 262.632812 183.941406 C 237.9375 177.78125 197.855469 174.460938 172.191406 174.460938 C 146.527344 174.460938 106.445312 177.78125 81.75 183.941406 L 81.75 190.355469 C 106.757812 184.253906 146.601562 180.964844 172.191406 180.964844 C 197.78125 180.964844 237.621094 184.253906 262.632812 190.355469 Z M 103.9375 205.082031 C 103.660156 204.910156 103.300781 204.863281 102.859375 204.941406 C 102.566406 204.992188 102.421875 205.019531 102.132812 205.070312 C 102.308594 206.046875 102.394531 206.539062 102.570312 207.515625 C 102.859375 207.464844 103.003906 207.4375 103.289062 207.386719 C 103.730469 207.308594 104.050781 207.148438 104.253906 206.898438 C 104.453125 206.648438 104.519531 206.328125 104.453125 205.941406 C 104.382812 205.539062 104.210938 205.253906 103.9375 205.082031 Z M 208.746094 202.242188 C 208.714844 201.84375 208.703125 201.46875 208.714844 201.121094 C 208.683594 201.117188 208.667969 201.117188 208.636719 201.113281 C 208.585938 201.457031 208.507812 201.824219 208.402344 202.210938 C 208.292969 202.59375 208.109375 203.144531 207.847656 203.851562 C 207.636719 204.414062 207.53125 204.691406 207.324219 205.253906 C 208.09375 205.320312 208.480469 205.359375 209.253906 205.429688 C 209.148438 204.839844 209.097656 204.546875 208.988281 203.957031 C 208.863281 203.210938 208.78125 202.640625 208.746094 202.242188 Z M 159.582031 200.753906 C 159.496094 200.363281 159.441406 199.992188 159.410156 199.644531 C 159.378906 199.648438 159.363281 199.648438 159.332031 199.648438 C 159.324219 199.996094 159.292969 200.367188 159.234375 200.765625 C 159.175781 201.160156 159.058594 201.726562 158.890625 202.464844 C 158.75 203.046875 158.679688 203.335938 158.539062 203.917969 C 159.3125 203.890625 159.703125 203.878906 160.476562 203.855469 C 160.300781 203.285156 160.210938 203 160.035156 202.425781 C 159.816406 201.703125 159.664062 201.144531 159.582031 200.753906 Z M 192.570312 199.378906 C 192.277344 199.363281 192.132812 199.359375 191.839844 199.34375 C 191.789062 200.335938 191.765625 200.832031 191.714844 201.824219 C 192.007812 201.839844 192.152344 201.847656 192.445312 201.863281 C 192.890625 201.886719 193.238281 201.796875 193.488281 201.597656 C 193.738281 201.402344 193.875 201.105469 193.898438 200.710938 C 193.921875 200.308594 193.816406 199.988281 193.585938 199.761719 C 193.355469 199.53125 193.019531 199.402344 192.570312 199.378906 Z M 252.71875 226.390625 C 229.828125 222.75 192.121094 221.109375 172.191406 221.109375 C 152.257812 221.109375 114.554688 222.75 91.664062 226.390625 L 82.15625 193.601562 C 106.878906 187.503906 146.664062 184.21875 172.191406 184.21875 C 197.714844 184.21875 237.5 187.503906 262.226562 193.601562 Z M 111.109375 213.132812 C 109.429688 211.304688 108.582031 210.390625 106.867188 208.578125 C 107.609375 208.355469 108.15625 207.917969 108.511719 207.265625 C 108.863281 206.617188 108.972656 205.84375 108.828125 204.953125 C 108.605469 203.585938 107.988281 202.609375 106.964844 202.035156 C 105.945312 201.457031 104.570312 201.3125 102.859375 201.613281 C 100.496094 202.027344 99.316406 202.242188 96.960938 202.691406 C 97.914062 207.691406 98.386719 210.191406 99.34375 215.191406 C 101.121094 214.851562 102.011719 214.6875 103.796875 214.367188 C 103.5 212.714844 103.351562 211.890625 103.054688 210.238281 C 104.246094 211.730469 104.835938 212.476562 106.007812 213.980469 C 108.046875 213.628906 109.066406 213.457031 111.109375 213.132812 Z M 123.445312 211.371094 C 123.269531 210.003906 123.183594 209.320312 123.011719 207.949219 C 121.347656 208.160156 120.515625 208.269531 118.851562 208.5 C 118.777344 207.96875 118.742188 207.703125 118.667969 207.171875 C 120.144531 206.96875 120.882812 206.871094 122.359375 206.683594 C 122.195312 205.390625 122.113281 204.742188 121.949219 203.449219 C 120.457031 203.640625 119.714844 203.738281 118.226562 203.945312 C 118.160156 203.457031 118.125 203.214844 118.058594 202.730469 C 119.703125 202.503906 120.527344 202.394531 122.175781 202.1875 C 122 200.816406 121.914062 200.132812 121.742188 198.765625 C 118.226562 199.207031 116.472656 199.449219 112.96875 199.972656 C 113.71875 205.007812 114.09375 207.523438 114.847656 212.558594 C 118.28125 212.046875 120 211.808594 123.445312 211.371094 Z M 137.101562 205.425781 C 137.023438 204.5625 136.703125 203.855469 136.132812 203.292969 C 135.566406 202.738281 134.824219 202.402344 133.910156 202.292969 C 133.792969 202.28125 133.632812 202.261719 133.417969 202.234375 C 132.09375 202.089844 131.414062 201.84375 131.378906 201.488281 C 131.355469 201.296875 131.429688 201.140625 131.597656 201.015625 C 131.765625 200.890625 132.011719 200.8125 132.339844 200.777344 C 132.765625 200.734375 133.21875 200.777344 133.6875 200.902344 C 134.160156 201.027344 134.636719 201.230469 135.117188 201.511719 C 135.5625 200.132812 135.789062 199.445312 136.242188 198.066406 C 135.46875 197.746094 134.703125 197.527344 133.953125 197.40625 C 133.203125 197.285156 132.449219 197.265625 131.695312 197.339844 C 130.050781 197.507812 128.769531 198.078125 127.855469 199.042969 C 126.9375 200.007812 126.566406 201.171875 126.722656 202.53125 C 126.824219 203.40625 127.164062 204.105469 127.742188 204.636719 C 128.320312 205.164062 129.105469 205.492188 130.09375 205.617188 C 130.261719 205.632812 130.496094 205.660156 130.796875 205.691406 C 131.726562 205.777344 132.207031 206 132.242188 206.351562 C 132.265625 206.554688 132.1875 206.722656 132.019531 206.859375 C 131.851562 206.996094 131.609375 207.082031 131.292969 207.117188 C 130.839844 207.164062 130.347656 207.109375 129.804688 206.957031 C 129.265625 206.800781 128.640625 206.535156 127.925781 206.152344 C 127.492188 207.636719 127.28125 208.378906 126.859375 209.863281 C 127.753906 210.238281 128.628906 210.496094 129.488281 210.640625 C 130.351562 210.785156 131.195312 210.8125 132.03125 210.726562 C 133.660156 210.554688 134.9375 209.984375 135.875 209 C 136.816406 208.015625 137.226562 206.828125 137.101562 205.425781 Z M 147.59375 200.507812 C 148.636719 200.441406 149.160156 200.410156 150.207031 200.355469 C 150.113281 198.691406 150.070312 197.859375 149.976562 196.199219 C 145.96875 196.417969 143.964844 196.554688 139.960938 196.878906 C 140.09375 198.539062 140.160156 199.367188 140.292969 201.027344 C 141.339844 200.941406 141.859375 200.902344 142.90625 200.824219 C 143.15625 204.242188 143.285156 205.949219 143.535156 209.363281 C 145.371094 209.226562 146.289062 209.164062 148.125 209.050781 C 147.910156 205.632812 147.804688 203.925781 147.59375 200.507812 Z M 166.753906 208.34375 C 164.894531 203.28125 163.933594 200.753906 161.957031 195.714844 C 159.84375 195.765625 158.785156 195.800781 156.671875 195.882812 C 154.984375 201.039062 154.171875 203.625 152.605469 208.796875 C 154.578125 208.699219 155.566406 208.65625 157.539062 208.582031 C 157.671875 207.9375 157.738281 207.613281 157.875 206.96875 C 159.265625 206.917969 159.960938 206.894531 161.355469 206.855469 C 161.539062 207.492188 161.628906 207.808594 161.808594 208.441406 C 163.785156 208.390625 164.773438 208.371094 166.753906 208.34375 Z M 181.929688 195.699219 C 180.03125 195.65625 179.082031 195.636719 177.183594 195.613281 C 177.148438 198.386719 177.132812 199.773438 177.097656 202.546875 C 177.085938 203.335938 176.980469 203.882812 176.777344 204.195312 C 176.570312 204.503906 176.238281 204.65625 175.773438 204.652344 C 175.304688 204.648438 174.972656 204.496094 174.78125 204.1875 C 174.589844 203.882812 174.492188 203.328125 174.5 202.523438 C 174.515625 199.75 174.523438 198.363281 174.539062 195.589844 C 172.640625 195.578125 171.691406 195.578125 169.792969 195.589844 C 169.808594 198.347656 169.820312 199.730469 169.835938 202.488281 C 169.839844 203.410156 169.902344 204.160156 170.023438 204.738281 C 170.144531 205.316406 170.335938 205.800781 170.59375 206.1875 C 171.113281 206.976562 171.816406 207.585938 172.699219 208.007812 C 173.585938 208.433594 174.597656 208.648438 175.738281 208.660156 C 176.871094 208.667969 177.882812 208.472656 178.777344 208.0625 C 179.667969 207.65625 180.382812 207.0625 180.914062 206.28125 C 181.1875 205.894531 181.390625 205.40625 181.527344 204.824219 C 181.660156 204.242188 181.738281 203.5 181.761719 202.597656 C 181.828125 199.839844 181.863281 198.460938 181.929688 195.699219 Z M 198.753906 209.214844 C 197.53125 207.054688 196.910156 205.976562 195.652344 203.824219 C 196.421875 203.773438 197.050781 203.46875 197.542969 202.914062 C 198.03125 202.359375 198.308594 201.632812 198.367188 200.730469 C 198.457031 199.347656 198.074219 198.257812 197.210938 197.46875 C 196.347656 196.675781 195.046875 196.230469 193.316406 196.136719 C 190.929688 196.011719 189.734375 195.957031 187.347656 195.867188 C 187.15625 200.953125 187.058594 203.496094 186.867188 208.582031 C 188.667969 208.648438 189.570312 208.6875 191.371094 208.777344 C 191.453125 207.101562 191.496094 206.261719 191.578125 204.585938 C 192.398438 206.308594 192.804688 207.167969 193.605469 208.894531 C 195.664062 209.007812 196.695312 209.074219 198.753906 209.214844 Z M 214.933594 210.660156 C 213.714844 205.40625 213.074219 202.78125 211.734375 197.535156 C 209.625 197.324219 208.570312 197.226562 206.460938 197.046875 C 204.148438 201.957031 203.023438 204.421875 200.828125 209.359375 C 202.796875 209.507812 203.78125 209.585938 205.75 209.757812 C 205.964844 209.132812 206.070312 208.820312 206.28125 208.199219 C 207.671875 208.320312 208.367188 208.382812 209.753906 208.515625 C 209.859375 209.171875 209.910156 209.496094 210.011719 210.148438 C 211.980469 210.339844 212.964844 210.445312 214.933594 210.660156 Z M 233.101562 200.230469 C 231.289062 199.949219 230.378906 199.816406 228.5625 199.558594 C 228.324219 201.25 228.203125 202.09375 227.964844 203.785156 C 227.882812 204.359375 227.828125 204.824219 227.796875 205.183594 C 227.769531 205.539062 227.757812 205.871094 227.769531 206.171875 C 226.542969 203.304688 225.914062 201.875 224.628906 199.023438 C 222.78125 198.777344 221.855469 198.660156 220.003906 198.4375 C 219.394531 203.492188 219.09375 206.019531 218.488281 211.070312 C 220.253906 211.28125 221.136719 211.394531 222.898438 211.625 C 223.140625 209.804688 223.257812 208.894531 223.5 207.078125 C 223.550781 206.675781 223.585938 206.308594 223.605469 205.980469 C 223.625 205.652344 223.628906 205.347656 223.621094 205.058594 C 224.863281 207.886719 225.472656 209.304688 226.664062 212.140625 C 228.46875 212.394531 229.371094 212.527344 231.171875 212.804688 C 231.941406 207.773438 232.328125 205.257812 233.101562 200.230469 Z M 247.421875 202.695312 C 243.460938 201.9375 241.476562 201.585938 237.503906 200.929688 C 237.234375 202.574219 237.097656 203.394531 236.828125 205.035156 C 237.863281 205.207031 238.382812 205.292969 239.417969 205.472656 C 238.835938 208.847656 238.546875 210.535156 237.96875 213.910156 C 239.785156 214.222656 240.695312 214.382812 242.511719 214.71875 C 243.128906 211.347656 243.441406 209.664062 244.058594 206.296875 C 245.09375 206.488281 245.609375 206.585938 246.644531 206.78125 C 246.953125 205.148438 247.109375 204.328125 247.421875 202.695312 Z M 247.421875 202.695312 " fill-opacity="1" fill-rule="nonzero"/><path fill="#f8260c" d="M 281.351562 201.273438 L 281.351562 254.933594 L 267.980469 254.933594 L 267.980469 238.175781 C 267.980469 237.277344 267.253906 236.550781 266.355469 236.550781 L 241.09375 236.550781 C 240.195312 236.550781 239.464844 237.277344 239.464844 238.175781 L 239.464844 254.933594 L 228.417969 254.933594 L 228.417969 238.175781 C 228.417969 237.277344 227.691406 236.550781 226.792969 236.550781 L 201.527344 236.550781 C 200.628906 236.550781 199.902344 237.277344 199.902344 238.175781 L 199.902344 247.523438 C 197.035156 249.367188 194.664062 251.917969 193.042969 254.933594 L 192.414062 254.933594 L 192.414062 247.078125 C 192.414062 235.929688 183.339844 226.855469 172.191406 226.855469 C 161.039062 226.855469 151.96875 235.929688 151.96875 247.078125 L 151.96875 254.933594 L 151.042969 254.933594 C 149.53125 252.121094 147.367188 249.710938 144.753906 247.902344 L 144.753906 238.121094 C 144.753906 237.222656 144.023438 236.496094 143.125 236.496094 L 117.863281 236.496094 C 116.964844 236.496094 116.234375 237.222656 116.234375 238.121094 L 116.234375 254.042969 C 116.058594 254.335938 115.890625 254.632812 115.730469 254.933594 L 105.191406 254.933594 L 105.191406 238.121094 C 105.191406 237.222656 104.460938 236.496094 103.5625 236.496094 L 78.300781 236.496094 C 77.402344 236.496094 76.671875 237.222656 76.671875 238.121094 L 76.671875 254.933594 L 63.03125 254.933594 L 63.03125 201.273438 L 80.992188 201.273438 L 88.941406 228.679688 C 89.171875 229.472656 89.957031 229.964844 90.773438 229.832031 C 113.308594 226.058594 151.949219 224.359375 172.191406 224.359375 C 192.433594 224.359375 231.074219 226.058594 253.609375 229.832031 C 253.699219 229.84375 253.789062 229.851562 253.878906 229.851562 C 254.59375 229.851562 255.234375 229.382812 255.441406 228.679688 L 263.390625 201.273438 Z M 139.535156 273.25 C 138.117188 275.078125 135.894531 276.257812 133.40625 276.257812 C 130.90625 276.257812 128.675781 275.066406 127.257812 273.222656 C 126.085938 274.746094 124.355469 275.8125 122.378906 276.140625 L 122.378906 281.558594 L 144.390625 281.558594 L 144.390625 276.140625 C 142.429688 275.816406 140.707031 274.761719 139.535156 273.25 Z M 216.847656 273.25 C 215.429688 275.078125 213.207031 276.257812 210.71875 276.257812 C 208.21875 276.257812 205.988281 275.066406 204.570312 273.222656 C 203.398438 274.746094 201.667969 275.8125 199.695312 276.140625 L 199.695312 281.558594 L 221.703125 281.558594 L 221.703125 276.140625 C 219.742188 275.816406 218.019531 274.761719 216.847656 273.25 Z M 216.847656 273.25 " fill-opacity="1" fill-rule="nonzero"/><path fill="#ff6e29" d="M 203.578125 84.832031 L 199.800781 84.832031 L 199.800781 79.496094 L 203.578125 79.496094 Z M 245.445312 79.496094 L 217.820312 79.496094 L 217.820312 84.828125 L 228.492188 84.828125 C 228.875 84.828125 229.222656 84.96875 229.5 85.1875 L 238.125 85.1875 C 239.023438 85.1875 239.753906 85.917969 239.753906 86.816406 L 239.753906 150.4375 C 239.753906 151.335938 239.023438 152.0625 238.125 152.0625 L 106.253906 152.0625 C 105.355469 152.0625 104.628906 151.335938 104.628906 150.4375 L 104.628906 86.816406 C 104.628906 85.917969 105.355469 85.1875 106.253906 85.1875 L 173.871094 85.1875 C 174.148438 84.96875 174.496094 84.832031 174.878906 84.832031 L 185.558594 84.832031 L 185.558594 79.496094 L 98.933594 79.496094 L 98.933594 157.757812 L 245.445312 157.757812 Z M 83.8125 95.441406 L 74.738281 105.621094 L 74.738281 182.25 L 83.8125 172.070312 Z M 71.484375 109.269531 L 63.03125 118.75 L 63.03125 195.378906 L 71.484375 185.894531 Z M 95.683594 82.136719 L 87.066406 91.796875 L 87.066406 168.421875 L 95.683594 158.761719 Z M 257.316406 91.796875 L 248.699219 82.136719 L 248.699219 158.761719 L 257.316406 168.421875 Z M 269.644531 105.621094 L 260.566406 95.441406 L 260.566406 172.070312 L 269.644531 182.25 Z M 272.898438 109.269531 L 272.898438 185.898438 L 281.351562 195.378906 L 281.351562 118.75 Z M 255.410156 171.175781 L 246.34375 161.007812 L 98.035156 161.007812 L 88.96875 171.175781 Z M 78.507812 192.605469 C 78.507812 192.578125 78.503906 192.550781 78.503906 192.523438 C 78.503906 192.496094 78.496094 192.46875 78.496094 192.4375 L 78.496094 187.851562 L 74.101562 187.851562 L 65.035156 198.019531 L 80.050781 198.019531 L 78.5625 192.890625 C 78.535156 192.796875 78.519531 192.703125 78.507812 192.605469 Z M 86.070312 174.429688 L 80.230469 180.976562 C 90.980469 178.234375 104.71875 176.039062 118.972656 174.429688 Z M 78.496094 182.921875 L 77 184.597656 L 78.496094 184.597656 Z M 267.378906 184.597656 L 265.882812 182.921875 L 265.882812 184.597656 Z M 265.882812 187.851562 L 265.882812 192.4375 C 265.882812 192.46875 265.878906 192.496094 265.878906 192.523438 C 265.875 192.550781 265.875 192.578125 265.871094 192.605469 C 265.863281 192.703125 265.847656 192.796875 265.820312 192.890625 L 264.332031 198.019531 L 279.347656 198.019531 L 270.28125 187.851562 Z M 225.40625 174.429688 C 239.660156 176.039062 253.398438 178.234375 264.148438 180.976562 L 258.3125 174.429688 Z M 226.867188 124.46875 L 226.867188 109.765625 L 176.820312 109.765625 L 176.820312 124.46875 Z M 185.558594 88.082031 L 176.503906 88.082031 L 176.503906 106.511719 L 226.867188 106.511719 L 226.867188 88.082031 L 217.820312 88.082031 L 217.820312 94.625 C 217.820312 98.550781 214.625 101.746094 210.699219 101.746094 C 206.773438 101.746094 203.578125 98.550781 203.578125 94.625 L 203.578125 88.082031 L 199.800781 88.082031 L 199.800781 94.625 C 199.800781 98.550781 196.605469 101.746094 192.679688 101.746094 C 188.753906 101.746094 185.558594 98.550781 185.558594 94.625 Z M 150.167969 264.386719 L 150.167969 268.503906 C 150.167969 270.984375 148.148438 273.003906 145.664062 273.003906 C 143.183594 273.003906 141.160156 270.984375 141.160156 268.503906 C 141.160156 267.605469 140.433594 266.875 139.535156 266.875 C 138.636719 266.875 137.910156 267.605469 137.910156 268.503906 C 137.910156 270.984375 135.890625 273.003906 133.40625 273.003906 C 130.921875 273.003906 128.902344 270.984375 128.902344 268.503906 C 128.902344 267.605469 128.136719 266.875 127.238281 266.875 C 126.339844 266.875 125.609375 267.605469 125.609375 268.503906 C 125.609375 270.984375 123.589844 273.003906 121.109375 273.003906 C 118.625 273.003906 116.605469 270.984375 116.605469 268.503906 L 116.605469 264.386719 C 116.605469 255.132812 124.132812 247.605469 133.386719 247.605469 C 142.640625 247.605469 150.167969 255.132812 150.167969 264.386719 Z M 133.035156 251.347656 C 131.914062 249.402344 128.4375 249.3125 125.265625 251.140625 C 122.097656 252.96875 120.441406 256.027344 121.5625 257.972656 C 122.683594 259.914062 126.160156 260.007812 129.332031 258.179688 C 132.5 256.347656 134.15625 253.289062 133.035156 251.347656 Z M 227.480469 264.386719 L 227.480469 268.503906 C 227.480469 270.984375 225.460938 273.003906 222.976562 273.003906 C 220.496094 273.003906 218.476562 270.984375 218.476562 268.503906 C 218.476562 267.605469 217.746094 266.875 216.847656 266.875 C 215.949219 266.875 215.222656 267.605469 215.222656 268.503906 C 215.222656 270.984375 213.203125 273.003906 210.71875 273.003906 C 208.234375 273.003906 206.214844 270.984375 206.214844 268.503906 C 206.214844 267.605469 205.449219 266.875 204.550781 266.875 C 203.652344 266.875 202.925781 267.605469 202.925781 268.503906 C 202.925781 270.984375 200.902344 273.003906 198.421875 273.003906 C 195.9375 273.003906 193.917969 270.984375 193.917969 268.503906 L 193.917969 264.386719 C 193.917969 255.132812 201.445312 247.605469 210.699219 247.605469 C 219.953125 247.605469 227.480469 255.132812 227.480469 264.386719 Z M 210.347656 251.347656 C 209.226562 249.402344 205.75 249.3125 202.578125 251.140625 C 199.410156 252.96875 197.753906 256.027344 198.875 257.972656 C 199.996094 259.914062 203.472656 260.007812 206.644531 258.179688 C 209.8125 256.347656 211.46875 253.289062 210.347656 251.347656 Z M 210.347656 251.347656 " fill-opacity="1" fill-rule="nonzero"/><path fill="#f8a80c" d="M 281.351562 258.183594 L 281.351562 270.710938 L 230.410156 270.710938 C 230.617188 270.007812 230.734375 269.269531 230.734375 268.503906 L 230.734375 264.386719 C 230.734375 262.222656 230.382812 260.140625 229.746094 258.183594 Z M 114.339844 258.183594 L 63.03125 258.183594 L 63.03125 270.710938 L 113.675781 270.710938 C 113.46875 270.007812 113.351562 269.269531 113.351562 268.503906 L 113.351562 264.386719 C 113.351562 262.222656 113.699219 260.140625 114.339844 258.183594 Z M 236.5 88.441406 L 230.117188 88.441406 L 230.117188 126.09375 C 230.117188 126.992188 229.390625 127.71875 228.492188 127.71875 L 175.191406 127.71875 C 174.292969 127.71875 173.566406 126.992188 173.566406 126.09375 L 173.566406 109.089844 C 173.371094 108.824219 173.253906 108.496094 173.253906 108.136719 L 173.253906 88.441406 L 107.882812 88.441406 L 107.882812 148.808594 L 236.5 148.808594 Z M 192.679688 98.492188 C 194.8125 98.492188 196.550781 96.757812 196.550781 94.625 L 196.550781 81.914062 C 195.433594 82.636719 194.105469 83.0625 192.679688 83.0625 C 191.253906 83.0625 189.929688 82.636719 188.8125 81.914062 L 188.8125 94.625 C 188.8125 96.757812 190.546875 98.492188 192.679688 98.492188 Z M 210.699219 98.492188 C 212.832031 98.492188 214.566406 96.757812 214.566406 94.625 L 214.566406 81.914062 C 213.453125 82.636719 212.125 83.0625 210.699219 83.0625 C 209.273438 83.0625 207.945312 82.636719 206.832031 81.914062 L 206.832031 94.625 C 206.832031 96.757812 208.566406 98.492188 210.699219 98.492188 Z M 155.222656 247.078125 L 155.222656 270.710938 L 170.5625 270.710938 L 170.5625 230.191406 C 161.96875 231.011719 155.222656 238.269531 155.222656 247.078125 Z M 173.816406 230.191406 L 173.816406 270.710938 L 189.160156 270.710938 L 189.160156 247.078125 C 189.160156 238.269531 182.414062 231.011719 173.816406 230.191406 Z M 125.265625 251.140625 C 122.097656 252.96875 120.441406 256.027344 121.5625 257.972656 C 122.683594 259.914062 126.160156 260.007812 129.332031 258.179688 C 132.5 256.347656 134.15625 253.289062 133.035156 251.347656 C 131.914062 249.402344 128.4375 249.3125 125.265625 251.140625 Z M 202.582031 251.140625 C 199.410156 252.96875 197.753906 256.027344 198.875 257.972656 C 199.996094 259.914062 203.476562 260.007812 206.644531 258.179688 C 209.8125 256.347656 211.472656 253.289062 210.347656 251.347656 C 209.226562 249.402344 205.75 249.3125 202.582031 251.140625 Z M 202.582031 251.140625 " fill-opacity="1" fill-rule="nonzero"/></svg>