<svg xmlns="http://www.w3.org/2000/svg" xmlns:xlink="http://www.w3.org/1999/xlink" width="500" zoomAndPan="magnify" viewBox="0 0 375 374.999991" height="500" preserveAspectRatio="xMidYMid meet" version="1.0"><defs><clipPath id="505471d8fc"><path d="M 4 11.296875 L 370.703125 11.296875 L 370.703125 363.796875 L 4 363.796875 Z M 4 11.296875 " clip-rule="nonzero"/></clipPath></defs><rect x="-37.5" width="450" fill="#ffffff" y="-37.499999" height="449.999989" fill-opacity="1"/><rect x="-37.5" width="450" fill="#ffffff" y="-37.499999" height="449.999989" fill-opacity="1"/><rect x="-37.5" width="450" fill="#fcfcfc" y="-37.499999" height="449.999989" fill-opacity="1"/><g clip-path="url(#505471d8fc)"><path fill="#f06000" d="M 370.546875 91.761719 L 370.546875 343.421875 C 370.546875 344.886719 369.359375 346.074219 367.894531 346.074219 L 279.0625 346.074219 C 277.503906 347.648438 275.527344 348.804688 273.324219 349.386719 L 273.324219 361.125 C 273.324219 362.589844 272.136719 363.777344 270.671875 363.777344 L 229.492188 363.777344 C 228.027344 363.777344 226.839844 362.589844 226.839844 361.125 L 226.839844 349.386719 C 224.636719 348.804688 222.664062 347.648438 221.101562 346.074219 L 153.042969 346.074219 C 151.484375 347.648438 149.507812 348.804688 147.304688 349.386719 L 147.304688 361.125 C 147.304688 362.589844 146.117188 363.777344 144.652344 363.777344 L 103.472656 363.777344 C 102.007812 363.777344 100.820312 362.589844 100.820312 361.125 L 100.820312 349.386719 C 98.617188 348.804688 96.640625 347.648438 95.082031 346.074219 L 6.730469 346.074219 C 5.265625 346.074219 4.078125 344.886719 4.078125 343.421875 L 4.078125 91.761719 C 4.078125 91.113281 4.320312 90.484375 4.753906 89.996094 L 63.277344 24.292969 C 63.296875 24.269531 63.320312 24.25 63.34375 24.230469 C 63.375 24.191406 63.414062 24.15625 63.449219 24.125 C 63.53125 24.046875 63.617188 23.980469 63.703125 23.914062 C 63.742188 23.886719 63.785156 23.855469 63.824219 23.828125 C 63.929688 23.761719 64.042969 23.703125 64.15625 23.648438 C 64.183594 23.636719 64.210938 23.617188 64.238281 23.605469 C 64.378906 23.550781 64.527344 23.503906 64.675781 23.472656 C 64.722656 23.460938 64.769531 23.457031 64.816406 23.449219 C 64.933594 23.429688 65.050781 23.417969 65.167969 23.414062 C 65.199219 23.410156 65.226562 23.402344 65.253906 23.402344 L 209.105469 23.402344 L 209.105469 22.925781 C 209.105469 22.921875 209.105469 22.917969 209.105469 22.917969 C 209.105469 16.507812 214.3125 11.296875 220.710938 11.296875 C 227.113281 11.296875 232.320312 16.507812 232.320312 22.917969 L 232.320312 23.40625 L 238.476562 23.40625 L 238.476562 22.925781 C 238.476562 22.921875 238.476562 22.921875 238.476562 22.917969 C 238.476562 16.507812 243.683594 11.296875 250.082031 11.296875 C 256.484375 11.296875 261.691406 16.507812 261.691406 22.917969 L 261.691406 23.40625 L 309.371094 23.40625 C 309.402344 23.40625 309.433594 23.414062 309.464844 23.414062 C 309.578125 23.417969 309.6875 23.429688 309.800781 23.449219 C 309.851562 23.457031 309.902344 23.460938 309.953125 23.472656 C 310.101562 23.507812 310.242188 23.550781 310.382812 23.605469 C 310.421875 23.621094 310.453125 23.644531 310.492188 23.660156 C 310.59375 23.710938 310.699219 23.765625 310.796875 23.828125 C 310.84375 23.855469 310.886719 23.886719 310.929688 23.921875 C 311.015625 23.980469 311.09375 24.046875 311.171875 24.121094 C 311.210938 24.15625 311.25 24.191406 311.285156 24.230469 C 311.308594 24.253906 311.332031 24.269531 311.351562 24.292969 L 369.875 89.996094 C 370.308594 90.484375 370.546875 91.113281 370.546875 91.761719 Z M 370.546875 91.761719 " fill-opacity="1" fill-rule="nonzero"/></g><path fill="#fffff0" d="M 101.410156 290.238281 L 137.285156 290.238281 L 137.285156 300.566406 C 133.238281 298.761719 128.769531 297.753906 124.0625 297.753906 C 115.269531 297.753906 107.285156 301.253906 101.410156 306.933594 Z M 237.785156 300.167969 C 241.582031 298.617188 245.734375 297.753906 250.082031 297.753906 C 259.34375 297.753906 267.714844 301.640625 273.664062 307.863281 L 273.664062 290.328125 L 237.785156 290.328125 Z M 36.921875 314.925781 L 72.796875 314.925781 L 72.796875 290.238281 L 36.921875 290.238281 Z M 302.273438 290.328125 L 302.273438 315.015625 L 338.152344 315.015625 L 338.152344 290.328125 Z M 334.730469 209.628906 L 334.730469 199.167969 C 294.480469 189.113281 229.148438 183.691406 187.3125 183.691406 C 145.480469 183.691406 80.144531 189.109375 39.894531 199.167969 L 39.894531 209.628906 C 80.660156 199.671875 145.601562 194.308594 187.3125 194.308594 C 229.023438 194.308594 293.964844 199.671875 334.730469 209.628906 Z M 76.058594 233.664062 C 75.609375 233.382812 75.023438 233.304688 74.300781 233.433594 C 73.828125 233.519531 73.59375 233.558594 73.117188 233.644531 C 73.402344 235.242188 73.546875 236.039062 73.832031 237.636719 C 74.300781 237.554688 74.535156 237.511719 75.007812 237.429688 C 75.722656 237.300781 76.246094 237.035156 76.574219 236.628906 C 76.902344 236.21875 77.011719 235.699219 76.902344 235.066406 C 76.789062 234.414062 76.507812 233.945312 76.058594 233.664062 Z M 246.902344 229.03125 C 246.84375 228.378906 246.828125 227.769531 246.851562 227.203125 C 246.796875 227.195312 246.773438 227.195312 246.71875 227.1875 C 246.640625 227.753906 246.511719 228.347656 246.335938 228.976562 C 246.160156 229.605469 245.863281 230.5 245.4375 231.65625 C 245.09375 232.570312 244.921875 233.03125 244.578125 233.945312 C 245.835938 234.054688 246.464844 234.113281 247.722656 234.234375 C 247.554688 233.273438 247.46875 232.789062 247.296875 231.828125 C 247.089844 230.613281 246.957031 229.679688 246.902344 229.03125 Z M 166.757812 226.601562 C 166.621094 225.964844 166.53125 225.359375 166.484375 224.792969 C 166.429688 224.796875 166.402344 224.796875 166.351562 224.796875 C 166.339844 225.367188 166.289062 225.972656 166.191406 226.621094 C 166.097656 227.265625 165.910156 228.191406 165.632812 229.390625 C 165.402344 230.339844 165.289062 230.816406 165.0625 231.765625 C 166.324219 231.722656 166.957031 231.703125 168.21875 231.664062 C 167.929688 230.730469 167.785156 230.265625 167.496094 229.332031 C 167.140625 228.148438 166.894531 227.238281 166.757812 226.601562 Z M 220.535156 224.359375 C 220.054688 224.335938 219.816406 224.324219 219.339844 224.300781 C 219.257812 225.921875 219.21875 226.730469 219.140625 228.351562 C 219.613281 228.375 219.851562 228.386719 220.328125 228.410156 C 221.050781 228.449219 221.617188 228.304688 222.027344 227.980469 C 222.4375 227.65625 222.660156 227.175781 222.695312 226.535156 C 222.730469 225.871094 222.5625 225.355469 222.1875 224.980469 C 221.8125 224.605469 221.261719 224.398438 220.535156 224.359375 Z M 318.574219 268.4375 C 281.261719 262.496094 219.800781 259.816406 187.3125 259.816406 C 154.824219 259.816406 93.367188 262.496094 56.054688 268.4375 L 40.554688 214.929688 C 80.855469 204.980469 145.707031 199.617188 187.3125 199.617188 C 228.917969 199.617188 293.769531 204.980469 334.074219 214.929688 Z M 87.75 246.804688 C 85.011719 243.816406 83.628906 242.332031 80.835938 239.371094 C 82.046875 239.003906 82.9375 238.292969 83.515625 237.230469 C 84.089844 236.167969 84.265625 234.910156 84.03125 233.453125 C 83.671875 231.222656 82.664062 229.632812 80.996094 228.691406 C 79.332031 227.75 77.09375 227.515625 74.300781 228.003906 C 70.449219 228.679688 68.527344 229.03125 64.683594 229.765625 C 66.238281 237.925781 67.011719 242.003906 68.570312 250.160156 C 71.472656 249.609375 72.921875 249.339844 75.828125 248.820312 C 75.34375 246.121094 75.105469 244.773438 74.625 242.078125 C 76.5625 244.515625 77.523438 245.734375 79.433594 248.1875 C 82.757812 247.609375 84.421875 247.335938 87.75 246.804688 Z M 107.855469 243.929688 C 107.574219 241.695312 107.433594 240.578125 107.152344 238.34375 C 104.4375 238.6875 103.082031 238.867188 100.371094 239.238281 C 100.25 238.375 100.191406 237.941406 100.074219 237.074219 C 102.476562 236.746094 103.679688 236.585938 106.089844 236.277344 C 105.820312 234.167969 105.683594 233.113281 105.417969 231.003906 C 102.988281 231.3125 101.777344 231.472656 99.351562 231.808594 C 99.242188 231.015625 99.1875 230.617188 99.078125 229.824219 C 101.761719 229.457031 103.101562 229.28125 105.785156 228.9375 C 105.503906 226.707031 105.363281 225.589844 105.078125 223.355469 C 99.355469 224.078125 96.496094 224.476562 90.78125 225.328125 C 92.007812 233.542969 92.617188 237.648438 93.84375 245.863281 C 99.441406 245.027344 102.246094 244.640625 107.855469 243.929688 Z M 130.117188 234.222656 C 129.992188 232.820312 129.46875 231.660156 128.542969 230.75 C 127.613281 229.835938 126.402344 229.289062 124.914062 229.109375 C 124.726562 229.089844 124.460938 229.058594 124.117188 229.019531 C 121.957031 228.785156 120.847656 228.382812 120.785156 227.800781 C 120.753906 227.488281 120.875 227.234375 121.148438 227.027344 C 121.417969 226.824219 121.824219 226.695312 122.355469 226.640625 C 123.054688 226.570312 123.789062 226.640625 124.554688 226.84375 C 125.324219 227.050781 126.101562 227.382812 126.882812 227.839844 C 127.609375 225.589844 127.976562 224.464844 128.71875 222.214844 C 127.453125 221.695312 126.207031 221.335938 124.988281 221.140625 C 123.765625 220.945312 122.535156 220.90625 121.304688 221.03125 C 118.625 221.304688 116.535156 222.238281 115.042969 223.808594 C 113.554688 225.382812 112.945312 227.285156 113.199219 229.5 C 113.363281 230.929688 113.921875 232.074219 114.863281 232.9375 C 115.808594 233.800781 117.082031 234.332031 118.695312 234.539062 C 118.96875 234.566406 119.347656 234.605469 119.839844 234.660156 C 121.355469 234.804688 122.140625 235.164062 122.199219 235.738281 C 122.234375 236.070312 122.109375 236.34375 121.835938 236.566406 C 121.558594 236.792969 121.164062 236.929688 120.648438 236.984375 C 119.914062 237.058594 119.105469 236.972656 118.226562 236.722656 C 117.34375 236.472656 116.324219 236.035156 115.160156 235.414062 C 114.457031 237.835938 114.109375 239.046875 113.425781 241.46875 C 114.878906 242.078125 116.304688 242.5 117.707031 242.734375 C 119.113281 242.96875 120.492188 243.015625 121.851562 242.875 C 124.507812 242.597656 126.589844 241.667969 128.121094 240.058594 C 129.652344 238.453125 130.324219 236.511719 130.117188 234.222656 Z M 147.21875 226.199219 C 148.921875 226.09375 149.773438 226.042969 151.480469 225.949219 C 151.328125 223.234375 151.253906 221.878906 151.105469 219.164062 C 144.570312 219.527344 141.304688 219.75 134.777344 220.277344 C 134.996094 222.984375 135.105469 224.339844 135.324219 227.046875 C 137.023438 226.910156 137.875 226.84375 139.578125 226.71875 C 139.988281 232.292969 140.195312 235.078125 140.605469 240.652344 C 143.59375 240.429688 145.09375 240.328125 148.082031 240.140625 C 147.738281 234.5625 147.566406 231.777344 147.21875 226.199219 Z M 178.449219 238.984375 C 175.421875 230.722656 173.855469 226.601562 170.632812 218.375 C 167.1875 218.464844 165.464844 218.519531 162.019531 218.652344 C 159.269531 227.070312 157.945312 231.285156 155.390625 239.730469 C 158.605469 239.566406 160.214844 239.496094 163.429688 239.375 C 163.648438 238.324219 163.757812 237.796875 163.976562 236.742188 C 166.246094 236.660156 167.378906 236.625 169.652344 236.558594 C 169.949219 237.597656 170.097656 238.113281 170.390625 239.148438 C 173.613281 239.0625 175.226562 239.03125 178.449219 238.984375 Z M 203.1875 218.355469 C 200.09375 218.28125 198.546875 218.25 195.453125 218.210938 C 195.394531 222.738281 195.367188 225.003906 195.3125 229.527344 C 195.292969 230.8125 195.121094 231.710938 194.789062 232.21875 C 194.457031 232.722656 193.910156 232.972656 193.152344 232.964844 C 192.386719 232.957031 191.847656 232.707031 191.535156 232.207031 C 191.222656 231.710938 191.066406 230.804688 191.074219 229.488281 C 191.101562 224.964844 191.113281 222.699219 191.140625 218.171875 C 188.046875 218.15625 186.5 218.15625 183.40625 218.175781 C 183.433594 222.679688 183.445312 224.929688 183.472656 229.433594 C 183.480469 230.9375 183.585938 232.160156 183.78125 233.105469 C 183.980469 234.046875 184.289062 234.835938 184.710938 235.46875 C 185.558594 236.761719 186.699219 237.75 188.144531 238.441406 C 189.585938 239.132812 191.234375 239.484375 193.09375 239.503906 C 194.945312 239.519531 196.59375 239.199219 198.046875 238.53125 C 199.503906 237.867188 200.667969 236.898438 201.535156 235.621094 C 201.980469 234.988281 202.3125 234.199219 202.53125 233.246094 C 202.75 232.296875 202.878906 231.085938 202.914062 229.609375 C 203.023438 225.109375 203.078125 222.859375 203.1875 218.355469 Z M 230.609375 240.40625 C 228.617188 236.882812 227.605469 235.125 225.554688 231.613281 C 226.8125 231.527344 227.839844 231.03125 228.636719 230.128906 C 229.433594 229.222656 229.882812 228.035156 229.980469 226.5625 C 230.128906 224.308594 229.503906 222.53125 228.097656 221.238281 C 226.6875 219.949219 224.566406 219.21875 221.746094 219.070312 C 217.855469 218.863281 215.910156 218.777344 212.019531 218.628906 C 211.703125 226.929688 211.546875 231.078125 211.234375 239.375 C 214.171875 239.488281 215.640625 239.550781 218.578125 239.695312 C 218.710938 236.960938 218.78125 235.59375 218.914062 232.855469 C 220.253906 235.664062 220.914062 237.070312 222.21875 239.886719 C 225.578125 240.074219 227.253906 240.175781 230.609375 240.40625 Z M 256.988281 242.769531 C 254.996094 234.195312 253.953125 229.910156 251.765625 221.347656 C 248.332031 221.007812 246.613281 220.847656 243.175781 220.554688 C 239.40625 228.566406 237.570312 232.585938 233.988281 240.648438 C 237.203125 240.886719 238.808594 241.015625 242.015625 241.292969 C 242.363281 240.273438 242.535156 239.765625 242.882812 238.75 C 245.148438 238.949219 246.277344 239.050781 248.542969 239.273438 C 248.710938 240.335938 248.792969 240.867188 248.960938 241.933594 C 252.171875 242.246094 253.777344 242.414062 256.988281 242.769531 Z M 286.597656 225.746094 C 283.640625 225.292969 282.164062 225.074219 279.203125 224.652344 C 278.8125 227.410156 278.617188 228.789062 278.226562 231.546875 C 278.09375 232.484375 278.003906 233.242188 277.953125 233.828125 C 277.90625 234.414062 277.890625 234.949219 277.910156 235.441406 C 275.90625 230.765625 274.882812 228.433594 272.789062 223.773438 C 269.773438 223.375 268.265625 223.1875 265.246094 222.824219 C 264.257812 231.070312 263.765625 235.191406 262.777344 243.4375 C 265.65625 243.785156 267.09375 243.964844 269.96875 244.34375 C 270.359375 241.375 270.554688 239.890625 270.945312 236.921875 C 271.03125 236.261719 271.089844 235.667969 271.121094 235.132812 C 271.152344 234.597656 271.160156 234.097656 271.140625 233.628906 C 273.171875 238.242188 274.164062 240.554688 276.105469 245.183594 C 279.046875 245.601562 280.515625 245.816406 283.453125 246.269531 C 284.710938 238.058594 285.339844 233.953125 286.597656 225.746094 Z M 309.941406 229.765625 C 303.484375 228.535156 300.253906 227.957031 293.777344 226.890625 C 293.335938 229.570312 293.113281 230.910156 292.671875 233.589844 C 294.363281 233.871094 295.207031 234.011719 296.894531 234.300781 C 295.949219 239.808594 295.476562 242.5625 294.53125 248.070312 C 297.496094 248.582031 298.976562 248.84375 301.9375 249.390625 C 302.945312 243.894531 303.449219 241.144531 304.460938 235.648438 C 306.144531 235.960938 306.988281 236.117188 308.671875 236.4375 C 309.179688 233.769531 309.433594 232.4375 309.941406 229.765625 Z M 309.941406 229.765625 " fill-opacity="1" fill-rule="nonzero"/><path fill="#fffff0" d="M 365.246094 227.445312 L 365.246094 315.019531 L 343.453125 315.019531 L 343.453125 287.671875 C 343.453125 286.207031 342.265625 285.019531 340.800781 285.019531 L 299.621094 285.019531 C 298.15625 285.019531 296.972656 286.207031 296.972656 287.671875 L 296.972656 315.019531 L 278.964844 315.019531 L 278.964844 287.671875 C 278.964844 286.207031 277.777344 285.019531 276.316406 285.019531 L 235.132812 285.019531 C 233.671875 285.019531 232.484375 286.207031 232.484375 287.671875 L 232.484375 302.929688 C 227.808594 305.9375 223.941406 310.097656 221.300781 315.019531 L 220.277344 315.019531 L 220.277344 302.203125 C 220.277344 284.003906 205.488281 269.203125 187.3125 269.203125 C 169.140625 269.203125 154.351562 284.003906 154.351562 302.203125 L 154.351562 315.019531 L 152.84375 315.019531 C 150.378906 310.425781 146.847656 306.496094 142.589844 303.542969 L 142.589844 287.582031 C 142.589844 286.117188 141.402344 284.929688 139.9375 284.929688 L 98.757812 284.929688 C 97.292969 284.929688 96.105469 286.117188 96.105469 287.582031 L 96.105469 313.566406 C 95.820312 314.042969 95.542969 314.527344 95.28125 315.019531 L 78.101562 315.019531 L 78.101562 287.582031 C 78.101562 286.117188 76.914062 284.929688 75.449219 284.929688 L 34.269531 284.929688 C 32.804688 284.929688 31.617188 286.117188 31.617188 287.582031 L 31.617188 315.019531 L 9.382812 315.019531 L 9.382812 227.445312 L 38.660156 227.445312 L 51.617188 272.175781 C 51.992188 273.46875 53.273438 274.273438 54.601562 274.054688 C 91.335938 267.898438 154.320312 265.128906 187.3125 265.128906 C 220.308594 265.128906 283.292969 267.898438 320.027344 274.054688 C 320.175781 274.078125 320.320312 274.089844 320.464844 274.089844 C 321.628906 274.089844 322.679688 273.324219 323.011719 272.175781 L 335.96875 227.449219 L 365.246094 227.449219 Z M 134.085938 344.910156 C 131.769531 347.894531 128.152344 349.820312 124.09375 349.820312 C 120.015625 349.820312 116.382812 347.878906 114.070312 344.867188 C 112.160156 347.355469 109.339844 349.09375 106.121094 349.628906 L 106.121094 358.46875 L 142 358.46875 L 142 349.628906 C 138.800781 349.097656 135.996094 347.375 134.085938 344.910156 Z M 260.105469 344.910156 C 257.792969 347.894531 254.171875 349.820312 250.113281 349.820312 C 246.035156 349.820312 242.402344 347.878906 240.089844 344.867188 C 238.179688 347.355469 235.363281 349.09375 232.144531 349.628906 L 232.144531 358.46875 L 268.019531 358.46875 L 268.019531 349.628906 C 264.820312 349.097656 262.015625 347.375 260.105469 344.910156 Z M 260.105469 344.910156 " fill-opacity="1" fill-rule="nonzero"/><path fill="#ff6e29" d="M 238.476562 37.421875 L 232.320312 37.421875 L 232.320312 28.710938 L 238.476562 28.710938 Z M 306.722656 28.710938 L 261.691406 28.710938 L 261.691406 37.421875 L 279.085938 37.421875 C 279.707031 37.421875 280.273438 37.644531 280.726562 38.003906 L 294.789062 38.003906 C 296.253906 38.003906 297.4375 39.191406 297.4375 40.660156 L 297.4375 144.484375 C 297.4375 145.953125 296.253906 147.140625 294.789062 147.140625 L 79.835938 147.140625 C 78.375 147.140625 77.1875 145.953125 77.1875 144.484375 L 77.1875 40.660156 C 77.1875 39.195312 78.375 38.003906 79.835938 38.003906 L 190.054688 38.003906 C 190.503906 37.644531 191.070312 37.421875 191.695312 37.421875 L 209.105469 37.421875 L 209.105469 28.710938 L 67.90625 28.710938 L 67.90625 156.433594 L 306.722656 156.433594 Z M 43.257812 54.742188 L 28.464844 71.347656 L 28.464844 196.402344 L 43.257812 179.792969 Z M 23.164062 77.300781 L 9.382812 92.773438 L 9.382812 217.828125 L 23.164062 202.355469 Z M 62.601562 33.023438 L 48.5625 48.789062 L 48.5625 173.839844 L 62.605469 158.074219 L 62.605469 33.023438 Z M 326.066406 48.789062 L 312.023438 33.023438 L 312.023438 158.074219 L 326.066406 173.839844 Z M 346.160156 71.351562 L 331.367188 54.742188 L 331.367188 179.792969 L 346.160156 196.402344 Z M 351.464844 77.304688 L 351.464844 202.355469 L 365.246094 217.828125 L 365.246094 92.773438 Z M 322.964844 178.335938 L 308.183594 161.742188 L 66.441406 161.742188 L 51.664062 178.335938 Z M 34.613281 213.300781 C 34.605469 213.257812 34.605469 213.214844 34.601562 213.171875 C 34.601562 213.125 34.59375 213.078125 34.59375 213.03125 L 34.59375 205.546875 L 27.425781 205.546875 L 12.648438 222.136719 L 37.121094 222.136719 L 34.699219 213.769531 C 34.652344 213.617188 34.628906 213.460938 34.613281 213.300781 Z M 46.933594 183.644531 L 37.421875 194.324219 C 54.941406 189.851562 77.335938 186.269531 100.570312 183.644531 Z M 34.59375 197.5 L 32.15625 200.234375 L 34.59375 200.234375 Z M 342.472656 200.234375 L 340.035156 197.5 L 340.035156 200.234375 Z M 340.035156 205.546875 L 340.035156 213.03125 C 340.035156 213.078125 340.027344 213.125 340.023438 213.171875 C 340.023438 213.214844 340.019531 213.257812 340.015625 213.304688 C 340 213.460938 339.972656 213.617188 339.929688 213.769531 L 337.503906 222.140625 L 361.980469 222.140625 L 347.199219 205.546875 Z M 274.058594 183.644531 C 297.289062 186.269531 319.683594 189.851562 337.207031 194.324219 L 327.691406 183.644531 Z M 276.433594 102.105469 L 276.433594 78.113281 L 194.859375 78.113281 L 194.859375 102.105469 Z M 209.105469 42.730469 L 194.347656 42.730469 L 194.347656 72.804688 L 276.433594 72.804688 L 276.433594 42.730469 L 261.691406 42.730469 L 261.691406 53.40625 C 261.691406 59.8125 256.484375 65.027344 250.082031 65.027344 C 243.683594 65.027344 238.476562 59.8125 238.476562 53.40625 L 238.476562 42.730469 L 232.320312 42.730469 L 232.320312 53.40625 C 232.320312 59.8125 227.113281 65.027344 220.710938 65.027344 C 214.3125 65.027344 209.105469 59.8125 209.105469 53.40625 Z M 151.417969 330.449219 L 151.417969 337.164062 C 151.417969 341.214844 148.125 344.511719 144.078125 344.511719 C 140.027344 344.511719 136.734375 341.214844 136.734375 337.164062 C 136.734375 335.695312 135.550781 334.507812 134.085938 334.507812 C 132.621094 334.507812 131.433594 335.695312 131.433594 337.164062 C 131.433594 341.214844 128.140625 344.511719 124.09375 344.511719 C 120.046875 344.511719 116.753906 341.214844 116.753906 337.164062 C 116.753906 335.695312 115.503906 334.507812 114.039062 334.507812 C 112.574219 334.507812 111.386719 335.695312 111.386719 337.164062 C 111.386719 341.214844 108.09375 344.511719 104.046875 344.511719 C 100 344.511719 96.707031 341.214844 96.707031 337.164062 L 96.707031 330.449219 C 96.707031 315.347656 108.980469 303.0625 124.0625 303.0625 C 139.148438 303.0625 151.417969 315.347656 151.417969 330.449219 Z M 123.492188 309.167969 C 121.660156 305.996094 115.992188 305.84375 110.828125 308.828125 C 105.664062 311.816406 102.960938 316.804688 104.789062 319.976562 C 106.617188 323.148438 112.285156 323.300781 117.449219 320.3125 C 122.617188 317.328125 125.320312 312.335938 123.492188 309.167969 Z M 277.4375 330.449219 L 277.4375 337.164062 C 277.4375 341.214844 274.144531 344.511719 270.097656 344.511719 C 266.050781 344.511719 262.757812 341.214844 262.757812 337.164062 C 262.757812 335.695312 261.570312 334.507812 260.105469 334.507812 C 258.640625 334.507812 257.453125 335.695312 257.453125 337.164062 C 257.453125 341.214844 254.160156 344.511719 250.113281 344.511719 C 246.066406 344.511719 242.773438 341.214844 242.773438 337.164062 C 242.773438 335.695312 241.523438 334.507812 240.058594 334.507812 C 238.59375 334.507812 237.410156 335.695312 237.410156 337.164062 C 237.410156 341.214844 234.117188 344.511719 230.066406 344.511719 C 226.019531 344.511719 222.726562 341.214844 222.726562 337.164062 L 222.726562 330.449219 C 222.726562 315.347656 235 303.0625 250.082031 303.0625 C 265.164062 303.0625 277.4375 315.347656 277.4375 330.449219 Z M 249.511719 309.167969 C 247.679688 305.996094 242.011719 305.84375 236.847656 308.828125 C 231.683594 311.816406 228.980469 316.804688 230.808594 319.976562 C 232.636719 323.148438 238.304688 323.300781 243.46875 320.3125 C 248.636719 317.328125 251.339844 312.335938 249.511719 309.167969 Z M 249.511719 309.167969 " fill-opacity="1" fill-rule="nonzero"/><path fill="#f8a80c" d="M 365.246094 320.324219 L 365.246094 340.765625 L 282.210938 340.765625 C 282.550781 339.621094 282.738281 338.414062 282.738281 337.164062 L 282.738281 330.449219 C 282.738281 326.917969 282.167969 323.515625 281.128906 320.324219 Z M 93.015625 320.324219 L 9.382812 320.324219 L 9.382812 340.765625 L 91.933594 340.765625 C 91.59375 339.621094 91.40625 338.414062 91.40625 337.164062 L 91.40625 330.449219 C 91.40625 326.917969 91.972656 323.515625 93.015625 320.324219 Z M 292.136719 43.3125 L 281.734375 43.3125 L 281.734375 104.761719 C 281.734375 106.226562 280.546875 107.414062 279.085938 107.414062 L 192.207031 107.414062 C 190.742188 107.414062 189.554688 106.226562 189.554688 104.761719 L 189.554688 77.015625 C 189.238281 76.574219 189.042969 76.042969 189.042969 75.457031 L 189.042969 43.3125 L 82.488281 43.3125 L 82.488281 141.832031 L 292.136719 141.832031 Z M 220.714844 59.71875 C 224.191406 59.71875 227.019531 56.886719 227.019531 53.40625 L 227.019531 32.660156 C 225.199219 33.84375 223.039062 34.539062 220.710938 34.539062 C 218.386719 34.539062 216.226562 33.84375 214.40625 32.660156 L 214.40625 53.40625 C 214.40625 56.886719 217.234375 59.71875 220.714844 59.71875 Z M 250.082031 59.71875 C 253.558594 59.71875 256.386719 56.886719 256.386719 53.40625 L 256.386719 32.660156 C 254.570312 33.84375 252.40625 34.539062 250.082031 34.539062 C 247.757812 34.539062 245.59375 33.84375 243.777344 32.660156 L 243.777344 53.40625 C 243.777344 56.886719 246.605469 59.71875 250.082031 59.71875 Z M 159.65625 302.203125 L 159.65625 340.765625 L 184.664062 340.765625 L 184.664062 274.640625 C 170.652344 275.980469 159.65625 287.828125 159.65625 302.203125 Z M 189.964844 274.640625 L 189.964844 340.765625 L 214.972656 340.765625 L 214.972656 302.203125 C 214.972656 287.828125 203.976562 275.980469 189.964844 274.640625 Z M 110.828125 308.828125 C 105.664062 311.816406 102.960938 316.804688 104.789062 319.976562 C 106.617188 323.148438 112.285156 323.300781 117.449219 320.3125 C 122.617188 317.328125 125.320312 312.335938 123.492188 309.167969 C 121.660156 305.996094 115.992188 305.84375 110.828125 308.828125 Z M 236.847656 308.828125 C 231.683594 311.816406 228.980469 316.804688 230.808594 319.976562 C 232.636719 323.148438 238.304688 323.300781 243.472656 320.3125 C 248.636719 317.328125 251.339844 312.335938 249.511719 309.167969 C 247.683594 305.996094 242.011719 305.84375 236.847656 308.828125 Z M 236.847656 308.828125 " fill-opacity="1" fill-rule="nonzero"/></svg>