<svg width="36" height="36" viewBox="0 0 36 36" fill="none" xmlns="http://www.w3.org/2000/svg">
<path d="M29.8288 32.056L19.8391 22.0875C19.1033 22.694 18.2394 23.1682 17.2474 23.5101C16.2555 23.8519 15.189 24.0228 14.0478 24.0228C11.2449 24.0228 8.87155 23.05 6.92793 21.1044C4.98428 19.1587 4.01245 16.8114 4.01245 14.0625C4.01245 11.3136 4.98529 8.9663 6.93096 7.02065C8.87661 5.075 11.2302 4.10217 13.9916 4.10217C16.753 4.10217 19.1003 5.075 21.0334 7.02065C22.9666 8.9663 23.9332 11.3155 23.9332 14.0681C23.9332 15.1676 23.7688 16.2068 23.44 17.1856C23.1111 18.1644 22.6179 19.0843 21.9603 19.9451L31.9875 29.8973L29.8288 32.056ZM14.0178 21.0522C15.9593 21.0522 17.6021 20.3705 18.9462 19.0072C20.2904 17.6439 20.9625 15.9957 20.9625 14.0625C20.9625 12.1294 20.2893 10.4811 18.9431 9.11783C17.5969 7.75451 15.9551 7.07285 14.0178 7.07285C12.0596 7.07285 10.3977 7.75451 9.03186 9.11783C7.66606 10.4811 6.98316 12.1294 6.98316 14.0625C6.98316 15.9957 7.66503 17.6439 9.02875 19.0072C10.3925 20.3705 12.0555 21.0522 14.0178 21.0522Z" fill="#F06000"/>
</svg>
