<svg xmlns="http://www.w3.org/2000/svg" xmlns:xlink="http://www.w3.org/1999/xlink" width="500" zoomAndPan="magnify" viewBox="0 0 375 374.999991" height="500" preserveAspectRatio="xMidYMid meet" version="1.0"><defs><clipPath id="46df3e1cfc"><path d="M 149.011719 71.109375 L 228.851562 71.109375 L 228.851562 143 L 149.011719 143 Z M 149.011719 71.109375 " clip-rule="nonzero"/></clipPath><clipPath id="df3eb03095"><path d="M 146.351562 309 L 165 309 L 165 336 L 146.351562 336 Z M 146.351562 309 " clip-rule="nonzero"/></clipPath><clipPath id="dff7e21c1b"><path d="M 146.351562 312 L 164 312 L 164 334 L 146.351562 334 Z M 146.351562 312 " clip-rule="nonzero"/></clipPath></defs><path fill="#fde4d4" d="M 176.550781 76.191406 C 176.550781 76.191406 178.9375 72.613281 182.015625 71.484375 C 182.015625 71.484375 181.621094 65.585938 180.921875 63.175781 C 180.21875 60.765625 179.0625 58.144531 178.695312 57.375 C 178.351562 56.660156 175.542969 56.21875 175.542969 52.136719 C 175.542969 48.054688 175.730469 49.675781 175.808594 47.734375 C 175.839844 46.960938 174.964844 39.484375 177.296875 36.480469 C 180.84375 31.914062 188.113281 31.445312 188.113281 31.445312 C 188.113281 31.445312 199.203125 29.960938 202.628906 35.507812 C 205.226562 39.71875 204.953125 43.445312 205.226562 44.730469 C 205.5 46.011719 205.742188 49.242188 205.359375 52.136719 C 205.132812 53.84375 204.261719 55.550781 201.808594 56.328125 C 199.347656 57.105469 199.878906 60.679688 199.363281 63.089844 C 198.980469 64.894531 198.15625 68.570312 198.777344 69.464844 C 199.402344 70.359375 203.382812 72.574219 203.382812 72.574219 C 203.382812 72.574219 198.660156 75.140625 192.65625 76.464844 C 186.648438 77.785156 176.550781 76.191406 176.550781 76.191406 " fill-opacity="1" fill-rule="nonzero"/><path fill="#d97b0b" d="M 183.789062 49.785156 C 183.789062 51.289062 182.5625 52.589844 181.050781 52.6875 C 179.542969 52.789062 178.316406 51.648438 178.316406 50.140625 C 178.316406 48.636719 179.542969 47.332031 181.050781 47.234375 C 182.5625 47.136719 183.789062 48.277344 183.789062 49.785156 " fill-opacity="1" fill-rule="nonzero"/><path fill="#d97b0b" d="M 195.613281 49.785156 C 195.613281 51.289062 196.839844 52.589844 198.351562 52.6875 C 199.863281 52.789062 201.085938 51.648438 201.085938 50.140625 C 201.085938 48.636719 199.863281 47.332031 198.351562 47.234375 C 196.839844 47.136719 195.613281 48.277344 195.613281 49.785156 " fill-opacity="1" fill-rule="nonzero"/><path fill="#431644" d="M 187.9375 29.632812 C 187.9375 29.632812 185.078125 27.558594 183.34375 28.335938 C 181.613281 29.113281 178.738281 29.039062 175.792969 33.359375 C 172.84375 37.675781 173.203125 37.839844 172.945312 40.085938 C 172.683594 42.332031 175.109375 44.664062 174.9375 45.527344 C 174.765625 46.394531 175.371094 46.652344 175.976562 49.070312 C 176.585938 51.492188 175.371094 52.613281 174.589844 52.699219 C 174.589844 52.699219 176.84375 55.277344 178.402344 50.964844 C 179.964844 46.652344 177.625 41.902344 178.75 38.789062 C 179.878906 35.679688 183.433594 34.554688 183.433594 34.554688 C 183.433594 34.554688 187.023438 34.742188 187.855469 33.835938 C 189.597656 31.933594 187.9375 29.632812 187.9375 29.632812 " fill-opacity="1" fill-rule="nonzero"/><path fill="#431644" d="M 182.21875 29.632812 C 182.21875 29.632812 180.222656 27.726562 178.144531 28.164062 C 176.066406 28.59375 173.253906 30.753906 172.925781 32.136719 C 172.597656 33.519531 173.984375 38.617188 173.984375 38.617188 L 182.21875 29.632812 " fill-opacity="1" fill-rule="nonzero"/><path fill="#431644" d="M 191.117188 28.898438 C 189.386719 28.910156 187.984375 30.34375 188.085938 32.066406 C 188.136719 32.917969 188.363281 33.785156 189.007812 34.289062 C 190.566406 35.519531 192.648438 33.902344 195.699219 36.363281 C 198.757812 38.824219 198.105469 40.898438 198.300781 44.335938 C 198.496094 47.769531 200.121094 51.007812 201.679688 51.65625 C 203.242188 52.304688 204.152344 52.109375 204.152344 52.109375 C 204.152344 52.109375 202.527344 51.074219 202.65625 49.453125 C 202.785156 47.835938 204.410156 46.277344 204.929688 45.304688 C 205.449219 44.335938 205.359375 42.507812 205.359375 42.507812 C 205.359375 42.507812 207.417969 41.945312 207.613281 40.34375 C 207.808594 38.742188 208.699219 37.117188 207.921875 33.628906 C 207.140625 30.140625 204.21875 26.125 201.484375 26.710938 C 198.757812 27.292969 198.234375 28.152344 196.871094 28.433594 C 195.507812 28.71875 195.699219 29.753906 195.699219 29.753906 C 195.699219 29.753906 193.34375 28.886719 191.117188 28.898438 " fill-opacity="1" fill-rule="nonzero"/><path fill="#431644" d="M 183.351562 66.296875 C 183.351562 66.296875 186.210938 69.714844 187.898438 70.242188 C 189.589844 70.769531 191.671875 70.882812 192.972656 70.242188 C 194.269531 69.601562 197.976562 64.742188 197.976562 64.742188 C 197.976562 64.742188 194.660156 72.261719 193.035156 72.582031 C 191.410156 72.90625 189.589844 73.421875 187.898438 72.902344 C 186.210938 72.386719 183.351562 66.296875 183.351562 66.296875 " fill-opacity="1" fill-rule="nonzero"/><path fill="#fde4d4" d="M 199.863281 295.175781 C 199.863281 295.175781 201.292969 306.136719 200.796875 310.628906 L 210.59375 309.753906 C 210.59375 309.753906 209.953125 300.304688 210.59375 295.933594 L 199.863281 295.175781 " fill-opacity="1" fill-rule="nonzero"/><path fill="#f8a80c" d="M 201.585938 316.828125 C 201.585938 316.828125 199.402344 311.054688 199.949219 310.394531 C 200.433594 309.8125 208.140625 309.011719 210.816406 308.945312 C 211.230469 308.933594 211.570312 309.269531 211.570312 309.6875 L 211.570312 314.671875 L 201.585938 316.828125 " fill-opacity="1" fill-rule="nonzero"/><path fill="#fde4d4" d="M 154.398438 292.78125 L 154.007812 310.4375 L 163.679688 310.4375 L 164.914062 293.792969 L 154.398438 292.78125 " fill-opacity="1" fill-rule="nonzero"/><path fill="#fde4d4" d="M 163.992188 72.109375 C 163.992188 72.109375 157.574219 72.117188 157.128906 78.328125 C 156.679688 84.542969 156.816406 88.003906 156.816406 88.003906 L 165.394531 82.839844 C 165.394531 82.839844 167.191406 72.964844 163.992188 72.109375 " fill-opacity="1" fill-rule="nonzero"/><path fill="#fde4d4" d="M 214.144531 73.199219 C 214.144531 73.199219 219.253906 72.574219 221.554688 74.945312 C 223.855469 77.316406 223.816406 84.007812 223.660156 86.492188 L 210.050781 83.886719 L 211.921875 73.9375 L 214.144531 73.199219 " fill-opacity="1" fill-rule="nonzero"/><path fill="#d97b0b" d="M 184.628906 139.988281 C 184.628906 139.988281 177.019531 139.757812 171.636719 138.355469 C 166.253906 136.957031 163.445312 135.324219 163.445312 135.324219 C 163.445312 135.324219 156.894531 147.222656 152.914062 165.417969 C 148.9375 183.613281 155.023438 224.667969 154.554688 231.667969 C 154.085938 238.664062 151.980469 264.324219 152.914062 275.289062 C 153.851562 286.25 152.214844 293.308594 152.214844 293.308594 C 152.214844 293.308594 154.847656 295.933594 160.109375 296.109375 C 165.375 296.28125 168.09375 294.359375 168.09375 294.359375 C 168.09375 294.359375 168.125 286.136719 169.53125 275.871094 C 170.933594 265.605469 171.871094 258.375 173.039062 251.378906 C 174.207031 244.378906 176.550781 236.683594 176.902344 226.765625 C 177.253906 216.855469 178.1875 202.507812 179.828125 196.09375 C 181.464844 189.679688 181.347656 181.164062 183.453125 181.28125 C 185.558594 181.394531 185.441406 189.910156 186.023438 194.34375 C 186.609375 198.777344 188.949219 203.90625 190.472656 219.421875 C 191.992188 234.933594 190.707031 235.050781 193.632812 250.445312 C 196.558594 265.839844 197.375 283.335938 197.375 285.316406 C 197.375 287.304688 198.3125 295.253906 198.425781 296.117188 C 198.546875 296.980469 201.820312 298.964844 206.035156 298.847656 C 210.242188 298.734375 212.703125 295.46875 212.703125 295.46875 C 212.703125 295.46875 213.167969 279.605469 213.753906 270.039062 C 214.339844 260.476562 212.351562 250.210938 211.882812 242.28125 C 211.414062 234.347656 212.328125 216.855469 213.859375 207.992188 C 215.390625 199.125 215.976562 172.183594 213.167969 156.4375 C 210.363281 140.691406 208.140625 137.542969 208.140625 137.542969 C 208.140625 137.542969 193.984375 140.882812 184.628906 139.988281 " fill-opacity="1" fill-rule="nonzero"/><g clip-path="url(#46df3e1cfc)"><path fill="#f8a80c" d="M 176.003906 72.109375 C 176.003906 72.109375 165.707031 71.019531 163.992188 72.109375 L 163.992188 82.605469 C 163.992188 82.605469 161.046875 82.488281 160.054688 82.839844 C 159.058594 83.1875 155.082031 85.289062 154.730469 85.929688 C 154.378906 86.574219 154.203125 89.605469 153.96875 93.277344 C 153.734375 96.953125 153.308594 98.625 154.476562 99.324219 C 155.648438 100.023438 150.421875 103.367188 149.875 108.035156 C 149.328125 112.699219 149.328125 115.652344 153.308594 114.71875 C 153.308594 114.71875 154.945312 122.730469 162.355469 125.375 C 162.355469 125.375 163.523438 133.457031 163.445312 135.324219 C 163.367188 137.191406 170.230469 143.179688 186.066406 142.945312 C 201.898438 142.714844 207.046875 137.96875 208.140625 137.542969 C 209.230469 137.113281 210.730469 136.507812 211.316406 133.867188 C 211.902344 131.230469 211.023438 126.695312 212.039062 124.515625 C 213.050781 122.339844 213.363281 123.429688 216.171875 120.550781 C 218.980469 117.675781 225.921875 120.394531 227.40625 115.1875 C 228.886719 109.976562 228.183594 109.277344 228.808594 105.699219 C 229.433594 102.121094 225.453125 95.902344 225.375 90.539062 C 225.296875 85.171875 221.789062 83.148438 218.199219 83.148438 C 214.613281 83.148438 212.503906 82.996094 212.503906 82.996094 C 212.503906 82.996094 212.351562 74.207031 214.144531 73.199219 C 214.144531 73.199219 207.046875 70.910156 203.773438 71.625 C 203.773438 71.625 200.574219 74.132812 193.320312 74.675781 C 186.066406 75.21875 178.734375 76.152344 176.003906 72.109375 " fill-opacity="1" fill-rule="nonzero"/></g><path fill="#f8a80c" d="M 153.011719 315.328125 C 153.011719 315.328125 152.578125 308.996094 153.011719 308.703125 C 153.441406 308.414062 164.851562 308.121094 164.910156 308.46875 C 164.964844 308.820312 164.558594 314.1875 164.558594 314.1875 L 153.011719 315.328125 " fill-opacity="1" fill-rule="nonzero"/><g clip-path="url(#df3eb03095)"><path fill="#37637d" d="M 152.683594 316.519531 C 152.683594 316.519531 152.214844 319.144531 150.574219 320.601562 C 148.9375 322.058594 147.183594 325.382812 146.773438 328.824219 C 146.363281 332.265625 146.714844 335.179688 153.792969 335.296875 C 160.875 335.414062 162.742188 334.832031 163.15625 332.964844 C 163.5625 331.097656 163.328125 326.84375 163.855469 322.933594 C 164.382812 319.027344 164.617188 314.421875 164.558594 314.1875 C 164.5 313.953125 161.867188 313.71875 161.867188 312.789062 C 161.867188 311.855469 160.875 308.996094 158.0625 309.8125 C 155.253906 310.628906 154.144531 312.261719 154.144531 313.3125 C 154.144531 314.363281 152.914062 314.535156 152.683594 316.519531 " fill-opacity="1" fill-rule="nonzero"/></g><path fill="#37637d" d="M 201.472656 317.6875 C 201.472656 317.6875 200.414062 320.308594 200.945312 322.585938 C 201.472656 324.859375 201.292969 327.421875 201.472656 329.875 C 201.644531 332.320312 205.621094 336.582031 212.46875 335.0625 C 219.3125 333.546875 219.019531 333.082031 219.136719 330.921875 C 219.253906 328.765625 216.253906 323.859375 215.144531 319.367188 C 214.03125 314.878906 213.578125 313.953125 212.292969 312.730469 C 211.003906 311.503906 210.011719 308.878906 206.441406 310.046875 C 202.875 311.210938 201.761719 312.789062 201.761719 314.300781 C 201.761719 315.820312 201.472656 317.6875 201.472656 317.6875 " fill-opacity="1" fill-rule="nonzero"/><path fill="#431644" d="M 180.789062 43.726562 L 180.632812 43.671875 C 180.527344 43.585938 180.515625 43.429688 180.601562 43.328125 C 180.644531 43.277344 181.65625 42.097656 183.269531 41.984375 C 184.375 41.902344 185.484375 42.347656 186.5625 43.300781 C 186.660156 43.390625 186.671875 43.546875 186.582031 43.648438 C 186.488281 43.746094 186.335938 43.753906 186.238281 43.667969 C 185.265625 42.800781 184.28125 42.394531 183.304688 42.46875 C 181.894531 42.570312 180.984375 43.628906 180.976562 43.640625 C 180.925781 43.699219 180.855469 43.726562 180.789062 43.726562 " fill-opacity="1" fill-rule="nonzero"/><path fill="#431644" d="M 198.226562 43.726562 C 198.167969 43.726562 198.109375 43.707031 198.0625 43.667969 C 197.09375 42.800781 196.109375 42.398438 195.136719 42.46875 C 193.730469 42.566406 192.8125 43.628906 192.800781 43.640625 C 192.714844 43.742188 192.5625 43.753906 192.457031 43.667969 C 192.355469 43.585938 192.34375 43.429688 192.429688 43.328125 C 192.472656 43.277344 193.484375 42.097656 195.09375 41.984375 C 196.203125 41.902344 197.3125 42.347656 198.386719 43.300781 C 198.488281 43.390625 198.496094 43.546875 198.40625 43.648438 C 198.359375 43.699219 198.292969 43.726562 198.226562 43.726562 " fill-opacity="1" fill-rule="nonzero"/><path fill="#431644" d="M 166.449219 83.179688 L 166.421875 83.179688 L 163.300781 82.832031 C 163.164062 82.816406 163.066406 82.695312 163.085938 82.5625 C 163.097656 82.429688 163.222656 82.335938 163.351562 82.347656 L 166.472656 82.695312 C 166.609375 82.710938 166.703125 82.832031 166.6875 82.964844 C 166.675781 83.089844 166.570312 83.179688 166.449219 83.179688 Z M 213.855469 83.308594 L 213.847656 83.308594 L 207.460938 83.179688 C 207.324219 83.179688 207.21875 83.066406 207.222656 82.933594 C 207.222656 82.800781 207.332031 82.695312 207.464844 82.695312 L 207.472656 82.695312 L 213.859375 82.824219 C 213.992188 82.828125 214.101562 82.9375 214.097656 83.070312 C 214.09375 83.203125 213.988281 83.308594 213.855469 83.308594 Z M 190.035156 100.214844 C 189.582031 100.214844 189.144531 99.945312 188.472656 99.53125 C 187.992188 99.238281 187.398438 98.871094 186.558594 98.441406 C 184.164062 97.214844 183.058594 94.96875 182.460938 93.761719 C 182.332031 93.496094 182.214844 93.261719 182.128906 93.132812 C 181.871094 93.476562 181.46875 95.054688 181.355469 96.214844 C 181.285156 96.945312 181.074219 97.375 180.710938 97.527344 C 180.363281 97.671875 179.949219 97.546875 179.441406 97.140625 C 179.015625 96.804688 178.855469 96.140625 178.699219 95.5 C 178.589844 95.046875 178.453125 94.484375 178.257812 94.410156 C 178.1875 94.386719 178.066406 94.425781 177.914062 94.53125 C 176.722656 95.339844 176.035156 98.25 176.027344 98.28125 C 175.996094 98.410156 175.863281 98.492188 175.734375 98.460938 C 175.605469 98.433594 175.523438 98.300781 175.554688 98.167969 C 175.582031 98.042969 176.289062 95.046875 177.640625 94.125 C 177.9375 93.925781 178.203125 93.867188 178.4375 93.957031 C 178.867188 94.125 179.007812 94.710938 179.171875 95.386719 C 179.304688 95.921875 179.453125 96.527344 179.746094 96.761719 C 180.085938 97.035156 180.359375 97.148438 180.519531 97.082031 C 180.691406 97.007812 180.820312 96.671875 180.871094 96.167969 C 180.871094 96.136719 181.261719 92.847656 182.035156 92.621094 C 182.109375 92.59375 182.304688 92.566406 182.472656 92.777344 C 182.59375 92.925781 182.71875 93.1875 182.898438 93.546875 C 183.46875 94.703125 184.53125 96.855469 186.78125 98.011719 C 187.636719 98.445312 188.242188 98.816406 188.726562 99.117188 C 189.910156 99.84375 190.09375 99.957031 190.964844 99.269531 C 191.484375 98.859375 191.15625 98.15625 190.578125 97.039062 C 189.992188 95.917969 189.335938 94.644531 189.710938 93.328125 C 190.1875 91.660156 191.421875 91.617188 192.234375 91.589844 C 192.785156 91.570312 193.035156 91.539062 193.109375 91.332031 C 193.210938 91.042969 193.160156 90.570312 193.113281 90.109375 C 193.011719 89.191406 192.875 87.925781 194.1875 87.761719 C 195.75 87.5625 196.800781 86.957031 196.8125 86.953125 C 196.925781 86.882812 197.078125 86.917969 197.144531 87.035156 C 197.210938 87.152344 197.175781 87.300781 197.058594 87.367188 C 197.015625 87.398438 195.914062 88.035156 194.246094 88.242188 C 193.492188 88.339844 193.46875 88.894531 193.59375 90.058594 C 193.652344 90.59375 193.707031 91.101562 193.570312 91.492188 C 193.375 92.035156 192.804688 92.054688 192.25 92.074219 C 191.421875 92.101562 190.5625 92.132812 190.179688 93.460938 C 189.855469 94.59375 190.46875 95.773438 191.007812 96.816406 C 191.585938 97.925781 192.128906 98.972656 191.265625 99.648438 C 190.765625 100.046875 190.394531 100.214844 190.035156 100.214844 Z M 152.5 115 C 151.554688 115 151.070312 114.8125 150.996094 114.433594 C 150.878906 113.875 151.816406 113.34375 152.734375 113.035156 C 153.335938 112.832031 153.644531 112.652344 153.722656 112.464844 C 153.816406 112.222656 153.585938 111.78125 153.238281 111.117188 C 153.128906 110.910156 153.011719 110.6875 152.882812 110.433594 C 152.539062 109.75 152.480469 109.257812 152.6875 108.886719 C 153.058594 108.226562 154.175781 108.125 155.863281 107.972656 L 156.371094 107.921875 C 158.902344 107.6875 159.152344 104.269531 159.15625 104.234375 C 159.164062 104.101562 159.277344 104 159.414062 104.007812 C 159.546875 104.019531 159.648438 104.132812 159.640625 104.265625 C 159.640625 104.304688 159.363281 108.132812 156.417969 108.40625 L 155.910156 108.453125 C 154.484375 108.585938 153.359375 108.683594 153.113281 109.121094 C 152.992188 109.339844 153.058594 109.699219 153.320312 110.21875 C 153.441406 110.464844 153.5625 110.691406 153.667969 110.890625 C 154.097656 111.703125 154.355469 112.195312 154.171875 112.644531 C 154.015625 113.042969 153.542969 113.273438 152.890625 113.496094 C 151.890625 113.832031 151.476562 114.230469 151.472656 114.339844 C 151.476562 114.339844 151.695312 114.605469 153.289062 114.476562 C 153.421875 114.46875 153.539062 114.566406 153.550781 114.699219 C 153.558594 114.832031 153.460938 114.953125 153.328125 114.960938 C 153.019531 114.988281 152.742188 115 152.5 115 Z M 226.734375 116.429688 C 226.628906 116.429688 226.527344 116.40625 226.429688 116.359375 C 226.308594 116.300781 226.257812 116.15625 226.316406 116.035156 C 226.375 115.914062 226.519531 115.863281 226.640625 115.921875 C 226.757812 115.976562 226.871094 115.914062 226.929688 115.871094 C 227.074219 115.761719 227.15625 115.578125 227.132812 115.425781 C 227.066406 115.070312 226.6875 114.839844 226.332031 114.761719 C 226.058594 114.703125 225.769531 114.707031 225.460938 114.710938 C 225.300781 114.710938 225.140625 114.710938 224.984375 114.707031 C 224.328125 114.679688 223.847656 114.480469 223.554688 114.121094 L 223.496094 113.972656 C 223.484375 113.34375 224.15625 113.027344 224.828125 112.988281 C 225.3125 112.960938 225.773438 112.894531 225.878906 112.59375 C 225.957031 112.367188 225.757812 112.089844 225.523438 111.972656 C 225.25 111.839844 224.921875 111.832031 224.578125 111.824219 L 224.507812 111.824219 C 223.433594 111.800781 222.359375 111.667969 221.308594 111.421875 C 220.914062 111.332031 220.417969 111.105469 220.203125 110.742188 C 220.09375 110.550781 220.066406 110.34375 220.121094 110.140625 C 220.175781 109.953125 220.292969 109.816406 220.394531 109.695312 C 220.445312 109.632812 220.496094 109.570312 220.539062 109.5 C 220.636719 109.328125 220.601562 109.152344 220.5625 109.03125 C 220.46875 108.765625 220.242188 108.53125 219.976562 108.425781 C 219.550781 108.257812 219.070312 108.292969 218.5625 108.328125 L 218.3125 108.34375 C 217.179688 108.414062 215.554688 108.296875 214.296875 107.328125 C 213.066406 106.382812 212.550781 104.71875 213.101562 103.457031 C 213.21875 103.1875 213.382812 102.929688 213.539062 102.675781 C 213.871094 102.148438 214.183594 101.648438 214.03125 101.148438 C 213.859375 100.589844 213.1875 100.335938 212.535156 100.097656 L 212.421875 100.054688 C 210.195312 99.214844 208.308594 97.515625 207.25 95.390625 C 207.1875 95.269531 207.234375 95.121094 207.355469 95.066406 C 207.476562 95.003906 207.625 95.054688 207.683594 95.171875 C 208.691406 97.191406 210.480469 98.804688 212.59375 99.597656 L 212.707031 99.640625 C 213.394531 99.898438 214.253906 100.21875 214.496094 101.003906 C 214.714844 101.71875 214.328125 102.335938 213.953125 102.933594 C 213.804688 103.171875 213.652344 103.414062 213.546875 103.652344 C 213.082031 104.710938 213.535156 106.128906 214.597656 106.945312 C 215.734375 107.820312 217.226562 107.929688 218.28125 107.859375 L 218.527344 107.84375 C 219.066406 107.800781 219.628906 107.761719 220.160156 107.972656 C 220.550781 108.132812 220.882812 108.476562 221.023438 108.867188 C 221.128906 109.171875 221.109375 109.480469 220.960938 109.738281 C 220.910156 109.832031 220.839844 109.921875 220.769531 110.003906 C 220.6875 110.101562 220.617188 110.1875 220.589844 110.273438 C 220.570312 110.347656 220.582031 110.417969 220.621094 110.492188 C 220.738281 110.683594 221.054688 110.867188 221.421875 110.949219 C 222.433594 111.183594 223.476562 111.316406 224.519531 111.339844 L 224.585938 111.339844 C 224.953125 111.347656 225.367188 111.355469 225.734375 111.535156 C 226.167969 111.746094 226.511719 112.261719 226.335938 112.757812 C 226.109375 113.402344 225.292969 113.449219 224.855469 113.472656 C 224.542969 113.492188 224.066406 113.617188 223.992188 113.882812 C 224.257812 114.136719 224.683594 114.207031 225.003906 114.222656 C 225.15625 114.226562 225.304688 114.226562 225.457031 114.222656 C 225.773438 114.21875 226.105469 114.214844 226.4375 114.285156 C 226.910156 114.390625 227.503906 114.726562 227.609375 115.34375 C 227.667969 115.671875 227.511719 116.042969 227.222656 116.257812 C 227.070312 116.371094 226.902344 116.429688 226.734375 116.429688 Z M 163.695312 135.96875 C 163.558594 135.96875 163.449219 135.859375 163.449219 135.726562 L 163.449219 131.839844 C 163.449219 131.703125 163.558594 131.597656 163.695312 131.597656 C 163.828125 131.597656 163.9375 131.703125 163.9375 131.839844 L 163.9375 135.726562 C 163.9375 135.859375 163.828125 135.96875 163.695312 135.96875 Z M 207.59375 138.128906 C 207.507812 138.128906 207.425781 138.085938 207.382812 138.003906 C 207.316406 137.886719 207.355469 137.738281 207.472656 137.675781 C 208.394531 137.160156 208.953125 136.03125 208.800781 134.992188 C 208.785156 134.859375 208.875 134.738281 209.007812 134.71875 C 209.144531 134.699219 209.265625 134.789062 209.285156 134.921875 C 209.46875 136.175781 208.820312 137.480469 207.710938 138.097656 Z M 166.160156 138.65625 C 166.042969 138.65625 165.9375 138.570312 165.921875 138.453125 L 164.421875 129.371094 C 164.402344 129.238281 164.488281 129.113281 164.625 129.089844 C 164.761719 129.070312 164.882812 129.160156 164.902344 129.292969 L 166.402344 138.375 C 166.421875 138.507812 166.332031 138.632812 166.199219 138.652344 Z M 205.078125 139.511719 L 204.980469 139.488281 C 204.859375 139.433594 204.800781 139.292969 204.855469 139.171875 L 207.640625 132.777344 C 207.695312 132.65625 207.839844 132.601562 207.960938 132.652344 C 208.085938 132.707031 208.144531 132.851562 208.085938 132.972656 L 205.300781 139.363281 C 205.261719 139.453125 205.171875 139.511719 205.078125 139.511719 Z M 168.285156 139.925781 C 168.152344 139.925781 168.042969 139.816406 168.042969 139.679688 L 168.042969 125.878906 C 168.042969 125.742188 168.152344 125.632812 168.285156 125.632812 C 168.421875 125.632812 168.53125 125.742188 168.53125 125.878906 L 168.53125 139.679688 C 168.53125 139.816406 168.421875 139.925781 168.285156 139.925781 Z M 202.519531 140.398438 L 202.464844 140.394531 C 202.335938 140.367188 202.253906 140.234375 202.28125 140.105469 L 204.839844 128.589844 C 204.871094 128.460938 205 128.378906 205.132812 128.40625 C 205.261719 128.433594 205.34375 128.566406 205.316406 128.695312 L 202.757812 140.210938 C 202.730469 140.324219 202.628906 140.398438 202.519531 140.398438 Z M 197.726562 141.972656 L 197.660156 141.964844 C 197.53125 141.925781 197.453125 141.792969 197.492188 141.664062 C 199.257812 135.363281 199.714844 116.371094 199.71875 116.183594 C 199.722656 116.046875 199.828125 115.953125 199.96875 115.945312 C 200.101562 115.949219 200.207031 116.058594 200.207031 116.195312 C 200.199219 116.382812 199.742188 135.4375 197.960938 141.792969 C 197.929688 141.902344 197.832031 141.972656 197.726562 141.972656 " fill-opacity="1" fill-rule="nonzero"/><path fill="#431644" d="M 208.6875 153.191406 C 206.988281 153.191406 204.917969 152.925781 202.886719 151.992188 C 198.261719 149.863281 197.515625 145.691406 197.484375 145.511719 C 197.464844 145.378906 197.554688 145.253906 197.683594 145.234375 C 197.824219 145.210938 197.941406 145.300781 197.96875 145.429688 C 197.972656 145.472656 198.707031 149.535156 203.09375 151.550781 C 207.523438 153.589844 212.316406 152.28125 212.363281 152.265625 C 212.496094 152.230469 212.628906 152.308594 212.664062 152.4375 C 212.699219 152.566406 212.625 152.699219 212.496094 152.734375 C 212.382812 152.765625 210.832031 153.191406 208.6875 153.191406 " fill-opacity="1" fill-rule="nonzero"/><path fill="#431644" d="M 161.390625 150.015625 C 160.085938 150.015625 158.917969 149.726562 158.203125 149.546875 C 157.988281 149.496094 157.742188 149.433594 157.636719 149.421875 C 157.582031 149.453125 157.511719 149.460938 157.445312 149.433594 C 157.320312 149.390625 157.253906 149.253906 157.296875 149.125 C 157.394531 148.847656 157.667969 148.917969 158.324219 149.078125 C 159.738281 149.429688 163.050781 150.25 165.386719 148.09375 C 168.46875 145.25 169.410156 142.886719 169.421875 142.863281 C 169.46875 142.738281 169.613281 142.675781 169.734375 142.726562 C 169.859375 142.773438 169.921875 142.914062 169.875 143.042969 C 169.835938 143.140625 168.882812 145.53125 165.714844 148.453125 C 164.398438 149.667969 162.8125 150.015625 161.390625 150.015625 " fill-opacity="1" fill-rule="nonzero"/><path fill="#fde4d4" d="M 215.078125 57.996094 C 215.078125 57.996094 214.84375 57.21875 213.597656 58.65625 C 212.351562 60.09375 207.59375 67.246094 202.796875 69.425781 C 198 71.605469 195.308594 73.390625 195.425781 76.308594 C 195.542969 79.222656 198.078125 93.023438 198.386719 98.855469 C 198.699219 104.6875 198.699219 111.765625 200.574219 115.03125 C 202.445312 118.296875 204.238281 120.785156 204.707031 122.960938 C 205.175781 125.140625 205.953125 126.226562 207.902344 126.226562 C 209.855469 126.226562 216.015625 122.027344 216.445312 117.285156 C 216.875 112.542969 215.429688 107.914062 211.53125 101.734375 C 207.628906 95.550781 206.304688 90.578125 204.667969 86.535156 C 203.027344 82.488281 203.460938 76.890625 204.082031 75.644531 C 204.707031 74.402344 209.855469 70.632812 211.921875 68.027344 C 213.988281 65.421875 217.925781 63.515625 218.003906 60.757812 C 218.003906 60.757812 220.226562 58.667969 220.304688 57.785156 C 220.382812 56.90625 217.925781 58.074219 217.925781 58.074219 C 217.925781 58.074219 218.589844 55.507812 218.277344 55.15625 C 217.964844 54.808594 215.9375 56.984375 215.078125 57.996094 " fill-opacity="1" fill-rule="nonzero"/><g clip-path="url(#dff7e21c1b)"><path fill="#f8a80c" d="M 155.714844 316.148438 C 156.386719 316.148438 157.238281 316.261719 158.230469 316.644531 C 158.363281 316.324219 158.5 316.007812 158.636719 315.703125 C 157.003906 315.003906 155.75 315.078125 155.09375 315.203125 C 155.074219 315.496094 155.046875 315.832031 155.011719 316.191406 C 155.214844 316.164062 155.449219 316.148438 155.714844 316.148438 Z M 155.425781 317.660156 C 156.03125 317.660156 156.78125 317.753906 157.652344 318.054688 C 157.78125 317.730469 157.910156 317.410156 158.042969 317.09375 C 156.679688 316.574219 155.605469 316.597656 154.960938 316.695312 C 154.925781 317.015625 154.886719 317.351562 154.847656 317.691406 C 155.019531 317.671875 155.214844 317.660156 155.425781 317.660156 Z M 154.929688 319.125 C 155.496094 319.125 156.214844 319.230469 157.050781 319.59375 C 157.1875 319.242188 157.328125 318.875 157.472656 318.507812 C 156.316406 318.113281 155.390625 318.109375 154.785156 318.1875 C 154.746094 318.507812 154.707031 318.824219 154.664062 319.132812 C 154.75 319.125 154.835938 319.125 154.929688 319.125 Z M 154.6875 320.527344 C 155.195312 320.527344 155.828125 320.617188 156.558594 320.898438 C 156.65625 320.628906 156.761719 320.34375 156.875 320.046875 C 155.917969 319.628906 155.136719 319.574219 154.597656 319.621094 C 154.554688 319.945312 154.515625 320.25 154.476562 320.535156 C 154.542969 320.53125 154.617188 320.527344 154.6875 320.527344 Z M 154.492188 321.824219 C 154.625 321.824219 154.753906 321.828125 154.878906 321.84375 C 155.238281 321.882812 155.648438 322 156.085938 322.171875 C 156.175781 321.933594 156.273438 321.660156 156.386719 321.351562 C 155.570312 321.035156 154.890625 320.984375 154.40625 321.023438 C 154.359375 321.355469 154.320312 321.628906 154.289062 321.828125 C 154.359375 321.824219 154.425781 321.824219 154.492188 321.824219 Z M 163.511719 327.597656 L 163.351562 327.542969 C 163.300781 327.5 159.054688 323.953125 156.175781 322.726562 L 156.148438 322.71875 L 156.101562 322.695312 C 155.628906 322.5 155.195312 322.367188 154.828125 322.328125 C 152.222656 322.039062 147.902344 325.289062 147.859375 325.324219 C 147.753906 325.40625 147.601562 325.382812 147.519531 325.277344 C 147.4375 325.167969 147.457031 325.015625 147.5625 324.9375 C 147.726562 324.8125 151.082031 322.289062 153.789062 321.878906 C 153.828125 321.628906 153.863281 321.371094 153.902344 321.097656 C 153.679688 321.15625 153.550781 321.214844 153.53125 321.222656 C 153.410156 321.28125 153.265625 321.230469 153.207031 321.113281 C 153.144531 320.992188 153.195312 320.847656 153.316406 320.789062 C 153.339844 320.777344 153.570312 320.664062 153.976562 320.589844 C 154.015625 320.300781 154.058594 320.003906 154.097656 319.703125 C 153.898438 319.757812 153.785156 319.808594 153.773438 319.820312 C 153.652344 319.875 153.507812 319.828125 153.445312 319.707031 C 153.386719 319.585938 153.433594 319.441406 153.554688 319.382812 C 153.578125 319.371094 153.792969 319.265625 154.164062 319.195312 C 154.207031 318.890625 154.242188 318.585938 154.28125 318.285156 C 154.105469 318.332031 154.007812 318.375 154 318.375 C 153.882812 318.429688 153.734375 318.375 153.679688 318.253906 C 153.625 318.132812 153.679688 317.988281 153.804688 317.933594 C 153.828125 317.921875 154.015625 317.839844 154.34375 317.769531 C 154.386719 317.4375 154.421875 317.113281 154.457031 316.804688 C 154.351562 316.835938 154.292969 316.863281 154.289062 316.863281 C 154.167969 316.917969 154.023438 316.863281 153.96875 316.742188 C 153.914062 316.617188 153.96875 316.476562 154.089844 316.421875 C 154.113281 316.410156 154.257812 316.347656 154.511719 316.285156 C 154.546875 315.9375 154.574219 315.621094 154.597656 315.34375 L 154.582031 315.347656 C 154.457031 315.40625 154.3125 315.347656 154.257812 315.226562 C 154.203125 315.105469 154.257812 314.960938 154.378906 314.90625 C 154.394531 314.898438 154.480469 314.863281 154.628906 314.820312 C 154.636719 314.546875 154.636719 314.351562 154.613281 314.25 C 154.570312 314.035156 154.503906 313.941406 154.457031 313.929688 C 154.390625 313.90625 154.242188 313.984375 154.171875 314.050781 C 154.070312 314.136719 153.917969 314.128906 153.828125 314.03125 C 153.738281 313.929688 153.746094 313.777344 153.84375 313.6875 C 153.882812 313.652344 154.238281 313.34375 154.605469 313.464844 C 154.851562 313.542969 155.015625 313.777344 155.09375 314.152344 C 155.113281 314.265625 155.121094 314.457031 155.117188 314.703125 C 155.875 314.578125 157.175781 314.546875 158.832031 315.261719 C 159.480469 313.839844 160.070312 312.761719 160.421875 312.65625 C 161.4375 312.339844 162.246094 313.035156 162.28125 313.066406 C 162.378906 313.15625 162.390625 313.308594 162.300781 313.40625 C 162.214844 313.507812 162.058594 313.519531 161.960938 313.429688 C 161.933594 313.410156 161.316406 312.886719 160.566406 313.117188 C 160.347656 313.230469 159.871094 314.128906 159.273438 315.460938 L 159.285156 315.46875 C 159.40625 315.527344 159.453125 315.675781 159.390625 315.796875 C 159.335938 315.910156 159.195312 315.960938 159.078125 315.910156 C 158.949219 316.203125 158.820312 316.511719 158.683594 316.835938 C 158.785156 316.878906 158.890625 316.929688 158.996094 316.980469 C 159.113281 317.042969 159.164062 317.1875 159.105469 317.308594 C 159.042969 317.429688 158.898438 317.476562 158.777344 317.417969 C 158.683594 317.371094 158.589844 317.324219 158.496094 317.285156 C 158.367188 317.589844 158.242188 317.902344 158.113281 318.226562 C 158.304688 318.304688 158.503906 318.394531 158.707031 318.496094 C 158.828125 318.554688 158.878906 318.703125 158.816406 318.824219 C 158.757812 318.941406 158.609375 318.988281 158.488281 318.929688 C 158.296875 318.835938 158.113281 318.753906 157.933594 318.675781 C 157.785156 319.046875 157.640625 319.421875 157.492188 319.804688 C 157.554688 319.835938 157.617188 319.871094 157.683594 319.90625 C 157.800781 319.96875 157.839844 320.117188 157.777344 320.234375 C 157.710938 320.355469 157.5625 320.394531 157.445312 320.328125 L 157.316406 320.261719 C 157.210938 320.535156 157.109375 320.8125 157.007812 321.085938 C 157.148438 321.15625 157.292969 321.230469 157.441406 321.3125 C 157.5625 321.375 157.601562 321.523438 157.535156 321.640625 C 157.472656 321.761719 157.324219 321.800781 157.207031 321.734375 C 157.078125 321.664062 156.957031 321.601562 156.835938 321.546875 C 156.734375 321.816406 156.636719 322.089844 156.539062 322.359375 C 159.476562 323.671875 163.464844 327 163.664062 327.167969 C 163.769531 327.253906 163.785156 327.410156 163.695312 327.511719 C 163.648438 327.566406 163.578125 327.597656 163.511719 327.597656 Z M 154.820312 333.859375 C 149.9375 333.859375 146.792969 331.882812 146.648438 331.789062 C 146.535156 331.714844 146.5 331.566406 146.574219 331.453125 C 146.648438 331.34375 146.796875 331.308594 146.910156 331.382812 C 146.949219 331.40625 150.800781 333.828125 156.460938 333.300781 C 160.015625 332.972656 162.398438 332.152344 163.296875 329.085938 C 163.332031 328.957031 163.46875 328.886719 163.601562 328.921875 C 163.726562 328.960938 163.804688 329.09375 163.765625 329.222656 C 162.792969 332.542969 160.160156 333.445312 156.507812 333.785156 C 155.925781 333.835938 155.363281 333.859375 154.820312 333.859375 " fill-opacity="1" fill-rule="nonzero"/></g><path fill="#f8a80c" d="M 206.488281 315.703125 C 206.625 316.007812 206.757812 316.324219 206.894531 316.644531 C 208.277344 316.109375 209.390625 316.097656 210.113281 316.191406 C 210.078125 315.832031 210.050781 315.5 210.03125 315.207031 C 209.371094 315.082031 208.113281 315.007812 206.488281 315.703125 Z M 207.082031 317.09375 C 207.214844 317.410156 207.34375 317.730469 207.472656 318.054688 C 208.648438 317.648438 209.609375 317.617188 210.277344 317.691406 C 210.234375 317.351562 210.199219 317.015625 210.164062 316.695312 C 209.519531 316.597656 208.445312 316.578125 207.082031 317.09375 Z M 207.652344 318.507812 C 207.796875 318.875 207.941406 319.242188 208.074219 319.59375 C 209.046875 319.175781 209.863281 319.09375 210.457031 319.132812 C 210.417969 318.824219 210.375 318.507812 210.339844 318.191406 C 209.734375 318.117188 208.804688 318.117188 207.652344 318.507812 Z M 208.246094 320.046875 C 208.359375 320.34375 208.46875 320.628906 208.566406 320.898438 C 209.402344 320.574219 210.109375 320.507812 210.648438 320.535156 C 210.609375 320.25 210.566406 319.945312 210.523438 319.621094 C 209.984375 319.574219 209.207031 319.628906 208.246094 320.046875 Z M 208.734375 321.351562 C 208.851562 321.660156 208.949219 321.933594 209.035156 322.171875 C 209.476562 322 209.886719 321.882812 210.242188 321.84375 C 210.433594 321.824219 210.628906 321.816406 210.832031 321.828125 C 210.804688 321.628906 210.765625 321.355469 210.71875 321.023438 C 210.230469 320.988281 209.554688 321.035156 208.734375 321.351562 Z M 201.617188 327.597656 C 201.546875 327.597656 201.476562 327.566406 201.425781 327.511719 C 201.34375 327.410156 201.355469 327.253906 201.457031 327.167969 C 201.660156 327 205.648438 323.671875 208.585938 322.359375 C 208.488281 322.089844 208.386719 321.816406 208.289062 321.546875 C 208.167969 321.601562 208.042969 321.664062 207.917969 321.734375 C 207.800781 321.800781 207.652344 321.761719 207.585938 321.640625 C 207.523438 321.523438 207.566406 321.375 207.679688 321.3125 C 207.832031 321.230469 207.976562 321.15625 208.117188 321.085938 C 208.015625 320.8125 207.910156 320.535156 207.808594 320.261719 L 207.679688 320.328125 C 207.558594 320.394531 207.414062 320.355469 207.347656 320.234375 C 207.28125 320.117188 207.324219 319.96875 207.441406 319.90625 C 207.507812 319.871094 207.566406 319.835938 207.628906 319.804688 C 207.484375 319.421875 207.335938 319.046875 207.191406 318.675781 C 207.011719 318.753906 206.824219 318.835938 206.632812 318.929688 C 206.515625 318.988281 206.367188 318.941406 206.308594 318.824219 C 206.25 318.703125 206.296875 318.554688 206.417969 318.496094 C 206.621094 318.394531 206.816406 318.304688 207.011719 318.226562 C 206.882812 317.902344 206.753906 317.589844 206.628906 317.285156 C 206.535156 317.328125 206.441406 317.371094 206.347656 317.417969 C 206.226562 317.476562 206.078125 317.429688 206.019531 317.308594 C 205.957031 317.1875 206.007812 317.042969 206.128906 316.980469 C 206.234375 316.929688 206.339844 316.878906 206.441406 316.835938 C 206.304688 316.511719 206.175781 316.203125 206.046875 315.910156 C 205.925781 315.960938 205.789062 315.910156 205.730469 315.796875 C 205.671875 315.675781 205.71875 315.527344 205.839844 315.46875 L 205.851562 315.464844 C 205.253906 314.128906 204.773438 313.226562 204.550781 313.117188 C 203.808594 312.886719 203.191406 313.410156 203.167969 313.429688 C 203.066406 313.519531 202.910156 313.507812 202.824219 313.40625 C 202.734375 313.308594 202.742188 313.15625 202.84375 313.066406 C 202.878906 313.035156 203.683594 312.339844 204.699219 312.65625 C 205.050781 312.761719 205.644531 313.839844 206.289062 315.261719 C 207.949219 314.546875 209.25 314.578125 210.007812 314.703125 C 210 314.457031 210.007812 314.265625 210.03125 314.152344 C 210.109375 313.777344 210.273438 313.542969 210.515625 313.464844 C 210.882812 313.347656 211.242188 313.652344 211.277344 313.6875 C 211.378906 313.777344 211.386719 313.929688 211.296875 314.03125 C 211.207031 314.132812 211.050781 314.136719 210.953125 314.046875 C 210.878906 313.984375 210.738281 313.902344 210.667969 313.929688 C 210.617188 313.941406 210.554688 314.035156 210.507812 314.25 C 210.488281 314.351562 210.484375 314.546875 210.496094 314.820312 C 210.644531 314.863281 210.726562 314.898438 210.746094 314.90625 C 210.867188 314.960938 210.921875 315.101562 210.867188 315.226562 C 210.8125 315.347656 210.667969 315.402344 210.546875 315.347656 L 210.527344 315.34375 C 210.546875 315.621094 210.578125 315.9375 210.613281 316.285156 C 210.867188 316.347656 211.011719 316.410156 211.03125 316.421875 C 211.152344 316.476562 211.207031 316.617188 211.152344 316.742188 C 211.101562 316.863281 210.957031 316.917969 210.832031 316.863281 C 210.828125 316.863281 210.773438 316.835938 210.667969 316.804688 C 210.699219 317.113281 210.738281 317.4375 210.777344 317.769531 C 211.105469 317.839844 211.296875 317.921875 211.320312 317.933594 C 211.445312 317.988281 211.5 318.128906 211.445312 318.253906 C 211.390625 318.375 211.246094 318.429688 211.121094 318.375 C 211.121094 318.375 211.019531 318.335938 210.839844 318.285156 C 210.878906 318.585938 210.917969 318.890625 210.960938 319.195312 C 211.328125 319.265625 211.546875 319.371094 211.570312 319.382812 C 211.691406 319.441406 211.738281 319.585938 211.679688 319.707031 C 211.617188 319.828125 211.472656 319.875 211.351562 319.820312 C 211.335938 319.808594 211.222656 319.757812 211.027344 319.707031 C 211.070312 320.003906 211.105469 320.300781 211.148438 320.589844 C 211.550781 320.664062 211.785156 320.777344 211.808594 320.789062 C 211.929688 320.847656 211.976562 320.992188 211.917969 321.113281 C 211.859375 321.230469 211.710938 321.28125 211.589844 321.222656 C 211.578125 321.214844 211.445312 321.15625 211.222656 321.097656 C 211.257812 321.371094 211.296875 321.628906 211.335938 321.878906 C 214.042969 322.289062 217.398438 324.8125 217.558594 324.9375 C 217.667969 325.015625 217.6875 325.167969 217.605469 325.277344 C 217.523438 325.382812 217.371094 325.40625 217.265625 325.324219 C 217.222656 325.289062 212.914062 322.042969 210.296875 322.328125 C 209.929688 322.367188 209.492188 322.5 209.023438 322.695312 L 208.976562 322.71875 L 208.949219 322.726562 C 206.070312 323.953125 201.820312 327.5 201.769531 327.542969 Z M 210.6875 333.886719 C 210.296875 333.886719 209.898438 333.871094 209.488281 333.832031 C 206.074219 333.515625 202.171875 331.652344 201.15625 328.195312 C 201.121094 328.066406 201.191406 327.933594 201.324219 327.894531 C 201.453125 327.859375 201.585938 327.929688 201.625 328.058594 C 202.574219 331.296875 206.28125 333.046875 209.53125 333.347656 C 215.1875 333.875 218.933594 330.410156 218.972656 330.375 C 219.070312 330.28125 219.222656 330.289062 219.320312 330.386719 C 219.410156 330.480469 219.40625 330.636719 219.308594 330.726562 C 219.269531 330.765625 215.878906 333.886719 210.6875 333.886719 " fill-opacity="1" fill-rule="nonzero"/><path fill="#431644" d="M 184.800781 58.210938 C 184.632812 57.691406 184.84375 57.117188 185.324219 56.851562 C 186.113281 56.414062 187.527344 55.855469 189.5625 55.855469 C 191.484375 55.855469 192.851562 56.261719 193.664062 56.605469 C 194.210938 56.835938 194.492188 57.441406 194.316406 58.011719 C 193.851562 59.5 192.589844 62.246094 189.5625 62.246094 C 186.515625 62.246094 185.257812 59.617188 184.800781 58.210938 " fill-opacity="1" fill-rule="nonzero"/><path fill="#d97b0b" d="M 189.554688 58.359375 C 188.371094 58.359375 187.355469 59.078125 186.917969 60.097656 C 186.785156 60.410156 186.886719 60.78125 187.15625 60.992188 C 187.765625 61.464844 188.550781 61.789062 189.558594 61.789062 C 190.5625 61.789062 191.34375 61.449219 191.949219 60.957031 C 192.214844 60.742188 192.308594 60.375 192.171875 60.066406 C 191.730469 59.0625 190.726562 58.359375 189.554688 58.359375 " fill-opacity="1" fill-rule="nonzero"/><path fill="#fde4d4" d="M 189.699219 56.242188 C 189.699219 56.242188 187.808594 56.21875 185.835938 57.117188 C 185.765625 57.148438 185.644531 57.15625 185.628906 57.210938 C 185.574219 57.425781 186.03125 57.777344 186.246094 57.839844 C 186.617188 57.949219 189.140625 57.839844 189.699219 57.839844 C 190.257812 57.839844 192.78125 57.949219 193.148438 57.839844 C 193.515625 57.734375 193.839844 57.417969 193.765625 57.210938 C 193.710938 57.054688 193.46875 57.070312 193.320312 57.007812 C 191.433594 56.21875 189.699219 56.242188 189.699219 56.242188 " fill-opacity="1" fill-rule="nonzero"/><path fill="#431644" d="M 184.75 46.582031 C 184.75 45.910156 184.410156 45.363281 183.984375 45.363281 C 183.5625 45.363281 183.21875 45.910156 183.21875 46.582031 C 183.21875 47.253906 183.5625 47.796875 183.984375 47.796875 C 184.410156 47.796875 184.75 47.253906 184.75 46.582031 " fill-opacity="1" fill-rule="nonzero"/><path fill="#431644" d="M 195.894531 46.582031 C 195.894531 45.910156 195.550781 45.363281 195.128906 45.363281 C 194.703125 45.363281 194.359375 45.910156 194.359375 46.582031 C 194.359375 47.253906 194.703125 47.796875 195.128906 47.796875 C 195.550781 47.796875 195.894531 47.253906 195.894531 46.582031 " fill-opacity="1" fill-rule="nonzero"/><path fill="#431644" d="M 189.140625 53.050781 L 189.066406 53.039062 C 188.839844 52.964844 186.859375 52.292969 187.046875 51.085938 C 187.238281 49.871094 189.949219 49.925781 190.253906 49.9375 C 190.386719 49.941406 190.492188 50.054688 190.488281 50.1875 C 190.484375 50.324219 190.367188 50.429688 190.238281 50.425781 C 189.394531 50.394531 187.625 50.539062 187.527344 51.160156 C 187.421875 51.839844 188.746094 52.425781 189.214844 52.574219 C 189.34375 52.617188 189.414062 52.753906 189.371094 52.882812 C 189.339844 52.984375 189.242188 53.050781 189.140625 53.050781 " fill-opacity="1" fill-rule="nonzero"/><path fill="#431644" d="M 178.074219 55.472656 C 177.976562 55.472656 177.886719 55.417969 177.847656 55.324219 C 177.261719 53.882812 177.0625 51.847656 177.054688 51.761719 C 177.042969 51.625 177.144531 51.511719 177.277344 51.496094 C 177.414062 51.484375 177.53125 51.582031 177.542969 51.714844 C 177.546875 51.734375 177.742188 53.765625 178.300781 55.140625 C 178.351562 55.261719 178.289062 55.40625 178.167969 55.457031 L 178.074219 55.472656 " fill-opacity="1" fill-rule="nonzero"/><path fill="#431644" d="M 200.96875 54.441406 L 200.910156 54.4375 C 200.777344 54.402344 200.699219 54.269531 200.734375 54.140625 C 201.34375 51.800781 201.347656 47.996094 201.347656 47.957031 C 201.347656 47.824219 201.457031 47.714844 201.589844 47.714844 C 201.726562 47.714844 201.835938 47.824219 201.835938 47.957031 C 201.835938 48.117188 201.828125 51.863281 201.203125 54.261719 C 201.179688 54.371094 201.078125 54.441406 200.96875 54.441406 " fill-opacity="1" fill-rule="nonzero"/><path fill="#fde4d4" d="M 159.816406 103.601562 C 159.816406 103.601562 158.296875 105.46875 158.296875 108.617188 C 158.296875 111.765625 158.414062 122.089844 159.058594 123.078125 C 159.703125 124.066406 163.679688 125.878906 165.082031 125.414062 C 166.488281 124.945312 169.296875 118.414062 171.050781 117.597656 C 172.804688 116.78125 174.09375 115.265625 174.914062 104.769531 C 175.730469 94.269531 180.304688 80.390625 181.644531 78.40625 C 182.984375 76.425781 180.234375 71.484375 180.234375 71.484375 C 180.234375 71.484375 178.632812 69.035156 178.289062 66.707031 C 177.996094 64.742188 177.671875 62.558594 176.566406 62.949219 C 176.199219 63.078125 176.433594 64.742188 176.609375 66.511719 C 176.609375 66.511719 172.632812 53.125 171.519531 53.1875 C 170.40625 53.242188 171.167969 55.226562 171.167969 55.226562 C 171.167969 55.226562 168.652344 50.210938 167.304688 50.53125 C 165.960938 50.851562 169.238281 57.46875 169.238281 57.46875 C 169.238281 57.46875 165.289062 50.648438 164.292969 51.234375 C 163.300781 51.8125 165.171875 54.613281 165.171875 54.613281 C 165.171875 54.613281 164.152344 54.828125 164.769531 56.695312 C 165.382812 58.5625 169.09375 63.855469 170 66.074219 C 170.902344 68.289062 171.957031 71.992188 172.980469 73.652344 C 174.003906 75.316406 170.152344 84.941406 168.515625 89.679688 C 166.878906 94.425781 165.316406 98.855469 163.523438 100.179688 C 161.730469 101.503906 159.816406 103.601562 159.816406 103.601562 " fill-opacity="1" fill-rule="nonzero"/><path fill="#431644" d="M 170.835938 62.378906 C 170.734375 62.378906 170.636719 62.3125 170.605469 62.210938 C 170.515625 61.9375 169.007812 59.410156 166.570312 55.445312 C 166.289062 54.984375 165.746094 54.75 165.21875 54.851562 C 165.085938 54.875 164.957031 54.792969 164.933594 54.660156 C 164.90625 54.53125 164.992188 54.402344 165.125 54.375 C 165.851562 54.234375 166.601562 54.558594 166.984375 55.1875 C 169.601562 59.445312 170.972656 61.757812 171.070312 62.066406 C 171.109375 62.195312 171.035156 62.328125 170.910156 62.367188 Z M 173.859375 62.378906 C 173.761719 62.378906 173.667969 62.324219 173.628906 62.226562 L 170.941406 55.3125 C 170.890625 55.1875 170.953125 55.046875 171.082031 55 C 171.203125 54.953125 171.347656 55.011719 171.394531 55.136719 L 174.085938 62.050781 C 174.132812 62.175781 174.074219 62.316406 173.949219 62.367188 Z M 172.4375 62.964844 C 172.351562 62.964844 172.273438 62.921875 172.226562 62.847656 L 169.027344 57.597656 C 168.957031 57.480469 168.996094 57.332031 169.109375 57.261719 C 169.226562 57.191406 169.378906 57.230469 169.445312 57.34375 L 172.644531 62.59375 C 172.714844 62.710938 172.675781 62.859375 172.5625 62.929688 Z M 210.660156 63.808594 L 210.507812 63.753906 C 210.402344 63.671875 210.386719 63.519531 210.46875 63.414062 L 214.890625 57.847656 C 214.972656 57.738281 215.125 57.722656 215.230469 57.804688 C 215.339844 57.890625 215.355469 58.042969 215.269531 58.148438 L 210.851562 63.714844 C 210.800781 63.773438 210.730469 63.808594 210.660156 63.808594 Z M 177.546875 69 C 177.445312 69 177.347656 68.933594 177.3125 68.832031 L 176.273438 65.582031 C 176.230469 65.453125 176.304688 65.316406 176.433594 65.273438 C 176.558594 65.238281 176.695312 65.304688 176.738281 65.433594 L 177.777344 68.679688 C 177.820312 68.808594 177.75 68.945312 177.621094 68.988281 Z M 202.628906 70.777344 C 202.566406 70.777344 202.503906 70.753906 202.457031 70.710938 C 202.359375 70.613281 202.359375 70.460938 202.453125 70.363281 C 204.3125 68.484375 207.078125 66.96875 207.796875 66.765625 C 208.324219 66.617188 210.132812 65.496094 211.328125 64.75 C 211.445312 64.679688 211.558594 64.609375 211.667969 64.542969 L 217.75 57.910156 C 217.839844 57.808594 217.992188 57.804688 218.09375 57.894531 C 218.191406 57.984375 218.199219 58.136719 218.105469 58.238281 L 216.039062 60.492188 C 216.195312 60.367188 216.34375 60.261719 216.476562 60.179688 C 216.910156 59.925781 217.292969 59.863281 217.621094 59.996094 C 218.085938 60.179688 218.234375 60.667969 218.238281 60.6875 C 218.277344 60.816406 218.203125 60.953125 218.074219 60.988281 C 217.945312 61.027344 217.808594 60.957031 217.773438 60.824219 C 217.765625 60.804688 217.671875 60.535156 217.441406 60.445312 C 217.261719 60.375 217.019531 60.425781 216.726562 60.597656 C 216.203125 60.90625 215.402344 61.75 214.628906 62.570312 C 213.820312 63.421875 212.988281 64.304688 212.375 64.679688 C 212.25 64.757812 212.105469 64.84375 211.953125 64.9375 C 211.835938 65.007812 211.714844 65.085938 211.585938 65.164062 C 209.910156 66.203125 208.476562 67.078125 207.929688 67.234375 C 207.324219 67.402344 204.621094 68.863281 202.800781 70.707031 C 202.753906 70.753906 202.691406 70.777344 202.628906 70.777344 Z M 179.867188 77.230469 L 179.800781 77.222656 C 179.671875 77.1875 179.597656 77.050781 179.632812 76.921875 C 179.636719 76.914062 179.886719 75.972656 179.628906 74.679688 C 179.375 73.402344 178.761719 72.441406 176.25 71.035156 C 173.667969 69.582031 171.800781 64.386719 171.722656 64.164062 C 171.675781 64.039062 171.742188 63.898438 171.871094 63.851562 C 171.996094 63.808594 172.136719 63.875 172.179688 64 C 172.199219 64.054688 174.0625 69.246094 176.492188 70.609375 C 179.148438 72.105469 179.828125 73.199219 180.105469 74.585938 C 180.386719 76 180.113281 77.011719 180.101562 77.050781 C 180.070312 77.160156 179.972656 77.230469 179.867188 77.230469 Z M 161.347656 105.976562 L 161.238281 105.953125 C 161.117188 105.890625 161.070312 105.746094 161.128906 105.628906 L 165.195312 97.511719 C 165.253906 97.390625 165.398438 97.34375 165.519531 97.40625 C 165.640625 97.460938 165.691406 97.609375 165.628906 97.730469 L 161.566406 105.84375 C 161.519531 105.929688 161.4375 105.976562 161.347656 105.976562 Z M 156.796875 111.496094 L 156.753906 111.496094 C 156.621094 111.46875 156.53125 111.34375 156.558594 111.210938 C 157.59375 105.695312 160.117188 102.933594 160.226562 102.820312 C 160.3125 102.722656 160.46875 102.714844 160.566406 102.808594 C 160.667969 102.898438 160.671875 103.054688 160.582031 103.152344 C 160.554688 103.179688 158.042969 105.9375 157.035156 111.300781 C 157.015625 111.414062 156.914062 111.496094 156.796875 111.496094 Z M 217.421875 117.847656 L 217.414062 117.847656 C 217.277344 117.839844 217.171875 117.726562 217.179688 117.59375 C 217.457031 111.523438 212.296875 103.453125 212.246094 103.375 C 212.171875 103.261719 212.207031 103.109375 212.320312 103.039062 C 212.429688 102.964844 212.582031 102.996094 212.65625 103.109375 C 212.871094 103.445312 217.949219 111.390625 217.667969 117.617188 C 217.660156 117.746094 217.550781 117.847656 217.421875 117.847656 Z M 164.957031 123.382812 C 164.121094 123.382812 163.296875 123.101562 162.636719 122.585938 C 162.53125 122.503906 162.511719 122.355469 162.59375 122.246094 C 162.675781 122.140625 162.828125 122.121094 162.933594 122.207031 C 163.617188 122.734375 164.5 122.980469 165.355469 122.871094 C 165.488281 122.855469 165.609375 122.949219 165.625 123.082031 C 165.640625 123.214844 165.546875 123.339844 165.414062 123.351562 C 165.261719 123.371094 165.109375 123.382812 164.957031 123.382812 Z M 208.070312 124.140625 C 207.140625 124.140625 206.210938 123.78125 205.53125 123.152344 C 205.429688 123.0625 205.425781 122.90625 205.519531 122.808594 C 205.609375 122.710938 205.761719 122.703125 205.863281 122.796875 C 206.519531 123.398438 207.441406 123.710938 208.324219 123.640625 C 208.472656 123.628906 208.578125 123.730469 208.589844 123.863281 C 208.601562 123.996094 208.5 124.113281 208.367188 124.125 C 208.269531 124.132812 208.171875 124.140625 208.070312 124.140625 Z M 197.230469 145.039062 C 197.121094 145.039062 197.019531 144.964844 196.996094 144.851562 C 196.964844 144.71875 197.046875 144.589844 197.179688 144.5625 C 201.996094 143.515625 209.105469 139.976562 209.175781 139.941406 C 209.292969 139.882812 209.441406 139.925781 209.5 140.046875 C 209.5625 140.167969 209.511719 140.3125 209.390625 140.375 C 209.320312 140.410156 202.15625 143.976562 197.285156 145.035156 Z M 181.296875 179.429688 C 181.164062 179.429688 181.054688 179.320312 181.050781 179.1875 C 181.050781 179.097656 180.871094 169.960938 181.042969 164.316406 C 181.214844 158.699219 178.964844 152.113281 178.46875 151.128906 C 178.175781 150.546875 178.511719 148.4375 178.914062 146.492188 C 167.554688 145.394531 160.828125 140.972656 160.738281 140.910156 C 160.625 140.835938 160.59375 140.683594 160.667969 140.570312 C 160.746094 140.460938 160.898438 140.429688 161.007812 140.507812 C 161.101562 140.570312 167.761719 144.941406 179.015625 146.011719 C 179.335938 144.511719 179.671875 143.199219 179.75 142.890625 C 179.785156 142.761719 179.921875 142.6875 180.050781 142.71875 C 180.179688 142.75 180.257812 142.882812 180.222656 143.011719 C 179.996094 143.898438 179.738281 144.976562 179.503906 146.058594 C 183.890625 146.433594 188.957031 146.304688 194.585938 145.234375 C 194.722656 145.203125 194.847656 145.296875 194.871094 145.425781 C 194.898438 145.558594 194.808594 145.6875 194.675781 145.710938 C 188.976562 146.796875 183.84375 146.921875 179.402344 146.535156 C 178.980469 148.566406 178.6875 150.476562 178.90625 150.910156 C 179.484375 152.070312 181.703125 158.628906 181.53125 164.332031 C 181.359375 169.964844 181.539062 179.089844 181.539062 179.179688 C 181.542969 179.316406 181.4375 179.425781 181.300781 179.429688 Z M 162.761719 238.539062 C 162.519531 238.539062 162.277344 238.535156 162.035156 238.523438 C 161.898438 238.515625 161.796875 238.402344 161.804688 238.269531 C 161.8125 238.132812 161.941406 238.035156 162.058594 238.039062 C 168.660156 238.375 175.1875 233.808594 175.25 233.761719 C 175.363281 233.683594 175.511719 233.710938 175.59375 233.820312 C 175.671875 233.929688 175.644531 234.082031 175.535156 234.15625 C 175.46875 234.203125 169.269531 238.539062 162.761719 238.539062 Z M 167.351562 240.972656 C 165.300781 240.972656 161.480469 240.789062 159.335938 239.527344 C 156.582031 237.902344 155.234375 238.507812 155.222656 238.515625 C 155.101562 238.574219 154.957031 238.523438 154.894531 238.40625 C 154.835938 238.285156 154.886719 238.140625 155.003906 238.082031 C 155.066406 238.050781 156.574219 237.332031 159.585938 239.105469 C 162.421875 240.777344 168.644531 240.460938 168.707031 240.457031 C 168.835938 240.441406 168.957031 240.550781 168.964844 240.6875 C 168.972656 240.820312 168.867188 240.933594 168.734375 240.941406 C 168.660156 240.945312 168.136719 240.972656 167.351562 240.972656 Z M 208.757812 242.757812 L 208.640625 242.726562 C 208.621094 242.714844 206.683594 241.652344 204.382812 242.0625 C 201.921875 242.5 199.183594 241.660156 199.066406 241.621094 C 198.9375 241.582031 198.863281 241.445312 198.90625 241.320312 C 198.949219 241.1875 199.082031 241.117188 199.210938 241.15625 C 199.238281 241.167969 201.957031 242 204.296875 241.585938 C 206.777344 241.140625 208.792969 242.253906 208.878906 242.304688 C 208.996094 242.367188 209.035156 242.515625 208.972656 242.632812 C 208.925781 242.714844 208.84375 242.757812 208.757812 242.757812 Z M 209.96875 246.730469 L 209.84375 246.695312 C 209.808594 246.671875 206.425781 244.625 200.742188 243.355469 C 194.851562 242.039062 194.410156 239.582031 194.390625 239.480469 C 194.371094 239.347656 194.460938 239.21875 194.59375 239.199219 C 194.726562 239.179688 194.851562 239.269531 194.875 239.402344 C 194.875 239.421875 195.332031 241.648438 200.847656 242.882812 C 206.621094 244.171875 210.0625 246.261719 210.097656 246.28125 C 210.210938 246.351562 210.246094 246.5 210.175781 246.617188 C 210.128906 246.691406 210.050781 246.730469 209.96875 246.730469 Z M 161.691406 292.496094 C 155.878906 292.496094 152.710938 290.128906 152.667969 290.09375 C 152.5625 290.011719 152.542969 289.859375 152.621094 289.753906 C 152.707031 289.648438 152.859375 289.628906 152.964844 289.710938 C 153.019531 289.75 158.40625 293.761719 168.109375 291.101562 C 168.238281 291.066406 168.375 291.144531 168.410156 291.269531 C 168.445312 291.402344 168.367188 291.535156 168.238281 291.570312 C 165.785156 292.242188 163.597656 292.496094 161.691406 292.496094 Z M 204.03125 292.496094 C 202.125 292.496094 199.9375 292.242188 197.484375 291.570312 C 197.355469 291.535156 197.28125 291.402344 197.3125 291.269531 C 197.351562 291.144531 197.480469 291.0625 197.613281 291.101562 C 207.3125 293.761719 212.707031 289.75 212.761719 289.710938 C 212.863281 289.628906 213.019531 289.648438 213.101562 289.753906 C 213.179688 289.859375 213.160156 290.011719 213.058594 290.09375 C 213.015625 290.128906 209.847656 292.496094 204.03125 292.496094 " fill-opacity="1" fill-rule="nonzero"/><path fill="#d97b0b" d="M 189.679688 63.679688 C 188.175781 63.679688 187.273438 63.074219 187.234375 63.046875 C 187.125 62.972656 187.097656 62.820312 187.171875 62.710938 C 187.25 62.601562 187.398438 62.574219 187.511719 62.648438 C 187.519531 62.652344 188.335938 63.195312 189.679688 63.195312 C 191.019531 63.195312 191.75 62.660156 191.753906 62.65625 C 191.863281 62.574219 192.015625 62.59375 192.09375 62.703125 C 192.179688 62.808594 192.15625 62.960938 192.050781 63.042969 C 192.015625 63.066406 191.195312 63.679688 189.679688 63.679688 " fill-opacity="1" fill-rule="nonzero"/></svg>